<svg width="18" height="18" viewBox="0 0 18 18" fill="none" xmlns="http://www.w3.org/2000/svg">
<path d="M9 17.125C10.607 17.125 12.1779 16.6485 13.514 15.7557C14.8502 14.8629 15.8916 13.594 16.5065 12.1093C17.1215 10.6247 17.2824 8.99099 16.9689 7.4149C16.6554 5.8388 15.8815 4.39106 14.7452 3.25476C13.6089 2.11846 12.1612 1.34463 10.5851 1.03112C9.00901 0.717618 7.37534 0.87852 5.89069 1.49348C4.40604 2.10844 3.13709 3.14985 2.24431 4.486C1.35152 5.82214 0.874996 7.39303 0.874996 9C0.874996 11.1549 1.73102 13.2215 3.25475 14.7452C4.77849 16.269 6.84511 17.125 9 17.125ZM9 2.125C10.3597 2.125 11.689 2.52822 12.8195 3.28365C13.9501 4.03908 14.8313 5.11281 15.3517 6.36906C15.872 7.6253 16.0082 9.00763 15.7429 10.3412C15.4776 11.6749 14.8228 12.8999 13.8614 13.8614C12.8999 14.8228 11.6749 15.4776 10.3412 15.7429C9.00762 16.0082 7.62529 15.872 6.36905 15.3517C5.11281 14.8313 4.03908 13.9501 3.28364 12.8195C2.52821 11.689 2.125 10.3597 2.125 9C2.125 7.17664 2.84932 5.42796 4.13864 4.13864C5.42795 2.84933 7.17663 2.125 9 2.125Z" fill="black"/>
<path d="M5.56249 13.0625C5.64474 13.063 5.72628 13.0472 5.80243 13.0161C5.87858 12.985 5.94784 12.9392 6.00624 12.8812L9.44374 9.44375C9.50167 9.38535 9.54749 9.31609 9.5786 9.23994C9.6097 9.16379 9.62547 9.08225 9.62499 9V4C9.62499 3.83424 9.55914 3.67527 9.44193 3.55806C9.32472 3.44085 9.16575 3.375 8.99999 3.375C8.83423 3.375 8.67526 3.44085 8.55805 3.55806C8.44084 3.67527 8.37499 3.83424 8.37499 4V8.74375L5.11874 11.9938C5.06016 12.0519 5.01366 12.121 4.98193 12.1971C4.9502 12.2733 4.93387 12.355 4.93387 12.4375C4.93387 12.52 4.9502 12.6017 4.98193 12.6779C5.01366 12.754 5.06016 12.8231 5.11874 12.8812C5.17714 12.9392 5.2464 12.985 5.32255 13.0161C5.3987 13.0472 5.48024 13.063 5.56249 13.0625Z" fill="black"/>
</svg>
