<svg width="18" height="18" viewBox="0 0 18 18" fill="none" xmlns="http://www.w3.org/2000/svg">
<path d="M16.6172 13.6094C15.9969 12.9844 14.4945 12.0723 13.7656 11.7047C12.8164 11.2266 12.7383 11.1875 11.9922 11.7418C11.4945 12.1118 11.1637 12.4422 10.5812 12.318C9.99881 12.1938 8.73318 11.4934 7.62498 10.3887C6.51678 9.28401 5.77576 7.98167 5.65115 7.4012C5.52654 6.82073 5.86248 6.49378 6.22889 5.99495C6.74529 5.29183 6.70623 5.17464 6.26482 4.22542C5.92068 3.48714 4.98201 1.99886 4.35467 1.38167C3.68357 0.718781 3.68357 0.835969 3.25115 1.01566C2.89911 1.16378 2.56137 1.34383 2.24217 1.55355C1.61717 1.96878 1.27029 2.3137 1.02771 2.83206C0.785136 3.35042 0.676151 4.56566 1.92889 6.84144C3.18162 9.11722 4.06053 10.2809 5.87967 12.095C7.69881 13.909 9.09764 14.8844 11.1426 16.0313C13.6722 17.4481 14.6426 17.1719 15.1625 16.9297C15.6824 16.6875 16.0289 16.3438 16.4449 15.7188C16.6552 15.4001 16.8356 15.0628 16.984 14.711C17.164 14.2801 17.2812 14.2801 16.6172 13.6094Z" stroke="black" stroke-miterlimit="10"/>
</svg>
