<svg width="76" height="78" viewBox="0 0 76 78" fill="none" xmlns="http://www.w3.org/2000/svg">
<path d="M75.1276 63.9714L58.578 47.41L59.4564 47.1465C61.0786 46.6663 62.7651 46.1744 63.5382 44.8333C64.3112 43.4981 63.8895 41.8349 63.5382 40.201C63.1751 39.1176 63.0579 37.964 63.1868 36.8337C63.6319 35.8264 64.2878 34.9246 65.1135 34.1984C66.3199 32.992 67.5204 31.6685 67.5204 30.0932C67.5204 28.5179 66.314 27.2295 65.1135 25.988C64.2878 25.2618 63.6319 24.36 63.1868 23.3527C63.0521 22.2166 63.1751 21.0688 63.5382 19.9854C63.9247 18.3515 64.3346 16.6649 63.5382 15.3531C62.7417 14.0414 61.1313 13.526 59.4564 13.0399C58.3554 12.8174 57.313 12.3548 56.4112 11.6813C55.7377 10.7794 55.2751 9.73704 55.0525 8.63608C54.5723 7.01391 54.0804 5.32732 52.7393 4.5543C51.3982 3.78128 49.7409 4.19122 48.1071 4.5543C47.0237 4.91739 45.87 5.03451 44.7397 4.90567C43.7325 4.4606 42.8306 3.80471 42.1044 2.97898C40.8981 1.77846 39.5746 0.572083 37.9992 0.572083C36.4239 0.572083 35.1356 1.77846 33.894 2.97898C33.1679 3.80471 32.266 4.4606 31.2588 4.90567C30.1226 5.04037 28.9748 4.91739 27.8914 4.5543C26.2576 4.15608 24.571 3.75786 23.2592 4.5543C21.9474 5.35075 21.432 6.9612 20.946 8.63608C20.7234 9.73704 20.2608 10.7794 19.5873 11.6813C18.6855 12.3548 17.6431 12.8174 16.5421 13.0399C14.9199 13.5202 13.2334 14.0121 12.4603 15.3531C11.6873 16.6884 12.109 18.3515 12.4603 19.9737C12.8234 21.0629 12.9405 22.2166 12.8117 23.3527C12.3666 24.36 11.7107 25.2618 10.885 25.988C9.67864 27.1944 8.47811 28.5179 8.47811 30.0932C8.47811 31.6685 9.68449 32.9569 10.885 34.1984C11.7107 34.9246 12.3666 35.8264 12.8117 36.8337C12.9464 37.9757 12.8234 39.1293 12.4603 40.2127C12.0738 41.8349 11.6639 43.5215 12.4603 44.8333C13.2568 46.1451 14.8672 46.6604 16.5421 47.1465L17.4205 47.41L0.870902 63.9714C0.701072 64.1295 0.64251 64.3813 0.724497 64.598C0.800628 64.8147 0.988027 64.9669 1.21642 64.9962L11.576 66.2026L12.718 76.5036C12.7414 76.7379 12.9054 76.9311 13.1279 76.9956C13.1924 77.0073 13.2568 77.0073 13.3212 76.9956C13.4852 76.9956 13.6374 76.9311 13.7546 76.814L33.5544 56.8619L33.894 57.1723C35.1004 58.3787 36.4239 59.5792 37.9992 59.5792C39.5746 59.5792 40.8629 58.3728 42.1044 57.1723L42.4441 56.8619L62.2439 76.855C62.3611 76.9721 62.5133 77.0366 62.6773 77.0366C62.7417 77.0483 62.8061 77.0483 62.8706 77.0366C63.0931 76.9721 63.2571 76.773 63.2805 76.5446L64.4869 66.2084L74.8465 65.0021C75.0749 64.9786 75.2681 64.8205 75.3384 64.6038C75.4028 64.3696 75.3208 64.1178 75.1276 63.9714ZM13.7487 75.104L12.6887 65.4764C12.6536 65.2012 12.4369 64.9845 12.1617 64.9493L2.53406 63.8894L18.6503 47.8961L18.8436 47.9898L19.072 48.1245C19.2594 48.2357 19.4292 48.3646 19.5873 48.511C20.2608 49.4128 20.7234 50.4552 20.946 51.5562C21.4262 53.1784 21.9181 54.865 23.2592 55.638C24.5944 56.411 26.2576 55.9893 27.8914 55.638C28.9748 55.2749 30.1285 55.1578 31.2588 55.2866C31.4696 55.3569 31.6745 55.4447 31.8737 55.5501H31.9322C32.143 55.6731 32.3422 55.8078 32.5354 55.9601H32.594L13.7487 75.104ZM37.9992 58.3787C36.9041 58.3787 35.7973 57.3304 34.7256 56.3114C34.4738 56.0596 34.2103 55.8195 33.9409 55.5794C33.7359 55.3979 33.531 55.2163 33.3026 55.0524L33.0976 54.8942C32.9278 54.7654 32.7462 54.6483 32.5588 54.5429L32.3422 54.4082C32.0962 54.2735 31.8385 54.1739 31.5691 54.0978C31.2822 54.0217 30.9894 53.9807 30.6907 53.9748H30.4857C30.2222 53.9748 29.947 53.9748 29.6776 53.9748H29.5019C29.2501 53.9748 28.9865 54.0451 28.7289 54.1095H28.4771L27.5986 54.3145C26.1287 54.6658 24.7467 54.9879 23.8565 54.4726C22.9664 53.9572 22.5096 52.4991 22.0996 51.1053C21.842 49.7876 21.2739 48.5461 20.4365 47.492C20.2139 47.2812 19.9738 47.0879 19.7162 46.9239H19.6576C19.4234 46.7834 19.1774 46.6604 18.9256 46.5491L18.744 46.6194C18.1526 46.3793 17.5377 46.1978 16.8935 46.0045C15.4997 45.5946 14.0532 45.1612 13.5262 44.2477C12.9991 43.3341 13.3329 41.9755 13.6843 40.5055C14.1118 39.2289 14.2289 37.8644 14.0239 36.535C13.5496 35.3228 12.7883 34.2394 11.8103 33.3844C10.7972 32.3127 9.74305 31.2059 9.74305 30.1108C9.74305 29.0157 10.803 27.9088 11.8103 26.8372C12.7941 25.9822 13.5496 24.8988 14.0239 23.6865C14.2289 22.3572 14.1176 20.9927 13.6843 19.716C13.3329 18.2461 12.9991 16.864 13.5262 15.9739C14.0532 15.0838 15.4997 14.627 16.8935 14.217C18.2111 13.9594 19.4526 13.3913 20.5068 12.5539C21.3442 11.5056 21.9181 10.2641 22.1699 8.9406C22.5799 7.54682 23.0132 6.10034 23.9268 5.57328C24.8404 5.04622 26.199 5.38003 27.6689 5.7314C28.9456 6.1589 30.31 6.27603 31.6394 6.07106C32.8516 5.59671 33.935 4.8354 34.79 3.85741C35.8617 2.84429 36.9686 1.79017 38.0637 1.79017C39.1588 1.79017 40.2656 2.85015 41.3373 3.85741C42.1923 4.84126 43.2757 5.59671 44.4879 6.07106C45.8173 6.27603 47.1818 6.16476 48.4584 5.7314C49.9283 5.38003 51.3104 5.05794 52.2005 5.57328C53.0907 6.08863 53.5475 7.54682 53.9574 8.9406C54.2151 10.2582 54.7831 11.4998 55.6206 12.5539C56.6747 13.3855 57.9103 13.9594 59.2338 14.217C60.6276 14.627 62.0741 15.0603 62.6012 15.9739C63.1282 16.8875 62.7944 18.2461 62.443 19.716C62.0155 20.9927 61.8984 22.3572 62.1034 23.6865C62.5777 24.8988 63.339 25.9822 64.317 26.8372C65.3302 27.9088 66.3843 29.0157 66.3843 30.1108C66.3843 31.2059 65.3243 32.3127 64.317 33.3844C63.3332 34.2394 62.5777 35.3228 62.1034 36.535C61.8984 37.8644 62.0097 39.2289 62.443 40.5055C62.7944 41.9755 63.1282 43.3575 62.6012 44.2477C62.0741 45.1378 60.6276 45.5946 59.2338 46.0045C58.6072 46.1978 58.0275 46.3793 57.3657 46.6194L57.1842 46.7014C56.9324 46.801 56.6864 46.9239 56.4521 47.0645C56.1886 47.2226 55.9427 47.4159 55.7201 47.6325C54.8885 48.6867 54.3146 49.9223 54.057 51.2458C53.647 52.6396 53.2137 54.0861 52.3001 54.6131C51.3104 54.9762 50.2211 54.9762 49.2314 54.6131L48.558 54.455C47.5741 54.1681 46.5493 54.01 45.5245 53.9865C45.2082 53.9924 44.892 54.0392 44.5875 54.1212C44.3181 54.1974 44.0604 54.3028 43.8145 54.4316L43.5978 54.5546L43.0414 54.9294L42.8482 55.0641L42.2099 55.6028C41.9463 55.8429 41.6828 56.0831 41.4251 56.3349C40.2012 57.3187 39.0944 58.3787 37.9992 58.3787ZM63.8017 64.9962C63.5264 65.0313 63.3098 65.248 63.2746 65.5233L62.2147 75.1509L43.346 56.0538H43.4162C43.6095 55.9015 43.8086 55.7668 44.0194 55.6438H44.078C44.2712 55.5384 44.4762 55.4447 44.6929 55.3803C45.2317 55.269 45.788 55.269 46.3268 55.3803C46.8831 55.4623 47.5331 55.597 48.0602 55.7434L48.3354 55.802C49.6589 56.2763 51.1054 56.3056 52.4524 55.8839C52.5343 55.8547 52.6163 55.8195 52.6925 55.7785C54.0277 55.0055 54.5196 53.3716 55.0057 51.6968C55.2223 50.5372 55.7026 49.448 56.4112 48.5051C56.5693 48.3587 56.745 48.2299 56.9265 48.1186L57.1666 47.9839L57.3481 47.8902L73.3883 63.9304L63.8017 64.9962Z" fill="#00AEEF"/>
<path d="M62.7651 77.3879C62.7241 77.3879 62.6773 77.3821 62.6363 77.3762C62.3903 77.3703 62.1619 77.2708 61.9863 77.0951L42.4265 57.3421L42.3387 57.4241C41.1909 58.5427 39.762 59.9247 37.9934 59.9247C36.2951 59.9247 34.913 58.6891 33.6481 57.4183L33.5602 57.3421L14.0005 77.06C13.8248 77.2357 13.5964 77.3352 13.3563 77.3411C13.2568 77.3586 13.1572 77.3528 13.0635 77.3352L13.0342 77.3294C12.677 77.2239 12.4193 76.9136 12.3783 76.5388L11.2657 66.5129L1.18128 65.3417C0.824054 65.3007 0.519531 65.0548 0.402407 64.7151C0.27357 64.3637 0.361413 63.9772 0.630799 63.7195L16.7646 47.574L16.4426 47.4744C14.5978 46.9415 12.9991 46.391 12.1675 45.009C11.3067 43.5859 11.7166 41.8466 12.1148 40.1717L12.1324 40.1015C12.472 39.0825 12.5892 37.9874 12.472 36.9215C12.0504 35.9846 11.4238 35.1354 10.6566 34.4561L10.6391 34.4385C9.52052 33.2907 8.1326 31.8559 8.1326 30.0932C8.1326 28.3949 9.37411 27.0128 10.6391 25.742L10.6566 25.7245C11.4238 25.0452 12.0504 24.196 12.472 23.259C12.5892 22.1932 12.472 21.0981 12.1324 20.0791L12.1207 20.044L12.0621 19.7804C11.7166 18.1934 11.3652 16.5537 12.1558 15.1775C12.9932 13.7251 14.7325 13.2098 16.4133 12.712L16.466 12.6944C17.4967 12.4895 18.4864 12.0502 19.3297 11.4295C19.9504 10.5862 20.3896 9.59649 20.5946 8.5658L20.6005 8.53651C21.1334 6.68595 21.6839 5.09307 23.0659 4.25563C24.5124 3.3772 26.3454 3.82227 27.9617 4.21463L27.991 4.22049C29.0041 4.56015 30.0992 4.67728 31.1592 4.56015C32.0962 4.1385 32.9453 3.51189 33.6247 2.74473L33.6422 2.72716C34.8018 1.61448 36.2307 0.220703 37.9992 0.220703C39.6975 0.220703 41.0796 1.46222 42.3504 2.72716L42.368 2.74473C43.0473 3.51189 43.8964 4.1385 44.8334 4.56015C45.8934 4.67728 46.9885 4.56015 48.0016 4.22049L48.0368 4.20878L48.2183 4.16779C49.8405 3.81056 51.5154 3.43576 52.9209 4.24392C54.3732 5.08135 54.8885 6.82065 55.3863 8.50138L55.4039 8.55408C55.6089 9.58477 56.0481 10.5745 56.6688 11.4178C57.5121 12.0385 58.5018 12.4777 59.5325 12.6827L59.5618 12.6886C61.4124 13.2215 63.0052 13.772 63.8427 15.154C64.7035 16.5712 64.2936 18.3105 63.8954 19.9913L63.872 20.0791C63.5323 21.0922 63.4152 22.1873 63.5323 23.2473C63.9539 24.1843 64.5806 25.0334 65.3477 25.7128L65.3653 25.7303C66.4838 26.8781 67.8717 28.3129 67.8717 30.0756C67.8717 31.7739 66.6302 33.156 65.3653 34.4268L65.3477 34.4444C64.5806 35.1237 63.9481 35.9728 63.5323 36.9098C63.4152 37.9698 63.5323 39.0649 63.872 40.078L63.8837 40.119C63.9012 40.2127 63.9247 40.3006 63.9422 40.3943C64.2819 41.9813 64.6391 43.621 63.8427 44.9972C63.0052 46.4496 61.2659 46.9649 59.5852 47.4627L59.2397 47.5681L75.3618 63.702C75.6546 63.9362 75.7776 64.3286 75.6664 64.6917L75.6605 64.7034C75.5434 65.0489 75.2389 65.2949 74.8758 65.3358L64.7914 66.5071L63.6201 76.5739C63.5792 76.9428 63.3215 77.2532 62.9643 77.3586L62.9291 77.3704C62.8706 77.3821 62.8178 77.3879 62.7651 77.3879ZM42.45 56.3759L62.484 76.609C62.5309 76.6559 62.6012 76.6852 62.6714 76.6852H62.7007L62.73 76.691C62.7476 76.6969 62.7651 76.6969 62.7827 76.691C62.8588 76.6618 62.9174 76.5856 62.9233 76.5036L64.1589 65.8863L74.7938 64.6507C74.8875 64.639 74.9636 64.5804 74.9929 64.4926C75.0163 64.4047 74.987 64.3052 74.9109 64.2524L74.8933 64.2407L74.8758 64.2232L57.9221 47.246L59.3861 46.8068C60.938 46.35 62.5426 45.8698 63.2395 44.6634C63.9012 43.5215 63.5909 42.0809 63.2629 40.5524C63.2453 40.4645 63.2278 40.3826 63.2102 40.2947C62.8354 39.1762 62.7124 37.9639 62.853 36.7927L62.8588 36.74L62.8823 36.6931C63.339 35.6507 64.0359 34.6962 64.8909 33.9407C66.0563 32.7753 67.1866 31.5221 67.1866 30.0932C67.1866 28.7229 66.191 27.5868 64.8851 26.2398C64.0301 25.4844 63.339 24.5357 62.8823 23.4933L62.8588 23.4464L62.853 23.3937C62.7124 22.2225 62.8413 21.0102 63.2102 19.8858L63.2219 19.8448C63.585 18.2988 63.9598 16.7001 63.2512 15.5288C62.5485 14.3693 61.0844 13.8657 59.3861 13.3737C58.2442 13.1395 57.149 12.6534 56.2179 11.9565L56.1769 11.9273L56.1476 11.8863C55.4507 10.9551 54.9588 9.86002 54.7304 8.71806L54.7246 8.70634C54.2678 7.15445 53.7876 5.54985 52.5812 4.85296C51.41 4.1795 49.9401 4.50745 48.3823 4.85296L48.2183 4.8881C47.0998 5.2629 45.8876 5.38588 44.7163 5.24533L44.6636 5.23947L44.6168 5.21605C43.5744 4.75926 42.6198 4.06237 41.8643 3.20737C40.6872 2.0537 39.4282 0.923448 37.9992 0.923448C36.6289 0.923448 35.4928 1.919 34.1459 3.22494C33.3904 4.07994 32.4417 4.77097 31.3993 5.22776L31.3525 5.25118L31.2997 5.25704C30.1285 5.39759 28.9163 5.26875 27.7919 4.89981C26.24 4.52501 24.6354 4.1385 23.4349 4.86467C22.2753 5.56742 21.7717 7.03147 21.2798 8.72977C21.0455 9.87173 20.5595 10.9668 19.8626 11.898L19.8333 11.939L19.7923 11.9683C18.8612 12.6651 17.7661 13.1571 16.6241 13.3855L16.6124 13.3913C15.0605 13.8481 13.4559 14.3283 12.759 15.5347C12.0972 16.6825 12.4076 18.1173 12.7414 19.6457L12.7941 19.8917C13.1631 21.0161 13.2919 22.2283 13.1514 23.4054L13.1455 23.4581L13.1221 23.505C12.6653 24.5474 11.9684 25.5019 11.1134 26.2574C9.94802 27.4228 8.81777 28.676 8.81777 30.1049C8.81777 31.4753 9.81333 32.6114 11.1193 33.9583C11.9743 34.7137 12.6653 35.6625 13.1221 36.7049L13.1455 36.7517L13.1514 36.8044C13.2861 37.9815 13.1631 39.1996 12.7941 40.324L12.7883 40.3533C12.4252 41.8993 12.0445 43.4922 12.759 44.6693C13.4617 45.8347 14.9317 46.3325 16.6358 46.8244L18.0764 47.2577L1.11101 64.229C1.04073 64.2934 1.02316 64.393 1.05245 64.475L1.0583 64.4867C1.08758 64.5745 1.16957 64.639 1.25741 64.6507L11.8981 65.8863L13.0694 76.4626C13.0811 76.5505 13.1338 76.6266 13.2158 76.6559C13.2275 76.6559 13.2451 76.6559 13.2568 76.6559L13.2919 76.65H13.3271C13.3973 76.65 13.4617 76.6208 13.5145 76.5739L33.5485 56.3817L34.14 56.9322C35.3054 58.0976 36.5645 59.2395 37.9992 59.2395C39.3755 59.2395 40.5116 58.2381 41.8585 56.9322L41.8643 56.9263L42.45 56.3759ZM62.4782 75.918L42.5612 55.761L42.4441 55.8605C42.1864 56.0948 41.9229 56.3349 41.6769 56.5808L41.6477 56.6042C41.4778 56.7389 41.308 56.8795 41.1382 57.02C40.0723 57.8985 39.0651 58.73 37.9992 58.73C36.7519 58.73 35.5982 57.6291 34.4855 56.5633L34.4797 56.5574C34.2337 56.3114 33.9702 56.0713 33.7125 55.8371C33.5075 55.6614 33.3143 55.4857 33.1035 55.3276L33.0976 55.3217L32.8926 55.1636C32.7345 55.0465 32.5705 54.9352 32.3949 54.8415L32.3773 54.8298L32.1665 54.701C31.9498 54.5839 31.7155 54.4902 31.4754 54.4199C31.2178 54.3496 30.9542 54.3145 30.6848 54.3145H29.496C29.3145 54.3145 29.1037 54.3672 28.8987 54.414L28.7699 54.4433H28.5181L27.6806 54.6366C26.1463 54.9996 24.6998 55.3452 23.6808 54.7537C22.7146 54.1915 22.2402 52.8036 21.7658 51.1814L21.76 51.1521C21.514 49.8989 20.9694 48.7101 20.1847 47.7087C20.009 47.5447 19.8216 47.3924 19.6166 47.2577H19.5639L19.4819 47.2109C19.3004 47.1055 19.113 47.0059 18.9197 46.9181L18.744 46.9884L18.6152 46.9357C18.053 46.7073 17.4615 46.5316 16.8349 46.3442L16.7939 46.3325C15.406 45.9225 13.8248 45.4657 13.2216 44.4175C12.6302 43.3985 12.9698 41.9872 13.3212 40.4997L13.3505 40.3943C13.7546 39.1879 13.8717 37.882 13.6784 36.6229C13.2275 35.4809 12.5013 34.4502 11.576 33.6421L11.5526 33.6186L11.5116 33.5776C10.4692 32.4708 9.38583 31.3289 9.38583 30.1049C9.38583 28.8868 10.4634 27.739 11.5116 26.6322L11.576 26.5678C12.5013 25.7596 13.2275 24.7289 13.6784 23.587C13.8658 22.3279 13.7546 21.0278 13.3505 19.8156L13.3446 19.7863L13.3329 19.7394C12.9698 18.2227 12.6302 16.7879 13.2275 15.7865C13.8073 14.8144 15.1893 14.3459 16.7998 13.8715L16.8291 13.8657C18.0764 13.6197 19.2594 13.0809 20.2608 12.2962C21.0455 11.3006 21.5902 10.1177 21.8244 8.87032L21.8303 8.83518C22.2402 7.44726 22.697 5.86609 23.7452 5.2629C24.7642 4.67142 26.1756 5.01108 27.663 5.36245L27.7685 5.39173C28.9748 5.79581 30.2808 5.91293 31.5399 5.71968C32.6818 5.26875 33.7125 4.54258 34.5207 3.6173L34.5441 3.59388L34.5851 3.55288C35.6919 2.51048 36.8339 1.42708 38.0578 1.42708C39.2759 1.42708 40.4237 2.50462 41.5305 3.55288L41.595 3.6173C42.4031 4.54258 43.4338 5.26875 44.5758 5.71968C45.8349 5.90708 47.1349 5.79581 48.3472 5.39173L48.3764 5.38588C49.9108 5.02279 51.3573 4.67727 52.3762 5.26875C53.3425 5.83095 53.8169 7.21887 54.2912 8.84104L54.2971 8.87032C54.543 10.1177 55.0818 11.3006 55.8665 12.3021C56.8679 13.0868 58.0509 13.6256 59.2983 13.8715L59.3275 13.8774C60.7155 14.2873 62.2966 14.7499 62.8998 15.7924C63.4913 16.8113 63.1516 18.2227 62.8003 19.7102L62.771 19.8156C62.3669 21.0219 62.2498 22.3279 62.4431 23.587C62.894 24.7289 63.6201 25.7596 64.5454 26.5678L64.5689 26.5912L64.6098 26.6322C65.6523 27.739 66.7356 28.881 66.7356 30.1049C66.7356 31.323 65.6581 32.4708 64.6098 33.5776L64.5454 33.6421C63.6201 34.4502 62.894 35.4809 62.4431 36.6229C62.2557 37.882 62.3669 39.182 62.771 40.3943L62.7768 40.4235L62.7886 40.4704C63.1516 41.9872 63.4913 43.4219 62.894 44.4233C62.3142 45.3955 60.938 45.864 59.3217 46.3383C58.7009 46.5257 58.1329 46.7073 57.4887 46.9415L57.3013 47.0294C57.067 47.1231 56.8328 47.2343 56.6161 47.369C56.3819 47.5096 56.1593 47.6794 55.9661 47.8668C55.1755 48.8682 54.6309 50.057 54.3908 51.3102L54.3849 51.3395C53.975 52.7274 53.5123 54.3086 52.4699 54.9118L52.4465 54.9294L52.4172 54.9411C51.3573 55.3335 50.1919 55.3335 49.126 54.9469L48.4526 54.7888C47.498 54.5136 46.5083 54.3555 45.5186 54.332C45.2317 54.3379 44.9506 54.3789 44.6753 54.4492C44.4352 54.5194 44.201 54.6131 43.9784 54.7303L43.7793 54.8415L43.0649 55.3276L42.6256 55.7024H43.2991C43.4748 55.5736 43.6563 55.4506 43.8437 55.3393L43.9257 55.2925H43.9901C44.1834 55.1929 44.3825 55.1109 44.5875 55.0465L44.6226 55.0348C45.2082 54.9177 45.8056 54.9177 46.3912 55.0348C46.9768 55.1226 47.6327 55.2632 48.1481 55.3979L48.4409 55.4623L48.4643 55.4681C49.7117 55.9132 51.0879 55.9425 52.3528 55.5501C52.4172 55.5267 52.4758 55.5033 52.5343 55.4681C53.77 54.7595 54.2327 53.1608 54.6777 51.6089C54.9061 50.4084 55.4097 49.2606 56.1476 48.2884L56.1652 48.265L56.1886 48.2474C56.3643 48.0835 56.5576 47.9371 56.7684 47.8141L56.7742 47.8082L57.2017 47.5798L57.4301 47.4569L74.1672 64.1939L63.8602 65.33C63.7431 65.3476 63.6494 65.4413 63.6319 65.5584L62.4782 75.918ZM43.9023 56.1299L61.9453 74.3895L62.9233 65.4823C62.9818 65.0489 63.3215 64.7092 63.7548 64.6507H63.7607L72.6328 63.6727L57.2837 48.3236L57.0963 48.4231C56.9441 48.511 56.7977 48.6222 56.6688 48.7394C56.0071 49.6237 55.5444 50.6661 55.3453 51.7553L55.3395 51.7904C54.8768 53.395 54.3498 55.2222 52.8682 56.0772C52.7686 56.1299 52.669 56.1767 52.5695 56.2119L52.5578 56.2177C51.1581 56.657 49.6238 56.6277 48.2417 56.1357L47.9665 56.0772C47.4746 55.9425 46.8421 55.8137 46.2741 55.7258H46.2565C45.7646 55.6263 45.2668 55.6263 44.7749 55.72C44.5933 55.7785 44.4118 55.8605 44.242 55.9542L44.1658 55.9952H44.1131C44.0429 56.0362 43.9726 56.083 43.9023 56.1299ZM34.9716 56.0596C35.9379 56.9849 37.0388 58.0332 37.9992 58.0332C38.8133 58.0332 39.7327 57.2777 40.699 56.4813C40.8629 56.3466 41.0269 56.2119 41.1967 56.0713C41.4544 55.8195 41.7179 55.5736 41.9756 55.3393L41.9873 55.3334L42.6549 54.7713L42.8482 54.6366L43.4279 54.2442L43.6446 54.1212C43.914 53.9748 44.1951 53.8577 44.4879 53.7757H44.4938C44.8276 53.6879 45.1672 53.641 45.5128 53.6293H45.5186H45.5245C46.5786 53.6527 47.6269 53.8167 48.6341 54.1095L49.3427 54.2735C50.2446 54.6073 51.2343 54.6073 52.142 54.2852C52.9267 53.805 53.3425 52.3995 53.7114 51.1463C53.9808 49.7876 54.5782 48.4934 55.439 47.4041L55.4507 47.3866L55.4683 47.369C55.7084 47.1348 55.9778 46.9298 56.2648 46.7541C56.5107 46.6077 56.7742 46.4789 57.0378 46.3735L57.2369 46.2798C57.9045 46.0397 58.4843 45.8581 59.1167 45.659C60.2528 45.3252 61.8047 44.8684 62.2908 44.0544C62.7417 43.2931 62.4313 41.993 62.1034 40.6168L62.0975 40.5875C61.6583 39.264 61.5353 37.841 61.752 36.4648L61.7579 36.4296L61.7696 36.3945C62.2615 35.1413 63.0521 34.0052 64.0652 33.115L64.0945 33.0857C65.0432 32.0785 66.027 31.0361 66.027 30.0932C66.027 29.1504 65.0432 28.108 64.0945 27.1007L64.0652 27.0714C63.0521 26.1813 62.2556 25.051 61.7696 23.7919L61.7579 23.7568L61.752 23.7217C61.5353 22.3454 61.6583 20.9224 62.0975 19.5989L62.1151 19.5345C62.4372 18.1817 62.7417 16.905 62.2908 16.1262C61.8282 15.3239 60.3992 14.9022 59.1401 14.5333C57.7815 14.2639 56.4873 13.6665 55.398 12.8057L55.3688 12.7823L55.3453 12.753C54.4845 11.6637 53.8871 10.3695 53.6177 9.01087C53.2839 7.87476 52.8272 6.32873 52.0249 5.86023C51.2518 5.4093 49.94 5.71968 48.5521 6.05348C47.2286 6.4927 45.8056 6.61568 44.4294 6.399L44.3942 6.39314L44.3591 6.38143C43.1059 5.88951 41.9698 5.09892 41.0796 4.0858L41.0503 4.05652C40.0431 3.10781 39.0007 2.12397 38.0578 2.12397C37.115 2.12397 36.0726 3.10781 35.0653 4.05652L35.036 4.0858C34.1459 5.09892 33.0156 5.89537 31.7565 6.38143L31.7214 6.39314L31.6863 6.399C30.31 6.60982 28.887 6.4927 27.5635 6.05348L27.4991 6.03591C26.1463 5.71382 24.8696 5.4093 24.0908 5.86023C23.2885 6.32287 22.8668 7.75178 22.4979 9.01087C22.2343 10.3754 21.637 11.6696 20.7703 12.7588L20.7469 12.7881L20.7176 12.8115C19.6283 13.6724 18.3341 14.2697 16.9755 14.5391C15.8452 14.8729 14.305 15.3239 13.8248 16.1379C13.3739 16.8992 13.6843 18.1993 14.0122 19.5755L14.0181 19.6047C14.4573 20.9282 14.5803 22.3513 14.3636 23.7275L14.3577 23.7626L14.346 23.7978C13.8541 25.051 13.0635 26.1871 12.0504 27.0773L12.0211 27.1065C11.0724 28.1138 10.0886 29.1562 10.0886 30.0991C10.0886 31.0419 11.0724 32.0843 12.0211 33.0916L12.0504 33.1209C13.0635 34.011 13.86 35.1413 14.346 36.4003L14.3577 36.4355L14.3636 36.4706C14.5803 37.8468 14.4573 39.2699 14.0181 40.5934L14.0005 40.6578C13.6784 42.0106 13.3739 43.2872 13.8248 44.0661C14.2933 44.8743 15.7281 45.2901 16.993 45.6649L17.034 45.6766C17.6314 45.8523 18.1994 46.0221 18.7499 46.2388L18.9314 46.1626L19.0661 46.2212C19.3004 46.3208 19.5346 46.4379 19.7572 46.5667H19.8216L19.9094 46.6194C20.1905 46.7951 20.4482 47.0001 20.6883 47.2285L20.7059 47.246L20.7176 47.2636C21.5784 48.3529 22.1758 49.6471 22.4452 51.0057C22.779 52.1418 23.2358 53.6879 24.0381 54.1564C24.8111 54.6073 26.1287 54.291 27.5225 53.9631L28.4419 53.7464H28.6937L28.7406 53.7347C28.9748 53.6761 29.2384 53.6117 29.5019 53.6117H30.6907C31.0187 53.6176 31.3466 53.6586 31.657 53.7464H31.6628C31.9556 53.8284 32.2367 53.9455 32.5061 54.0861L32.5237 54.0978L32.7345 54.2266C32.9336 54.3379 33.1327 54.4609 33.3143 54.6014L33.5192 54.7537C33.7594 54.9294 33.9702 55.1168 34.181 55.2983L34.1869 55.3042C34.4387 55.556 34.7139 55.8019 34.9716 56.0596ZM13.4793 75.8712L12.3432 65.5174C12.3256 65.4003 12.2319 65.3066 12.1148 65.289L1.7669 64.1529L18.5801 47.4686L19.0134 47.6852L19.2418 47.8199C19.4526 47.9429 19.6459 48.0893 19.8216 48.2533L19.845 48.2767L19.8626 48.3001C20.5595 49.2313 21.0514 50.3264 21.2798 51.4684L21.2856 51.4801C21.7424 53.032 22.2226 54.6366 23.429 55.3334C24.571 55.9952 26.0116 55.6848 27.5401 55.3569C27.6279 55.3393 27.7099 55.3217 27.7977 55.3042C28.9163 54.9294 30.1285 54.8064 31.2997 54.9469L31.3349 54.9528L31.3642 54.9645C31.5691 55.0289 31.7682 55.1109 31.9615 55.2105H32.0259L32.1079 55.2573C32.2953 55.3686 32.4768 55.4857 32.6525 55.6204H33.4255L13.4793 75.8712ZM3.29537 63.62L12.2027 64.598C12.636 64.6565 12.9757 64.9962 13.0342 65.4296V65.4354L14.0122 74.3368L32.0376 56.0245C31.9732 55.9776 31.9029 55.9366 31.8385 55.8956H31.7858L31.7097 55.8547C31.5457 55.761 31.37 55.6848 31.1885 55.6263C30.1226 55.5033 29.0217 55.6204 28.0027 55.9659L27.9617 55.9776C27.868 55.9952 27.7802 56.0186 27.6865 56.0362C26.0994 56.3759 24.4597 56.7331 23.0835 55.9366C21.6312 55.0992 21.1158 53.3599 20.618 51.6792L20.6005 51.6265C20.3896 50.5899 19.9504 49.5944 19.3238 48.7452C19.1891 48.6222 19.0486 48.5168 18.8904 48.429L18.7089 48.3236L3.29537 63.62Z" fill="#00AEEF"/>
<path d="M19.9445 25.2794C19.6224 25.2033 19.3003 25.4024 19.2242 25.7245C19.1422 26.1461 19.0543 26.5561 18.984 26.9309C18.9313 27.2588 19.1539 27.5633 19.476 27.616H19.5697C19.8683 27.6219 20.126 27.4052 20.1729 27.1124C20.1729 26.7142 20.3076 26.3277 20.4013 25.906C20.4247 25.6132 20.2314 25.3497 19.9445 25.2794Z" fill="#00AEEF"/>
<path d="M19.5814 27.9615C19.5756 27.9615 19.5756 27.9615 19.5697 27.9615H19.4467L19.4175 27.9557C18.908 27.8678 18.5566 27.3818 18.6386 26.8723V26.8606C18.6854 26.6146 18.7381 26.3511 18.7967 26.0817C18.826 25.9411 18.8553 25.8006 18.8845 25.66V25.6483C19.0075 25.1447 19.517 24.8285 20.0265 24.9456H20.0324C20.4833 25.0569 20.7878 25.4726 20.7527 25.9353V25.9646L20.7468 25.9939C20.7234 26.1051 20.6941 26.2105 20.6707 26.3159C20.6004 26.6029 20.5301 26.8664 20.5301 27.1241V27.1534L20.5243 27.1827C20.4423 27.6219 20.0441 27.9615 19.5814 27.9615ZM19.5112 27.2646H19.5697C19.5697 27.2646 19.5697 27.2646 19.5756 27.2646C19.6986 27.2646 19.7981 27.1827 19.8274 27.0714C19.8333 26.7434 19.9152 26.4331 19.9914 26.1285C20.0148 26.0407 20.0382 25.947 20.0558 25.8592C20.0558 25.7479 19.9738 25.6483 19.8625 25.6191C19.7278 25.5898 19.599 25.6718 19.5639 25.8006C19.5346 25.9411 19.5053 26.0817 19.4819 26.2164C19.4292 26.4858 19.3765 26.7434 19.3296 26.9835C19.312 27.1124 19.3882 27.2354 19.5112 27.2646Z" fill="#00AEEF"/>
<path d="M19.3824 31.3816C19.0603 31.405 18.8143 31.692 18.8377 32.014C18.8377 32.0199 18.8377 32.0258 18.8377 32.0316C18.8377 32.465 18.9314 32.8866 19.0076 33.238C19.0485 33.5308 19.3004 33.7475 19.599 33.7416H19.7044C20.0265 33.6889 20.2491 33.3785 20.1964 33.0564C20.1261 32.6582 20.0734 32.2717 20.0382 31.8501C19.9738 31.5455 19.6869 31.3464 19.3824 31.3816Z" fill="#00AEEF"/>
<path d="M19.5873 34.0871C19.1305 34.0871 18.7382 33.7475 18.662 33.2965L18.6445 33.2204C18.5742 32.8866 18.4864 32.4767 18.4864 32.0492C18.4864 32.0433 18.4864 32.0433 18.4864 32.0374C18.4688 31.7915 18.5449 31.5455 18.7089 31.3581C18.8729 31.1707 19.0954 31.0536 19.3414 31.036C19.8274 30.9775 20.2725 31.2996 20.3779 31.7798L20.3838 31.8032V31.8266C20.4189 32.26 20.4716 32.6289 20.536 32.9979V33.0037C20.618 33.5132 20.2666 33.9993 19.7572 34.0871L19.7279 34.093H19.5873C19.5932 34.0871 19.5932 34.0871 19.5873 34.0871ZM19.4526 31.7271C19.4409 31.7271 19.4292 31.7271 19.4234 31.7271H19.4058C19.3414 31.7329 19.2828 31.7622 19.2418 31.8091C19.2008 31.8559 19.1774 31.9203 19.1833 31.9847V32.0257C19.1833 32.3888 19.2594 32.7519 19.3238 33.0681L19.3472 33.1794C19.3648 33.2965 19.4643 33.3844 19.5873 33.3844H19.6635C19.7864 33.3492 19.8684 33.2321 19.8509 33.1033C19.7806 32.7226 19.7337 32.342 19.6927 31.8969C19.6635 31.7973 19.5698 31.7271 19.4526 31.7271Z" fill="#00AEEF"/>
<path d="M21.5959 37.6536C21.4671 37.3549 21.1216 37.2144 20.8229 37.3432C20.8171 37.3432 20.8112 37.3491 20.8054 37.3549C20.5067 37.4955 20.3779 37.8468 20.5067 38.1514C20.6882 38.5379 20.8815 38.9244 21.0865 39.3577C21.1919 39.551 21.3968 39.6681 21.6135 39.6681C21.7131 39.6681 21.8126 39.6447 21.9005 39.5978C22.1874 39.4339 22.2928 39.0708 22.1406 38.778C21.9415 38.3622 21.7658 38.0108 21.5959 37.6536Z" fill="#00AEEF"/>
<path d="M21.6077 40.0136C21.2622 40.0078 20.9401 39.8204 20.7761 39.5217L20.7644 39.4983C20.6649 39.2874 20.5712 39.0883 20.4775 38.9009C20.3779 38.6901 20.2784 38.4969 20.1847 38.2977L20.1788 38.286C19.9738 37.8117 20.1847 37.2612 20.6531 37.0387C20.6649 37.0328 20.6766 37.027 20.6883 37.0211C20.9167 36.9215 21.1744 36.9215 21.4027 37.0152C21.6311 37.1089 21.8127 37.2846 21.9122 37.513C21.9942 37.6887 22.0821 37.8644 22.1699 38.0518C22.2577 38.2333 22.3514 38.4207 22.4451 38.6257C22.6794 39.0883 22.5154 39.6447 22.0645 39.9023L22.0528 39.9082C21.9181 39.9726 21.7658 40.0078 21.6077 40.0136ZM21.3852 39.1879C21.432 39.264 21.514 39.3109 21.6077 39.3167C21.6487 39.3167 21.6897 39.305 21.7307 39.2874C21.8537 39.2172 21.8947 39.0649 21.8302 38.9361L21.8244 38.9244C21.7307 38.7253 21.637 38.5379 21.5491 38.3563C21.4554 38.1689 21.3676 37.9874 21.2798 37.8058L21.2739 37.7941C21.2212 37.6711 21.0807 37.6126 20.9577 37.6653L20.9518 37.6711C20.823 37.7297 20.7703 37.882 20.823 38.0108C20.9167 38.204 21.0045 38.3973 21.1041 38.6023C21.1919 38.7838 21.2856 38.9829 21.3852 39.1879Z" fill="#00AEEF"/>
<path d="M24.9399 42.5493C24.6998 42.321 24.325 42.321 24.0849 42.5493C23.8506 42.7836 23.8448 43.1642 24.079 43.3985C24.079 43.3985 24.079 43.3985 24.0849 43.4044C24.3836 43.703 24.6881 44.0075 24.9985 44.2945C25.1097 44.394 25.2561 44.4468 25.4084 44.4526C25.5782 44.4468 25.7363 44.3765 25.8535 44.2594C26.0819 44.0193 26.0819 43.6445 25.8535 43.4044C25.4962 43.1291 25.2151 42.8422 24.9399 42.5493Z" fill="#00AEEF"/>
<path d="M25.4143 44.804H25.4084C25.1742 44.7981 24.9516 44.7161 24.776 44.5639L24.7701 44.558C24.4539 44.2652 24.1435 43.9548 23.8507 43.662L23.8448 43.6562C23.6691 43.4746 23.5696 43.2345 23.5696 42.9827C23.5696 42.7309 23.6691 42.4908 23.8507 42.3092C24.2313 41.9403 24.817 41.9403 25.1917 42.3092L25.2035 42.321C25.4787 42.6079 25.7364 42.8773 26.076 43.1408L26.0936 43.1584L26.1112 43.176C26.4743 43.5508 26.4743 44.1422 26.1112 44.517C25.9238 44.7044 25.6837 44.8098 25.426 44.8157L25.4143 44.804ZM25.2327 44.0368C25.2796 44.0778 25.344 44.1012 25.4084 44.1071C25.4846 44.1012 25.5548 44.072 25.6075 44.0192C25.7012 43.9256 25.7071 43.7733 25.6193 43.6679C25.2503 43.3809 24.9692 43.0881 24.694 42.8012C24.5886 42.7016 24.4304 42.7075 24.3309 42.807C24.284 42.8539 24.2606 42.9124 24.2606 42.9827C24.2606 43.053 24.284 43.1115 24.3309 43.1642L24.3367 43.1701C24.6237 43.4512 24.9282 43.7499 25.2327 44.0368Z" fill="#00AEEF"/>
<path d="M22.5096 19.6692C22.2285 19.4993 21.8595 19.5872 21.678 19.8624C21.4496 20.2255 21.2446 20.5827 21.0397 20.9692C20.8815 21.2562 20.987 21.6134 21.2681 21.7715C21.2739 21.7715 21.2739 21.7774 21.2798 21.7774C21.3676 21.8243 21.4672 21.8477 21.5667 21.8477C21.7893 21.8535 21.9942 21.7306 22.0938 21.5373C22.287 21.1859 22.4803 20.8404 22.697 20.5008C22.8785 20.2197 22.7907 19.8507 22.5096 19.6692C22.5096 19.675 22.5096 19.675 22.5096 19.6692Z" fill="#00AEEF"/>
<path d="M21.5785 22.199C21.5726 22.199 21.5668 22.199 21.5668 22.199C21.4145 22.199 21.2564 22.1581 21.1217 22.0878L21.1041 22.0761C20.8874 21.9531 20.7235 21.754 20.659 21.5139C20.5888 21.2738 20.6181 21.0219 20.741 20.7994C20.9694 20.3719 21.1744 20.0147 21.3911 19.675C21.678 19.2358 22.2461 19.1011 22.6912 19.3705L22.7087 19.3822C22.9195 19.5169 23.0659 19.7277 23.1245 19.9678C23.1831 20.2138 23.1362 20.4715 23.0015 20.6823C22.7907 21.0102 22.5975 21.3616 22.4101 21.7013C22.2461 22.0116 21.9298 22.199 21.5785 22.199ZM22.1934 19.9327C22.1055 19.9327 22.0235 19.9737 21.9708 20.0557C21.7659 20.3778 21.5668 20.7233 21.3501 21.1391C21.3149 21.1976 21.3091 21.2679 21.3267 21.3265C21.3442 21.3909 21.3852 21.4377 21.4438 21.4729C21.4848 21.4963 21.5316 21.508 21.5785 21.508C21.6722 21.508 21.7542 21.4612 21.7952 21.3792C21.9884 21.0278 22.1875 20.6647 22.4101 20.3192C22.4452 20.2665 22.4569 20.1962 22.4393 20.1318C22.4218 20.0674 22.3866 20.0088 22.3281 19.9737C22.2871 19.9444 22.2402 19.9327 22.1934 19.9327Z" fill="#00AEEF"/>
<path d="M51.9369 43.094C52.1067 43.094 52.2707 43.0237 52.382 42.9007C52.6689 42.5786 52.9383 42.2507 53.2019 41.911C53.4185 41.6592 53.3951 41.2786 53.1433 41.0619C52.8915 40.8452 52.5108 40.8686 52.2941 41.1204C52.2766 41.138 52.2649 41.1614 52.2473 41.179C52.0072 41.4894 51.7554 41.7939 51.4918 42.0926C51.2634 42.3268 51.2693 42.7016 51.5094 42.9241C51.6207 43.0413 51.7729 43.0998 51.9369 43.094Z" fill="#00AEEF"/>
<path d="M51.9135 43.4395C51.6734 43.4395 51.4333 43.3458 51.2635 43.176C50.8946 42.8187 50.8828 42.2273 51.2342 41.8583C51.5212 41.5304 51.7554 41.2493 51.9662 40.974C51.9838 40.9448 52.0072 40.9155 52.0307 40.8921C52.2005 40.6988 52.4289 40.5875 52.6807 40.57C52.9325 40.5524 53.1785 40.6344 53.3717 40.8042C53.7641 41.1497 53.8051 41.7412 53.4654 42.1394C53.155 42.5376 52.8974 42.8422 52.6397 43.135C52.4582 43.3341 52.2005 43.4454 51.937 43.4454C51.9311 43.4395 51.9252 43.4395 51.9135 43.4395ZM52.7451 41.261C52.7393 41.261 52.7334 41.261 52.7275 41.261C52.6573 41.2668 52.5987 41.2961 52.5519 41.3488C52.546 41.3547 52.5401 41.3664 52.5343 41.3723L52.5226 41.3898C52.2942 41.6826 52.0482 41.9813 51.7496 42.321L51.7378 42.3327C51.6441 42.4264 51.65 42.5786 51.7437 42.6723C51.7906 42.7192 51.855 42.7426 51.9194 42.7426H51.9311H51.9428C51.9428 42.7426 51.9428 42.7426 51.9487 42.7426C52.0189 42.7426 52.0834 42.7133 52.1244 42.6665C52.3703 42.3854 52.6221 42.0867 52.9267 41.7002L52.9384 41.6885C53.0321 41.5831 53.0204 41.425 52.9149 41.3313C52.8681 41.2844 52.8095 41.261 52.7451 41.261Z" fill="#00AEEF"/>
<path d="M55.4039 25.2794C55.48 25.5429 55.7201 25.7186 55.9954 25.7245H56.1535C56.4756 25.6308 56.6571 25.3028 56.5751 24.9807C56.4697 24.5708 56.335 24.1726 56.2003 23.7743C56.0891 23.4581 55.7435 23.2941 55.4273 23.3996C55.1111 23.5108 54.9471 23.8563 55.0525 24.1726C55.1872 24.5357 55.3043 24.9222 55.4039 25.2794Z" fill="#00AEEF"/>
<path d="M56.2003 26.0758H55.9953C55.562 26.07 55.193 25.7889 55.0701 25.3848L55.0642 25.3731C54.9647 25.01 54.8475 24.6352 54.7246 24.2955V24.2897C54.5547 23.7919 54.8182 23.2473 55.3102 23.0775C55.8079 22.9076 56.3526 23.1712 56.5224 23.6631C56.6571 24.0613 56.7918 24.4712 56.9031 24.8929C57.0378 25.4024 56.7449 25.9177 56.2413 26.0641L56.2003 26.0758ZM55.7377 25.1857C55.7728 25.297 55.8782 25.3789 55.9953 25.3789H56.089C56.2062 25.3262 56.2647 25.1974 56.2355 25.0686C56.13 24.6703 55.9953 24.2721 55.8665 23.8856C55.8197 23.7568 55.6733 23.6865 55.5386 23.7334C55.4039 23.7802 55.3336 23.9266 55.3804 24.0554C55.5151 24.4127 55.6381 24.805 55.7377 25.1857Z" fill="#00AEEF"/>
<path d="M54.9822 37.8586C55.0583 37.8761 55.1344 37.8761 55.2106 37.8586C55.4507 37.8586 55.6732 37.7121 55.7669 37.4838C55.9367 37.0972 56.0773 36.699 56.2237 36.2774C56.3291 35.967 56.1593 35.6273 55.8489 35.5219C55.5327 35.4165 55.193 35.5805 55.0759 35.8967C54.9412 36.2715 54.8123 36.6405 54.6542 37.0153C54.4961 37.3022 54.6015 37.6594 54.8885 37.8176C54.9178 37.8351 54.947 37.8468 54.9822 37.8586Z" fill="#00AEEF"/>
<path d="M55.0935 38.2158C55.029 38.2158 54.9646 38.2099 54.9002 38.1924L54.8651 38.1807C54.8124 38.1631 54.7655 38.1397 54.7187 38.1162C54.2736 37.8703 54.1038 37.3081 54.338 36.8572C54.4903 36.4999 54.6191 36.131 54.7479 35.7738C54.9295 35.276 55.4566 35.0242 55.9543 35.1881C56.4462 35.358 56.7098 35.8967 56.5458 36.3887C56.417 36.7576 56.2647 37.191 56.0773 37.6185C55.9368 37.9581 55.6088 38.1865 55.2399 38.2041C55.1989 38.2158 55.1462 38.2158 55.0935 38.2158ZM55.0759 37.5189C55.0935 37.5189 55.1169 37.5189 55.1345 37.513L55.1696 37.5072H55.2047C55.3101 37.5072 55.398 37.4428 55.439 37.3491L55.4448 37.3432C55.6205 36.9391 55.7728 36.5233 55.8899 36.1661C55.9309 36.0373 55.8606 35.8967 55.7318 35.8499C55.5971 35.8089 55.4507 35.8792 55.4038 36.0139C55.275 36.3828 55.1345 36.7635 54.9763 37.15L54.9588 37.1851C54.8944 37.3022 54.9353 37.4486 55.0525 37.513C55.0642 37.513 55.07 37.5189 55.0759 37.5189Z" fill="#00AEEF"/>
<path d="M52.9091 19.9151C53.0203 20.0791 53.2019 20.1786 53.401 20.1786C53.524 20.1786 53.6411 20.1435 53.7406 20.0732C54.01 19.8917 54.0862 19.5286 53.9046 19.2534C53.9046 19.2475 53.8988 19.2475 53.8929 19.2417C53.6645 18.8903 53.4127 18.5448 53.1492 18.2168C52.9618 17.9416 52.587 17.8713 52.3117 18.0587C52.0365 18.2461 51.9662 18.6209 52.1536 18.8961C52.1653 18.9137 52.1829 18.9371 52.2005 18.9547C52.4406 19.2651 52.6807 19.5872 52.9091 19.9151Z" fill="#00AEEF"/>
<path d="M53.4069 20.5242H53.401C53.0907 20.5242 52.7978 20.366 52.6222 20.1084C52.4113 19.8038 52.1771 19.4876 51.9311 19.1655C51.9077 19.1362 51.8843 19.1128 51.8667 19.0835C51.7262 18.8727 51.6735 18.6209 51.7203 18.3691C51.7672 18.1173 51.9077 17.9064 52.1185 17.76C52.546 17.4672 53.1316 17.5785 53.4303 18.0001C53.6997 18.3339 53.9515 18.6795 54.1858 19.0367C54.1916 19.0425 54.1916 19.0484 54.1975 19.0543C54.338 19.2651 54.3849 19.511 54.338 19.757C54.2912 20.003 54.1506 20.2079 53.9457 20.3485C53.7875 20.4656 53.6001 20.5242 53.4069 20.5242ZM52.6514 18.2988C52.6046 18.2988 52.5519 18.3105 52.5109 18.3398C52.4523 18.3749 52.4172 18.4335 52.4055 18.5038C52.3938 18.574 52.4055 18.6385 52.4465 18.6912C52.4523 18.7029 52.4582 18.7087 52.464 18.7146L52.4758 18.7322C52.7334 19.066 52.9735 19.3939 53.1961 19.7043L53.2019 19.7101C53.2488 19.7804 53.3249 19.8214 53.4069 19.8214C53.4537 19.8214 53.4947 19.8097 53.5357 19.7804L53.5474 19.7746C53.6001 19.7394 53.6353 19.6867 53.6529 19.6223C53.6646 19.5579 53.6528 19.4935 53.6177 19.4408L53.606 19.4232C53.3835 19.0835 53.1375 18.7439 52.8798 18.4276L52.8623 18.4042C52.8154 18.3398 52.7334 18.2988 52.6514 18.2988Z" fill="#00AEEF"/>
<path d="M56.054 30.0932C56.054 30.4856 56.054 30.8896 56.054 31.2996C56.0247 31.6217 56.2707 31.9086 56.5928 31.9379C56.5986 31.9379 56.6045 31.9379 56.6103 31.9379C56.9266 31.9379 57.1842 31.6978 57.2135 31.3816C57.2135 30.9599 57.2135 30.5266 57.2135 30.1049V30.0229C57.2077 29.7126 56.95 29.4607 56.6396 29.4666C56.6338 29.4666 56.6221 29.4666 56.6162 29.4666C56.2882 29.5076 56.0481 29.777 56.054 30.0932Z" fill="#00AEEF"/>
<path d="M56.6044 32.2834H56.5576C56.3058 32.26 56.0774 32.1429 55.9193 31.9555C55.7611 31.7681 55.685 31.5338 55.6967 31.2878V30.099C55.6967 29.6013 56.0657 29.1855 56.5576 29.1269H56.5752C56.5869 29.1269 56.6044 29.1269 56.6162 29.1269C56.8621 29.1211 57.0905 29.2148 57.2662 29.3846C57.4419 29.5544 57.5414 29.7828 57.5473 30.0229V30.1166V31.4225C57.518 31.9027 57.1022 32.2834 56.6044 32.2834ZM56.6337 29.8179C56.499 29.8355 56.3995 29.9526 56.3995 30.0932V31.323C56.3936 31.3874 56.4112 31.4518 56.458 31.4987C56.499 31.5455 56.5576 31.5748 56.6162 31.5807C56.7391 31.5748 56.8445 31.4811 56.8563 31.3581V30.0288C56.8563 29.9702 56.8328 29.9175 56.7918 29.8765C56.7508 29.8355 56.6923 29.8179 56.6337 29.8179Z" fill="#00AEEF"/>
<path d="M36.5294 48.1479C36.1311 48.1479 35.7329 48.0777 35.323 48.0132C34.9892 47.9664 34.6847 48.2006 34.6378 48.5286C34.591 48.8624 34.8252 49.1669 35.1532 49.2138C35.5631 49.2782 35.9847 49.325 36.4181 49.3602C36.7519 49.3602 37.0213 49.0908 37.0213 48.757C37.0213 48.4232 36.7519 48.1538 36.4181 48.1538L36.5294 48.1479Z" fill="#00AEEF"/>
<path d="M36.424 49.7115H36.4006C35.9613 49.6764 35.5221 49.6295 35.1063 49.5651C34.8604 49.53 34.6378 49.4011 34.4797 49.1962C34.3275 48.9912 34.263 48.7394 34.2982 48.4876C34.3333 48.2357 34.468 48.0132 34.6671 47.8551C34.8721 47.7028 35.1239 47.6384 35.3757 47.6736C35.446 47.6853 35.5104 47.6911 35.5748 47.7028C35.9086 47.7555 36.219 47.8024 36.5294 47.8024V47.82C37.0038 47.8727 37.3727 48.2767 37.3727 48.7628C37.3727 49.284 36.9452 49.7115 36.424 49.7115ZM35.241 48.3587C35.1883 48.3587 35.1298 48.3763 35.0888 48.4114C35.0361 48.4524 34.9951 48.511 34.9892 48.5813C34.9775 48.6515 34.9951 48.716 35.0361 48.7745C35.0771 48.8272 35.1356 48.8682 35.2059 48.8741C35.6041 48.9385 36.0141 48.9853 36.4298 49.0146C36.5645 49.0088 36.6699 48.8975 36.6699 48.7628C36.6699 48.6223 36.5587 48.511 36.4181 48.511V48.4993C36.096 48.4876 35.7798 48.4407 35.4694 48.3939C35.405 48.3822 35.3406 48.3763 35.2762 48.3646C35.2645 48.3587 35.2527 48.3587 35.241 48.3587Z" fill="#00AEEF"/>
<path d="M30.4507 13.6314C30.5327 13.6431 30.6205 13.6431 30.7025 13.6314C31.0656 13.4615 31.4228 13.321 31.7976 13.1746C32.108 13.0692 32.272 12.7354 32.1665 12.425C32.1665 12.4191 32.1607 12.4074 32.1607 12.4016C32.0494 12.0912 31.7039 11.9272 31.3877 12.0385L30.1813 12.5187C29.8768 12.6534 29.7421 13.0106 29.8826 13.3151C29.9939 13.526 30.2164 13.6489 30.4507 13.6314Z" fill="#00AEEF"/>
<path d="M30.5795 13.9886C30.5326 13.9886 30.4858 13.9886 30.4389 13.9828C30.0817 13.9945 29.7479 13.8012 29.5781 13.485L29.5663 13.4674C29.3555 12.9931 29.5663 12.4309 30.0407 12.2142L30.0524 12.2083L31.2646 11.7223C31.7566 11.5466 32.3012 11.7984 32.4827 12.2903C32.4886 12.302 32.4886 12.3138 32.4944 12.3196C32.6584 12.8057 32.4007 13.3386 31.9147 13.5084C31.5165 13.6607 31.1827 13.7954 30.8489 13.9535L30.802 13.9769L30.7493 13.9828C30.6966 13.9828 30.638 13.9886 30.5795 13.9886ZM30.4623 13.28L30.4975 13.2859C30.5326 13.2917 30.5736 13.2917 30.6087 13.2917C30.9718 13.1278 31.3291 12.9814 31.6687 12.8525L31.6804 12.8467C31.8093 12.8057 31.8737 12.6651 31.8327 12.5421L31.8268 12.5246C31.78 12.3957 31.6394 12.3255 31.5047 12.3723L30.3159 12.8467C30.1988 12.9052 30.1402 13.0458 30.193 13.1688C30.2398 13.2449 30.3276 13.2917 30.4213 13.2859L30.4623 13.28Z" fill="#00AEEF"/>
<path d="M30.7785 46.6428C30.4154 46.4847 30.0582 46.3032 29.6951 46.1275C29.4023 45.9752 29.0451 46.0923 28.887 46.3793C28.7347 46.678 28.846 47.041 29.1388 47.1992C29.5253 47.3924 29.8942 47.574 30.3451 47.7379C30.4213 47.7731 30.5033 47.7965 30.5853 47.7965C30.8254 47.7906 31.0362 47.6501 31.1416 47.4334C31.2646 47.123 31.1182 46.7717 30.8078 46.6487C30.7961 46.6487 30.7902 46.6487 30.7785 46.6428Z" fill="#00AEEF"/>
<path d="M30.5852 48.1479H30.5794C30.4505 48.1479 30.3217 48.1127 30.2046 48.06C29.7419 47.8843 29.3437 47.6911 28.9865 47.5095L28.9748 47.5037C28.5121 47.2519 28.3365 46.6897 28.5766 46.2212C28.8225 45.7585 29.3906 45.5828 29.8532 45.8171C30.1987 45.9869 30.556 46.1685 30.9073 46.3207C30.919 46.3266 30.9308 46.3266 30.9366 46.3324C31.4227 46.5315 31.6569 47.082 31.4637 47.5681L31.4578 47.5857C31.2997 47.9253 30.9717 48.142 30.5969 48.1479H30.5852ZM29.3027 46.8888C29.6541 47.0645 30.0289 47.246 30.4681 47.41L30.5032 47.4275C30.5267 47.4393 30.556 47.451 30.5852 47.451C30.6848 47.4451 30.7726 47.3866 30.8195 47.2987C30.8663 47.1699 30.8019 47.0293 30.6789 46.9766C30.6731 46.9766 30.6731 46.9708 30.6672 46.9708L30.6438 46.959C30.2749 46.8009 29.9001 46.6135 29.5428 46.432C29.414 46.3676 29.2676 46.4144 29.1973 46.5374C29.1329 46.6662 29.1797 46.8185 29.3027 46.8888Z" fill="#00AEEF"/>
<path d="M42.7427 48.7628C43.0648 48.6808 43.2581 48.3528 43.1761 48.0307C43.1 47.7145 42.7837 47.5213 42.4675 47.5974C42.4616 47.5974 42.4616 47.5974 42.4558 47.5974C42.0693 47.6911 41.6711 47.7789 41.2494 47.8492C40.9273 47.9078 40.7106 48.224 40.7692 48.5461C40.8161 48.833 41.0679 49.0439 41.3607 49.038H41.4661C41.9229 48.956 42.3328 48.8682 42.7427 48.7628Z" fill="#00AEEF"/>
<path d="M41.3431 49.3894C40.8863 49.3894 40.4998 49.0615 40.4237 48.6047C40.33 48.0952 40.6755 47.6033 41.185 47.5096C41.5949 47.4393 41.9814 47.3573 42.3679 47.2636L42.3796 47.2577C42.8833 47.1348 43.3869 47.4451 43.5099 47.9488C43.6387 48.4583 43.3342 48.9736 42.8247 49.1024C42.4499 49.202 42.0634 49.284 41.5246 49.3835L41.4954 49.3894H41.3548C41.3548 49.3894 41.349 49.3894 41.3431 49.3894ZM42.6022 47.9253C42.5846 47.9253 42.567 47.9253 42.5436 47.9312H42.5378C42.1337 48.0308 41.7296 48.1186 41.308 48.1889C41.1791 48.2123 41.0854 48.347 41.1088 48.4817C41.1264 48.6047 41.2318 48.6925 41.3489 48.6867H41.4309C41.9346 48.593 42.3035 48.511 42.649 48.4231C42.7837 48.388 42.8657 48.2533 42.8306 48.1127V48.1069C42.813 48.0425 42.7779 47.9898 42.7193 47.9605C42.69 47.9371 42.6432 47.9253 42.6022 47.9253Z" fill="#00AEEF"/>
<path d="M36.4005 12.1146L37.6069 12.0561C37.9407 12.0502 38.2042 11.775 38.1984 11.4412C38.1867 11.1074 37.9056 10.8438 37.5718 10.8497L36.3654 10.92C36.0316 10.9434 35.7856 11.2362 35.809 11.5642C35.809 11.5642 35.809 11.5642 35.809 11.57C35.85 11.8687 36.096 12.0971 36.4005 12.1146Z" fill="#00AEEF"/>
<path d="M36.4005 12.4602H36.383C35.9145 12.4368 35.5279 12.0854 35.4635 11.6169V11.5935C35.446 11.3416 35.5221 11.0957 35.6919 10.9024C35.8559 10.7092 36.0901 10.5921 36.342 10.5745L37.5659 10.5042C37.5718 10.5042 37.5776 10.5042 37.5835 10.5042C38.093 10.5042 38.5263 10.9141 38.5439 11.4295V11.4412C38.5498 11.693 38.4561 11.9331 38.2804 12.1147C38.1047 12.2962 37.8704 12.4016 37.6186 12.4075L36.4005 12.4602ZM36.1546 11.5349C36.178 11.6579 36.2775 11.7516 36.4005 11.7633L37.5952 11.7047C37.6655 11.7047 37.724 11.6755 37.7709 11.6286C37.8177 11.5818 37.8412 11.5173 37.8412 11.4529C37.8353 11.3124 37.7182 11.2011 37.5776 11.2011L36.383 11.2714C36.2541 11.2831 36.1487 11.4002 36.1546 11.5349Z" fill="#00AEEF"/>
<path d="M47.8201 14.9432C48.1597 15.1599 48.4818 15.3882 48.7922 15.6283C48.8976 15.7045 49.0206 15.7513 49.1553 15.7513C49.3485 15.7572 49.5242 15.6635 49.6355 15.5112C49.8346 15.2477 49.7819 14.867 49.5125 14.6679C49.1729 14.4161 48.8273 14.176 48.476 13.9359C48.1949 13.7544 47.8201 13.8363 47.6327 14.1174C47.4629 14.3927 47.539 14.7616 47.8201 14.9432Z" fill="#00AEEF"/>
<path d="M49.167 16.0969C49.1612 16.0969 49.1553 16.0969 49.1495 16.0969C48.9445 16.0969 48.7454 16.0266 48.5814 15.9036C48.2769 15.6694 47.9548 15.441 47.6268 15.236C47.1876 14.9549 47.0588 14.3634 47.3399 13.9242C47.6268 13.485 48.2242 13.3562 48.6634 13.6373L48.6751 13.6431C49.0206 13.8832 49.3779 14.1292 49.7234 14.3868C50.1392 14.7031 50.227 15.2946 49.9166 15.7162C49.7409 15.9563 49.4657 16.0969 49.167 16.0969ZM49.1553 15.4C49.1612 15.4 49.1612 15.4 49.167 15.4C49.2432 15.4 49.3076 15.3648 49.3544 15.3063L49.3603 15.3004C49.4013 15.2477 49.4188 15.1774 49.4071 15.113C49.3954 15.0486 49.3603 14.9842 49.3076 14.949C48.9796 14.7031 48.6283 14.463 48.2886 14.2287C48.1656 14.1526 48.0075 14.1877 47.9314 14.3107C47.8611 14.422 47.8904 14.5801 48.0075 14.6562C48.353 14.8788 48.6868 15.113 49.0089 15.359C49.0499 15.3824 49.0968 15.4 49.1553 15.4Z" fill="#00AEEF"/>
<path d="M25.8769 15.1248L24.9164 15.9564C24.6822 16.1906 24.6763 16.5713 24.9106 16.8055C24.9106 16.8055 24.9106 16.8055 24.9164 16.8114C25.0277 16.9343 25.1858 17.0046 25.3498 17.0046C25.5021 17.0105 25.6485 16.9519 25.7597 16.8465C26.0584 16.5713 26.3629 16.3194 26.6616 16.0618C26.9193 15.8568 26.9603 15.4762 26.7553 15.2185C26.5503 14.9491 26.1638 14.9022 25.8944 15.1072C25.8886 15.1131 25.8827 15.1189 25.8769 15.1248Z" fill="#00AEEF"/>
<path d="M25.3674 17.3501C25.3616 17.3501 25.3498 17.3501 25.344 17.3501C25.0863 17.3501 24.8404 17.2389 24.6647 17.0515C24.2957 16.6767 24.3016 16.0793 24.6705 15.7104L24.6881 15.6928L25.6544 14.8612C25.6661 14.8554 25.6719 14.8437 25.6836 14.8378C26.1053 14.5157 26.7085 14.5919 27.0306 15.0135C27.3527 15.4176 27.2824 16.0149 26.8783 16.337C26.5855 16.583 26.2868 16.8348 25.994 17.1042C25.83 17.2564 25.6017 17.3501 25.3674 17.3501ZM25.3557 16.6532H25.3616C25.4201 16.6532 25.4787 16.6357 25.5197 16.5947L25.5255 16.5888C25.83 16.3077 26.1404 16.05 26.4332 15.7982L26.4449 15.7924C26.5504 15.7045 26.5738 15.5464 26.4859 15.4351C26.3922 15.318 26.2283 15.2946 26.1111 15.3824L26.1053 15.3883L25.1566 16.2082C25.0629 16.3077 25.0629 16.46 25.1624 16.5595L25.18 16.5771C25.221 16.624 25.2854 16.6532 25.3498 16.6532H25.3557Z" fill="#00AEEF"/>
<path d="M47.8786 45.208C47.5565 45.4247 47.2051 45.6297 46.8537 45.8229C46.5727 45.9811 46.4672 46.3441 46.6254 46.6252C46.6254 46.6311 46.6312 46.637 46.6371 46.6428C46.7366 46.8361 46.9357 46.9532 47.1524 46.9532C47.2578 46.9532 47.3632 46.9239 47.4511 46.8712C47.8142 46.6662 48.1714 46.4378 48.5345 46.2095C48.8097 46.0279 48.8859 45.6531 48.7043 45.3779C48.5286 45.1026 48.1655 45.0206 47.8903 45.1963C47.8903 45.2022 47.8844 45.208 47.8786 45.208Z" fill="#00AEEF"/>
<path d="M47.1642 47.3046H47.1583C46.8187 47.3046 46.5024 47.1172 46.3385 46.8127C46.3326 46.8068 46.3326 46.801 46.3267 46.7951C46.2038 46.5784 46.1745 46.3208 46.2389 46.0806C46.3033 45.8405 46.4673 45.6414 46.684 45.5185C47.0763 45.3018 47.4043 45.1085 47.6795 44.9211C47.6854 44.9153 47.6971 44.9094 47.703 44.9036C48.1422 44.6225 48.7219 44.7513 49.003 45.1905C49.2841 45.6239 49.167 46.2095 48.7336 46.4964L48.7278 46.5023C48.3706 46.7307 48.0016 46.9591 47.6327 47.1699C47.4921 47.2577 47.3282 47.3046 47.1642 47.3046ZM48.2124 45.454C48.1656 45.454 48.1246 45.4657 48.0836 45.4892L48.0719 45.495C47.7732 45.6941 47.4336 45.8991 47.0236 46.1216C46.9709 46.1509 46.9299 46.2036 46.9124 46.268C46.8948 46.3325 46.9007 46.3969 46.9358 46.4496L46.9475 46.473C46.9885 46.5491 47.0705 46.6018 47.1583 46.6018C47.1993 46.6018 47.2403 46.5901 47.2755 46.5667L47.2872 46.5609C47.6385 46.3617 48.0016 46.1334 48.353 45.9108C48.4643 45.8347 48.4935 45.6766 48.4233 45.5653C48.3706 45.495 48.2944 45.454 48.2124 45.454Z" fill="#00AEEF"/>
<path d="M42.368 12.5715C42.7604 12.6652 43.1644 12.7764 43.5744 12.8936C43.6329 12.9053 43.6974 12.9053 43.7559 12.8936C44.0194 12.8936 44.2537 12.7237 44.3357 12.4719C44.4294 12.1557 44.2537 11.816 43.9375 11.7165L42.7311 11.3651C42.4031 11.289 42.081 11.4881 41.9991 11.8102C41.8878 12.1147 42.0518 12.4544 42.3563 12.5656C42.3563 12.5656 42.3621 12.5715 42.368 12.5715Z" fill="#00AEEF"/>
<path d="M43.6622 13.2508C43.6095 13.2508 43.5568 13.2449 43.5041 13.2332L43.469 13.2273C43.0649 13.1102 42.6667 12.999 42.2801 12.9053L42.2567 12.8994C42.2509 12.8994 42.2392 12.8935 42.2333 12.8935C41.7472 12.7237 41.4954 12.1908 41.6535 11.7106C41.7882 11.2187 42.2977 10.9083 42.8013 11.0254L42.8189 11.0313L44.0311 11.3826C44.5289 11.5466 44.8042 12.0678 44.6519 12.5714L44.6461 12.5832C44.5172 12.9638 44.1717 13.2273 43.7735 13.2449C43.7442 13.2508 43.7032 13.2508 43.6622 13.2508ZM43.6505 12.5539C43.6622 12.5539 43.6739 12.5539 43.6915 12.5539L43.7208 12.548H43.7501C43.8613 12.548 43.9609 12.4777 43.996 12.3723C44.0312 12.2376 43.9609 12.0971 43.8262 12.0502L42.6374 11.7047C42.5027 11.6755 42.3621 11.7633 42.327 11.898L42.3153 11.9273C42.2684 12.0502 42.3329 12.1908 42.4558 12.2318C42.8482 12.3313 43.2464 12.4368 43.6505 12.5539Z" fill="#00AEEF"/>
<path d="M46.8305 26.0876C46.6079 25.8416 46.2273 25.8123 45.9754 26.029L35.2293 35.235L30.7786 29.3378C30.5795 29.0742 30.2047 29.0157 29.9353 29.2148C29.6776 29.4197 29.6249 29.7887 29.8123 30.0581L34.6261 36.4706L34.7608 36.5643H34.8311C34.9131 36.5819 35.0009 36.5819 35.0829 36.5643C35.2059 36.5585 35.3172 36.5233 35.4226 36.4589H35.5924L46.8187 26.8313C46.9944 26.6146 47.0003 26.3101 46.8305 26.0876Z" fill="#00AEEF"/>
<path d="M34.9599 36.9333C34.9072 36.9333 34.8545 36.9274 34.8018 36.9216H34.6496L34.386 36.7283L29.5312 30.2631C29.2267 29.8414 29.3087 29.2617 29.7186 28.9396L29.7245 28.9337C30.1461 28.6175 30.7435 28.7053 31.0538 29.1211L35.282 34.7196L45.7471 25.7538C46.1511 25.4141 46.7368 25.4551 47.0881 25.8475L47.1057 25.8709C47.3634 26.2223 47.3575 26.7025 47.0881 27.0421L47.0647 27.0714L47.0413 27.0949L35.7212 36.8103H35.5163C35.3933 36.8689 35.2645 36.9099 35.1298 36.9157C35.0712 36.9274 35.0185 36.9333 34.9599 36.9333ZM34.8779 36.2247L34.9014 36.2305C34.9424 36.2364 34.9775 36.2364 35.0185 36.2305L35.0478 36.2247H35.0771C35.1356 36.2247 35.1883 36.2071 35.2352 36.172L35.323 36.1134H35.4694L46.5669 26.5971C46.6255 26.5092 46.6196 26.398 46.5669 26.3101C46.4674 26.2106 46.3151 26.2047 46.2097 26.2984L35.1766 35.7386L30.4975 29.5486C30.4155 29.4373 30.2574 29.4139 30.1461 29.4959C30.0349 29.5837 30.0114 29.7419 30.0934 29.8531L34.8779 36.2247Z" fill="#00AEEF"/>
</svg>
