<svg width="74" height="74" viewBox="0 0 74 74" fill="none" xmlns="http://www.w3.org/2000/svg">
<path d="M70.6226 42.0671C72.0281 40.5544 73.5239 38.9796 73.5239 37.0717C73.5239 35.1639 72.0281 33.589 70.6226 32.0763C69.5614 31.1562 68.7261 30.0047 68.1842 28.7065C68.0035 27.2615 68.1503 25.7996 68.6132 24.4223C69.0873 22.4241 69.5897 20.3469 68.6132 18.7778C67.6367 17.2086 65.6385 16.5595 63.6516 15.9781C62.2461 15.6958 60.9253 15.1032 59.7851 14.2339C58.9158 13.0881 58.3119 11.7616 58.0297 10.3561C57.4483 8.35795 56.8669 6.30334 55.23 5.37199C53.593 4.44065 51.5949 4.9543 49.5854 5.42844C48.2082 5.89129 46.7406 6.03805 45.3012 5.85742C44.003 5.30426 42.8515 4.45758 41.9314 3.38512C40.4187 1.97963 38.8382 0.483826 36.936 0.483826C35.0338 0.483826 33.4477 1.97963 31.9406 3.38512C31.0205 4.44629 29.8691 5.28168 28.5708 5.82356C27.1258 6.00418 25.6639 5.85742 24.2866 5.39457C22.2885 4.92043 20.2113 4.41807 18.6421 5.33813C17.0729 6.25819 16.4238 8.36924 15.8424 10.3561C15.5602 11.7616 14.9675 13.0824 14.0982 14.2226C12.9524 15.0919 11.6259 15.6958 10.2204 15.9781C8.22227 16.5595 6.16766 17.1409 5.23631 18.7778C4.30496 20.4147 4.81862 22.4241 5.29276 24.4223C5.75561 25.7996 5.90237 27.2671 5.72174 28.7065C5.16858 30.0047 4.3219 31.1562 3.24944 32.0763C1.84395 33.589 0.348145 35.1639 0.348145 37.0717C0.348145 38.9796 1.8383 40.56 3.29459 42.0671C4.35576 42.9872 5.19116 44.1387 5.73303 45.4369C5.91366 46.8819 5.7669 48.3438 5.30405 49.7211C4.82991 51.7193 4.32754 53.7965 5.2476 55.3656C6.16766 56.9348 8.23356 57.5839 10.2317 58.1653C11.6372 58.4476 12.958 59.0402 14.0982 59.9095C14.9675 61.0553 15.5602 62.3818 15.8424 63.7873C16.4238 65.7855 17.0052 67.8401 18.6421 68.7714C20.279 69.7028 22.2772 69.1891 24.2866 68.7714C25.6639 68.3086 27.1315 68.1618 28.5708 68.3424C29.8634 68.8787 31.0149 69.7084 31.9406 70.7583C33.4533 72.1638 35.0282 73.6596 36.936 73.6596C38.8439 73.6596 40.4187 72.1638 41.9314 70.7075C42.8515 69.6463 44.003 68.8109 45.3012 68.2691C46.7462 68.0884 48.2082 68.2352 49.5854 68.698C51.5836 69.1722 53.6608 69.6745 55.23 68.698C56.7991 67.7215 57.4483 65.7121 58.0297 63.7139C58.3119 62.3084 58.9046 60.9876 59.7738 59.8474C60.9253 59.0007 62.2518 58.425 63.6516 58.1653C65.6498 57.5839 67.7044 57.0026 68.6357 55.3656C69.5671 53.7287 69.0534 51.7193 68.6357 49.7211C68.1729 48.3438 68.0261 46.8763 68.2067 45.4369C68.743 44.1443 69.5671 42.9928 70.6226 42.0671ZM67.4842 49.992C67.9245 51.8604 68.3422 53.6158 67.6705 54.7899C66.9988 55.964 65.1361 56.5341 63.3637 57.1155C61.772 57.4372 60.2762 58.1371 59.0062 59.1475C57.9901 60.4231 57.2959 61.9189 56.9741 63.5163C56.4492 65.2944 55.9186 67.1289 54.6486 67.8231C53.3842 68.5174 51.7191 68.0771 49.8507 67.6369C48.2872 67.1119 46.6277 66.9652 44.9964 67.2079C43.5119 67.8006 42.1854 68.7375 41.1299 69.9398C39.7809 71.1703 38.3754 72.5081 36.936 72.5081C35.4967 72.5081 34.0912 71.1703 32.7308 69.8834C31.681 68.6811 30.3601 67.7441 28.8756 67.1514C28.4523 67.0498 28.012 66.999 27.5774 66.999C26.3751 67.0555 25.1841 67.2474 24.0213 67.5804C22.153 68.0207 20.3975 68.4384 19.2235 67.7667C18.0494 67.095 17.4793 65.2323 16.96 63.4599C16.627 61.8851 15.9327 60.4062 14.928 59.1531C13.6523 58.1371 12.1565 57.4428 10.5591 57.1211C8.78108 56.5962 6.94661 56.0656 6.25233 54.7955C5.55805 53.5312 5.99832 51.866 6.4386 49.9977C6.96918 48.4398 7.11594 46.769 6.86758 45.1434C6.27491 43.6589 5.33791 42.3324 4.13563 41.2769C2.84867 39.9278 1.51092 38.5224 1.51092 37.083C1.51092 35.6436 2.84867 34.2381 4.13563 32.8891C5.33791 31.8336 6.27491 30.5071 6.86758 29.0226C7.11594 27.3913 6.96918 25.7262 6.4386 24.1683C5.99832 22.3 5.58063 20.5445 6.25233 19.3704C6.92403 18.1964 8.78672 17.6263 10.5591 17.107C12.1565 16.7852 13.6523 16.0853 14.928 15.0749C15.944 13.7993 16.6383 12.3035 16.96 10.7061C17.485 8.92805 18.0155 7.09358 19.2235 6.3993C20.4314 5.70502 22.153 6.14529 24.0213 6.58557C25.5849 7.11051 27.2444 7.25727 28.8756 7.01455C30.3601 6.42188 31.6866 5.48488 32.7421 4.2826C34.0912 2.99564 35.4967 1.65789 36.936 1.65789C38.3754 1.65789 39.7809 2.99564 41.1412 4.2826C42.1911 5.48488 43.5119 6.42188 44.9964 7.01455C46.6277 7.26291 48.2928 7.11616 49.8507 6.58557C51.7191 6.14529 53.4745 5.7276 54.6486 6.3993C55.8226 7.071 56.3927 8.9337 56.9741 10.7061C57.2959 12.3035 57.9958 13.7993 59.0062 15.0749C60.2818 16.091 61.7776 16.7852 63.375 17.107C65.1531 17.6319 66.9875 18.1625 67.6818 19.3704C68.3761 20.5784 67.9358 22.3 67.4955 24.1683C66.965 25.7262 66.8182 27.397 67.0666 29.0226C67.6592 30.5071 68.5962 31.8336 69.7985 32.8891C71.0855 34.2381 72.4232 35.6436 72.4232 37.083C72.4232 38.5224 71.0855 39.9278 69.7985 41.2769C68.5962 42.3324 67.6592 43.6589 67.0666 45.1434C66.8013 46.769 66.9254 48.4342 67.4391 49.9977H67.4842V49.992Z" fill="#00AEEF"/>
<path d="M36.9361 73.987C34.9323 73.987 33.3349 72.5025 31.7939 71.0631L31.7036 70.9728C30.8287 69.9737 29.7167 69.1722 28.4918 68.6585C27.1202 68.4949 25.7034 68.636 24.3883 69.0819L24.3488 69.0932C24.2189 69.1214 24.0891 69.1496 23.9536 69.1778C22.0684 69.5786 20.1154 69.9906 18.4784 69.0593C16.7456 68.0771 16.1416 65.983 15.5489 63.9566L15.5207 63.855C15.2554 62.5173 14.6853 61.236 13.8612 60.1409C12.7718 59.3225 11.4962 58.7524 10.1584 58.4814L10.1302 58.4758C8.27876 57.9396 5.9758 57.2679 4.95978 55.5294C3.97763 53.8529 4.48564 51.7249 4.97671 49.6647L4.988 49.6195C5.42828 48.31 5.57503 46.8932 5.41134 45.5216C4.8864 44.2967 4.07923 43.1848 3.0745 42.3099L3.05193 42.2929C1.6295 40.8084 0.00952148 39.132 0.00952148 37.0774C0.00952148 35.0736 1.49403 33.4762 2.93339 31.9352L3.0237 31.8392C4.03972 30.97 4.85818 29.858 5.39441 28.6275C5.5581 27.2559 5.41699 25.8391 4.97107 24.5296L4.96542 24.5013L4.93156 24.3602C4.45742 22.379 3.97199 20.33 4.9372 18.6197C5.91935 16.8869 8.01347 16.2829 10.0399 15.6902L10.1358 15.662C11.4736 15.3911 12.7605 14.8153 13.8499 13.9912C14.6684 12.9018 15.2385 11.6205 15.5094 10.2884L15.5151 10.2602C16.0626 8.39184 16.7456 6.06065 18.4615 5.05592C20.1379 4.07377 22.2659 4.58178 24.3262 5.07285L24.3713 5.08414C25.6809 5.52442 27.0976 5.67118 28.4693 5.50748C29.6941 4.98254 30.8061 4.17537 31.681 3.17065L31.7036 3.14807L31.7713 3.08598C33.3179 1.64662 34.9153 0.162109 36.9135 0.162109C38.9117 0.162109 40.5147 1.64662 42.0557 3.08598L42.1516 3.17629C43.0209 4.19231 44.1329 5.01076 45.3634 5.547C46.735 5.71069 48.1518 5.56957 49.4613 5.12366L49.4895 5.11801L49.6532 5.0785C51.6232 4.61 53.6665 4.12457 55.3655 5.08979C57.0984 6.07194 57.7023 8.16606 58.295 10.1924L58.3232 10.2884C58.5942 11.6262 59.1699 12.9131 59.994 14.0025C61.0834 14.821 62.3647 15.3911 63.6968 15.662L63.725 15.6676C65.9433 16.3168 67.8568 16.9828 68.8672 18.6028C69.9114 20.2792 69.4034 22.4129 68.9124 24.4731L68.9011 24.5183C68.4608 25.8278 68.314 27.2446 68.4777 28.6162C69.0027 29.8411 69.8098 30.953 70.8146 31.8279L70.8372 31.8505L70.8992 31.9183C72.3386 33.4649 73.8231 35.0623 73.8231 37.0604C73.8231 39.0586 72.3386 40.6616 70.8992 42.2026L70.8089 42.2929C69.8098 43.1678 69.0083 44.2798 68.4947 45.5047C68.331 46.8763 68.4721 48.2931 68.918 49.6082L68.9293 49.6477C68.9575 49.7719 68.9801 49.8961 69.0083 50.0203C69.4091 51.9168 69.8268 53.8755 68.8954 55.5181C67.9133 57.2509 65.8192 57.8549 63.7928 58.4476L63.6912 58.4758C62.3591 58.7242 61.0778 59.2773 59.9771 60.0732C59.1586 61.1626 58.5885 62.4383 58.3232 63.776L58.3176 63.8042C57.6684 66.0338 57.0024 67.9586 55.3824 68.969C53.706 70.0132 51.5723 69.5052 49.5121 69.0141L49.4669 69.0029C48.1574 68.5626 46.7406 68.4158 45.369 68.5795C44.1441 69.1045 43.0322 69.9116 42.1573 70.9164L42.1403 70.9389C40.6671 72.3726 38.9907 73.987 36.9361 73.987ZM32.1664 70.5382L32.2229 70.5946C33.6792 71.9493 35.1806 73.3491 36.9304 73.3491C38.7254 73.3491 40.2325 71.9041 41.6944 70.4987C42.6427 69.4149 43.845 68.5456 45.1715 67.9868L45.211 67.9699L45.2561 67.9643C46.735 67.778 48.259 67.9304 49.6701 68.4045H49.6758C51.6119 68.8674 53.61 69.3415 55.0607 68.4384C56.4887 67.5522 57.1096 65.746 57.7192 63.6518C58.0071 62.2125 58.6337 60.8352 59.5199 59.6668L59.5481 59.6273L59.5876 59.5991C60.7673 58.7298 62.1446 58.1315 63.5839 57.8605L63.6404 57.8436C65.5426 57.2904 67.5069 56.7203 68.3648 55.2133C69.1777 53.7852 68.8051 52.0241 68.41 50.167C68.3874 50.0485 68.3592 49.93 68.3366 49.8114C67.8625 48.4003 67.7101 46.8763 67.8964 45.4031L67.902 45.3579L67.9189 45.3184C68.4721 43.9919 69.3301 42.7896 70.4082 41.8414L70.4646 41.7849C71.8193 40.3286 73.2191 38.8272 73.2191 37.0774C73.2191 35.3276 71.8193 33.8261 70.4646 32.3698L70.4138 32.3134C69.3301 31.3651 68.4608 30.1685 67.902 28.8363L67.8851 28.7968L67.8794 28.7517C67.6931 27.2728 67.8456 25.7488 68.3197 24.3377V24.332C68.7825 22.3959 69.2567 20.3978 68.3536 18.9471C67.4674 17.5191 65.6724 16.8982 63.5896 16.2885C62.1502 16.0007 60.7729 15.3741 59.6045 14.4879L59.5707 14.4597L59.5424 14.4258C58.6506 13.2518 58.0241 11.8745 57.7305 10.4295L57.7136 10.3674C57.1604 8.46522 56.5903 6.50092 55.0833 5.64295C53.5987 4.80192 51.7699 5.23655 49.8338 5.69375L49.6871 5.72762C48.2759 6.20176 46.7519 6.35416 45.2731 6.16789L45.2279 6.16225L45.1884 6.14532C43.8563 5.57522 42.6596 4.69467 41.717 3.59963L41.6605 3.54883C40.2043 2.19414 38.7028 0.794297 36.953 0.794297C35.2032 0.794297 33.7018 2.19414 32.2455 3.54883L32.189 3.59963C31.2407 4.68338 30.0441 5.55264 28.712 6.11145L28.6725 6.12838L28.6273 6.13403C27.1484 6.3203 25.6244 6.16789 24.2133 5.69375H24.2076C22.2716 5.2309 20.2678 4.75676 18.8171 5.60344C17.3213 6.47834 16.6835 8.66278 16.1642 10.4239C15.8763 11.8632 15.2498 13.2405 14.3636 14.4089L14.3354 14.4428L14.3015 14.471C13.1274 15.3628 11.7502 15.9894 10.3052 16.2829L10.2431 16.2998C8.34085 16.853 6.37656 17.4231 5.51859 18.9302C4.67191 20.4203 5.11218 22.2605 5.57503 24.2022L5.60326 24.3264C6.0774 25.7375 6.2298 27.2615 6.04353 28.7404L6.03788 28.7855L6.02095 28.8251C5.45085 30.1572 4.57031 31.3538 3.47527 32.2964L3.42447 32.3529C2.06978 33.8092 0.669932 35.3106 0.669932 37.0604C0.669932 38.8554 2.11493 40.3625 3.52042 41.8244C4.60417 42.7727 5.47343 43.975 6.03224 45.3015L6.04917 45.341L6.05482 45.3861C6.24109 46.865 6.08869 48.389 5.61454 49.8002V49.8058C5.15169 51.7419 4.67755 53.7457 5.52423 55.1963C6.34269 56.5962 8.17716 57.2284 10.3052 57.8436C11.7445 58.1315 13.1218 58.758 14.2902 59.6442L14.3241 59.6724L14.3523 59.7063C15.2385 60.8804 15.865 62.2633 16.1529 63.7026L16.1698 63.7591C16.723 65.6613 17.2931 67.6256 18.8002 68.4836C20.2282 69.2907 21.9781 68.9238 23.8295 68.5287C23.9536 68.5005 24.0778 68.4779 24.2076 68.4497C25.6188 67.9755 27.1428 67.8232 28.616 68.0094L28.6612 68.0151L28.7007 68.032C30.0159 68.6021 31.2182 69.4601 32.1664 70.5382ZM36.9361 72.8242C35.3725 72.8242 33.9219 71.4469 32.5164 70.1205L32.4882 70.0922C31.4835 68.9351 30.1965 68.0264 28.7741 67.4563C28.3846 67.3603 27.9782 67.3151 27.5774 67.3208C26.4034 67.3772 25.2349 67.5691 24.1004 67.8909L24.0609 67.9022C22.1417 68.3537 20.3355 68.7827 19.0542 68.0489C17.7447 67.2982 17.1576 65.3057 16.644 63.5502L16.6383 63.5277C16.3222 62.0206 15.6505 60.5869 14.691 59.3789C13.4661 58.4137 12.0154 57.742 10.4858 57.4316L10.4293 57.4146C8.6005 56.8784 6.71523 56.3196 5.95886 54.948C5.23636 53.6328 5.63148 51.9507 6.05482 50.1727L6.12255 49.8905C6.63056 48.3947 6.77732 46.786 6.54589 45.2224C5.97579 43.8 5.06703 42.5187 3.91554 41.5083L3.89296 41.4914C2.56085 40.0972 1.17794 38.6522 1.17794 37.0774C1.17794 35.5025 2.55521 34.0575 3.89296 32.6633L3.91554 32.6464C5.06703 31.636 5.97579 30.3547 6.54589 28.9323C6.77732 27.3688 6.63056 25.7601 6.12255 24.2643L6.10562 24.2078C5.65406 22.2887 5.22507 20.4824 5.95886 19.2011C6.70958 17.8916 8.70211 17.3046 10.4576 16.7909L10.4858 16.7853C12.0154 16.4748 13.4661 15.8031 14.691 14.8379C15.6562 13.613 16.3279 12.1624 16.6383 10.6327L16.6553 10.5763C17.1915 8.75309 17.7447 6.86782 19.0598 6.11145C20.3355 5.37766 22.0684 5.78407 23.9028 6.2187L24.123 6.2695C25.6188 6.77186 27.2331 6.91862 28.791 6.69284C30.2078 6.12274 31.4947 5.21397 32.5051 4.06248L32.522 4.0399C33.9162 2.70779 35.3556 1.32488 36.9361 1.32488C38.4996 1.32488 39.9503 2.70215 41.3557 4.03426L41.384 4.06248C42.3887 5.21397 43.6644 6.12274 45.0811 6.69284C46.6447 6.92426 48.2534 6.7775 49.7492 6.2695L49.8056 6.25256C51.7248 5.801 53.531 5.37202 54.8123 6.1058C56.0485 6.81702 56.6411 8.63456 57.2169 10.3957L57.2903 10.6271C57.6007 12.1567 58.2724 13.6074 59.2376 14.8323C60.4625 15.7975 61.9131 16.4692 63.4428 16.7796L63.4993 16.7966C65.3224 17.3328 67.2077 17.886 67.9641 19.2011C68.7035 20.4768 68.2915 22.2097 67.8568 24.0441L67.806 24.2643C67.298 25.7601 67.1513 27.3688 67.3827 28.9323C67.9528 30.3547 68.8616 31.636 70.0131 32.6464L70.0356 32.6633C71.3677 34.0575 72.7506 35.4969 72.7506 37.0774C72.7506 38.6578 71.3734 40.0972 70.0356 41.4914L70.0131 41.5083C68.8616 42.5187 67.9528 43.8 67.3827 45.2224C67.1456 46.7013 67.2472 48.2366 67.6819 49.6703H67.7439L67.806 49.9413C68.2576 51.8604 68.6866 53.6667 67.9528 54.948C67.2416 56.1841 65.424 56.7768 63.6629 57.3525L63.4315 57.4259C61.9075 57.7364 60.4569 58.4081 59.2376 59.3733C58.2724 60.5981 57.6007 62.0488 57.2903 63.5785L57.2733 63.6349C56.7371 65.4637 56.1783 67.349 54.8067 68.1054C53.4915 68.8279 51.8094 68.4328 50.0314 68.0094L49.7492 67.9417C48.2534 67.4393 46.639 67.2926 45.0811 67.5183C43.6644 68.0884 42.3774 68.9972 41.367 70.1487L41.3445 70.1713L41.1977 70.3067C39.843 71.5429 38.4432 72.8242 36.9361 72.8242ZM32.9567 69.6576C34.2662 70.8994 35.6209 72.1864 36.9304 72.1864C38.1948 72.1864 39.4987 70.9897 40.7631 69.8382L40.8985 69.7141C41.9823 68.4836 43.3539 67.5183 44.8779 66.9087L44.9118 66.8974L44.9513 66.8918C46.6165 66.6434 48.3437 66.7958 49.9411 67.3321L50.1782 67.3885C51.9054 67.8006 53.3955 68.1505 54.4962 67.5466C55.6421 66.9144 56.1557 65.1589 56.6581 63.4543L56.6637 63.443C56.9968 61.8117 57.7193 60.2595 58.7578 58.9556L58.7804 58.9274L58.8087 58.9048C60.1069 57.8718 61.6535 57.1493 63.2848 56.8107L63.4654 56.7542C65.1079 56.218 66.8126 55.6648 67.3996 54.6432C67.981 53.6271 67.6423 52.0354 67.2359 50.3251H67.2134L67.14 50.105C66.615 48.4963 66.4796 46.769 66.7561 45.0983L66.7618 45.0644L66.7731 45.0305C67.3771 43.5065 68.3479 42.1292 69.5784 41.0511C70.8202 39.7529 72.1072 38.4095 72.1072 37.0887C72.1072 35.7678 70.8259 34.4244 69.5784 33.1262C68.3479 32.0424 67.3771 30.6652 66.7731 29.1468L66.7618 29.1129L66.7561 29.0791C66.5021 27.4083 66.6545 25.6867 67.1964 24.0893L67.2359 23.9143C67.6423 22.2097 68.0205 20.5953 67.4109 19.5398C66.7844 18.4504 65.0233 17.9311 63.3186 17.4287L63.3017 17.4231C61.6704 17.0901 60.1182 16.3676 58.8143 15.329L58.7861 15.3064L58.7635 15.2782C57.7249 13.9743 57.0024 12.422 56.6694 10.7908L56.6129 10.6101C56.0767 8.96758 55.5235 7.26293 54.5019 6.6759C53.4407 6.06629 51.753 6.46705 49.9637 6.89039H49.9524C48.355 7.43227 46.6277 7.58467 44.9626 7.33067L44.9287 7.32502L44.8949 7.31374C43.3765 6.70977 41.9992 5.73891 40.9268 4.5084C39.6172 3.2666 38.2625 1.97965 36.953 1.97965C35.6322 1.97965 34.2888 3.26096 32.9905 4.5084C31.9068 5.73891 30.5295 6.70977 29.0111 7.31374L28.9773 7.32502L28.9378 7.33067C27.2726 7.57903 25.5454 7.42663 23.948 6.89039L23.773 6.85088C22.0684 6.44448 20.454 6.06629 19.3985 6.6759C18.3091 7.30245 17.7898 9.06354 17.2874 10.7682L17.2818 10.7851C16.9488 12.4164 16.2263 13.9686 15.1877 15.2725L15.1651 15.3008L15.1369 15.3233C13.833 16.3619 12.2807 17.0844 10.6495 17.4175C9.09158 17.8747 7.16115 18.4448 6.54025 19.5285C5.93064 20.5897 6.3314 22.2774 6.75474 24.0667V24.078C7.29662 25.6754 7.44902 27.4026 7.19501 29.0678L7.18937 29.1016L7.17808 29.1355C6.57412 30.6595 5.60326 32.0368 4.37275 33.1149C3.13095 34.4131 1.844 35.7565 1.844 37.0774C1.844 38.3982 3.12531 39.7416 4.37275 41.0398C5.60326 42.1236 6.57412 43.5009 7.17808 45.0192L7.18937 45.0531L7.19501 45.087C7.44902 46.7577 7.29662 48.4793 6.75474 50.0767L6.6983 50.3138C6.28625 52.041 5.93628 53.5312 6.54025 54.6319C7.17244 55.7777 8.92789 56.2914 10.6325 56.7937L10.6438 56.7994C12.2751 57.1324 13.8273 57.8549 15.1312 58.8935L15.1595 58.9161L15.182 58.9443C16.2093 60.2312 16.9318 61.7609 17.2762 63.3753C17.7334 64.9331 18.3035 66.8636 19.3929 67.4845C20.4484 68.0941 22.1417 67.6933 23.9311 67.27L23.948 67.2643C25.1277 66.9313 26.3469 66.7281 27.5661 66.6717H27.5774C28.0403 66.6717 28.5031 66.7225 28.9547 66.8297L28.9773 66.8354L28.9999 66.841C30.5126 67.4563 31.8842 68.4271 32.9567 69.6576Z" fill="#00AEEF"/>
<path d="M46.2778 21.4702L26.0195 52.6337H27.5774L47.8357 21.4702H46.2778Z" fill="#00AEEF"/>
<path d="M27.7525 52.9555H25.4326L46.1085 21.1485H48.4285L27.7525 52.9555ZM26.6123 52.3176H27.4082L47.2487 21.792H46.4529L26.6123 52.3176Z" fill="#00AEEF"/>
<path d="M30.6932 35.4969C34.1364 35.4969 36.9248 32.7085 36.9248 29.2653C36.9248 25.8222 34.1364 23.0338 30.6932 23.0338C27.2501 23.0338 24.4617 25.8222 24.4617 29.2653C24.4617 32.7085 27.2501 35.4969 30.6932 35.4969ZM30.6932 24.586C33.2728 24.586 35.3669 26.6801 35.3669 29.2597C35.3669 31.8392 33.2728 33.9333 30.6932 33.9333C28.1137 33.9333 26.0196 31.8392 26.0196 29.2597C26.0196 26.6801 28.1137 24.586 30.6932 24.586Z" fill="#00AEEF"/>
<path d="M30.6932 35.813C27.0807 35.813 24.1399 32.8722 24.1399 29.2597C24.1399 25.6472 27.0807 22.7064 30.6932 22.7064C34.3057 22.7064 37.2465 25.6472 37.2465 29.2597C37.2465 32.8722 34.3057 35.813 30.6932 35.813ZM30.6932 23.3498C27.4307 23.3498 24.7777 26.0028 24.7777 29.2653C24.7777 32.5279 27.4307 35.1808 30.6932 35.1808C33.9557 35.1808 36.6087 32.5222 36.6087 29.2597C36.6087 25.9971 33.9557 23.3498 30.6932 23.3498ZM30.6932 34.2551C27.9387 34.2551 25.6978 32.0142 25.6978 29.2597C25.6978 26.5051 27.9387 24.2643 30.6932 24.2643C33.4477 24.2643 35.6886 26.5051 35.6886 29.2597C35.6886 32.0142 33.4477 34.2551 30.6932 34.2551ZM30.6932 24.9077C28.2943 24.9077 26.3356 26.8607 26.3356 29.2597C26.3356 31.6586 28.2886 33.6172 30.6932 33.6172C33.0921 33.6172 35.0451 31.6642 35.0451 29.2597C35.0508 26.8607 33.0978 24.9077 30.6932 24.9077Z" fill="#00AEEF"/>
<path d="M49.3936 44.8442C49.3936 41.4011 46.6052 38.6127 43.162 38.6127C39.7188 38.6127 36.9304 41.4011 36.9304 44.8442C36.9304 48.2874 39.7188 51.0758 43.162 51.0758C46.6052 51.0758 49.3936 48.2874 49.3936 44.8442ZM43.162 49.5179C40.5824 49.5179 38.4883 47.4238 38.4883 44.8442C38.4883 42.2647 40.5824 40.1706 43.162 40.1706C45.7415 40.1706 47.8357 42.2647 47.8357 44.8442C47.8357 47.4238 45.7415 49.5179 43.162 49.5179Z" fill="#00AEEF"/>
<path d="M43.1619 51.3976C39.5494 51.3976 36.6086 48.4568 36.6086 44.8443C36.6086 41.2318 39.5494 38.291 43.1619 38.291C46.7744 38.291 49.7153 41.2318 49.7153 44.8443C49.7153 48.4568 46.7744 51.3976 43.1619 51.3976ZM43.1619 38.9344C39.8994 38.9344 37.2465 41.5874 37.2465 44.8499C37.2465 48.1124 39.8994 50.7654 43.1619 50.7654C46.4245 50.7654 49.0774 48.1124 49.0774 44.8499C49.0774 41.5874 46.4188 38.9344 43.1619 38.9344ZM43.1619 49.8397C40.4074 49.8397 38.1665 47.5988 38.1665 44.8443C38.1665 42.0897 40.4074 39.8488 43.1619 39.8488C45.9165 39.8488 48.1574 42.0897 48.1574 44.8443C48.1574 47.5988 45.9165 49.8397 43.1619 49.8397ZM43.1619 40.4923C40.763 40.4923 38.81 42.4453 38.81 44.8443C38.81 47.2432 40.763 49.2018 43.1619 49.2018C45.5609 49.2018 47.5195 47.2488 47.5195 44.8443C47.5139 42.4453 45.5609 40.4923 43.1619 40.4923Z" fill="#00AEEF"/>
</svg>
