<svg width="83" height="73" viewBox="0 0 83 73" fill="none" xmlns="http://www.w3.org/2000/svg">
<path d="M20.6314 72.5364C19.8174 72.5364 19.3899 72.1499 19.2025 71.904C18.9448 71.5643 18.7164 70.967 19.0737 70.0124C19.5012 68.8763 27.448 49.4747 29.6383 44.1338H10.4358C9.51633 45.9141 6.48867 51.7411 5.90305 52.8772L5.86205 52.9591C5.68637 53.3047 5.46969 53.7322 4.90164 53.9664C4.49756 54.1362 3.98807 54.1714 3.13892 54.1772H1.95011C1.47576 54.1772 1.06582 53.9957 0.802293 53.6677C0.650031 53.4803 0.415783 53.0704 0.550476 52.4497C0.696881 51.7411 3.45515 38.2776 3.81824 36.4915C3.19162 33.5165 0.603182 21.1892 0.532907 20.4104C0.486058 19.9126 0.603182 19.5085 0.872567 19.2157C1.25322 18.794 1.76271 18.794 1.95011 18.794H3.14477C3.82995 18.8116 5.25301 18.8468 5.89719 20.0941C6.48281 21.2302 9.51047 27.0571 10.4299 28.8374H29.6324C27.448 23.4966 19.5012 4.08911 19.0737 2.95301C18.7164 2.00431 18.9448 1.40112 19.2025 1.06146C19.4075 0.792071 19.8994 0.352856 20.8774 0.434843C21.4454 0.481693 23.2901 0.663235 24.7835 0.827209C26.2592 0.991182 26.8624 1.75249 27.2255 2.20927C27.2489 2.23855 27.2723 2.27369 27.3016 2.30297C27.6237 2.70119 45.4383 25.5053 48.0326 28.8316H72.7341C76.4645 28.8316 78.8304 30.483 80.1597 31.8651C81.7468 33.5165 82.4729 35.414 82.4729 36.4798C82.4729 37.5456 81.7526 39.4489 80.1714 41.0945C78.8479 42.4765 76.4762 44.128 72.7341 44.128H48.0326C45.4324 47.4543 27.6237 70.2584 27.3016 70.6566C27.2782 70.6859 27.2548 70.7152 27.2255 70.7503C26.8683 71.2071 26.2651 71.9684 24.7835 72.1324C23.2843 72.2963 21.4454 72.4779 20.8774 72.5247C20.7895 72.5364 20.7075 72.5364 20.6314 72.5364ZM9.27037 42.2247H32.4785L31.9397 43.5424C31.8343 43.8 21.6445 68.6596 20.8891 70.6097C21.586 70.5453 23.2433 70.3814 24.5726 70.235C25.2578 70.1588 25.4452 69.9246 25.7263 69.5674C25.7556 69.5322 25.7849 69.4912 25.8141 69.4561C26.1011 69.1047 39.6758 51.7235 46.8145 42.5878L47.1015 42.2189H72.7399C75.8086 42.2189 77.7294 40.8895 78.7952 39.771C80.1187 38.3889 80.5638 36.9307 80.5638 36.4739C80.5638 36.023 80.1129 34.5648 78.7835 33.1827C77.7118 32.0642 75.791 30.7348 72.7341 30.7348H47.0956L46.8086 30.3659C39.6758 21.2361 26.1011 3.86072 25.8141 3.50935C25.7849 3.47421 25.7556 3.43908 25.7263 3.40394C25.4452 3.04671 25.2578 2.81246 24.5726 2.73633C23.2433 2.58993 21.586 2.42595 20.8891 2.36153C21.6445 4.31751 31.8402 29.1771 31.9397 29.4289L32.4785 30.7466H9.27037L9.00098 30.2312C8.95999 30.1551 4.88992 22.3136 4.19889 20.9726C4.16375 20.9081 4.07591 20.7266 3.10378 20.7032H2.5123C2.89881 22.788 4.57369 30.8285 5.72736 36.2865L5.76835 36.4798L5.72736 36.673C5.69808 36.8136 3.13306 49.3459 2.53573 52.2681H3.12135C3.60742 52.2623 3.93536 52.2447 4.09348 52.2213C4.11691 52.1803 4.14033 52.1334 4.1579 52.0924L4.20475 51.9987C4.89578 50.6577 8.96584 42.8221 9.00684 42.7401L9.27037 42.2247Z" fill="#00AEEF"/>
</svg>
