<svg width="81" height="79" viewBox="0 0 81 79" fill="none" xmlns="http://www.w3.org/2000/svg">
<path d="M20.7675 73.1874C15.7429 73.1874 11.6553 69.0998 11.6553 64.0751C11.6553 59.0505 15.7429 54.9629 20.7675 54.9629C25.7922 54.9629 29.8798 59.0505 29.8798 64.0751C29.8798 69.0998 25.798 73.1874 20.7675 73.1874ZM20.7675 56.7842C16.7502 56.7842 13.4824 60.0519 13.4824 64.0693C13.4824 68.0866 16.7502 71.3544 20.7675 71.3544C24.7849 71.3544 28.0526 68.0866 28.0526 64.0693C28.0526 60.0519 24.7907 56.7842 20.7675 56.7842Z" fill="#00AEEF"/>
<path d="M63.4126 73.1874C58.3879 73.1874 54.3003 69.0998 54.3003 64.0751C54.3003 59.0505 58.3879 54.9629 63.4126 54.9629C68.4372 54.9629 72.5248 59.0505 72.5248 64.0751C72.5248 69.0998 68.4372 73.1874 63.4126 73.1874ZM63.4126 56.7842C59.3952 56.7842 56.1274 60.0519 56.1274 64.0693C56.1274 68.0866 59.3952 71.3544 63.4126 71.3544C67.4299 71.3544 70.6977 68.0866 70.6977 64.0693C70.6977 60.0519 67.4299 56.7842 63.4126 56.7842Z" fill="#00AEEF"/>
<path d="M76.5303 64.9893H73.2508V63.1622H76.5303C77.7016 63.1622 78.8962 61.9675 78.8962 60.7963V46.9464H61.7668C60.742 46.9464 59.6879 46.4779 58.868 45.6521C58.0481 44.8323 57.5738 43.7723 57.5738 42.7533V36.1944C57.5738 33.9632 59.5356 32.0013 61.7668 32.0013H71.166L70.0065 30.4553C69.0109 29.2548 67.055 27.2695 65.0463 27.2695H51.9284C50.7572 27.2695 49.5625 28.4642 49.5625 29.6354V60.7963C49.5625 61.9558 50.7572 63.1505 51.9343 63.1622H55.2079V64.9893H51.9225C50.8918 64.9835 49.8377 64.5091 49.0237 63.701C48.2038 62.887 47.7354 61.827 47.7354 60.7963V29.6354C47.7354 28.5989 48.2038 27.5389 49.0179 26.7249C49.8319 25.9109 50.8918 25.4424 51.9284 25.4424H65.0463C67.6699 25.4424 69.9596 27.5448 71.4237 29.3075L71.453 29.3426L78.2345 38.3787C78.334 38.5193 80.7234 41.8983 80.7234 45.0255V60.7963C80.7234 61.8328 80.2549 62.8928 79.4408 63.7068C78.6268 64.5208 77.5669 64.9893 76.5303 64.9893ZM61.7727 33.8285C60.6776 33.8285 59.4068 34.865 59.4068 36.1944V42.7533C59.4068 43.8836 60.6483 45.1192 61.7727 45.1192H78.9021V45.0255C78.9021 42.5484 76.8758 39.6144 76.7587 39.4446L72.5481 33.8226H61.7727V33.8285Z" fill="#00AEEF"/>
<path d="M45.6214 64.9889H28.9722V63.1618H45.6273C46.7926 63.1618 47.7413 62.2131 47.7413 61.0477V18.1568C47.7413 17.8465 47.267 17.2316 46.2304 16.6108C45.1763 15.9842 44.0519 15.6621 43.4839 15.6621H4.11847C2.95309 15.6621 2.00438 16.6108 2.00438 17.7762V60.7959C2.00438 61.9671 3.19905 63.1618 4.37029 63.1618H12.569V64.9889H4.37029C3.33374 64.9889 2.27377 64.5204 1.45976 63.7064C0.645743 62.8924 0.177246 61.8324 0.177246 60.7959V17.7762C0.177246 15.6035 1.94582 13.835 4.11847 13.835H43.478C44.4794 13.835 45.9201 14.3093 47.1557 15.0413C48.7076 15.9608 49.5626 17.0676 49.5626 18.1568V61.0477C49.5626 63.2203 47.7941 64.9889 45.6214 64.9889Z" fill="#00AEEF"/>
</svg>
