<svg width="81" height="62" viewBox="0 0 81 62" fill="none" xmlns="http://www.w3.org/2000/svg">
<path d="M25.1831 32.4771C25.1831 36.4066 28.3689 39.5865 32.2925 39.5865C36.2162 39.5865 39.4078 36.4066 39.4078 32.4771C39.4078 28.5476 36.2221 25.3677 32.2925 25.3677C28.3689 25.3735 25.189 28.5535 25.1831 32.4771ZM38.3127 32.4771C38.3127 35.7976 35.6189 38.4973 32.2925 38.4973C28.9662 38.4973 26.2724 35.8034 26.2724 32.4771C26.2724 29.1508 28.9662 26.4569 32.2925 26.4569C35.613 26.4686 38.3069 29.1566 38.3127 32.4771Z" fill="#00AEEF"/>
<path d="M32.2926 39.9555C28.1698 39.9555 24.8142 36.5999 24.8142 32.4771C24.8201 28.3602 28.1757 25.0046 32.2926 24.9987C36.4154 24.9987 39.771 28.3543 39.771 32.4771C39.771 36.5999 36.4154 39.9555 32.2926 39.9555ZM25.5462 32.4829C25.5462 36.2016 28.5739 39.2293 32.2926 39.2293C36.0113 39.2293 39.0389 36.2016 39.0389 32.4829C39.0389 28.7643 36.0113 25.7366 32.2926 25.7366C28.5797 25.7366 25.5521 28.7643 25.5462 32.4829ZM32.2926 38.8604C28.773 38.8604 25.9093 35.9967 25.9093 32.4771C25.9093 28.9575 28.773 26.0938 32.2926 26.0938C35.8063 26.0997 38.67 28.9634 38.6758 32.4771C38.6758 35.9967 35.8122 38.8604 32.2926 38.8604ZM32.2926 26.8259C29.1771 26.8259 26.6413 29.3616 26.6413 32.4771C26.6413 35.5926 29.1771 38.1283 32.2926 38.1283C35.4081 38.1283 37.9438 35.5926 37.9438 32.4771C37.9438 29.3674 35.4081 26.8317 32.2926 26.8259Z" fill="#00AEEF"/>
<path d="M48.157 32.4771C48.157 30.9662 46.933 29.7422 45.4221 29.7422C43.9112 29.7422 42.6873 30.9662 42.6873 32.4771C42.6873 33.988 43.9112 35.2119 45.4221 35.2119C46.933 35.2178 48.157 33.988 48.157 32.4771ZM45.4221 34.1227C44.5144 34.1227 43.7824 33.3907 43.7824 32.483C43.7824 31.5752 44.5144 30.8432 45.4221 30.8432C46.3298 30.8432 47.0618 31.5752 47.0618 32.483C47.0618 33.3848 46.3298 34.1227 45.4221 34.1227Z" fill="#00AEEF"/>
<path d="M45.4222 35.5809C43.7121 35.5809 42.3242 34.1871 42.3242 32.4829C42.3242 30.7788 43.718 29.385 45.4222 29.385C47.1263 29.385 48.5201 30.7788 48.5201 32.4829C48.5201 34.1871 47.1322 35.5809 45.4222 35.5809ZM45.4222 30.1112C44.1162 30.1112 43.0504 31.177 43.0504 32.4829C43.0504 33.7889 44.1162 34.8547 45.4222 34.8547C46.7281 34.8547 47.7939 33.7889 47.7939 32.4829C47.7939 31.177 46.7281 30.1112 45.4222 30.1112ZM45.4222 34.4858C44.3153 34.4858 43.4135 33.5839 43.4135 32.4771C43.4135 31.3703 44.3153 30.4684 45.4222 30.4684C46.529 30.4684 47.4308 31.3703 47.4308 32.4771C47.4308 33.5839 46.529 34.4858 45.4222 34.4858ZM45.4222 31.2063C44.7194 31.2063 44.1455 31.7802 44.1455 32.4829C44.1455 33.1857 44.7194 33.7596 45.4222 33.7596C46.1249 33.7596 46.6988 33.1857 46.6988 32.4829C46.6988 31.7802 46.1249 31.2063 45.4222 31.2063Z" fill="#00AEEF"/>
<path d="M15.3386 32.4771C15.3386 33.988 16.5626 35.2119 18.0735 35.2119C19.5844 35.2119 20.8083 33.988 20.8083 32.4771C20.8083 30.9662 19.5844 29.7422 18.0735 29.7422C16.5626 29.7422 15.3386 30.9721 15.3386 32.4771ZM19.7132 32.4771C19.7132 33.3848 18.9812 34.1168 18.0735 34.1168C17.1658 34.1168 16.4337 33.3848 16.4337 32.4771C16.4337 31.5694 17.1658 30.8374 18.0735 30.8374C18.9753 30.8374 19.7132 31.5752 19.7132 32.4771Z" fill="#00AEEF"/>
<path d="M18.0735 35.5809C16.3635 35.5809 14.9756 34.1871 14.9756 32.4829C14.9756 30.7788 16.3694 29.385 18.0735 29.385C19.7777 29.385 21.1715 30.7788 21.1715 32.4829C21.1715 34.1871 19.7835 35.5809 18.0735 35.5809ZM18.0735 30.1112C16.7676 30.1112 15.7018 31.177 15.7018 32.4829C15.7018 33.7889 16.7676 34.8547 18.0735 34.8547C19.3795 34.8547 20.4453 33.7889 20.4453 32.4829C20.4453 31.177 19.3795 30.1112 18.0735 30.1112ZM18.0735 34.4858C16.9667 34.4858 16.0648 33.5839 16.0648 32.4771C16.0648 31.3703 16.9667 30.4684 18.0735 30.4684C19.1803 30.4684 20.0822 31.3703 20.0822 32.4771C20.0822 33.5839 19.1803 34.4858 18.0735 34.4858ZM18.0735 31.2063C17.3708 31.2063 16.7969 31.7802 16.7969 32.4829C16.7969 33.1857 17.3708 33.7596 18.0735 33.7596C18.7763 33.7596 19.3502 33.1857 19.3502 32.4829C19.3502 31.7802 18.7763 31.2063 18.0735 31.2063Z" fill="#00AEEF"/>
<path d="M6.03911 13.3332C6.34364 13.3332 6.58374 13.0872 6.58374 12.7885V8.95858H58.0071V12.7885C58.0071 13.0931 58.253 13.3332 58.5517 13.3332C58.8504 13.3332 59.0963 13.0872 59.0963 12.7885V8.41395C59.0963 8.10943 58.8504 7.86932 58.5517 7.86932H6.03911C5.73459 7.86932 5.49449 8.11528 5.49449 8.41395V12.7885C5.48863 13.0872 5.73459 13.3332 6.03911 13.3332Z" fill="#00AEEF"/>
<path d="M58.5516 13.6962C58.048 13.6962 57.6381 13.2863 57.6381 12.7827V9.32165H6.94676V12.7885C6.94676 13.2922 6.53683 13.7021 6.0332 13.7021C5.52956 13.7021 5.11963 13.2922 5.11963 12.7885V8.41393C5.11963 7.9103 5.52956 7.50037 6.0332 7.50037H58.5516C59.0553 7.50037 59.4652 7.9103 59.4652 8.41393V12.7885C59.4652 13.2922 59.0553 13.6962 58.5516 13.6962ZM6.2206 8.58962H58.3701V12.7827C58.3701 12.8822 58.4521 12.9642 58.5516 12.9642C58.6512 12.9642 58.7332 12.8822 58.7332 12.7827V8.40808C58.7332 8.30852 58.6512 8.22654 58.5516 8.22654H6.03905C5.9395 8.22654 5.85751 8.30852 5.85751 8.40808V12.7827C5.85751 12.8822 5.9395 12.9642 6.03905 12.9642C6.13861 12.9642 6.2206 12.8822 6.2206 12.7827V8.58962Z" fill="#00AEEF"/>
<path d="M10.4139 6.76834C10.7184 6.76834 10.9585 6.52238 10.9585 6.22372V2.39376H53.6268V6.22372C53.6268 6.52824 53.8728 6.76834 54.1714 6.76834C54.476 6.76834 54.7161 6.52238 54.7161 6.22372V1.84913C54.7161 1.54461 54.4701 1.3045 54.1714 1.3045H10.4139C10.1093 1.3045 9.86924 1.55046 9.86924 1.84913V6.22372C9.86339 6.52238 10.1093 6.76834 10.4139 6.76834Z" fill="#00AEEF"/>
<path d="M54.1772 7.13141C53.6736 7.13141 53.2637 6.72147 53.2637 6.21784V2.75097H11.3274V6.21784C11.3274 6.72147 10.9174 7.13141 10.4138 7.13141C9.91018 7.13141 9.50024 6.72147 9.50024 6.21784V1.84326C9.50024 1.33962 9.91018 0.929688 10.4138 0.929688H54.1772C54.6809 0.929688 55.0908 1.33962 55.0908 1.84326V6.21784C55.0908 6.72733 54.6809 7.13141 54.1772 7.13141ZM10.5954 2.0248H53.9957V6.21784C53.9957 6.3174 54.0777 6.39938 54.1772 6.39938C54.2768 6.39938 54.3588 6.3174 54.3588 6.21784V1.84326C54.3588 1.7437 54.2768 1.66171 54.1772 1.66171H10.4138C10.3143 1.66171 10.2323 1.7437 10.2323 1.84326V6.21784C10.2323 6.3174 10.3143 6.39938 10.4138 6.39938C10.5134 6.39938 10.5954 6.3174 10.5954 6.21784V2.0248Z" fill="#00AEEF"/>
<path d="M64.0213 29.7423C56.3731 29.7715 49.8317 35.2412 48.4437 42.7606L47.0675 39.8969C46.9328 39.6275 46.6049 39.5104 46.3355 39.6451C46.0661 39.7798 45.949 40.1077 46.0837 40.3771L48.2739 44.7517C48.3032 44.7868 48.3442 44.8161 48.3852 44.8396H48.4496C48.5316 44.8864 48.6194 44.9098 48.7131 44.9157C48.9005 44.9215 49.0762 44.8337 49.1816 44.6873L53.4157 41.6655C53.6558 41.4839 53.7026 41.1384 53.5211 40.8983C53.3395 40.6582 52.9999 40.6114 52.7539 40.7871L49.4744 43.2584C50.7745 35.2119 58.3524 29.7423 66.3989 31.0423C74.4453 32.3424 79.915 39.9203 78.6149 47.9668C77.3148 56.0132 69.7369 61.4829 61.6905 60.1828C56.2911 59.3102 51.8228 55.5271 50.0659 50.3444C49.9605 50.0633 49.6501 49.911 49.3632 50.0047C49.0821 50.1043 48.9298 50.4088 49.0235 50.6958C51.8403 58.994 60.8472 63.433 69.1454 60.622C77.4437 57.8052 81.8827 48.7983 79.0717 40.5001C76.8815 34.0641 70.8262 29.7364 64.0213 29.7423Z" fill="#00AEEF"/>
<path d="M64.033 61.846C61.5793 61.846 59.1373 61.2838 56.8709 60.1652C52.9824 58.2502 50.0718 54.9298 48.6839 50.8246C48.5258 50.3502 48.7776 49.8349 49.2461 49.6709C49.7263 49.5128 50.2358 49.7587 50.4115 50.2331V50.239C52.1274 55.3046 56.4727 58.9764 61.7491 59.8314C69.5847 61.0964 76.987 55.7555 78.2578 47.9199C79.5227 40.0843 74.1818 32.6821 66.3462 31.4113C58.821 30.1932 51.694 35.0772 50.0191 42.4034L52.5432 40.5059C52.9472 40.2073 53.5153 40.2893 53.8198 40.6875C53.9662 40.8807 54.0306 41.1208 53.9955 41.361C53.9604 41.6011 53.8374 41.8177 53.6383 41.9641L53.6324 41.97L49.4394 44.9625C49.2578 45.1733 48.9884 45.2963 48.7074 45.2905H48.6956C48.5844 45.2846 48.4731 45.2612 48.3677 45.2143H48.2916L48.2096 45.1675C48.1334 45.1265 48.0632 45.0679 48.0046 45.0035L47.9695 44.9684L45.7617 40.5469C45.6504 40.3244 45.6387 40.0784 45.7148 39.8442C45.7968 39.6158 45.9608 39.4284 46.1775 39.323C46.3941 39.2176 46.646 39.2 46.8744 39.282C47.1028 39.364 47.2902 39.528 47.3956 39.7446L48.315 41.6596C50.1246 34.515 56.5664 29.4202 64.0213 29.3909C64.0272 29.3909 64.0389 29.3909 64.0448 29.3909C71.0019 29.3909 77.1744 33.8123 79.4114 40.4064C80.8052 44.5116 80.5183 48.9155 78.5974 52.804C76.6824 56.6925 73.362 59.603 69.2568 60.991C67.5526 61.559 65.784 61.846 64.033 61.846ZM49.5389 50.3561C49.5214 50.3561 49.4979 50.3619 49.4745 50.3678C49.3867 50.3971 49.334 50.5025 49.3691 50.5962C50.6985 54.514 53.4743 57.6822 57.1871 59.5152C60.9 61.3482 65.1047 61.6234 69.0225 60.2941C72.9403 58.9647 76.1085 56.1889 77.9415 52.476C79.7745 48.7632 80.0498 44.5584 78.7204 40.6406C76.5887 34.3335 70.6915 30.1112 64.0448 30.1112C64.0389 30.1112 64.033 30.1112 64.0213 30.1112C56.5547 30.1405 50.1538 35.493 48.8011 42.8309L48.5961 43.9318L46.7338 40.055C46.7045 39.9965 46.6577 39.973 46.6284 39.9672C46.5991 39.9555 46.5464 39.9496 46.4879 39.973C46.4293 40.0023 46.4059 40.0492 46.3941 40.0784C46.3824 40.1077 46.3766 40.1604 46.4 40.219L48.5317 44.4765L48.6137 44.5233C48.6429 44.5409 48.6781 44.5526 48.7132 44.5526C48.7776 44.5526 48.8362 44.5233 48.8772 44.4706L48.9123 44.4237L48.9592 44.3886L53.1873 41.3727C53.2401 41.3317 53.2518 41.2848 53.2576 41.2555C53.2635 41.2263 53.2635 41.1736 53.2225 41.1208C53.1639 41.0389 53.0468 41.0271 52.9707 41.0857L48.965 44.1075L49.1114 43.2115C49.7556 39.2234 51.9166 35.7273 55.1902 33.3614C58.4638 30.9955 62.4636 30.0526 66.4517 30.6968C70.4397 31.341 73.9359 33.5019 76.3018 36.7755C78.6677 40.0492 79.6105 44.0489 78.9664 48.037C78.3222 52.0251 76.1612 55.5213 72.8876 57.8872C69.614 60.2531 65.6142 61.1959 61.6261 60.5517C56.0803 59.6557 51.5183 55.7965 49.7146 50.4791C49.6912 50.4029 49.6151 50.3561 49.5389 50.3561Z" fill="#00AEEF"/>
<path d="M62.9262 36.307C62.6217 36.307 62.3816 36.553 62.3816 36.8516V47.7969C62.3757 47.832 62.3757 47.8672 62.3816 47.9082C62.3757 47.9433 62.3757 47.9726 62.3816 48.0077V48.0838C62.3992 48.119 62.4284 48.1483 62.4577 48.1717L67.9274 52.5463C68.027 52.6224 68.1441 52.6634 68.2671 52.6692C68.4369 52.6692 68.595 52.5931 68.6946 52.4643C68.882 52.23 68.841 51.8845 68.6067 51.6971L63.4767 47.5392V36.8575C63.4767 36.553 63.2307 36.307 62.9262 36.307Z" fill="#00AEEF"/>
<path d="M68.273 53.0323C68.2671 53.0323 68.2613 53.0323 68.2613 53.0323C68.0622 53.0323 67.8572 52.9562 67.6991 52.8332L62.2294 48.4586C62.1591 48.4059 62.1064 48.3415 62.0595 48.2654L62.0127 48.1834V48.0311C62.0068 47.9901 62.0068 47.9491 62.0127 47.9023C62.0127 47.8613 62.0127 47.8203 62.0127 47.7793V36.8575C62.0127 36.3538 62.4226 35.9439 62.9263 35.9439C63.4299 35.9439 63.8398 36.3538 63.8398 36.8575V47.3635L68.8352 51.4101C69.2217 51.7205 69.2861 52.2886 68.9816 52.6809C68.8176 52.9035 68.5541 53.0323 68.273 53.0323ZM62.7447 47.9316L68.1559 52.2593C68.1851 52.2827 68.232 52.3003 68.273 52.3003C68.3257 52.3003 68.3725 52.2769 68.4018 52.2359L68.4077 52.23C68.4721 52.1539 68.4545 52.0368 68.3784 51.9782L63.1078 47.709V36.8575C63.1078 36.7579 63.0258 36.6759 62.9263 36.6759C62.8267 36.6759 62.7447 36.7579 62.7447 36.8575V47.8203V47.8379C62.7447 47.8496 62.7447 47.8554 62.7447 47.8671L62.7506 47.914L62.7447 47.9316Z" fill="#00AEEF"/>
<path d="M42.1426 48.3415H2.20912V16.6185H62.3816V27.0659C62.3816 27.3704 62.6276 27.6106 62.9263 27.6106C63.2249 27.6106 63.4709 27.3646 63.4709 27.0659V16.1207C63.4709 15.8162 63.2249 15.576 62.9263 15.576H1.65864C1.35412 15.576 1.11401 15.822 1.11401 16.1207V48.9447C1.11401 49.2492 1.35997 49.4893 1.65864 49.4893H42.1367C42.4413 49.4893 42.6814 49.2434 42.6814 48.9447C42.6814 48.6402 42.4354 48.4001 42.1367 48.4001V48.3415H42.1426Z" fill="#00AEEF"/>
<path d="M42.1426 49.8583H1.65869C1.15505 49.8583 0.745117 49.4483 0.745117 48.9447V16.1207C0.745117 15.617 1.15505 15.2071 1.65869 15.2071H62.9263C63.4299 15.2071 63.8399 15.617 63.8399 16.1207V27.0659C63.8399 27.5695 63.4299 27.9795 62.9263 27.9795C62.4227 27.9795 62.0127 27.5695 62.0127 27.0659V16.9815H2.57225V47.9784H42.5057V48.1073C42.8278 48.2478 43.0503 48.5699 43.0503 48.9447C43.0562 49.4483 42.6463 49.8583 42.1426 49.8583ZM1.65869 15.9391C1.55913 15.9391 1.47714 16.0211 1.47714 16.1207V48.9447C1.47714 49.0442 1.55913 49.1262 1.65869 49.1262H42.1368C42.2363 49.1262 42.3183 49.0442 42.3183 48.9447C42.3183 48.8451 42.2363 48.7631 42.1368 48.7631H41.7737V48.7104H1.84023V16.2495H62.7448V27.0659C62.7448 27.1655 62.8267 27.2474 62.9263 27.2474C63.0259 27.2474 63.1078 27.1655 63.1078 27.0659V16.1207C63.1078 16.0211 63.0259 15.9391 62.9263 15.9391H1.65869Z" fill="#00AEEF"/>
<path d="M42.8629 42.8718H11.0579C10.8119 41.115 9.42986 39.7388 7.67885 39.4928V25.4672C9.43571 25.2212 10.8119 23.8392 11.0579 22.0882H52.4378C52.6838 23.845 54.0659 25.2212 55.8169 25.4672V28.4129C55.8169 28.7174 56.0628 28.9575 56.3615 28.9575C56.666 28.9575 56.9061 28.7115 56.9061 28.4129V24.9694C56.9061 24.6649 56.6602 24.4248 56.3615 24.4248C54.7745 24.4248 53.4861 23.1364 53.4861 21.5494C53.4861 21.2449 53.2401 21.0048 52.9415 21.0048H10.5543C10.2497 21.0048 10.0096 21.2507 10.0096 21.5494C10.0096 23.1364 8.72126 24.4248 7.13423 24.4248C6.8297 24.4248 6.5896 24.6707 6.5896 24.9694V40.0023C6.5896 40.3068 6.83556 40.5469 7.13423 40.5469C8.72126 40.5469 10.0096 41.8353 10.0096 43.4223C10.0096 43.7268 10.2556 43.9669 10.5543 43.9669H42.8629C43.1675 43.9669 43.4076 43.721 43.4076 43.4223C43.4076 43.1236 43.1675 42.8718 42.8629 42.8718Z" fill="#00AEEF"/>
<path d="M42.863 44.33H10.5543C10.0507 44.33 9.64072 43.9201 9.64072 43.4164C9.64072 42.0285 8.51633 40.9041 7.12841 40.9041C6.62478 40.9041 6.21484 40.4942 6.21484 39.9906V24.9635C6.21484 24.4599 6.62478 24.05 7.12841 24.05C8.51633 24.05 9.64072 22.9256 9.64072 21.5377C9.64072 21.034 10.0507 20.6241 10.5543 20.6241H52.9415C53.4451 20.6241 53.8551 21.034 53.8551 21.5377C53.8551 22.9256 54.9795 24.05 56.3674 24.05C56.871 24.05 57.281 24.4599 57.281 24.9635V28.407C57.281 28.9106 56.871 29.3205 56.3674 29.3205C55.8638 29.3205 55.4538 28.9106 55.4538 28.407V25.7717C53.8024 25.4145 52.4906 24.1027 52.1333 22.4512H11.3624C11.0052 24.1027 9.69343 25.4145 8.04198 25.7717V39.1883C9.69343 39.5455 11.0052 40.8573 11.3624 42.5087H42.863C43.3666 42.5087 43.7765 42.9187 43.7765 43.4223C43.7765 43.9259 43.3666 44.33 42.863 44.33ZM10.5543 21.3561C10.4547 21.3561 10.3727 21.4381 10.3727 21.5377C10.3727 23.3238 8.92041 24.782 7.12841 24.782C7.02886 24.782 6.94687 24.864 6.94687 24.9635V39.9964C6.94687 40.096 7.02886 40.178 7.12841 40.178C8.91455 40.178 10.3727 41.6303 10.3727 43.4223C10.3727 43.5218 10.4547 43.6038 10.5543 43.6038H42.863C42.9625 43.6038 43.0445 43.5218 43.0445 43.4223C43.0445 43.3227 42.9625 43.2407 42.863 43.2407H10.7417L10.6948 42.9245C10.4723 41.3375 9.20737 40.0784 7.62619 39.8559L7.30995 39.809V25.1509L7.62619 25.1041C9.21322 24.8815 10.4723 23.6166 10.6948 22.0354L10.7417 21.7192H52.7541L52.801 22.0354C53.0235 23.6225 54.2884 24.8815 55.8696 25.1041L56.1858 25.1509V28.4128C56.1858 28.5124 56.2678 28.5944 56.3674 28.5944C56.4669 28.5944 56.5489 28.5124 56.5489 28.4128V24.9694C56.5489 24.8698 56.4669 24.7878 56.3674 24.7878C54.5812 24.7878 53.123 23.3355 53.123 21.5435C53.123 21.444 53.0411 21.362 52.9415 21.362H10.5543V21.3561Z" fill="#00AEEF"/>
</svg>
