<svg width="82" height="46" viewBox="0 0 82 46" fill="none" xmlns="http://www.w3.org/2000/svg">
<path d="M80.0792 13.8734C80.3896 13.8734 80.6355 13.6216 80.6355 13.3171V3.29128C80.6355 1.7511 79.3882 0.503723 77.848 0.503723H60.0217C59.7113 0.503723 59.4653 0.75554 59.4653 1.06006C60.0744 5.27653 53.5447 6.20181 53.8961 1.06006C53.8961 0.749684 53.6443 0.503723 53.3398 0.503723H3.19307C1.65289 0.503723 0.405518 1.7511 0.405518 3.29128V13.3171C0.405518 13.6275 0.657334 13.8734 0.961857 13.8734C12.3639 13.8852 14.15 30.9209 0.961857 31.6997C0.651478 31.6997 0.405518 31.9515 0.405518 32.2561V42.2877C0.405518 43.8279 1.65289 45.0753 3.19307 45.0753H53.3398C53.6501 45.0753 53.8961 44.8235 53.8961 44.519C53.2051 39.5295 60.3672 39.9921 59.4653 44.519C59.4653 44.8293 59.7172 45.0753 60.0217 45.0753H77.848C79.3882 45.0753 80.6355 43.8279 80.6355 42.2877V32.2619C80.6355 31.9515 80.3837 31.7056 80.0792 31.7056C75.1541 31.7056 71.166 27.7117 71.166 22.7924C71.166 17.8732 75.1541 13.8734 80.0792 13.8734ZM70.0475 22.7866C70.0416 28.1157 74.1996 32.5196 79.517 32.8183V42.2877C79.517 43.213 78.7674 43.9568 77.848 43.9568H60.578C60.578 41.8017 58.8329 40.0565 56.6778 40.0565C54.5227 40.0565 52.7776 41.8017 52.7776 43.9568H3.19307C2.26779 43.9568 1.52405 43.2072 1.52405 42.2877V32.8183C7.06402 32.8183 11.5557 28.3266 11.5557 22.7866C11.5557 17.2466 7.05817 12.7608 1.5182 12.7608V3.29128C1.5182 2.366 2.26779 1.62226 3.18722 1.62226H52.7717C52.7717 3.77734 54.5169 5.52249 56.6719 5.52249C58.827 5.52249 60.5722 3.77734 60.5722 1.62226H77.8421C78.7674 1.62226 79.5111 2.37185 79.5111 3.29128V12.7608C74.1996 13.0536 70.0416 17.4633 70.0475 22.7866Z" fill="#00AEEF"/>
<path d="M77.848 45.4384H60.0217C59.5122 45.4384 59.0965 45.0226 59.0965 44.5131V44.478L59.1023 44.4428C59.3307 43.295 59.0028 42.3522 58.1887 41.7841C57.3396 41.1926 56.1508 41.1516 55.2958 41.6728C54.4466 42.194 54.0718 43.1837 54.2534 44.4662L54.2592 44.4897V44.5131C54.2592 45.0226 53.8434 45.4384 53.334 45.4384H3.19312C1.45383 45.4384 0.0424805 44.027 0.0424805 42.2877V32.2619C0.0424805 31.7583 0.452415 31.3483 0.950192 31.3425C7.24561 30.9677 9.94532 26.7395 9.8282 22.7222C9.70522 18.5115 6.619 14.2482 0.961905 14.2482C0.452415 14.2482 0.0424805 13.8324 0.0424805 13.3229V3.29126C0.0424805 1.55197 1.45383 0.140625 3.19312 0.140625H53.3398C53.8493 0.140625 54.2651 0.556415 54.2651 1.0659V1.08933C54.1714 2.43626 54.5872 3.44352 55.4305 3.92373C56.1976 4.36295 57.2518 4.29853 58.0482 3.7539C58.8856 3.18585 59.2721 2.21958 59.114 1.11275L59.1082 1.08933V1.0659C59.1082 0.556415 59.524 0.140625 60.0334 0.140625H77.8597C79.599 0.140625 81.0104 1.55197 81.0104 3.29126V13.3229C81.0104 13.8324 80.5946 14.2482 80.0851 14.2482C75.3708 14.2482 71.535 18.084 71.535 22.7983C71.535 27.5125 75.3708 31.3483 80.0851 31.3483C80.5946 31.3483 81.0104 31.7641 81.0104 32.2736V42.3053C80.9987 44.027 79.5873 45.4384 77.848 45.4384ZM59.8285 44.5424C59.8402 44.6361 59.9222 44.7063 60.0159 44.7063H77.8422C79.1774 44.7063 80.2608 43.623 80.2608 42.2877V32.2619C80.2608 32.1565 80.1729 32.0687 80.0675 32.0687C74.9492 32.0687 70.7854 27.9049 70.7854 22.7866C70.7854 17.6682 74.9492 13.5045 80.0675 13.5045C80.1729 13.5045 80.2608 13.4166 80.2608 13.3112V3.29126C80.2608 1.95605 79.1774 0.872651 77.8422 0.872651H60.0217C59.9222 0.872651 59.8402 0.948781 59.8285 1.04834C60.0159 2.4304 59.5181 3.64263 58.4464 4.3688C57.4099 5.07155 56.0747 5.15354 55.0557 4.56791C54.4232 4.20483 53.3808 3.26784 53.5272 1.0659C53.5213 0.966349 53.4394 0.884362 53.334 0.884362H3.19312C1.8579 0.884362 0.774506 1.96776 0.774506 3.30298V13.3347C0.774506 13.4401 0.862349 13.5279 0.967761 13.5279C3.77288 13.5279 6.1915 14.5235 7.97178 16.3974C9.55296 18.0606 10.4958 20.3621 10.5661 22.7104C10.6949 27.085 7.78438 31.6821 0.991186 32.0804H0.967761C0.862349 32.0804 0.774506 32.1682 0.774506 32.2736V42.3053C0.774506 43.6405 1.8579 44.7239 3.19312 44.7239H53.3398C53.4394 44.7239 53.5214 44.6478 53.5331 44.5482C53.3281 43.0022 53.8317 41.7373 54.921 41.0638C56.0161 40.3903 57.5329 40.4489 58.6104 41.1985C59.6528 41.9129 60.0979 43.1369 59.8285 44.5424ZM77.848 44.3257H60.2091V43.9626C60.2091 42.0125 58.6221 40.4255 56.672 40.4255C54.7219 40.4255 53.1348 42.0125 53.1348 43.9626V44.3257H3.18141C2.05702 44.3257 1.14345 43.4121 1.14345 42.2877V32.4493H1.51824C6.84739 32.4493 11.181 28.1157 11.181 22.7866C11.181 17.4574 6.84739 13.1238 1.51824 13.1238H1.15516V3.28541C1.15516 2.16101 2.06873 1.24745 3.19312 1.24745H53.1466V1.61053C53.1466 3.56065 54.7336 5.14768 56.6837 5.14768C58.6338 5.14768 60.2208 3.56065 60.2208 1.61053V1.24745H77.8597C78.9841 1.24745 79.8977 2.16101 79.8977 3.28541V13.1004L79.5522 13.118C74.428 13.4049 70.4165 17.6507 70.4282 22.7807C70.4224 27.9166 74.428 32.1565 79.5522 32.4435L79.8977 32.461V42.276C79.886 43.4121 78.9724 44.3257 77.848 44.3257ZM60.9294 43.5937H77.8539C78.5742 43.5937 79.1598 43.008 79.1598 42.2877V33.1579C73.8131 32.6836 69.6786 28.1977 69.6903 22.7866C69.6845 17.3813 73.8131 12.8896 79.1598 12.4152V3.29126C79.1598 2.57095 78.5742 1.98533 77.8539 1.98533H60.9294C60.742 4.16969 58.9091 5.88556 56.6778 5.88556C54.4466 5.88556 52.6136 4.16969 52.4262 1.98533H3.19312C2.47281 1.98533 1.88719 2.57095 1.88719 3.29126V12.4035C7.45058 12.5968 11.9189 17.1822 11.9189 22.7924C11.9189 28.4027 7.45058 32.9822 1.88719 33.1755V42.2877C1.88719 43.008 2.47281 43.5937 3.19312 43.5937H52.4321C52.6195 41.4093 54.4525 39.6934 56.6837 39.6934C58.9149 39.6934 60.742 41.4152 60.9294 43.5937Z" fill="#00AEEF"/>
<path d="M56.6777 6.073C56.3673 6.073 56.1213 6.32481 56.1213 6.62934V8.86055C56.1213 9.17093 56.3732 9.41689 56.6777 9.41689C56.9822 9.41689 57.234 9.16507 57.234 8.86055V6.62934C57.234 6.32481 56.9881 6.073 56.6777 6.073Z" fill="#00AEEF"/>
<path d="M56.6777 9.77995C56.1682 9.77995 55.7524 9.36417 55.7524 8.85468V6.62346C55.7524 6.11397 56.1682 5.69818 56.6777 5.69818C57.1872 5.69818 57.603 6.11397 57.603 6.62346V8.85468C57.603 9.37002 57.1872 9.77995 56.6777 9.77995ZM56.6777 6.44192C56.5723 6.44192 56.4845 6.52976 56.4845 6.63517V8.86639C56.4845 8.9718 56.5723 9.05964 56.6777 9.05964C56.7831 9.05964 56.871 8.9718 56.871 8.86639V6.63517C56.871 6.52391 56.7831 6.44192 56.6777 6.44192Z" fill="#00AEEF"/>
<path d="M56.6777 16.5263C56.3673 16.5263 56.1213 16.7781 56.1213 17.0826V21.2054C56.1213 21.5158 56.3732 21.7618 56.6777 21.7618C56.9822 21.7618 57.234 21.5099 57.234 21.2054V17.0826C57.234 16.7781 56.9881 16.5263 56.6777 16.5263Z" fill="#00AEEF"/>
<path d="M56.6777 22.1307C56.1682 22.1307 55.7524 21.7149 55.7524 21.2054V17.0826C55.7524 16.5731 56.1682 16.1573 56.6777 16.1573C57.1872 16.1573 57.603 16.5731 57.603 17.0826V21.2054C57.603 21.7149 57.1872 22.1307 56.6777 22.1307ZM56.6777 16.8894C56.5723 16.8894 56.4845 16.9772 56.4845 17.0826V21.2054C56.4845 21.3108 56.5723 21.3987 56.6777 21.3987C56.7831 21.3987 56.871 21.3108 56.871 21.2054V17.0826C56.871 16.9772 56.7831 16.8894 56.6777 16.8894Z" fill="#00AEEF"/>
<path d="M56.6777 22.6987C56.3673 22.6987 56.1213 22.9505 56.1213 23.2551V27.3778C56.1213 27.6882 56.3732 27.9342 56.6777 27.9342C56.9822 27.9342 57.234 27.6824 57.234 27.3778V23.2551C57.234 22.9505 56.9881 22.6987 56.6777 22.6987Z" fill="#00AEEF"/>
<path d="M56.6777 28.3031C56.1682 28.3031 55.7524 27.8873 55.7524 27.3778V23.2551C55.7524 22.7456 56.1682 22.3298 56.6777 22.3298C57.1872 22.3298 57.603 22.7456 57.603 23.2551V27.3778C57.603 27.8873 57.1872 28.3031 56.6777 28.3031ZM56.6777 23.0677C56.5723 23.0677 56.4845 23.1555 56.4845 23.2609V27.3837C56.4845 27.4891 56.5723 27.5769 56.6777 27.5769C56.7831 27.5769 56.871 27.4891 56.871 27.3837V23.2609C56.871 23.1496 56.7831 23.0677 56.6777 23.0677Z" fill="#00AEEF"/>
<path d="M56.6777 28.8712C56.3673 28.8712 56.1213 29.123 56.1213 29.4275V33.5386C56.1213 33.8489 56.3732 34.0949 56.6777 34.0949C56.9822 34.0949 57.234 33.8431 57.234 33.5386V29.4685C57.2574 29.164 57.029 28.8946 56.7245 28.8712C56.707 28.8712 56.6952 28.8712 56.6777 28.8712Z" fill="#00AEEF"/>
<path d="M56.6777 34.4638C56.1682 34.4638 55.7524 34.048 55.7524 33.5385V29.4275C55.7524 28.918 56.1682 28.5081 56.6719 28.5022C56.6953 28.5022 56.7246 28.5022 56.748 28.5022C57.2516 28.5432 57.6264 28.9766 57.5971 29.4802V33.5327C57.603 34.048 57.1872 34.4638 56.6777 34.4638ZM56.6777 29.2401C56.5723 29.2401 56.4845 29.3279 56.4845 29.4333V33.5444C56.4845 33.6498 56.5723 33.7376 56.6777 33.7376C56.7831 33.7376 56.871 33.6498 56.871 33.5444V29.4626V29.4509C56.8768 29.3455 56.8007 29.2518 56.6953 29.2459C56.6894 29.2401 56.6836 29.2401 56.6777 29.2401Z" fill="#00AEEF"/>
<path d="M56.6777 10.3656C56.3673 10.3656 56.1213 10.6174 56.1213 10.9219V14.992C56.1213 15.3024 56.3732 15.5483 56.6777 15.5483C56.9822 15.5483 57.234 15.2965 57.234 14.992V10.9219C57.234 10.6116 56.9881 10.3656 56.6777 10.3656Z" fill="#00AEEF"/>
<path d="M56.6777 15.9114C56.1682 15.9114 55.7524 15.4956 55.7524 14.9861V10.9161C55.7524 10.4066 56.1682 9.99078 56.6777 9.99078C57.1872 9.99078 57.603 10.4066 57.603 10.9161V14.9861C57.603 15.4956 57.1872 15.9114 56.6777 15.9114ZM56.6777 10.7287C56.5723 10.7287 56.4845 10.8165 56.4845 10.9219V14.992C56.4845 15.0974 56.5723 15.1852 56.6777 15.1852C56.7831 15.1852 56.871 15.0974 56.871 14.992V10.9219C56.871 10.8165 56.7831 10.7287 56.6777 10.7287Z" fill="#00AEEF"/>
<path d="M56.6777 35.0495C56.3673 35.0495 56.1213 35.3013 56.1213 35.6058V37.8371C56.1213 38.1474 56.3732 38.3934 56.6777 38.3934C56.9822 38.3934 57.234 38.1416 57.234 37.8371V35.6058C57.234 35.2955 56.9881 35.0495 56.6777 35.0495Z" fill="#00AEEF"/>
<path d="M56.6777 38.7565C56.1682 38.7565 55.7524 38.3407 55.7524 37.8312V35.6C55.7524 35.0905 56.1682 34.6747 56.6777 34.6747C57.1872 34.6747 57.603 35.0905 57.603 35.6V37.8312C57.603 38.3407 57.1872 38.7565 56.6777 38.7565ZM56.6777 35.4126C56.5723 35.4126 56.4845 35.5004 56.4845 35.6058V37.837C56.4845 37.9424 56.5723 38.0303 56.6777 38.0303C56.7831 38.0303 56.871 37.9424 56.871 37.837V35.6058C56.871 35.5004 56.7831 35.4126 56.6777 35.4126Z" fill="#00AEEF"/>
<path d="M63.3657 12.7607C63.0553 12.7607 62.8093 13.0126 62.8093 13.3171V32.2619C62.8093 32.5723 63.0611 32.8182 63.3657 32.8182C63.676 32.8182 63.922 32.5664 63.922 32.2619V13.3171C63.922 13.0126 63.6702 12.7607 63.3657 12.7607Z" fill="#00AEEF"/>
<path d="M63.3657 33.1813C62.8562 33.1813 62.4404 32.7655 62.4404 32.256V13.3171C62.4404 12.8076 62.8562 12.3918 63.3657 12.3918C63.8752 12.3918 64.291 12.8076 64.291 13.3171V32.2619C64.2851 32.7714 63.8752 33.1813 63.3657 33.1813ZM63.3657 13.1238C63.2603 13.1238 63.1725 13.2117 63.1725 13.3171V32.2619C63.1725 32.3673 63.2603 32.4551 63.3657 32.4551C63.4711 32.4551 63.559 32.3673 63.559 32.2619V13.3171C63.5531 13.2117 63.4711 13.1238 63.3657 13.1238Z" fill="#00AEEF"/>
<path d="M66.7094 12.7607C66.399 12.7607 66.1531 13.0126 66.1531 13.3171V26.6868C66.1531 26.9972 66.4049 27.2431 66.7094 27.2431C67.0198 27.2431 67.2658 26.9913 67.2658 26.6868V13.3171C67.2658 13.0126 67.0139 12.7607 66.7094 12.7607Z" fill="#00AEEF"/>
<path d="M66.7095 27.6121C66.2 27.6121 65.7842 27.1963 65.7842 26.6868V13.3171C65.7842 12.8076 66.2 12.3918 66.7095 12.3918C67.2189 12.3918 67.6347 12.8076 67.6347 13.3171V26.6868C67.6289 27.1963 67.2131 27.6121 66.7095 27.6121ZM66.7095 13.1238C66.604 13.1238 66.5162 13.2117 66.5162 13.3171V26.6868C66.5162 26.7922 66.604 26.88 66.7095 26.88C66.8149 26.88 66.9027 26.7922 66.9027 26.6868V13.3171C66.8969 13.2117 66.8149 13.1238 66.7095 13.1238Z" fill="#00AEEF"/>
<path d="M66.7094 29.4744C66.399 29.4744 66.1531 29.7262 66.1531 30.0307V32.2619C66.1531 32.5723 66.4049 32.8183 66.7094 32.8183C67.0198 32.8183 67.2658 32.5664 67.2658 32.2619V30.0307C67.2658 29.7262 67.0139 29.4744 66.7094 29.4744Z" fill="#00AEEF"/>
<path d="M66.7095 33.1813C66.2 33.1813 65.7842 32.7655 65.7842 32.256V30.0248C65.7842 29.5153 66.2 29.0995 66.7095 29.0995C67.2189 29.0995 67.6347 29.5153 67.6347 30.0248V32.256C67.6289 32.7714 67.2131 33.1813 66.7095 33.1813ZM66.7095 29.8374C66.604 29.8374 66.5162 29.9253 66.5162 30.0307V32.2619C66.5162 32.3673 66.604 32.4552 66.7095 32.4552C66.8149 32.4552 66.9027 32.3673 66.9027 32.2619V30.0307C66.8969 29.9253 66.8149 29.8374 66.7095 29.8374Z" fill="#00AEEF"/>
<path d="M38.2895 11.6481L23.8013 33.9309H24.9198L39.4022 11.6481H38.2895Z" fill="#00AEEF"/>
<path d="M25.1188 34.2999H23.1335L38.0961 11.285H40.0814L25.1188 34.2999ZM24.4746 33.5678H24.7206L38.7345 12.0111H38.4885L24.4746 33.5678Z" fill="#00AEEF"/>
<path d="M27.145 21.6739C29.6047 21.6739 31.6016 19.6769 31.6016 17.2173C31.6016 14.7577 29.6047 12.7607 27.145 12.7607C24.6854 12.7607 22.6885 14.7577 22.6885 17.2173C22.6885 19.6769 24.6854 21.6739 27.145 21.6739ZM27.145 13.8734C28.9898 13.8734 30.4889 15.3726 30.4889 17.2173C30.4889 19.062 28.9898 20.5612 27.145 20.5612C25.3003 20.5612 23.8012 19.062 23.8012 17.2173C23.8012 15.3726 25.3003 13.8734 27.145 13.8734Z" fill="#00AEEF"/>
<path d="M27.1451 22.0428C24.4864 22.0428 22.3254 19.8819 22.3254 17.2232C22.3254 14.5644 24.4864 12.4035 27.1451 12.4035C29.8038 12.4035 31.9648 14.5644 31.9648 17.2232C31.9648 19.8819 29.8038 22.0428 27.1451 22.0428ZM27.1451 13.1238C24.8905 13.1238 23.0516 14.9568 23.0516 17.2173C23.0516 19.4778 24.8846 21.3108 27.1451 21.3108C29.3997 21.3108 31.2386 19.4778 31.2386 17.2173C31.2386 14.9568 29.4056 13.1238 27.1451 13.1238ZM27.1451 20.9243C25.1013 20.9243 23.4381 19.2611 23.4381 17.2173C23.4381 15.1735 25.1013 13.5103 27.1451 13.5103C29.1889 13.5103 30.8521 15.1735 30.8521 17.2173C30.8521 19.2611 29.1889 20.9243 27.1451 20.9243ZM27.1451 14.2424C25.5054 14.2424 24.1701 15.5776 24.1701 17.2173C24.1701 18.857 25.5054 20.1923 27.1451 20.1923C28.7848 20.1923 30.1201 18.857 30.1201 17.2173C30.1201 15.5776 28.7907 14.2424 27.1451 14.2424Z" fill="#00AEEF"/>
<path d="M36.0581 23.9051C33.5985 23.9051 31.6016 25.9021 31.6016 28.3617C31.6016 30.8213 33.5985 32.8182 36.0581 32.8182C38.5177 32.8182 40.5147 30.8213 40.5147 28.3617C40.5147 25.9021 38.5236 23.9051 36.0581 23.9051ZM36.0581 31.7056C34.2134 31.7056 32.7142 30.2064 32.7142 28.3617C32.7142 26.517 34.2134 25.0178 36.0581 25.0178C37.9028 25.0178 39.402 26.517 39.402 28.3617C39.402 30.2064 37.9087 31.7056 36.0581 31.7056Z" fill="#00AEEF"/>
<path d="M36.0582 33.1813C33.3995 33.1813 31.2385 31.0204 31.2385 28.3616C31.2385 25.7029 33.3995 23.542 36.0582 23.542C38.7169 23.542 40.8778 25.7029 40.8778 28.3616C40.8778 31.0204 38.7228 33.1813 36.0582 33.1813ZM36.0582 24.2682C33.8035 24.2682 31.9647 26.1012 31.9647 28.3616C31.9647 30.6163 33.7977 32.4551 36.0582 32.4551C38.3187 32.4551 40.1517 30.6221 40.1517 28.3616C40.1517 26.107 38.3187 24.2682 36.0582 24.2682ZM36.0582 32.0686C34.0144 32.0686 32.3512 30.4055 32.3512 28.3616C32.3512 26.3178 34.0144 24.6547 36.0582 24.6547C38.102 24.6547 39.7652 26.3178 39.7652 28.3616C39.771 30.4055 38.1079 32.0686 36.0582 32.0686ZM36.0582 25.3808C34.4184 25.3808 33.0832 26.7161 33.0832 28.3558C33.0832 29.9955 34.4184 31.3307 36.0582 31.3307C37.6979 31.3307 39.0331 29.9955 39.0331 28.3558C39.0331 26.7161 37.7038 25.3808 36.0582 25.3808Z" fill="#00AEEF"/>
</svg>
