<svg width="81" height="60" viewBox="0 0 81 60" fill="none" xmlns="http://www.w3.org/2000/svg">
<path d="M79.6224 14.6719L68.8295 11.7497L79.681 8.83913C80.0207 8.83913 80.2959 8.56389 80.2959 8.22423C80.2959 7.88457 80.0207 7.60933 79.681 7.60933L53.6209 0.675581C53.5155 0.652156 53.4042 0.652156 53.2988 0.675581L40.462 4.14245L27.6369 0.663868C27.5315 0.634586 27.4202 0.634586 27.3148 0.663868L1.3074 7.58005C0.96774 7.58005 0.692498 7.85529 0.692498 8.19495C0.692498 8.53461 0.96774 8.80985 1.3074 8.80985L12.1589 11.7321L1.29569 14.6485C0.956028 14.6485 0.680786 14.9237 0.680786 15.2634C0.680786 15.603 0.956028 15.8783 1.29569 15.8783L13.8514 19.2339V51.8061C13.8514 52.0872 14.0388 52.3273 14.3082 52.3976L40.3039 59.3665H40.462H40.6201L66.6275 52.3976C66.8969 52.3273 67.0843 52.0813 67.0843 51.8061V19.1988L79.6166 15.8666C79.9562 15.8666 80.2315 15.5913 80.2315 15.2517C80.2315 14.912 79.9562 14.6368 79.6166 14.6368V14.6719H79.6224ZM40.462 18.0509L16.8439 11.7262L38.67 5.87003L40.4561 5.37811L64.0742 11.7028L41.8441 17.7054L40.462 18.0509ZM53.4628 1.91124L77.0808 8.24765L66.4635 11.0821L43.7356 4.9916L42.8455 4.75735L53.4628 1.91124ZM27.4788 1.91124L38.0961 4.77492L14.4663 11.0469L3.84899 8.18909L27.4788 1.91124ZM14.4663 12.3646H14.6361L38.0668 18.6424L27.4495 21.4885L14.6244 18.0978L3.84899 15.24L14.4663 12.3646ZM27.3031 22.7769H27.6252L39.8471 19.4974V48.5383L15.0812 41.9033V19.4974L27.3031 22.7769ZM15.0812 43.1741L39.8471 49.774V57.9376L15.0812 51.3376V43.1741ZM41.0827 57.9727V49.774L65.8604 43.1389V51.3025L41.0827 57.9727ZM65.8545 41.9384L41.0769 48.5383V19.5091L53.2871 22.7886C53.3398 22.8003 53.3925 22.8003 53.4452 22.7886H53.6033L65.8486 19.5208L65.8545 41.9384ZM66.4753 18.1271C66.4225 18.1154 66.3698 18.1154 66.3171 18.1271L53.4628 21.5412L42.8455 18.6951L66.4635 12.4056L77.0808 15.24L66.4753 18.1271Z" fill="#00AEEF"/>
<path d="M40.6669 59.6827H40.2628L40.2218 59.671L14.2261 52.7021C13.8162 52.5967 13.5293 52.2278 13.5351 51.8003V19.474L1.24879 16.1945C0.756868 16.1711 0.364502 15.7612 0.364502 15.2634C0.364502 14.7656 0.756868 14.3557 1.24879 14.3323L10.9467 11.738L1.2605 9.13195C0.76858 9.10853 0.376214 8.69859 0.376214 8.20082C0.376214 7.70304 0.76858 7.2931 1.2605 7.26968L27.2328 0.359356C27.3909 0.312506 27.5607 0.312506 27.7247 0.359356L40.4678 3.81452L53.2343 0.371068C53.3866 0.335931 53.5447 0.335931 53.697 0.371068H53.7087L79.7337 7.2931C80.2256 7.31653 80.6179 7.72646 80.6179 8.22424C80.6179 8.72202 80.2256 9.13195 79.7337 9.15538L70.0475 11.7555L79.5345 14.3264H79.6282C80.1436 14.3264 80.5594 14.7422 80.5594 15.2575C80.5594 15.7553 80.167 16.1653 79.6751 16.1887L67.4181 19.4447V51.812C67.4181 52.2336 67.1311 52.6026 66.727 52.708L40.6669 59.6827ZM40.3448 59.0502H40.5849L66.5572 52.0931C66.686 52.0579 66.7797 51.9408 66.7797 51.8061V18.9587L79.5814 15.5562H79.6224C79.7864 15.5562 79.9211 15.4215 79.9211 15.2575C79.9211 15.1873 79.8976 15.117 79.8566 15.0701L67.6172 11.7555L79.64 8.52876H79.6809C79.8449 8.52876 79.9796 8.39407 79.9796 8.2301C79.9796 8.06612 79.8449 7.93143 79.6809 7.93143H79.64L79.599 7.91972L53.5447 0.980114C53.492 0.968402 53.4334 0.968402 53.3749 0.980114L40.4619 4.47041L27.549 0.968402C27.5022 0.956689 27.4553 0.956689 27.4085 0.968402H27.4026L1.34834 7.89629H1.30735C1.14338 7.89629 1.00868 8.03099 1.00868 8.19496C1.00868 8.35893 1.14338 8.49363 1.30735 8.49363H1.34834L13.377 11.7321L1.33663 14.9647H1.29564C1.13166 14.9647 0.996972 15.0994 0.996972 15.2634C0.996972 15.4274 1.13166 15.5621 1.29564 15.5621H1.33663L14.1676 18.9938V51.8061C14.1676 51.9408 14.2554 52.0579 14.3843 52.0931L40.3448 59.0502ZM40.7665 58.3826V49.5281L66.1707 42.729V51.5485L40.7665 58.3826ZM41.3989 50.0141V57.5628L65.5441 51.0624V43.5489L41.3989 50.0141ZM40.1633 58.3475L14.7708 51.5836V42.7641L40.1633 49.5281V58.3475ZM15.3974 51.0975L39.5308 57.5276V50.0141L15.3974 43.584V51.0975ZM40.1633 48.9483L14.7708 42.1434V19.0816L27.344 22.4607H27.5841L40.1633 19.0816V48.9483ZM15.3974 41.6632L39.5308 48.1284V19.9074L27.6661 23.0931H27.2621L27.2211 23.0814L15.3974 19.9074V41.6632ZM40.7665 48.9483V19.0992L53.369 22.4841H53.3749L53.41 22.4724H53.5681L66.1707 19.1109V42.1844L65.9364 42.2488L40.7665 48.9483ZM41.3989 19.9191V48.1284L65.5441 41.6983V19.9308L53.656 23.1049H53.4861C53.3983 23.1224 53.3046 23.1166 53.2168 23.0931H53.2109L41.3989 19.9191ZM53.4627 21.8692L53.3807 21.8458L41.6215 18.6893L66.4576 12.0718L66.5396 12.0952L78.2872 15.2341L66.4752 18.4492L66.3991 18.4316C66.3932 18.4316 66.3874 18.4316 66.3815 18.4316L53.4627 21.8692ZM44.0635 18.6951L53.4627 21.2192L66.241 17.8226C66.3112 17.805 66.3815 17.7991 66.4518 17.8108L75.8627 15.2517L66.4635 12.7335L44.0635 18.6951ZM27.4553 21.8223L14.5482 18.4082L2.63085 15.2458L14.4253 12.0542H14.6829L14.7239 12.0659L39.2907 18.6424L27.4553 21.8223ZM5.06704 15.24L14.7063 17.7991L27.4495 21.1665L36.8487 18.6424L14.5951 12.6808H14.5072L5.06704 15.24ZM40.4619 18.3789L40.3858 18.3555L15.6316 11.7262L38.5938 5.56552L40.4619 5.05018L65.2923 11.7028L41.9201 18.0158L40.4619 18.3789ZM18.0678 11.7262L40.4678 17.7289L41.7679 17.4068L62.8678 11.7087L40.4678 5.70021L38.7636 6.16871L18.0678 11.7262ZM66.4635 11.41L66.3815 11.3866L43.6536 5.29614L41.6215 4.75737L53.4627 1.5833L53.5447 1.60673L78.2989 8.25352L66.4635 11.41ZM44.0694 4.75737L66.4635 10.76L75.8627 8.24766L53.4627 2.23334L44.0694 4.75737ZM14.4662 11.3749L2.63085 8.18325L27.4787 1.5833L39.3141 4.77494L14.4662 11.3749ZM5.06704 8.1891L14.4662 10.719L36.8721 4.76322L27.4729 2.23334L5.06704 8.1891Z" fill="#00AEEF"/>
</svg>
