<svg width="71" height="70" viewBox="0 0 71 70" fill="none" xmlns="http://www.w3.org/2000/svg">
<path d="M21.0447 10.7839C21.0447 6.03293 17.6771 1.86105 13.0334 0.869026C12.3363 0.71888 11.6177 0.643814 10.9045 0.643814C5.31164 0.643814 0.764404 5.19105 0.764404 10.7839L0.764404 59.3182C0.764404 59.3182 0.764404 59.3182 0.764404 59.3236C0.764404 64.9111 5.31164 69.4637 10.9153 69.4637L63.793 69.4637C67.2892 69.4637 70.1366 66.6163 70.1366 63.1201V62.9324L70.1366 7.09467C70.1366 4.1025 67.7021 1.66801 64.7099 1.66801H50.8645C50.4462 1.66801 50.1084 2.00584 50.1084 2.4241L50.1084 13.4705L21.0447 13.4705L21.0447 10.7839ZM2.11571 54.2776L2.11571 10.7839C2.11571 5.93641 6.057 1.99511 10.9045 1.99511C11.5266 1.99511 12.1486 2.05946 12.7545 2.18816C16.7763 3.04613 19.6987 6.66032 19.6987 10.7839L19.6987 54.2776C19.6719 54.2347 19.6451 54.1865 19.6183 54.1436C19.5968 54.106 19.5754 54.0739 19.5539 54.0363C19.4842 53.9184 19.4092 53.8004 19.3287 53.6878C19.3073 53.661 19.2912 53.6288 19.2697 53.602C19.2054 53.5055 19.1357 53.4143 19.0713 53.3178C19.0499 53.291 19.0284 53.2588 19.007 53.232C18.9212 53.1194 18.8354 53.0068 18.7442 52.8995C18.7281 52.8781 18.7067 52.8566 18.6906 52.8352C18.6102 52.7386 18.5297 52.6475 18.4493 52.5563C18.4278 52.5295 18.4064 52.5081 18.3849 52.4813C18.2884 52.374 18.1865 52.2721 18.0847 52.1702C18.0686 52.1542 18.0525 52.1381 18.0364 52.1273C17.9452 52.0362 17.8541 51.9504 17.7576 51.8592C17.7361 51.8378 17.7147 51.8163 17.6932 51.8002C17.586 51.7037 17.4734 51.6072 17.3608 51.5107C17.35 51.5 17.3339 51.4892 17.3232 51.4785C17.2213 51.3927 17.1141 51.3123 17.0068 51.2318C16.9854 51.2157 16.9586 51.1943 16.9371 51.1782C16.8192 51.0924 16.6958 51.0066 16.5779 50.9208C16.5671 50.9155 16.5564 50.9047 16.5457 50.8994C16.4331 50.8243 16.3151 50.7492 16.2025 50.6795C16.1757 50.6634 16.1542 50.6473 16.1274 50.6366C15.9987 50.5615 15.87 50.4865 15.7413 50.4114C15.7306 50.406 15.7252 50.4007 15.7145 50.3953C15.5912 50.331 15.4679 50.2666 15.3445 50.2076C15.3177 50.1915 15.2909 50.1808 15.2587 50.1647C15.1247 50.1004 14.9906 50.0414 14.8512 49.9824C14.8405 49.9771 14.8297 49.9771 14.819 49.9717C14.6903 49.9181 14.5616 49.8698 14.4329 49.8215C14.4008 49.8108 14.3686 49.8001 14.3364 49.784C14.197 49.7358 14.0576 49.6875 13.9181 49.6392C13.9074 49.6339 13.8913 49.6339 13.8806 49.6285C13.7519 49.591 13.6232 49.5534 13.4892 49.5159C13.4516 49.5052 13.4141 49.4944 13.3712 49.4837C13.2318 49.4462 13.087 49.414 12.9476 49.3872C12.9315 49.3818 12.91 49.3818 12.8939 49.3765C12.7653 49.3497 12.6366 49.3282 12.5079 49.3068C12.4596 49.3014 12.4167 49.2907 12.3684 49.2853C12.2344 49.2639 12.1057 49.2478 11.9716 49.2317C11.9341 49.2263 11.9019 49.2263 11.8644 49.221C11.7411 49.2102 11.6177 49.1995 11.4944 49.1942C11.4408 49.1888 11.3871 49.1888 11.3335 49.1834C11.2155 49.1781 11.0976 49.1727 10.9796 49.1727C10.9528 49.1727 10.9206 49.1727 10.8938 49.1727C10.8563 49.1727 10.8134 49.1727 10.7758 49.1781C10.6632 49.1781 10.5506 49.1834 10.4434 49.1888C10.379 49.1942 10.3147 49.1942 10.2557 49.1995C10.1592 49.2049 10.0626 49.2102 9.96613 49.221C9.90714 49.2263 9.85352 49.2317 9.79453 49.2371C9.66584 49.2531 9.53178 49.2692 9.40308 49.2853C9.38163 49.2907 9.36555 49.2907 9.3441 49.2907C9.18323 49.3175 9.02772 49.3443 8.87222 49.3765C8.85077 49.3818 8.83468 49.3872 8.81323 49.3872C8.67381 49.414 8.53439 49.4515 8.39497 49.4837C8.37888 49.4891 8.35743 49.4944 8.34135 49.4998C7.15628 49.8055 6.03555 50.331 5.01672 51.0549C4.96309 51.0924 4.91483 51.1353 4.86121 51.1728C4.83976 51.1889 4.81831 51.205 4.7915 51.2211C4.67353 51.3069 4.56092 51.3981 4.44831 51.4946C3.84773 51.9879 3.3115 52.5456 2.85034 53.1569C2.81817 53.1998 2.78599 53.2427 2.74846 53.2856C2.69484 53.3607 2.64121 53.4357 2.58759 53.5162C2.53933 53.5859 2.48571 53.661 2.43744 53.736C2.39991 53.795 2.36237 53.854 2.32484 53.913C2.26585 54.0095 2.2015 54.106 2.14788 54.2079C2.14252 54.2294 2.12643 54.2508 2.11571 54.2776ZM2.11571 59.3182C2.11571 59.152 2.12107 58.9804 2.13179 58.8141C2.13179 58.7766 2.13716 58.7391 2.14252 58.7015C2.15324 58.5675 2.16397 58.4388 2.18005 58.3047C2.18542 58.2672 2.19078 58.235 2.19614 58.1975C2.21223 58.0581 2.23368 57.9186 2.26049 57.7792C2.26585 57.7578 2.27121 57.7363 2.27121 57.7095C2.39455 57.0339 2.59831 56.385 2.87179 55.763C2.87715 55.7576 2.87715 55.7469 2.88252 55.7415C2.94686 55.6021 3.01121 55.4627 3.08092 55.3286C3.09165 55.3072 3.10773 55.2804 3.11846 55.2589C3.18281 55.141 3.24715 55.023 3.31686 54.905C3.33295 54.8728 3.34904 54.846 3.37049 54.8139C3.4402 54.6959 3.51527 54.5779 3.59034 54.4653C3.64396 54.3849 3.69759 54.3098 3.75121 54.2347C3.79411 54.1757 3.83701 54.1114 3.88527 54.0524C3.94962 53.9666 4.01396 53.8808 4.08367 53.8004C4.11049 53.7682 4.13193 53.736 4.15875 53.7092C4.23382 53.6181 4.31425 53.5269 4.39469 53.4411C4.40541 53.425 4.4215 53.4143 4.43222 53.3982C5.84251 51.8592 7.78903 50.8243 9.97685 50.5884C10.0197 50.583 10.0626 50.5776 10.1055 50.5776C10.1913 50.5669 10.2825 50.5615 10.3683 50.5562C10.4219 50.5508 10.4755 50.5508 10.5292 50.5455C10.6203 50.5401 10.7115 50.5401 10.808 50.5401C10.8455 50.5401 10.8831 50.5401 10.9206 50.5401C15.7628 50.5455 19.6987 54.4921 19.6987 59.3289V59.3343C19.6987 59.4844 19.6934 59.6292 19.688 59.7794C19.4521 64.4017 15.6073 68.1017 10.9045 68.1124C6.057 68.1124 2.11571 64.1657 2.11571 59.3182ZM64.7153 3.01932C66.9621 3.01932 68.7907 4.84786 68.7907 7.09467L68.7907 59.3289C68.7799 59.3128 68.7638 59.3021 68.7531 59.286C68.7156 59.2431 68.6834 59.2056 68.6459 59.1681C68.6191 59.1412 68.5922 59.1091 68.5654 59.0823C68.5279 59.0447 68.485 59.0072 68.4475 58.9643C68.4207 58.9375 68.3938 58.9107 68.367 58.8838C68.3241 58.8463 68.2812 58.8088 68.2383 58.7712C68.2115 58.7498 68.1847 58.723 68.1579 58.7015C68.1096 58.6586 68.0614 58.6211 68.0078 58.5836C67.9863 58.5675 67.9595 58.546 67.938 58.5299C67.8683 58.4763 67.7986 58.4281 67.7236 58.3798C67.7182 58.3744 67.7128 58.3744 67.7128 58.3691C67.6378 58.3154 67.5573 58.2672 67.4769 58.2189C67.4554 58.2082 67.434 58.1921 67.4125 58.1814C67.3536 58.1492 67.2946 58.1117 67.2356 58.0795C67.2034 58.0634 67.1766 58.0473 67.1444 58.0312C67.0908 58.0044 67.0372 57.9776 66.9889 57.9508C66.9567 57.9347 66.9192 57.9186 66.887 57.9025C66.8334 57.8811 66.7852 57.8543 66.7315 57.8328C66.694 57.8167 66.6565 57.806 66.6243 57.7899C66.5707 57.7685 66.5224 57.7524 66.4688 57.731C66.4312 57.7149 66.3937 57.7041 66.3562 57.6934C66.3025 57.6773 66.2543 57.6612 66.2007 57.6452C66.1631 57.6344 66.1202 57.6237 66.0827 57.613C66.0291 57.5969 65.9754 57.5862 65.9218 57.5701C65.8843 57.5594 65.8414 57.5486 65.8038 57.5433C65.7502 57.5325 65.6912 57.5218 65.6376 57.5111C65.6001 57.5057 65.5572 57.495 65.5197 57.4896C65.4607 57.4789 65.4017 57.4736 65.3427 57.4628C65.3052 57.4575 65.2676 57.4521 65.2301 57.4467C65.1657 57.4414 65.1014 57.436 65.037 57.4307C65.0049 57.4307 64.9727 57.4253 64.9405 57.4253C64.844 57.4199 64.7421 57.4146 64.6456 57.4146H51.4704L51.4704 14.13L51.4704 3.00323H64.7153V3.01932ZM50.1137 58.101C50.1137 58.471 50.414 58.7766 50.7894 58.7766H64.6402C66.9299 58.7766 68.796 60.6427 68.796 62.9324V63.1147C68.796 65.8709 66.5546 68.107 63.8037 68.107L15.9505 68.107C16.0041 68.0748 16.0577 68.0427 16.1167 68.0105C16.1435 67.9944 16.1703 67.9783 16.1918 67.9622C16.3151 67.8872 16.4331 67.8121 16.551 67.7317C16.5779 67.7156 16.5993 67.6995 16.6261 67.678C16.728 67.6083 16.8245 67.5386 16.9264 67.4635C16.9532 67.4475 16.9747 67.426 17.0015 67.4099C17.1141 67.3241 17.2267 67.233 17.3393 67.1472C17.3607 67.1311 17.3822 67.1096 17.4036 67.0935C17.5002 67.0131 17.5913 66.9327 17.6825 66.8522C17.7039 66.8308 17.7307 66.8093 17.7522 66.7879C17.8594 66.6914 17.9613 66.5948 18.0632 66.493C18.0793 66.4769 18.1007 66.4554 18.1168 66.4393C18.2026 66.3535 18.2884 66.2624 18.3742 66.1712C18.3957 66.1498 18.4171 66.123 18.4386 66.1015C18.5351 65.9943 18.6263 65.887 18.7228 65.7744C18.7389 65.7583 18.755 65.7369 18.7657 65.7208C18.8461 65.6243 18.9212 65.5277 18.9963 65.4259C19.0177 65.3991 19.0338 65.3722 19.0552 65.3508C19.141 65.2328 19.2268 65.1202 19.3073 64.9969C19.318 64.9808 19.3287 64.9593 19.3448 64.9433C19.4145 64.836 19.4842 64.7288 19.5486 64.6215C19.5647 64.5947 19.5861 64.5625 19.6022 64.5357C19.6773 64.4124 19.747 64.2891 19.8167 64.1604C19.8274 64.1443 19.8328 64.1228 19.8435 64.1067C19.9025 63.9941 19.9615 63.8762 20.0205 63.7636C20.0365 63.7314 20.0526 63.6992 20.0634 63.6724C20.1277 63.5437 20.1867 63.4096 20.2457 63.2756C20.251 63.2595 20.2564 63.2434 20.2671 63.2273C20.3154 63.104 20.3636 62.986 20.4119 62.8627C20.4226 62.8305 20.4387 62.7983 20.4494 62.7608C20.4977 62.6214 20.546 62.482 20.5889 62.3425C20.5942 62.3265 20.5996 62.3157 20.5996 62.2996C20.6371 62.1709 20.6747 62.0422 20.7122 61.9082C20.7229 61.8707 20.7336 61.8385 20.739 61.8009C20.7765 61.6562 20.8087 61.5114 20.8409 61.3666C20.8409 61.3559 20.8463 61.3451 20.8463 61.3344C20.8731 61.195 20.8999 61.0609 20.9213 60.9215C20.9267 60.884 20.932 60.8465 20.9374 60.8089C20.9589 60.6588 20.9803 60.5086 20.9964 60.3585C20.9964 60.3531 20.9964 60.3478 20.9964 60.3424C21.0125 60.1976 21.0232 60.0528 21.0286 59.9027C21.0286 59.8652 21.0339 59.8276 21.0339 59.7847C21.0393 59.6292 21.0447 59.4791 21.0447 59.3236L21.0447 14.8218L50.1137 14.8218L50.1137 58.101Z" fill="#00AEEF"/>
<path d="M70.2921 7.09467L70.2921 63.1147C70.2921 66.6967 67.3804 69.6085 63.7983 69.6085L10.9206 69.6085C5.23657 69.6085 0.614258 64.9915 0.614258 59.3182L0.614258 10.7786C0.614258 5.10526 5.2312 0.488304 10.9045 0.488304C11.6284 0.488304 12.3577 0.563377 13.0655 0.718887C17.7736 1.727 21.1948 5.95786 21.1948 10.7786L21.1948 13.3149L49.9582 13.3149L49.9582 2.4241C49.9582 1.9254 50.3658 1.51787 50.8645 1.51787H64.7099C67.7879 1.51787 70.2921 4.01671 70.2921 7.09467ZM0.919909 59.3182C0.919909 64.8253 5.40816 69.3082 10.9206 69.3082L63.7983 69.3082C67.2088 69.3082 69.9864 66.5305 69.9864 63.1201L69.9864 7.10003C69.9864 4.19366 67.6217 1.82888 64.7153 1.82888H50.8698C50.5373 1.82888 50.2692 2.097 50.2692 2.42947L50.2692 13.6206L20.8945 13.6206L20.8945 10.7839C20.8945 6.10264 17.5752 1.99512 13.0066 1.01917C12.3202 0.87439 11.6124 0.799324 10.9099 0.799324C5.4028 0.799324 0.925271 5.27685 0.925271 10.7839L0.925271 59.3182H0.919909ZM68.9462 7.09467L68.9462 59.7364L68.678 59.4254C68.6727 59.4201 68.6673 59.4147 68.662 59.4093C68.6566 59.404 68.6512 59.3933 68.6405 59.3879C68.603 59.3504 68.5708 59.3075 68.5333 59.2699C68.5064 59.2431 68.4796 59.2163 68.4528 59.1895C68.4153 59.152 68.3778 59.1144 68.3402 59.0769L68.3188 59.0554C68.2973 59.034 68.2812 59.0179 68.2598 58.9965C68.2169 58.9589 68.1793 58.9214 68.1364 58.8838L68.1096 58.8624C68.0936 58.8463 68.0775 58.8356 68.0614 58.8195C68.0131 58.782 67.9649 58.7391 67.9166 58.7015L67.8844 58.6747C67.8737 58.664 67.863 58.6533 67.8469 58.6479C67.7825 58.5996 67.7128 58.5514 67.6378 58.4978L67.627 58.4924C67.552 58.4388 67.4715 58.3905 67.3965 58.3422C67.3857 58.3369 67.375 58.3315 67.3643 58.3208C67.3535 58.3154 67.3428 58.3101 67.3321 58.3047C67.2838 58.2725 67.2195 58.2404 67.1605 58.2082C67.1444 58.1975 67.123 58.1867 67.1015 58.1814L67.0693 58.1653C67.0157 58.1385 66.9675 58.1117 66.9138 58.0902C66.8924 58.0795 66.8656 58.0688 66.8441 58.058L66.812 58.042C66.7637 58.0205 66.7154 57.9991 66.6618 57.9776C66.6296 57.9669 66.5975 57.9508 66.5653 57.9401L66.5546 57.9347C66.5063 57.9133 66.4527 57.8972 66.4044 57.8811C66.3669 57.8704 66.3293 57.8543 66.2918 57.8436C66.2436 57.8275 66.1899 57.8114 66.1417 57.7953C66.1041 57.7846 66.0666 57.7738 66.0291 57.7631C65.9754 57.747 65.9272 57.7363 65.8736 57.7256C65.836 57.7149 65.7985 57.7095 65.7556 57.6988C65.702 57.688 65.6483 57.6773 65.5947 57.6666L65.5679 57.6612C65.5357 57.6559 65.5089 57.6505 65.4767 57.6451C65.4231 57.6344 65.3641 57.6291 65.3052 57.6237L65.2676 57.6183C65.2408 57.613 65.2194 57.613 65.1925 57.6076C65.1282 57.6023 65.0638 57.5969 65.0049 57.5915L64.9673 57.5862C64.9459 57.5862 64.9298 57.5808 64.9083 57.5808C64.8065 57.5754 64.7099 57.5701 64.6188 57.5701H51.2881L51.2881 2.85308H64.6938C67.0479 2.86381 68.9462 4.76207 68.9462 7.09467ZM68.6405 58.9428L68.6405 7.09467C68.6405 4.9283 66.8817 3.16946 64.7153 3.16946H51.6152L51.6152 57.2752H64.6402C64.7367 57.2752 64.8386 57.2805 64.9459 57.2859C64.9673 57.2859 64.9888 57.2912 65.0102 57.2912L65.0424 57.2966C65.1121 57.302 65.1765 57.3073 65.2408 57.3127C65.2676 57.318 65.2944 57.318 65.3212 57.3234L65.3534 57.3288C65.4124 57.3341 65.4714 57.3449 65.5304 57.3556C65.5625 57.3609 65.5947 57.3663 65.6269 57.3717L65.6537 57.377C65.7127 57.3878 65.7663 57.3985 65.8253 57.4092C65.8682 57.4199 65.9057 57.4253 65.9486 57.436C66.0023 57.4467 66.0559 57.4628 66.1149 57.4789C66.1578 57.4896 66.1953 57.5004 66.2382 57.5111C66.2918 57.5272 66.3454 57.5433 66.3991 57.5594C66.4366 57.5701 66.4795 57.5862 66.517 57.5969C66.5707 57.6183 66.6243 57.6344 66.6779 57.6559L66.6886 57.6612C66.7208 57.672 66.7583 57.688 66.7905 57.7041C66.8441 57.7256 66.8978 57.747 66.9514 57.7738L66.9836 57.7899C67.0104 57.8007 67.0318 57.8114 67.0586 57.8221C67.1123 57.8489 67.1659 57.8757 67.2195 57.9025L67.2517 57.9186C67.2731 57.9294 67.2946 57.9401 67.316 57.9508C67.3804 57.9883 67.4447 58.0205 67.4983 58.0527C67.5091 58.058 67.5144 58.0634 67.5251 58.0688C67.5412 58.0741 67.552 58.0849 67.568 58.0956C67.6485 58.1438 67.7343 58.1975 67.8093 58.2511L67.8201 58.2565C67.9005 58.3101 67.9756 58.3637 68.0399 58.4173C68.056 58.428 68.0667 58.4388 68.0828 58.4495L68.1096 58.4709C68.1633 58.5085 68.2115 58.5514 68.2598 58.5943C68.2812 58.6104 68.2973 58.6265 68.3188 58.6425L68.3456 58.664C68.3885 58.7015 68.4367 58.7391 68.4796 58.782C68.5011 58.8034 68.5225 58.8249 68.544 58.8463L68.5654 58.8624C68.5815 58.8838 68.6137 58.9107 68.6405 58.9428ZM68.9462 62.9324V63.1147C68.9462 65.9514 66.635 68.2625 63.7983 68.2625L15.3821 68.2625L15.8754 67.9783C15.9129 67.9569 15.9451 67.9354 15.9826 67.914L16.0684 67.8603C16.0845 67.8496 16.0952 67.8443 16.1113 67.8335C16.2293 67.7638 16.3473 67.6834 16.4652 67.603C16.4813 67.5922 16.4974 67.5815 16.5135 67.5708L16.535 67.5547C16.6315 67.485 16.7334 67.4153 16.8299 67.3456L16.8513 67.3295C16.8674 67.3188 16.8889 67.3027 16.905 67.2919C17.0176 67.2061 17.1302 67.1203 17.2374 67.0292C17.2481 67.0185 17.2642 67.0077 17.275 66.997L17.3018 66.9702C17.3929 66.8951 17.4841 66.8147 17.5752 66.7343L17.6021 66.7075C17.6181 66.6967 17.6289 66.686 17.6396 66.6699C17.7415 66.5734 17.8487 66.4769 17.9452 66.375C17.956 66.3643 17.9667 66.3535 17.9721 66.3482L17.9989 66.3214C18.0793 66.2409 18.1651 66.1498 18.2509 66.0586L18.2723 66.0372C18.2884 66.0211 18.2992 66.005 18.3152 65.9889C18.4118 65.8817 18.5083 65.7744 18.5941 65.6672C18.6048 65.6564 18.6102 65.6457 18.6209 65.635L18.637 65.6135C18.712 65.5224 18.7871 65.4259 18.8676 65.324L18.9265 65.2489C19.0177 65.1309 19.0981 65.013 19.1732 64.9004C19.1786 64.8896 19.1893 64.8789 19.1947 64.8682L19.2107 64.8467C19.2751 64.7502 19.3394 64.6483 19.4145 64.5304L19.4306 64.4982C19.4413 64.4821 19.452 64.4606 19.4628 64.4446C19.5432 64.3105 19.6129 64.1925 19.6773 64.0746L19.688 64.0531C19.6934 64.0424 19.6987 64.0317 19.7041 64.0209C19.7631 63.9137 19.8167 63.8011 19.8757 63.6831L19.8918 63.6509C19.9025 63.6295 19.9132 63.608 19.9186 63.5919C19.9829 63.4525 20.0419 63.3238 20.0955 63.2005C20.1009 63.1898 20.1009 63.1844 20.1063 63.1737L20.117 63.1522C20.1652 63.0396 20.2135 62.9217 20.2618 62.793L20.2993 62.6911C20.3529 62.5463 20.3958 62.4122 20.4387 62.2835L20.4494 62.2406C20.487 62.1227 20.5245 61.994 20.5567 61.8546C20.5674 61.817 20.5728 61.7849 20.5835 61.7473C20.6264 61.5864 20.6532 61.4524 20.68 61.3183L20.6854 61.2862C20.7122 61.1575 20.7336 61.0234 20.7605 60.8786L20.7765 60.766C20.8034 60.5998 20.8194 60.4604 20.8302 60.3263V60.3102C20.8409 60.1762 20.8516 60.0421 20.8623 59.8759C20.8623 59.8383 20.8677 59.8008 20.8677 59.7633C20.8731 59.5917 20.8784 59.4415 20.8784 59.3075L20.8784 14.6502L50.2531 14.6502L50.2531 58.1224C50.2639 58.4012 50.4945 58.6265 50.7733 58.6265H64.6241C67.0104 58.6211 68.9462 60.5569 68.9462 62.9324ZM16.4867 67.9569L63.7983 67.9569C66.4688 67.9569 68.6405 65.7851 68.6405 63.1147V62.927C68.6405 60.7178 66.8441 58.9267 64.6349 58.9267H50.784C50.3282 58.9267 49.9582 58.5567 49.9582 58.1009L49.9582 14.9665L21.1948 14.9665L21.1948 59.3182C21.1948 59.4576 21.1894 59.6131 21.1841 59.7901C21.1841 59.8276 21.1787 59.8705 21.1787 59.908C21.168 60.0796 21.1573 60.2191 21.1465 60.3531V60.3692C21.1305 60.5086 21.1144 60.6534 21.0876 60.825L21.0715 60.9376C21.05 61.0824 21.0232 61.2272 20.9964 61.3559L20.991 61.388C20.9642 61.5221 20.932 61.6615 20.8891 61.8277C20.8784 61.8653 20.8677 61.9028 20.8623 61.935C20.8248 62.0744 20.7873 62.2031 20.7497 62.3318L20.7444 62.3479C20.7444 62.3586 20.739 62.364 20.7336 62.3747C20.6907 62.5088 20.6425 62.6482 20.5889 62.7983L20.5513 62.9002C20.5031 63.0343 20.4548 63.1522 20.4065 63.2702L20.4012 63.2863C20.3958 63.297 20.3905 63.3077 20.3851 63.3185C20.3315 63.4472 20.2725 63.5759 20.2028 63.7206C20.192 63.7421 20.1813 63.7635 20.1706 63.785L20.1545 63.8172C20.0955 63.9405 20.0365 64.0585 19.9776 64.1657C19.9722 64.1764 19.9668 64.1818 19.9668 64.1925C19.9615 64.2033 19.9561 64.214 19.9507 64.2193C19.8864 64.3427 19.8113 64.466 19.7309 64.6001C19.7202 64.6215 19.7094 64.6376 19.6934 64.659L19.6773 64.6859C19.6022 64.8038 19.5378 64.9111 19.4681 65.013L19.4574 65.0344C19.452 65.0451 19.4413 65.0559 19.436 65.0719C19.3555 65.1899 19.2751 65.3025 19.1839 65.4312L19.1249 65.5117C19.0445 65.6189 18.9641 65.7154 18.889 65.8119L18.8729 65.8334C18.8622 65.8441 18.8515 65.8602 18.8407 65.8709C18.7496 65.9782 18.6531 66.0908 18.5565 66.2034C18.5405 66.2195 18.5244 66.2356 18.5136 66.2517L18.4922 66.2731C18.4064 66.3696 18.3152 66.4608 18.2294 66.5466L18.208 66.5734C18.1973 66.5841 18.1865 66.5948 18.1758 66.6056C18.0739 66.7075 17.9667 66.8093 17.8594 66.9059C17.8434 66.9166 17.8326 66.9327 17.8165 66.9434L17.7897 66.9648C17.6986 67.0506 17.6021 67.1311 17.5055 67.2115L17.4787 67.233C17.468 67.2437 17.4519 67.2544 17.4412 67.2651C17.3286 67.3563 17.216 67.4474 17.098 67.5332C17.0765 67.5493 17.0605 67.5601 17.039 67.5761L17.0229 67.5922C16.9264 67.6673 16.8245 67.737 16.7226 67.8067L16.7012 67.8228C16.6851 67.8335 16.6636 67.8496 16.6476 67.8603C16.5886 67.8925 16.5403 67.9247 16.4867 67.9569ZM19.8489 59.3236C19.8489 59.4791 19.8435 59.6292 19.8381 59.774C19.7202 62.0583 18.7389 64.1925 17.0765 65.7798C15.4035 67.3724 13.2157 68.2518 10.9099 68.2572C5.97657 68.2572 1.96556 64.2462 1.96556 59.3128C1.96556 59.1466 1.97092 58.9804 1.98165 58.8034C1.98165 58.782 1.98701 58.7551 1.98701 58.7337L1.99237 58.6908C2.0031 58.5353 2.01382 58.4066 2.02991 58.2886C2.02991 58.2672 2.03527 58.2457 2.04063 58.2243L2.04599 58.1814C2.06744 58.0259 2.08889 57.8918 2.11034 57.7578C2.1157 57.7363 2.12107 57.7095 2.12107 57.688C2.24976 57.007 2.45353 56.3421 2.73237 55.7094L2.74309 55.6825C2.80208 55.5538 2.86643 55.4144 2.9415 55.2643C2.95222 55.2375 2.96831 55.216 2.97904 55.1892C3.03802 55.0766 3.10237 54.9586 3.17744 54.8299L3.19889 54.7924C3.20961 54.771 3.22034 54.7549 3.23106 54.7334C3.29541 54.6262 3.37048 54.5082 3.45628 54.3795C3.5099 54.2937 3.56889 54.2133 3.62251 54.1436L3.64932 54.106C3.68686 54.0578 3.71903 54.0095 3.75657 53.9559C3.81556 53.8808 3.87454 53.8004 3.96034 53.6985L3.9657 53.6931C3.98715 53.661 4.01396 53.6341 4.03541 53.6073C4.11585 53.5108 4.19628 53.4197 4.27671 53.3339L4.31425 53.291C5.78889 51.6823 7.79439 50.6688 9.9554 50.4328C9.9983 50.4275 10.0466 50.4221 10.0895 50.4221C10.1699 50.4168 10.2611 50.406 10.3576 50.4007H10.3897C10.4326 50.3953 10.4809 50.3953 10.5238 50.3953C10.6257 50.3899 10.7276 50.3899 10.8026 50.3899C10.8187 50.3899 10.8348 50.3899 10.8455 50.3899C10.867 50.3899 10.8938 50.3899 10.9153 50.3899C15.8379 50.3953 19.8381 54.401 19.8435 59.3236C19.8489 59.3182 19.8489 59.3182 19.8489 59.3236ZM2.1157 59.3182H2.26585C2.26585 64.0799 6.1428 67.9569 10.9045 67.9569C15.5108 67.9515 19.3019 64.348 19.5325 59.7633C19.5378 59.6238 19.5432 59.4791 19.5432 59.3343C19.5432 59.3289 19.5432 59.3236 19.5432 59.3182C19.5432 54.5618 15.6716 50.6849 10.9153 50.6795C10.8938 50.6795 10.8724 50.6795 10.8509 50.6795C10.8348 50.6795 10.8187 50.6795 10.8026 50.6795C10.7276 50.6795 10.6311 50.6795 10.5292 50.6849C10.4863 50.6849 10.4434 50.6902 10.4005 50.6902H10.3683C10.2718 50.6956 10.186 50.701 10.1055 50.7117C10.0626 50.717 10.0197 50.717 9.97685 50.7224C7.89091 50.9476 5.95512 51.9289 4.52874 53.4786L4.49121 53.5215C4.41613 53.6073 4.3357 53.6931 4.26063 53.7896C4.23918 53.8165 4.21237 53.8486 4.19092 53.8754L4.18556 53.8808C4.10512 53.9773 4.04613 54.0578 3.99251 54.1275C3.96034 54.1757 3.9228 54.2186 3.89063 54.2669L3.86382 54.3044C3.81556 54.3741 3.75657 54.4546 3.70295 54.5296C3.61715 54.6583 3.54744 54.771 3.48309 54.8728C3.47237 54.8889 3.46164 54.905 3.45092 54.9265L3.42947 54.964C3.3544 55.0927 3.29005 55.2053 3.23643 55.3125C3.2257 55.334 3.20961 55.3608 3.19889 55.3823C3.12382 55.527 3.05947 55.6611 3.00585 55.7898L2.99512 55.8166C2.72701 56.4225 2.5286 57.066 2.40527 57.7256C2.39991 57.747 2.39991 57.7685 2.39454 57.7899C2.37309 57.9186 2.35165 58.0527 2.3302 58.2028L2.32483 58.2457C2.32483 58.2672 2.31947 58.2833 2.31947 58.3047C2.30338 58.4227 2.29266 58.546 2.28194 58.6962L2.27657 58.7444C2.27657 58.7659 2.27121 58.7873 2.27121 58.8088C2.26049 58.9804 2.25512 59.1412 2.25512 59.3021L2.1157 59.3182ZM19.8489 10.7839L19.8489 54.846L19.5647 54.3527C19.5486 54.3205 19.5271 54.2937 19.511 54.2615L19.4681 54.1865C19.452 54.165 19.4413 54.1382 19.4252 54.1168C19.3502 53.9988 19.2805 53.8862 19.2054 53.7736C19.1947 53.7575 19.1839 53.736 19.1678 53.7199L19.1464 53.6878C19.0821 53.5912 19.0123 53.5001 18.948 53.4089L18.9212 53.3768C18.9105 53.3607 18.8944 53.3392 18.8836 53.3231C18.7978 53.2105 18.712 53.0979 18.6263 52.996C18.6155 52.9853 18.6102 52.9746 18.5994 52.9639C18.5887 52.9531 18.5834 52.9424 18.5726 52.9317C18.4976 52.8405 18.4171 52.7494 18.3367 52.6582L18.3152 52.6368C18.2992 52.6207 18.2831 52.6046 18.2723 52.5885C18.1705 52.4812 18.0739 52.374 17.9774 52.2828L17.956 52.2614C17.9452 52.2507 17.9399 52.2453 17.9292 52.2346C17.8434 52.1488 17.7522 52.063 17.6557 51.9718L17.5913 51.9128C17.4787 51.811 17.3715 51.7198 17.2642 51.6286C17.2589 51.6233 17.2481 51.6179 17.2428 51.6126L17.2267 51.6018C17.1302 51.5214 17.0283 51.441 16.9157 51.3552L16.8942 51.3391C16.8781 51.3284 16.8621 51.3176 16.846 51.3015C16.7226 51.2104 16.6047 51.1246 16.4921 51.0495L16.4599 51.0281C16.3526 50.9584 16.24 50.8833 16.1221 50.8082L16.1006 50.7921C16.0845 50.7814 16.0684 50.7707 16.0523 50.7599C15.9183 50.6795 15.795 50.6044 15.6716 50.5401L15.6448 50.524C15.5322 50.465 15.4142 50.4007 15.2802 50.3363L15.2641 50.331C15.2426 50.3202 15.2212 50.3095 15.1944 50.2988C15.0496 50.2291 14.9209 50.1701 14.7922 50.1165L14.76 50.1057C14.6421 50.0575 14.5187 50.0092 14.3793 49.9556C14.3471 49.9449 14.315 49.9341 14.2828 49.9181C14.1326 49.8644 13.9986 49.8162 13.8699 49.7786L13.8323 49.7679C13.709 49.7304 13.5857 49.6928 13.4463 49.6553C13.4087 49.6446 13.3712 49.6339 13.3337 49.6231C13.1728 49.5802 13.0387 49.5534 12.9154 49.5266C12.91 49.5266 12.8993 49.5213 12.8939 49.5213C12.8832 49.5213 12.8725 49.5159 12.8618 49.5159C12.7438 49.4944 12.6205 49.4676 12.4864 49.4462C12.4435 49.4408 12.3953 49.4301 12.3524 49.4247C12.2129 49.4033 12.0842 49.3872 11.9609 49.3765C11.9341 49.3711 11.9073 49.3711 11.8805 49.3711H11.8537C11.7357 49.3604 11.6124 49.3497 11.489 49.3443C11.4354 49.3389 11.3818 49.3389 11.3282 49.3336C11.2155 49.3282 11.0976 49.3228 10.9796 49.3228C10.9635 49.3228 10.9474 49.3228 10.9313 49.3228C10.9206 49.3228 10.9045 49.3228 10.8938 49.3228C10.8724 49.3228 10.8563 49.3228 10.8348 49.3228C10.8187 49.3228 10.7973 49.3228 10.7812 49.3228C10.69 49.3228 10.5721 49.3282 10.4541 49.3336C10.4058 49.3336 10.3522 49.3389 10.304 49.3443H10.2664C10.1699 49.3497 10.0734 49.355 9.98221 49.3657C9.92323 49.3711 9.8696 49.3765 9.81062 49.3818C9.68728 49.3979 9.55323 49.414 9.42453 49.4301C9.41381 49.4301 9.40308 49.4355 9.39236 49.4355C9.38163 49.4355 9.37627 49.4355 9.36555 49.4408C9.2154 49.4623 9.06526 49.4891 8.89902 49.5266C8.8883 49.5266 8.87757 49.532 8.86685 49.532L8.84004 49.5373C8.70598 49.5641 8.56656 49.5963 8.42714 49.6339L8.37352 49.6499C7.19917 49.9556 6.09454 50.4704 5.10251 51.1782C5.0757 51.1997 5.04352 51.2211 5.01671 51.2426C4.99526 51.2586 4.97381 51.2747 4.95237 51.2908C4.93628 51.3015 4.92555 51.3123 4.91483 51.323L4.88802 51.3444C4.75932 51.441 4.65208 51.5268 4.55019 51.6126L4.54483 51.6179C3.9657 52.1005 3.43483 52.6475 2.97367 53.2481L2.9415 53.291C2.92005 53.3178 2.8986 53.3499 2.87715 53.3768C2.82353 53.4465 2.77527 53.5215 2.72164 53.5912L2.71628 53.602C2.66802 53.6717 2.61976 53.7468 2.5715 53.8165C2.53396 53.8754 2.49643 53.9344 2.45889 53.9934C2.39454 54.0899 2.33556 54.1918 2.28194 54.283C2.27657 54.2937 2.26585 54.3044 2.26049 54.3205C2.25512 54.3312 2.24976 54.342 2.2444 54.3473L1.9602 54.8407L1.9602 10.7786C1.9602 5.84525 5.9712 1.83424 10.9045 1.83424C11.5319 1.83424 12.1647 1.8986 12.7813 2.03265C16.8781 2.91207 19.8489 6.59061 19.8489 10.7839ZM19.5432 53.736L19.5432 10.7786C19.5432 6.73003 16.6744 3.17482 12.7224 2.33294C12.1271 2.20425 11.5158 2.1399 10.9045 2.1399C6.1428 2.1399 2.26585 6.01685 2.26585 10.7786L2.26585 53.736C2.28194 53.7092 2.30338 53.6824 2.31947 53.6502C2.36773 53.5752 2.42136 53.5001 2.46962 53.4304L2.47498 53.4197C2.5286 53.3446 2.57686 53.2695 2.63585 53.1944C2.6573 53.1623 2.68411 53.1354 2.70556 53.1033L2.73773 53.0604C3.21498 52.4383 3.75657 51.8753 4.35715 51.3766L4.36787 51.3659C4.46976 51.2801 4.58237 51.1943 4.71106 51.0978L4.73787 51.0763C4.75396 51.0656 4.76469 51.0549 4.78077 51.0441C4.80222 51.0281 4.82367 51.012 4.83976 50.9959C4.87193 50.9744 4.9041 50.9476 4.93628 50.9262C5.96048 50.1969 7.09729 49.666 8.30917 49.3497L8.36279 49.3336C8.50758 49.296 8.65236 49.2639 8.79178 49.2371L8.81323 49.2317C8.82395 49.2317 8.84004 49.2263 8.85076 49.2263C9.02236 49.1942 9.17787 49.162 9.32801 49.1405C9.33873 49.1405 9.34946 49.1352 9.36555 49.1352L9.387 49.1298C9.52105 49.1084 9.65511 49.0923 9.78381 49.0815C9.84279 49.0762 9.89641 49.0708 9.9554 49.0655C10.0519 49.0547 10.1484 49.0494 10.2503 49.044H10.2879C10.3415 49.0386 10.3897 49.0386 10.4434 49.0333C10.5667 49.0279 10.69 49.0279 10.7812 49.0226C10.7973 49.0226 10.8134 49.0226 10.8295 49.0226C10.8509 49.0226 10.8777 49.0226 10.8992 49.0226C10.9153 49.0226 10.9313 49.0226 10.9474 49.0226C10.9582 49.0226 10.9742 49.0226 10.985 49.0226C11.1029 49.0226 11.2263 49.0279 11.3442 49.0333C11.3979 49.0333 11.4568 49.0386 11.5105 49.044C11.6392 49.0494 11.7625 49.0601 11.8858 49.0708H11.9073C11.9341 49.0708 11.9609 49.0762 11.9877 49.0815C12.1164 49.0976 12.2505 49.1137 12.3953 49.1352C12.4435 49.1405 12.4864 49.1513 12.5347 49.1566C12.6741 49.1781 12.8028 49.1995 12.9261 49.2263C12.9368 49.2263 12.9422 49.2317 12.9529 49.2317C12.9637 49.2317 12.9744 49.2371 12.9851 49.2371C13.1138 49.2639 13.2532 49.296 13.4195 49.3389C13.457 49.3497 13.4999 49.3604 13.5374 49.3711C13.6768 49.4086 13.8055 49.4462 13.9342 49.4837L13.945 49.4891C13.9557 49.4891 13.961 49.4944 13.9718 49.4944C14.1058 49.5373 14.2452 49.5856 14.3954 49.6392C14.4276 49.6499 14.4597 49.666 14.4919 49.6768C14.6313 49.7304 14.76 49.7786 14.8834 49.8323L14.9155 49.843C15.0442 49.8966 15.1837 49.961 15.3284 50.0307C15.3499 50.0414 15.3767 50.0521 15.3981 50.0628L15.4142 50.0682C15.5483 50.1326 15.6716 50.1969 15.7896 50.2612L15.8164 50.2773C15.9397 50.347 16.0684 50.4168 16.2079 50.5026C16.2239 50.5133 16.2454 50.524 16.2615 50.5347L16.2829 50.5508C16.4063 50.6259 16.5189 50.701 16.6315 50.776L16.6476 50.7868C16.6529 50.7921 16.6583 50.7975 16.669 50.7975C16.787 50.8779 16.9103 50.9637 17.0336 51.0602C17.0497 51.071 17.0658 51.087 17.0819 51.0978L17.1034 51.1139C17.216 51.1997 17.3232 51.2801 17.4251 51.3659L17.4358 51.3766C17.4465 51.382 17.4519 51.3927 17.4626 51.3981C17.5699 51.4892 17.6825 51.5857 17.8005 51.6876L17.8702 51.752C17.9667 51.8431 18.0632 51.9343 18.1544 52.0201L18.2026 52.0683C18.2992 52.1649 18.401 52.2721 18.5029 52.3847C18.519 52.4008 18.5351 52.4223 18.5512 52.4383L18.5673 52.4598C18.6531 52.551 18.7335 52.6475 18.8086 52.7386L18.8354 52.7654C18.8461 52.7762 18.8568 52.7869 18.8676 52.803C18.9534 52.9102 19.0445 53.0228 19.1303 53.1408C19.1464 53.1569 19.1571 53.1783 19.1732 53.1998L19.1947 53.232C19.2644 53.3231 19.3341 53.4197 19.3984 53.5162L19.4199 53.5483C19.4306 53.5698 19.4467 53.5859 19.4574 53.6073C19.4842 53.6449 19.5164 53.6931 19.5432 53.736Z" fill="#00AEEF"/>
<path d="M15.071 59.3396C15.071 57.0338 13.1942 55.157 10.8884 55.157C8.58262 55.157 6.70581 57.0338 6.70581 59.3396C6.70581 61.6454 8.58262 63.5222 10.8884 63.5222C13.1942 63.5222 15.071 61.6454 15.071 59.3396ZM8.05175 59.3396C8.05175 57.7792 9.32262 56.503 10.8884 56.503C12.4542 56.503 13.7251 57.7738 13.7251 59.3396C13.7251 60.9 12.4542 62.1763 10.8884 62.1763C9.32262 62.1763 8.05175 60.9 8.05175 59.3396Z" fill="#00AEEF"/>
<path d="M15.2212 59.3396C15.2212 61.7312 13.2746 63.6724 10.8884 63.6724C8.50218 63.6724 6.55566 61.7258 6.55566 59.3396C6.55566 56.948 8.50218 55.0069 10.8884 55.0069C13.2746 55.0069 15.2212 56.948 15.2212 59.3396ZM6.85595 59.3396C6.85595 61.5596 8.66305 63.3721 10.8884 63.3721C13.1084 63.3721 14.9209 61.565 14.9209 59.3396C14.9209 57.1143 13.1138 55.3072 10.8884 55.3072C8.66305 55.3072 6.85595 57.1143 6.85595 59.3396ZM13.8752 59.3396C13.8752 60.9858 12.5346 62.3264 10.8884 62.3264C9.24218 62.3264 7.9016 60.9858 7.9016 59.3396C7.9016 57.6934 9.24218 56.3528 10.8884 56.3528C12.5346 56.3528 13.8752 57.6934 13.8752 59.3396ZM8.20189 59.3396C8.20189 60.8196 9.40305 62.0208 10.883 62.0208C12.363 62.0208 13.5642 60.8196 13.5642 59.3396C13.5642 57.8596 12.363 56.6585 10.883 56.6585C9.40305 56.6585 8.20189 57.8596 8.20189 59.3396Z" fill="#00AEEF"/>
</svg>
