<svg width="83" height="83" viewBox="0 0 83 83" fill="none" xmlns="http://www.w3.org/2000/svg">
<path d="M64.7579 64.0203C59.6689 64.0203 55.5286 59.8799 55.5286 54.7909C55.5286 49.7019 59.6689 45.5615 64.7579 45.5615C69.847 45.5615 73.9873 49.7019 73.9873 54.7909C73.9873 59.8799 69.847 64.0203 64.7579 64.0203ZM64.7579 47.4355C60.7055 47.4355 57.4026 50.7326 57.4026 54.7909C57.4026 58.8493 60.6996 62.1463 64.7579 62.1463C68.8163 62.1463 72.1133 58.8493 72.1133 54.7909C72.1133 50.7326 68.8163 47.4355 64.7579 47.4355Z" fill="#00AEEF"/>
<path d="M18.33 64.0203C13.2409 64.0203 9.10059 59.8799 9.10059 54.7909C9.10059 49.7019 13.2409 45.5615 18.33 45.5615C23.419 45.5615 27.5593 49.7019 27.5593 54.7909C27.5593 59.8799 23.419 64.0203 18.33 64.0203ZM18.33 47.4355C14.2775 47.4355 10.9746 50.7326 10.9746 54.7909C10.9746 58.8493 14.2716 62.1463 18.33 62.1463C22.3883 62.1463 25.6854 58.8493 25.6854 54.7909C25.6854 50.7326 22.3825 47.4355 18.33 47.4355Z" fill="#00AEEF"/>
<path d="M78.028 55.7282H73.0561V53.8542H78.028C79.2754 53.8542 80.4056 52.7181 80.4056 51.4766V41.5269C80.4056 41.2634 80.1421 39.8403 74.9711 37.6794C71.7033 36.3149 67.3112 35.0324 62.919 34.1539C62.0406 33.9782 60.4008 33.2169 56.3835 28.6725C54.4217 26.453 52.7234 24.2628 52.4481 23.9056C50.8318 22.2893 49.4205 20.9072 46.5158 20.9072H23.5243C21.5801 20.9072 20.0867 23.5952 18.5114 26.4413C16.5027 30.0663 14.2188 34.1773 10.0375 34.1773H6.72287C5.45207 34.1773 4.47409 34.4702 3.80648 35.0499C3.06274 35.7 2.68209 36.7658 2.68209 38.2123V51.9919C2.68209 53.2744 3.91775 53.8601 5.05971 53.8601H10.0375V55.734H5.05971C3.9646 55.734 2.9339 55.4002 2.16089 54.7853C1.28831 54.0943 0.802246 53.0987 0.802246 51.9861V38.2123C0.802246 36.2036 1.39372 34.6634 2.56496 33.6386C3.57809 32.7484 4.97772 32.2975 6.71701 32.2975H10.0316C13.112 32.2975 15.0211 28.8541 16.8658 25.5277C17.756 23.9173 18.5993 22.3947 19.589 21.2117C20.8129 19.7418 22.1013 19.0273 23.5185 19.0273H46.5158C50.2228 19.0273 52.126 20.9365 53.8126 22.6172L53.8595 22.664L53.9005 22.7168C53.918 22.7402 55.6983 25.0709 57.7948 27.4369C61.5662 31.7002 62.9542 32.2507 63.288 32.3151C67.7972 33.2169 72.3182 34.5404 75.6973 35.9518C80.1304 37.8023 82.2855 39.6236 82.2855 41.5269V51.4766C82.2796 53.7429 80.2944 55.7282 78.028 55.7282ZM56.4713 55.7282H26.6164V53.8542H56.4655V55.7282H56.4713Z" fill="#00AEEF"/>
<path d="M63.1005 34.1709H8.38011C7.86476 34.1709 7.44312 33.7492 7.44312 33.2339C7.44312 32.7185 7.86476 32.2969 8.38011 32.2969H63.1063C63.6217 32.2969 64.0433 32.7185 64.0433 33.2339C64.0433 33.7492 63.6217 34.1709 63.1005 34.1709Z" fill="#00AEEF"/>
<path d="M37.5031 19.9697H35.6292V33.234H37.5031V19.9697Z" fill="#00AEEF"/>
</svg>
