<svg width="75" height="71" viewBox="0 0 75 71" fill="none" xmlns="http://www.w3.org/2000/svg">
<path d="M55.8563 70.1891H19.0324C18.4995 70.1891 18.0662 69.7557 18.0662 69.2228V33.254C18.0662 32.7211 18.4995 32.2877 19.0324 32.2877H55.8563C56.3892 32.2877 56.8225 32.7211 56.8225 33.254V69.2228C56.8225 69.7557 56.3892 70.1891 55.8563 70.1891ZM19.9987 68.2624H54.8958V34.2203H19.9987V68.2624Z" fill="#00AEEF"/>
<path d="M73.5069 53.212H60.3831C59.8502 53.212 59.4168 52.7786 59.4168 52.2457V31.1634C59.4168 30.6246 58.9776 30.1854 58.4388 30.1854H16.5143C15.9755 30.1854 15.5363 30.6246 15.5363 31.1634V52.2457C15.5363 52.7786 15.1029 53.212 14.57 53.212H1.44625C0.91334 53.212 0.47998 52.7786 0.47998 52.2457V20.0131C0.47998 17.9225 2.17828 16.2242 4.26895 16.2242H70.6256C72.6987 16.2242 74.4204 17.9166 74.4673 19.9956C74.4673 20.0014 74.4673 20.0073 74.4673 20.0131V52.2457C74.4731 52.7786 74.0398 53.212 73.5069 53.212ZM61.3494 51.2853H72.5464V20.0249C72.5172 18.9883 71.6622 18.1509 70.6315 18.1509H4.2748C3.24997 18.1509 2.41253 18.9883 2.41253 20.0131V51.2794H13.6096V31.1634C13.6096 29.5588 14.9155 28.2528 16.5201 28.2528H58.4447C60.0493 28.2528 61.3552 29.5588 61.3552 31.1634V51.2853H61.3494Z" fill="#00AEEF"/>
<path d="M59.1591 18.1508H15.747C15.2141 18.1508 14.7808 17.7175 14.7808 17.1846V1.92331C14.7808 1.39039 15.2141 0.957031 15.747 0.957031H59.1591C59.692 0.957031 60.1254 1.39039 60.1254 1.92331V17.1904C60.1254 17.7233 59.692 18.1508 59.1591 18.1508ZM16.7133 16.2242H58.1928V2.88372H16.7133V16.2242Z" fill="#00AEEF"/>
<path d="M10.1719 22.0628H5.27024C4.74904 22.0628 4.33325 21.6411 4.33325 21.1258C4.33325 20.6104 4.7549 20.1888 5.27024 20.1888H10.1719C10.6931 20.1888 11.1089 20.6104 11.1089 21.1258C11.1089 21.6411 10.6931 22.0628 10.1719 22.0628Z" fill="#00AEEF"/>
<path d="M18.9971 22.0628H14.0954C13.5742 22.0628 13.1584 21.6411 13.1584 21.1258C13.1584 20.6104 13.5801 20.1888 14.0954 20.1888H18.9971C19.5183 20.1888 19.9341 20.6104 19.9341 21.1258C19.9341 21.6411 19.5183 22.0628 18.9971 22.0628Z" fill="#00AEEF"/>
</svg>
