<svg width="86" height="54" viewBox="0 0 86 54" fill="none" xmlns="http://www.w3.org/2000/svg">
<path d="M27.2486 9.38055C17.4824 9.39897 9.5822 17.3298 9.60062 27.0961C9.61903 36.8623 17.556 44.7625 27.3223 44.7441C37.0762 44.7256 44.9703 36.8132 44.9703 27.0654C44.9457 17.293 37.021 9.38055 27.2486 9.38055ZM27.2486 43.8663C17.9673 43.8479 10.46 36.3099 10.4784 27.0285C10.4968 17.7472 18.0348 10.2399 27.3161 10.2583C36.5852 10.2768 44.0863 17.7963 44.0863 27.0654C44.0741 36.3528 36.5361 43.8663 27.2486 43.8663Z" fill="#00AEEF"/>
<path d="M27.2854 45.2904C22.4299 45.2904 17.8629 43.4059 14.4192 39.9745C10.9694 36.537 9.06654 31.9639 9.05426 27.0961C9.04198 22.2283 10.9326 17.6429 14.3701 14.1931C17.8077 10.7433 22.3808 8.8404 27.2486 8.82812C32.1225 8.82812 36.7018 10.7249 40.1516 14.1624C43.6014 17.6061 45.5043 22.1792 45.5165 27.0531C45.5165 31.9148 43.6259 36.4879 40.1884 39.9316C36.7509 43.3752 32.1839 45.272 27.3222 45.2843C27.31 45.2904 27.2977 45.2904 27.2854 45.2904ZM27.2854 10.8047C18.3356 10.8047 11.0492 18.0726 11.0308 27.0286C11.0124 35.9907 18.2926 43.3016 27.2547 43.32C36.2168 43.32 43.5277 36.0275 43.5461 27.0593C43.5461 18.1156 36.2659 10.8231 27.3222 10.8047C27.31 10.8047 27.2977 10.8047 27.2854 10.8047Z" fill="#00AEEF"/>
<path d="M85.1402 39.3301H52.4838L53.202 27.0655C53.2081 24.9968 52.9564 22.9405 52.4653 20.9332L54.4296 11.0933C54.6138 10.1725 54.0798 9.26404 53.1835 8.98167C50.808 8.57039 48.4631 7.98724 46.1735 7.23222C44.4056 6.63065 42.6745 5.92473 40.9865 5.12673C39.8447 4.4024 38.6416 3.77628 37.3955 3.25451C34.179 1.8795 30.7169 1.16744 27.2241 1.17972C12.9093 1.17358 1.30151 12.7814 1.30151 27.0962C1.30151 41.411 12.9093 53.0249 27.2302 53.0249H46.8303C49.5741 53.0311 51.8392 50.8765 51.9804 48.1387L52.0602 46.8865H85.1464V39.3301H85.1402ZM52.9564 9.82263C53.4045 9.98223 53.6685 10.4488 53.5703 10.9153L51.9743 19.0794C50.501 14.5063 47.7694 10.4365 44.0864 7.33657C44.7002 7.56369 45.3018 7.80923 45.9279 8.01793C48.2237 8.79751 50.5747 9.39908 52.9564 9.82263ZM46.8241 52.1103H27.2487C13.4126 52.1103 2.19772 40.8954 2.19772 27.0655C2.19772 13.2295 13.4126 2.01455 27.2425 2.01455H27.2487C30.6064 2.00227 33.9334 2.6775 37.0272 3.99726C38.1751 4.66021 39.3782 5.29247 40.5998 5.86948C46.0998 9.29473 50.0468 14.7395 51.5875 21.0375C52.0786 23.008 52.3303 25.0337 52.3242 27.0655L51.0965 48.0958C50.9553 50.3486 49.0892 52.1103 46.8241 52.1103ZM52.4347 40.2079H53.8035V43.0929H54.6813V40.2079H57.0139V41.4356H57.8917V40.2079H60.2243V43.0929H61.1021V40.2079H63.4224V41.4356H64.3002V40.2079H66.6328V43.0929H67.5106V40.2079H69.831V41.4356H70.7088V40.2079H73.0229V43.0929H73.9007V40.2079H76.2211V41.4356H77.0989V40.2079H79.4315V43.0929H80.3093V40.2079L84.6123 40.2201V45.9903L52.1216 45.9719L52.4347 40.2079Z" fill="#00AEEF"/>
<path d="M46.8302 53.5712H46.8241H27.2241C23.6515 53.5712 20.1833 52.8714 16.9177 51.4903C13.7625 50.1582 10.9327 48.2492 8.50186 45.8184C6.07104 43.3876 4.16199 40.5577 2.82995 37.4026C1.4488 34.1369 0.749023 30.6687 0.749023 27.0962C0.749023 23.5236 1.4488 20.0554 2.82995 16.7897C4.16199 13.6346 6.07104 10.8048 8.50186 8.37393C10.9327 5.94312 13.7625 4.03406 16.9177 2.70202C20.1833 1.32088 23.6515 0.621094 27.2241 0.621094C27.2425 0.621094 27.267 0.621094 27.2855 0.621094C30.858 0.621094 34.3324 1.33315 37.6164 2.74499C38.8748 3.2729 40.1025 3.91129 41.2565 4.64177C42.9078 5.42135 44.6265 6.11499 46.3576 6.70428C48.6104 7.44703 50.943 8.03018 53.2817 8.43532L53.3186 8.44146L53.3554 8.45373C54.5156 8.82204 55.2092 10.0006 54.9698 11.1915L53.0301 20.9147C53.515 22.9282 53.7544 24.9907 53.7544 27.0593V27.09L53.0669 38.7776H85.6865V47.4266H52.5697L52.5206 48.1632C52.3671 51.2018 49.8688 53.5712 46.8302 53.5712ZM27.2425 2.56084C20.6989 2.56084 14.5482 5.10829 9.91984 9.73666C5.29146 14.3712 2.74401 20.5219 2.74401 27.0655C2.74401 33.609 5.29146 39.7597 9.91984 44.3881C14.5482 49.0165 20.6989 51.5639 27.2425 51.5639C27.2425 51.5639 27.2425 51.5639 27.2486 51.5639H46.8241C48.7884 51.5578 50.4274 50.0171 50.5563 48.0528L51.7839 27.0409C51.7901 25.0582 51.5446 23.0816 51.0658 21.1603C49.5496 14.9727 45.7437 9.71211 40.348 6.34211C39.1388 5.77124 37.9418 5.14512 36.7878 4.47603C33.7799 3.19924 30.5941 2.5547 27.3284 2.5547C27.3039 2.5547 27.2793 2.5547 27.2548 2.5547H27.2425V2.56084ZM52.6802 45.4255L84.0414 45.4439V40.7664L80.8372 40.7542V43.6331H78.8667V40.748H77.6329V41.9757H75.6625V40.748H74.4348V43.6331H72.4643V40.748H71.2489V41.9757H69.2785V40.748H68.0508V43.6331H66.0804V40.748H64.8465V41.9757H62.8761V40.748H61.6484V43.6331H59.6657V40.748H58.4319V41.9757H56.4614V40.748H55.2276V43.6331H53.2572V40.748H52.9564L52.6802 45.4255ZM46.4128 8.76065C48.727 11.1546 50.5563 13.9599 51.8146 17.0414L53.0362 10.8048C53.073 10.6206 52.9809 10.4303 52.8091 10.3505C50.6483 9.96379 48.4999 9.42974 46.4128 8.76065Z" fill="#00AEEF"/>
<path d="M27.2425 22.2341C24.5785 22.2341 22.4177 24.3948 22.4177 27.0589C22.4177 29.723 24.5785 31.8837 27.2425 31.8837C29.9066 31.8837 32.0673 29.723 32.0673 27.0589C32.0673 24.3948 29.9066 22.2341 27.2425 22.2341ZM27.2425 30.9998C25.0572 30.9998 23.2894 29.2319 23.2894 27.0466C23.2894 24.8613 25.0572 23.0935 27.2425 23.0935C29.4278 23.0935 31.1957 24.8613 31.1957 27.0466C31.1957 27.0527 31.1957 27.0589 31.1957 27.065C31.1834 29.2442 29.4217 31.0059 27.2425 31.0059V30.9998Z" fill="#00AEEF"/>
<path d="M27.2425 32.4362C24.2776 32.4362 21.8652 30.0238 21.8652 27.0589C21.8652 24.094 24.2776 21.6816 27.2425 21.6816C30.2074 21.6816 32.6198 24.094 32.6198 27.0589C32.6198 30.0238 30.2074 32.4362 27.2425 32.4362ZM27.2425 23.6398C25.3641 23.6398 23.8418 25.1683 23.8418 27.0405C23.8418 28.9189 25.3703 30.4412 27.2425 30.4412H27.4758C29.2375 30.3123 30.6371 28.8391 30.6432 27.0528V27.0466C30.6432 25.1683 29.1209 23.6398 27.2425 23.6398Z" fill="#00AEEF"/>
</svg>
