<svg width="109" height="109" viewBox="0 0 109 109" fill="none" xmlns="http://www.w3.org/2000/svg">
<path d="M11.5892 13.5531H47.5766V49.2664H11.5892V13.5531Z" fill="#EEEEEE"/>
<path d="M0.846069 49.2664H59.4958V108.027H0.846069V49.2664Z" fill="#EEEEEE"/>
<path d="M59.4958 58.9193H108.008V109H59.4958V58.9193Z" fill="#EEEEEE"/>
<path d="M59.4958 24.226H95.9008V58.9193H59.4958V24.226Z" fill="#EEEEEE"/>
<path d="M65.5493 0.79071H88.4061V24.226H65.5493V0.79071Z" fill="#EEEEEE"/>
<path fill-rule="evenodd" clip-rule="evenodd" d="M64.5926 0V23.106H58.537V48.7235H48.9491V14.9829L58.7461 5.2311L57.3188 3.81037L47.5218 13.5622H41.3796V15.5714H46.9306V48.7235H13.625V15.5714H35.3241V13.5622H13.0338L3.2368 3.81037L1.80949 5.2311L11.6065 14.9829V48.7235H0V109H66.1065V106.991H60.5556V60.2765H77.713V70.3226H89.3194V60.2765H106.981V106.991H78.2176V109H109V58.2673H95.8796V39.682H93.8611V58.2673H60.5556V25.1152H71.1528V34.659H82.7593V25.1152H93.8611V34.1567H95.8796V23.106H89.3194V0H64.5926ZM66.6111 23.106V2.00922H71.1528V12.3338H83.2639V2.00922H87.3009V23.106H66.6111ZM73.1713 10.3246V2.00922H81.2454V10.3246H73.1713ZM58.537 50.7327V106.991H2.01852V50.7327H24.2222V60.2765H36.3333V50.7327H58.537ZM26.2407 58.2673V50.7327H34.3148V58.2673H26.2407ZM79.7315 68.3134V60.2765H87.3009V68.3134H79.7315ZM73.1713 32.6498V25.1152H80.7407V32.6498H73.1713ZM17.662 20.0922V28.129H29.7731V20.0922H17.662ZM19.6806 26.1198V22.1014H27.7546V26.1198H19.6806ZM64.088 29.1336V32.1475H67.1157V29.1336H64.088ZM6.05556 54.7512V57.765H9.08333V54.7512H6.05556ZM12.6157 54.7512V57.765H15.6435V54.7512H12.6157ZM53.4907 66.8064V64.7972H42.3889V66.8064H53.4907ZM53.4907 73.3364V71.3272H42.3889V73.3364H53.4907ZM89.4856 87.671C88.5643 88.8909 87.6654 90.0811 85.9694 92.3092H89.0213V102.152H96.4494V92.3092H99.41C97.8173 90.1972 96.9124 89.0134 96.0162 87.8411C95.1214 86.6705 94.2355 85.5115 92.6825 83.4515C91.1842 85.422 90.3256 86.5588 89.4856 87.671ZM94.1222 88.433C94.6402 89.076 95.1651 89.7275 95.7193 90.4161C95.1625 90.4647 94.8209 90.4933 94.3329 90.5333V100.127H91.0693V90.5362C90.5813 90.4961 90.2311 90.4675 89.6484 90.419C90.6846 89.1297 91.6262 87.9576 92.6825 86.6454C93.1684 87.249 93.6423 87.8373 94.1222 88.433ZM71.1528 109H73.1713V106.991H71.1528V109Z" fill="#111838"/>
</svg>
