<svg width="98" height="90" viewBox="0 0 98 90" fill="none" xmlns="http://www.w3.org/2000/svg">
<path d="M0.83187 10.6577C0.83187 5.09388 5.29841 0.583512 10.8082 0.583512H72.2656C77.8343 0.583512 82.3249 5.18717 82.2408 10.8099L81.5602 56.3047H66.8332L70.5381 73.912L10.8811 74.3522C5.34296 74.3931 0.83187 69.8709 0.83187 64.2783V10.6577Z" fill="#EEEEEE"/>
<path fill-rule="evenodd" clip-rule="evenodd" d="M1.93289 3.08674C0.878266 4.44328 0.25 6.14943 0.25 8.00272V66.4486C0.25 70.8683 3.82324 74.4513 8.23105 74.4513H69.0309C68.9759 75.8835 69.1843 77.2213 69.7593 78.3272C70.4624 79.6792 71.6627 80.5837 73.3111 80.8926C72.4586 81.859 71.9412 83.1294 71.9412 84.521C71.9412 87.547 74.3876 90 77.4054 90C80.4232 90 82.8696 87.547 82.8696 84.521C82.8696 83.2034 82.4058 81.9944 81.6329 81.0493H87.5583C86.7855 81.9944 86.3216 83.2034 86.3216 84.521C86.3216 87.547 88.768 90 91.7858 90C94.8036 90 97.25 87.547 97.25 84.521C97.25 81.495 94.8036 79.0419 91.7858 79.0419C91.6947 79.0419 91.6041 79.0442 91.5141 79.0486H77.6771C77.5871 79.0442 77.4965 79.0419 77.4054 79.0419L77.3555 79.0422L77.3074 79.0428L73.9252 78.9652C72.6949 78.8045 71.96 78.2318 71.5285 77.4022C71.146 76.6665 70.9661 75.6536 71.0303 74.4006H92.2712C92.7402 74.4006 93.1458 74.0731 93.2459 73.6137L95.1738 64.7617L95.1751 64.7557L97.0049 56.5957C97.0714 56.2992 96.9999 55.9886 96.8106 55.7513C96.6212 55.514 96.3346 55.3759 96.0316 55.3759H82.2912V8.00273C82.2912 3.58294 78.718 0 74.3102 0H8.23104C6.72125 0 5.30938 0.420364 4.10548 1.15074C3.25782 1.64418 2.51872 2.30446 1.93289 3.08674ZM88.3169 84.521C88.3169 82.6728 89.7544 81.1613 91.5695 81.0493H91.6383C91.677 81.0493 91.7152 81.0471 91.7527 81.0428L91.7858 81.0426C93.7017 81.0426 95.2547 82.5999 95.2547 84.521C95.2547 86.442 93.7017 87.9993 91.7858 87.9993C89.87 87.9993 88.3169 86.442 88.3169 84.521ZM77.3068 81.044L77.5255 81.049L77.5483 81.0493H77.6218C79.4368 81.1613 80.8744 82.6728 80.8744 84.521C80.8744 86.442 79.3213 87.9993 77.4054 87.9993C75.4896 87.9993 73.9365 86.442 73.9365 84.521C73.9365 82.633 75.4366 81.0963 77.3068 81.044ZM67.512 64.7302L68.9315 72.4506H8.23105C4.92519 72.4506 2.24526 69.7634 2.24526 66.4486V12.2223C3.57852 13.7706 5.55042 14.7505 7.75057 14.7505C7.86705 14.7505 7.98289 14.7478 8.09803 14.7424L80.296 14.5505V55.3759H59.5047C58.9538 55.3759 58.5071 55.8238 58.5071 56.3763C58.5071 56.9287 58.9538 57.3766 59.5047 57.3766H66.0583L67.512 64.7302ZM80.296 12.5475C72.5259 12.5474 13.473 12.5462 12.9583 12.5476C14.2348 11.2339 15.0212 9.43912 15.0212 7.46014C15.0212 5.28722 14.0732 3.33633 12.5692 2.00068H74.3102C77.616 2.00068 80.296 4.68789 80.296 8.00273V12.5475ZM3.51868 4.30131C3.96215 3.73444 4.50514 3.2496 5.12128 2.87322C5.89532 2.42616 6.79316 2.17042 7.75057 2.17042C10.6641 2.17042 13.026 4.53871 13.026 7.46014C13.026 10.3816 10.6641 12.7499 7.75057 12.7499C4.83705 12.7499 2.47518 10.3816 2.47518 7.46014C2.47518 6.27604 2.86319 5.18281 3.51868 4.30131ZM49.3605 38.1286C49.3605 37.5761 49.8072 37.1282 50.3582 37.1282H70.3683C70.9193 37.1282 71.3659 37.5761 71.3659 38.1286C71.3659 38.681 70.9193 39.1289 70.3683 39.1289H50.3582C49.8072 39.1289 49.3605 38.681 49.3605 38.1286ZM49.3605 46.0759C49.3605 45.5234 49.8072 45.0755 50.3582 45.0755H70.3683C70.9193 45.0755 71.3659 45.5234 71.3659 46.0759C71.3659 46.6284 70.9193 47.0762 70.3683 47.0762H50.3582C49.8072 47.0762 49.3605 46.6284 49.3605 46.0759ZM32.5995 53.9075C32.604 54.4599 32.161 54.9114 31.61 54.9159L20.4978 55.0069C19.9469 55.0114 19.4966 54.5672 19.4921 54.0148C19.4876 53.4623 19.9306 53.0108 20.4816 53.0063L31.5937 52.9153C32.1447 52.9108 32.595 53.355 32.5995 53.9075ZM11.5086 62.9019C11.5086 62.3494 11.9552 61.9015 12.5062 61.9015H52.3063C52.8573 61.9015 53.304 62.3494 53.304 62.9019C53.304 63.4543 52.8573 63.9022 52.3063 63.9022H12.5062C11.9552 63.9022 11.5086 63.4543 11.5086 62.9019ZM24.7735 33.3218L13.4227 44.5604V21.5101H38.911V44.277L27.5602 33.305C26.7806 32.5515 25.544 32.5589 24.7735 33.3218ZM37.643 45.8302H14.98L26.1754 34.7454L37.643 45.8302ZM11.4274 21.3101C11.4274 20.3156 12.2314 19.5095 13.2232 19.5095H39.1105C40.1023 19.5095 40.9063 20.3156 40.9063 21.3101V46.0302C40.9063 47.0247 40.1023 47.8309 39.1105 47.8309H13.2232C12.2314 47.8309 11.4274 47.0247 11.4274 46.0302V21.3101ZM32.7837 28.9362C32.7837 29.4887 32.337 29.9365 31.786 29.9365C31.2351 29.9365 30.7884 29.4887 30.7884 28.9362C30.7884 28.3837 31.2351 27.9358 31.786 27.9358C32.337 27.9358 32.7837 28.3837 32.7837 28.9362ZM53.2089 22.0516H66.2331C68.3609 22.0516 70.0858 23.7812 70.0858 25.9148C70.0858 28.0484 68.3609 29.778 66.2331 29.778H53.2089C51.081 29.778 49.3561 28.0484 49.3561 25.9148C49.3561 23.7812 51.081 22.0516 53.2089 22.0516ZM47.3609 25.9148C47.3609 22.6763 49.9791 20.0509 53.2089 20.0509H66.2331C69.4629 20.0509 72.0811 22.6763 72.0811 25.9148C72.0811 29.1534 69.4628 31.7787 66.2331 31.7787H53.2089C49.9791 31.7787 47.3609 29.1534 47.3609 25.9148ZM68.0924 57.3766L69.3112 63.5419H76.1292L75.5579 57.3766H68.0924ZM77.5617 57.3766L78.133 63.5419H84.6024L85.1576 57.3766H77.5617ZM87.1609 57.3766L86.6057 63.5419H93.4022L94.7847 57.3766H87.1609ZM92.9614 65.5426H86.4256L85.808 72.3999H91.468L92.9614 65.5426ZM83.8047 72.3999L84.4222 65.5426H78.3184L78.9538 72.3999H83.8047ZM76.95 72.3999L76.3146 65.5426H69.6903L70.9511 72.3999H76.95ZM38.4626 54.977C39.0135 54.977 39.4602 54.5292 39.4602 53.9767C39.4602 53.4242 39.0135 52.9764 38.4626 52.9764C37.9116 52.9764 37.4649 53.4242 37.4649 53.9767C37.4649 54.5292 37.9116 54.977 38.4626 54.977Z" fill="#111838"/>
</svg>
