<svg width="99" height="88" viewBox="0 0 99 88" fill="none" xmlns="http://www.w3.org/2000/svg">
<path d="M75.2217 38.5666C75.2217 52.7639 63.7057 64.2731 49.4999 64.2731C45.8918 64.2731 25.0126 64.2731 25.0126 64.2731L30.8191 57.3341C30.8191 57.3341 23.778 47.184 23.778 38.5666C23.778 24.3694 35.2941 12.8602 49.4999 12.8602C63.7057 12.8602 75.2217 24.3694 75.2217 38.5666Z" fill="#EEEEEE"/>
<path fill-rule="evenodd" clip-rule="evenodd" d="M13.0907 38.6535C13.0907 18.4511 29.6053 2.02712 49.8259 2.02712C70.0434 2.02712 86.433 18.4068 86.433 38.6123C86.433 58.8177 70.0434 75.1974 49.8259 75.1974H49.7217C49.6549 75.1836 49.5856 75.1763 49.5147 75.1763C49.4438 75.1763 49.3746 75.1836 49.3078 75.1974H33.721C32.5948 75.1411 30.923 75.3663 29.4959 76.2717C27.9908 77.2266 26.8403 78.8925 26.8577 81.4823C26.8751 84.0627 28.0257 85.7476 29.5051 86.7426C30.9241 87.697 32.5848 87.9819 33.7038 87.9621H42.7864C44.0444 88.0857 45.9167 87.9392 47.5222 87.041C49.2304 86.0853 50.545 84.3213 50.5288 81.4726V78.5665L50.5289 78.5515V77.2183C67.111 76.9226 81.1436 66.1863 86.3245 51.3076H94.0482C95.6907 51.3076 96.8058 50.0857 97.4439 48.958C98.0985 47.8011 98.4589 46.4037 98.4601 45.3803C98.4902 42.2184 98.5325 34.7985 98.4598 31.5351C98.4134 29.453 97.2298 28.2266 95.9124 27.5904C94.6741 26.9924 93.2918 26.8878 92.4816 26.9317H86.8119C86.7621 26.9317 86.7132 26.9353 86.6653 26.9422C81.7155 11.3214 67.0936 0 49.8259 0C32.5745 0 17.8769 11.3282 12.8828 26.9406C12.8336 26.9341 12.7833 26.931 12.7322 26.9318C11.7355 26.9468 8.91021 26.9679 5.62595 26.9317C3.67537 26.9103 2.34498 27.6761 1.53446 28.7396C0.766442 29.7474 0.528055 30.9366 0.536574 31.7537C0.508929 34.5565 0.470274 41.179 0.536765 45.315C0.573681 47.6114 1.34701 49.165 2.44037 50.1257C3.49426 51.0518 4.74641 51.3384 5.63386 51.3076H13.7425C14.0637 51.3076 14.3659 51.1555 14.5572 50.8976C14.7485 50.6398 14.8063 50.3066 14.7129 49.9994L14.0151 47.7041C13.9706 47.5036 13.9106 47.3248 13.8683 47.1983L13.8662 47.192C13.8047 47.0085 13.7807 46.9328 13.7703 46.8744C13.1838 43.5732 13.0907 43.0401 13.0907 38.6535ZM94.0482 49.2805H86.9678C87.9404 45.8922 88.4613 42.313 88.4613 38.6123C88.4613 35.2789 88.0387 32.0442 87.244 28.9588H92.5105C92.5308 28.9588 92.551 28.9582 92.5713 28.957C93.1529 28.922 94.1818 29.006 95.0299 29.4156C95.8154 29.795 96.406 30.4165 96.432 31.5803C96.5039 34.8071 96.462 42.1992 96.4318 45.3656L96.4317 45.3752C96.4317 46.0166 96.1787 47.0758 95.6783 47.9601C95.1603 48.8755 94.5766 49.2805 94.0482 49.2805ZM5.6036 28.9587C8.49079 28.9905 11.0269 28.9783 12.2964 28.9646C11.4911 32.0615 11.0623 35.3082 11.0623 38.6535C11.0623 43.1593 11.166 43.811 11.7732 47.2287C11.8071 47.4191 11.8662 47.6065 11.912 47.7439C11.9183 47.7747 11.9261 47.8054 11.9354 47.8361L12.3745 49.2805H5.61477C5.60087 49.2805 5.58696 49.2808 5.57307 49.2813C5.13476 49.2994 4.40047 49.1489 3.77971 48.6034C3.18942 48.0847 2.59427 47.1133 2.56483 45.2824C2.49871 41.1694 2.53728 34.5577 2.56492 31.7627L2.56487 31.7389C2.55851 31.2721 2.70703 30.5466 3.14806 29.9679C3.5506 29.4397 4.26096 28.944 5.6036 28.9587ZM48.5005 77.2245H33.6667L33.639 77.223C32.812 77.1777 31.574 77.3544 30.5829 77.9831C29.6576 78.5702 28.8734 79.59 28.886 81.4686C28.8987 83.3566 29.6951 84.427 30.6375 85.0608C31.6358 85.7322 32.8654 85.9509 33.6747 85.9351L33.6846 85.9349H42.8917L42.945 85.9406C43.925 86.0446 45.3744 85.9195 46.5314 85.2722C47.6088 84.6694 48.5132 83.5792 48.5005 81.4816L48.5004 81.4754L48.5005 77.2245ZM34.1047 17.2463C39.8087 13.3375 46.6622 12.2479 51.8236 12.2479C56.9517 12.2479 62.947 14.1327 67.7303 18.4314C72.5362 22.7502 76.0613 29.4541 76.3048 38.9684C76.5504 48.5643 72.5161 55.2084 67.3695 59.4842C62.262 63.7275 56.0655 65.6381 51.8783 65.8643C51.8601 65.8653 51.8418 65.8658 51.8236 65.8658H24.4394C24.0391 65.8658 23.6762 65.6305 23.5132 65.2651C23.3501 64.8998 23.4173 64.4727 23.6848 64.1751L29.9175 57.2378C24.1519 50.6755 23.1716 42.4286 23.4267 38.9362C23.8838 27.9242 28.3495 21.19 34.1047 17.2463ZM35.2517 18.9181C30.061 22.475 25.8817 28.6025 25.4527 39.036C25.4522 39.0472 25.4516 39.0584 25.4507 39.0697C25.2114 42.2806 26.1845 50.3879 32.0211 56.5346C32.385 56.9179 32.3933 57.5163 32.04 57.9094L26.713 63.8387H51.7957C55.5722 63.6278 61.3302 61.8656 66.0728 57.9254C70.7876 54.0084 74.5054 47.9387 74.2771 39.0203C74.0468 30.0203 70.735 23.8577 66.3741 19.9387C61.9907 15.9995 56.4892 14.275 51.8236 14.275C46.8939 14.275 40.4964 15.3242 35.2517 18.9181ZM38.6154 40.3074C39.1755 40.3074 39.6296 39.8536 39.6296 39.2938C39.6296 38.7341 39.1755 38.2803 38.6154 38.2803C38.0553 38.2803 37.6012 38.7341 37.6012 39.2938C37.6012 39.8536 38.0553 40.3074 38.6154 40.3074ZM50.6222 39.2938C50.6222 39.8536 50.1682 40.3074 49.6081 40.3074C49.048 40.3074 48.5939 39.8536 48.5939 39.2938C48.5939 38.7341 49.048 38.2803 49.6081 38.2803C50.1682 38.2803 50.6222 38.7341 50.6222 39.2938ZM60.7141 40.3074C61.2742 40.3074 61.7283 39.8536 61.7283 39.2938C61.7283 38.7341 61.2742 38.2803 60.7141 38.2803C60.154 38.2803 59.7 38.7341 59.7 39.2938C59.7 39.8536 60.154 40.3074 60.7141 40.3074Z" fill="#111838"/>
</svg>
