<svg width="84" height="83" viewBox="0 0 84 83" fill="none" xmlns="http://www.w3.org/2000/svg">
<path d="M11.43 26.4043L14.7168 25.4237H58.2963L60.1224 27.7525L43.0429 31.6142L32.2291 42.716L29.3207 55.8325L35.2893 72.3694L17.1231 73.8868C12.6818 74.2577 8.87377 70.7282 8.87377 66.2407L12.404 61.9506L8.87377 55.6994L12.404 49.9384L8.87377 43.442L12.404 37.681L8.87377 31.6142L11.43 26.4043Z" fill="#EEEEEE"/>
<path d="M2.58064 2.15934L5.86737 1.17875H49.4469L53.9932 3.72731L54.3026 10.3933L51.6985 12.5507L55.1253 14.0655H70.0024L74.0142 16.9269V21.1179L70.8571 24.484L55.1253 24.902L23.2836 24.484L21.2081 21.1179L21.6232 16.3747L23.2836 14.0655L3.55456 13.4361L0.633025 7.55253L2.58064 2.15934Z" fill="#EEEEEE"/>
<path d="M39.5671 44.6937C40.05 44.9703 40.2189 45.5887 39.9442 46.075C38.412 48.7877 36.9847 53.4141 37.7251 58.3789C38.4572 63.288 41.3221 68.6329 48.5582 72.8589C49.0388 73.1395 49.2024 73.7594 48.9236 74.2433C48.6449 74.7272 48.0293 74.892 47.5487 74.6113C39.812 70.0929 36.5631 64.229 35.7355 58.6797C34.9162 53.1859 36.4835 48.1042 38.1953 45.0734C38.47 44.5871 39.0842 44.4171 39.5671 44.6937Z" fill="#111838"/>
<path d="M64.3114 38.2608C63.8044 38.0319 63.5777 37.4326 63.805 36.9221C64.0322 36.4116 64.6274 36.1833 65.1344 36.4122C68.2941 37.8385 72.5408 41.0053 75.1041 45.9247C77.6933 50.8939 78.5138 57.5575 74.9243 65.8063C74.7013 66.3187 74.108 66.5521 73.5991 66.3276C73.0903 66.103 72.8585 65.5057 73.0815 64.9933C76.4387 57.2783 75.613 51.2618 73.3225 46.866C71.0061 42.4203 67.1395 39.5374 64.3114 38.2608Z" fill="#111838"/>
<path d="M60.0081 35.4311C60.0081 35.9905 59.5577 36.444 59.0021 36.444C58.4466 36.444 57.9962 35.9905 57.9962 35.4311C57.9962 34.8717 58.4466 34.4182 59.0021 34.4182C59.5577 34.4182 60.0081 34.8717 60.0081 35.4311Z" fill="#111838"/>
<path d="M53.209 76.9487C53.7646 76.9487 54.215 76.4952 54.215 75.9358C54.215 75.3764 53.7646 74.9229 53.209 74.9229C52.6534 74.9229 52.203 75.3764 52.203 75.9358C52.203 76.4952 52.6534 76.9487 53.209 76.9487Z" fill="#111838"/>
<path fill-rule="evenodd" clip-rule="evenodd" d="M53.8523 58.2163C54.4711 58.2414 55.3034 58.2713 56.1821 58.2913C57.0744 58.3116 58.0226 58.322 58.8465 58.3065C59.6385 58.2916 60.4094 58.2523 60.8913 58.1476C61.7929 57.9518 63.0797 57.4011 64.1432 56.362C65.2338 55.2964 66.0784 53.7228 66.0169 51.5764C65.9561 49.452 65.0915 47.9681 63.989 47.0082C62.9186 46.0761 61.6606 45.667 60.7835 45.575C60.0113 45.494 57.9803 45.4965 56.2274 45.5145C55.3323 45.5237 54.4816 45.5375 53.855 45.549C53.5416 45.5548 53.284 45.56 53.1046 45.5637L52.8236 45.5698L52.332 45.581C52.0587 45.5872 51.8404 45.8121 51.8404 46.0873V56.1445H48.9297C48.6519 56.1445 48.4267 56.3713 48.4267 56.651V57.6639C48.4267 57.9436 48.6519 58.1704 48.9297 58.1704H51.8404V60.9914H48.9297C48.6519 60.9914 48.4267 61.2181 48.4267 61.4978V62.5108C48.4267 62.7905 48.6519 63.0172 48.9297 63.0172H51.8404V65.5075C51.8404 65.7872 52.0656 66.014 52.3434 66.014H53.3493C53.6271 66.014 53.8523 65.7872 53.8523 65.5075V63.0172H61.314C61.5918 63.0172 61.817 62.7905 61.817 62.5108V61.4978C61.817 61.2181 61.5918 60.9914 61.314 60.9914H53.8523V58.2163ZM53.8523 47.5753V56.1888L53.9018 56.1908C54.516 56.2159 55.3493 56.2459 56.2276 56.2659C57.1076 56.286 58.0246 56.2958 58.8089 56.281C59.625 56.2656 60.2051 56.2242 60.4671 56.1673C61.0534 56.04 61.9852 55.6477 62.7421 54.9081C63.4718 54.1952 64.0494 53.1544 64.0058 51.6348C63.9617 50.0932 63.3603 49.139 62.6731 48.5406C61.9538 47.9143 61.0981 47.6448 60.575 47.5899C59.9469 47.5241 58.0615 47.5216 56.248 47.5403C55.3599 47.5494 54.5149 47.5631 53.8917 47.5746L53.8523 47.5753Z" fill="#111838"/>
<path fill-rule="evenodd" clip-rule="evenodd" d="M48.393 0H7.38382C3.30585 0 0 3.32875 0 7.43497C0 11.5412 3.30585 14.8699 7.38382 14.8699H21.4572C20.3208 16.0623 19.6224 17.6811 19.6224 19.4642C19.6224 21.2499 20.3229 22.8709 21.4623 24.0637H15.1703C11.2366 24.0637 8.04771 27.2795 8.04771 31.2464C8.04771 33.8278 9.398 36.0911 11.4251 37.3572C9.40377 38.5583 8.04771 40.7738 8.04771 43.3082C8.04771 45.8329 9.39332 48.041 11.4018 49.2452C9.38889 50.4982 8.04771 52.7406 8.04771 55.2985C8.04771 57.851 9.38333 60.0895 11.3893 61.3439C9.38852 62.5412 8.04771 64.7395 8.04771 67.2532C8.04771 71.047 11.102 74.1224 14.8697 74.1224H36.3056C41.3304 79.5825 48.5134 83 56.4891 83C71.6829 83 84 70.5976 84 55.2985C84 41.8579 74.4938 30.6531 61.8822 28.129C61.8654 27.9725 61.8261 27.8437 61.799 27.7635C61.7412 27.5923 61.6604 27.4245 61.5795 27.2747C61.4163 26.9725 61.194 26.6378 60.9644 26.3173C60.9128 26.2453 60.8599 26.1728 60.8063 26.1002H68.8089C72.4487 26.1002 75.3993 23.1291 75.3993 19.4642C75.3993 15.7992 72.4487 12.8282 68.8089 12.8282H53.4757C54.893 11.4734 55.7768 9.55811 55.7768 7.43497C55.7768 3.32875 52.471 0 48.393 0ZM48.393 2.02587H7.38382C4.417 2.02587 2.01193 4.44761 2.01193 7.43497C2.01193 10.4223 4.41701 12.8441 7.38382 12.8441H25.7526C25.9047 12.8335 26.0581 12.8282 26.2128 12.8282H48.8083C51.5811 12.6147 53.7649 10.2816 53.7649 7.43497C53.7649 4.44761 51.3598 2.02587 48.393 2.02587ZM58.2318 26.1002H26.2128C26.0588 26.1002 25.8114 26.1021 25.6601 26.0917L25.8762 26.0917L15.1703 26.0926C12.3478 26.0926 10.0596 28.4001 10.0596 31.2464C10.0596 34.0928 12.3478 36.4003 15.1703 36.4003H36.3742C41.3957 30.9835 48.5496 27.597 56.4891 27.597C57.5114 27.597 58.5207 27.6531 59.5141 27.7625C59.4582 27.6799 59.3975 27.593 59.3326 27.5024C58.9857 27.0182 58.5657 26.4956 58.2318 26.1002ZM34.6658 38.4292H14.9051C12.229 38.4292 10.0596 40.6136 10.0596 43.3082C10.0596 46.0028 12.229 48.1872 14.9051 48.1872L14.8943 48.1905C14.9659 48.1883 15.0379 48.1872 15.11 48.1872H29.8931C30.8376 44.5965 32.4802 41.2917 34.6658 38.4292ZM29.4408 50.2131H15.11C12.3208 50.2131 10.0596 52.4899 10.0596 55.2985C10.0596 58.107 12.3208 60.3838 15.11 60.3838H29.4407C29.137 58.7353 28.9782 57.0356 28.9782 55.2985C28.9782 53.5614 29.137 51.8616 29.4408 50.2131ZM29.8931 62.4097L14.8697 62.4097C12.2132 62.4097 10.0596 64.5782 10.0596 67.2532C10.0596 69.9281 12.2132 72.0966 14.8697 72.0966H34.6116C32.453 69.2505 30.8297 65.9707 29.8931 62.4097ZM21.6344 19.4642C21.6344 17.048 23.4803 15.066 25.8295 14.8699H48.393C48.5567 14.8699 48.7191 14.8646 48.8802 14.854H68.8089C71.3375 14.854 73.3873 16.9181 73.3873 19.4642C73.3873 22.0103 71.3375 24.0743 68.8089 24.0743H26.2128C23.6842 24.0743 21.6344 22.0103 21.6344 19.4642ZM81.9881 55.2985C81.9881 69.4788 70.5718 80.9741 56.4891 80.9741C42.4064 80.9741 30.9901 69.4788 30.9901 55.2985C30.9901 41.1182 42.4064 29.6229 56.4891 29.6229C70.5718 29.6229 81.9881 41.1182 81.9881 55.2985Z" fill="#111838"/>
</svg>
