<svg width="126" height="99" viewBox="0 0 126 99" fill="none" xmlns="http://www.w3.org/2000/svg">
<path d="M6.68252 75.5185C6.68252 76.5899 6.48294 77.3548 6.25403 77.9995C6.11457 78.3922 5.73525 78.6429 5.32001 78.6634C4.29062 78.714 2.82136 78.8795 2.04808 79.2897C1.10993 79.7874 1.60488 83.3863 2.00475 85.309C2.03279 85.4438 2.08839 85.5694 2.16917 85.6808C3.77184 87.8905 7.19721 91.9463 9.01943 91.7354C11.3563 91.4648 13.592 87.5868 14.1457 87.1359C14.5428 86.8125 14.8581 84.8223 15.0021 83.569C15.0318 83.3112 15.1491 83.0629 15.3782 82.9421C16.5901 82.3029 18.7959 82.7185 20.0166 83.0896C20.178 83.1387 20.3205 83.2315 20.4356 83.3551C21.7381 84.7531 24.3479 87.5187 25.6414 88.7592C27.3342 90.3826 31.2901 88.7592 32.1328 88.7592C32.7286 88.7592 33.7085 86.1756 34.2723 84.4339C34.3968 84.0493 34.7303 83.7681 35.1318 83.7294C36.8247 83.5662 39.4519 83.4203 40.137 83.799C40.8288 84.1814 41.4887 85.7648 41.8216 86.7714C41.899 87.0054 42.0484 87.2111 42.2653 87.3274C43.5316 88.0062 45.4762 88.4824 46.6068 88.6949C46.8424 88.7392 47.0588 88.8588 47.2095 89.0458C49.4964 91.885 48.257 92.8193 49.0406 95.6134C49.6426 97.7598 51.8458 98.0978 53.0922 97.9898C53.267 97.9746 53.4298 97.9007 53.5673 97.7914L59.3192 93.2178C59.6819 92.9294 60.1925 92.9259 60.5687 93.1963C62.2438 94.4006 64.9223 96.0568 65.8585 95.6134C66.8551 95.1413 70.5673 91.901 72.6436 90.0314C72.8996 89.8009 73.256 89.7116 73.5821 89.8216C75.474 90.4598 76.6016 91.5507 77.1167 92.2939C77.2973 92.5546 77.5529 92.7725 77.8655 92.822C81.5585 93.4067 83.1594 90.8973 83.9244 90.2924C84.5334 89.8108 84.6113 86.1208 84.5716 84.0847C84.5679 83.897 84.6132 83.7125 84.7129 83.5537C85.4371 82.4006 86.8644 80.7626 87.8027 81.9051C89.0618 83.4383 94.8176 88.7592 97.1559 88.1279C98.7989 87.6844 99.8221 85.6315 100.25 84.3033C100.351 83.9901 100.574 83.7248 100.884 83.6176C102.718 82.9841 105.629 82.4537 105.629 84.4303C105.629 86.4166 106.073 90.1749 106.349 92.2207C106.392 92.5403 106.587 92.8217 106.877 92.9598C110.713 94.7829 112.695 92.5703 113.34 91.8492L113.362 91.8256C113.872 91.2565 113.586 85.5556 113.371 82.6584C113.365 82.576 113.349 82.4968 113.322 82.4186C112.884 81.1351 111.775 78.4945 110.513 77.3056C108.885 75.7725 107.768 75.5921 106.419 74.6902C105.401 74.0092 102.615 73.8933 101.132 73.9215C100.967 73.9247 100.802 73.8908 100.656 73.8134C97.6319 72.2076 97.7612 69.53 97.7612 67.6705C97.7612 65.766 102.102 63.7255 102.238 61.821C102.338 60.4214 101.529 58.3789 101.011 57.3176C100.928 57.1475 100.885 56.9587 100.913 56.7715C101.279 54.2704 103.859 54.0509 105.363 54.2898C105.538 54.3178 105.698 54.4016 105.83 54.5215C107.751 56.2666 111.408 59.6824 112.141 60.7328C113.09 62.0931 112.141 64.703 113.362 65.4939C114.583 66.2849 119.602 68.0786 121.908 67.6705C124.214 67.2624 124.35 65.4939 124.485 63.7255C124.592 62.336 122.178 60.308 120.892 59.4198C120.845 59.3877 120.802 59.3527 120.761 59.3136L114.503 53.3045C114.466 53.2688 114.432 53.2312 114.401 53.1899C113.707 52.2637 112.353 50.0401 112.141 48.0571C111.869 45.5222 116.075 43.0598 116.889 40.1917C117.703 37.3236 116.075 34.6143 114.447 33.254C112.819 31.8936 113.633 28.6288 113.362 27.1325C113.09 25.6361 112.276 25.092 110.513 25.092C108.749 25.092 106.308 28.9009 104.137 30.6693C101.967 32.4378 99.6604 31.2135 97.7612 32.0297C95.8621 32.8459 91.1141 38.9674 89.4863 40.1917C87.8584 41.416 86.3662 40.3277 83.9244 41.416C82.0588 42.2475 78.3123 46.6821 76.4431 49.0841C76.2805 49.293 76.0476 49.4302 75.7857 49.4653C72.8998 49.8518 67.5628 50.3112 66.4249 49.4091C64.9326 48.2261 65.8822 46.8573 64.5257 44.1367C63.4404 41.9601 61.0137 42.5119 59.936 43.0598C63.2429 36.4812 66.1149 26.503 62.2195 17.6101C60.1244 12.0781 52.4161 1.01399 38.3442 1.01399C24.9368 1.01399 17.6548 12.0781 15.6897 17.6101C10.9147 28.0575 17.0765 42.2612 20.7542 48.0571C20.5015 48.2261 19.8105 48.7331 19.069 49.4091C18.1421 50.2541 15.53 50.4231 13.592 50.5921C12.0416 50.7273 10.8114 51.437 10.3901 51.775C9.15422 53.0143 6.21066 56.0843 4.32323 58.4502C1.96395 61.4076 2.30087 63.351 2.04808 64.703C1.7953 66.0549 3.90184 68.2518 6.00832 70.2798C8.11479 72.3077 6.68252 74.7169 6.68252 75.5185Z" fill="#EEEEEE"/>
<path fill-rule="evenodd" clip-rule="evenodd" d="M38.3442 2.02799C25.5589 2.02799 18.5424 12.6012 16.6423 17.9503L16.6274 17.9922L16.609 18.0326C14.359 22.9553 14.6551 28.851 16.0327 34.33C17.4045 39.786 19.8124 44.681 21.6002 47.5015L26.4798 54.7569C26.792 55.2212 26.6698 55.8514 26.2068 56.1645C25.7438 56.4776 25.1154 56.3551 24.8031 55.8908L20.5098 49.5072C20.2783 49.6942 20.0176 49.9148 19.7492 50.1594C19.3691 50.506 18.8819 50.7304 18.4183 50.8874C17.9418 51.0487 17.4096 51.1651 16.876 51.2543C15.9536 51.4085 14.934 51.4953 14.0618 51.5695C13.9308 51.5806 13.8031 51.5915 13.6796 51.6023C12.4106 51.7129 11.3963 52.2853 11.0603 52.537C9.80666 53.797 6.94234 56.7904 5.11286 59.0837C4.02326 60.4495 3.58618 61.5392 3.37964 62.4126C3.27409 62.8589 3.22405 63.2683 3.18484 63.6702C3.17779 63.7425 3.17091 63.8174 3.16387 63.8941C3.13424 64.2165 3.10175 64.5701 3.04196 64.8899C3.03353 64.935 3.02953 65.0996 3.18379 65.4382C3.3324 65.7645 3.5851 66.1584 3.93981 66.613C4.64927 67.522 5.65523 68.5342 6.70862 69.5483C8.03947 70.8295 8.25882 72.2766 8.14159 73.4593C8.08519 74.0282 7.95186 74.5379 7.84852 74.9154C7.83609 74.9608 7.82442 75.0031 7.81345 75.0429C7.77583 75.1794 7.74647 75.2859 7.72326 75.3829C7.69821 75.4877 7.69374 75.5275 7.69374 75.5275C7.69374 75.5275 7.69372 75.5243 7.69372 75.5185C7.69372 76.7324 7.4643 77.614 7.20664 78.3396C6.91288 79.1669 6.14108 79.6382 5.36954 79.6761C4.88084 79.7002 4.29715 79.7512 3.75416 79.8419C3.2712 79.9226 2.88844 80.024 2.63853 80.1304C2.62233 80.1778 2.60262 80.2495 2.5842 80.3511C2.52492 80.6782 2.50795 81.1468 2.53474 81.7173C2.58758 82.8426 2.79929 84.1605 2.99264 85.0922C3.77344 86.168 4.99117 87.6828 6.22018 88.8921C6.83822 89.5001 7.4305 90.0024 7.94927 90.334C8.50862 90.6916 8.81041 90.7388 8.90348 90.7281C9.24099 90.689 9.65078 90.5067 10.1243 90.1529C10.5903 89.8047 11.0525 89.3397 11.4887 88.8373C11.9228 88.3375 12.308 87.8281 12.6322 87.3966L12.6697 87.3467C12.8141 87.1544 12.9521 86.9707 13.0708 86.8209C13.1602 86.7082 13.282 86.5577 13.4142 86.432C13.4285 86.4007 13.4483 86.3526 13.4722 86.284C13.5395 86.0907 13.6103 85.8198 13.6796 85.4914C13.817 84.8396 13.9275 84.063 13.9976 83.4529C14.0493 83.0036 14.276 82.3777 14.9075 82.0446C15.7762 81.5864 16.8716 81.5519 17.7768 81.6264C18.7201 81.704 19.6487 81.9182 20.31 82.1192C20.6545 82.224 20.9474 82.4189 21.1746 82.6629C22.4814 84.0657 25.0712 86.8093 26.3403 88.0264C26.5535 88.2309 26.8833 88.3776 27.3738 88.4375C27.8656 88.4977 28.4422 88.4606 29.0511 88.366C29.6555 88.272 30.2428 88.1299 30.7603 88.0027C31.0114 87.941 31.2594 87.8794 31.4698 87.8343C31.5656 87.8137 31.6767 87.7912 31.792 87.7739C31.7964 87.7677 31.8009 87.7612 31.8056 87.7544C31.9399 87.5583 32.1071 87.2443 32.2934 86.8315C32.6611 86.0171 33.0338 84.9759 33.3106 84.1208C33.553 83.3719 34.2124 82.7994 35.035 82.72C35.8971 82.6369 37.0085 82.557 38.0023 82.547C38.4976 82.5421 38.984 82.5542 39.4047 82.5964C39.7805 82.6341 40.2573 82.7076 40.6252 82.911C40.9777 83.1059 41.2506 83.4047 41.4518 83.6716C41.6626 83.9511 41.8501 84.2706 42.0125 84.5861C42.3374 85.2175 42.6047 85.9179 42.7814 86.4522L42.7822 86.4544C43.907 87.0454 45.6929 87.4915 46.7931 87.6982C47.2389 87.782 47.6784 88.0143 47.9961 88.4087C49.2577 89.9749 49.6056 91.1096 49.6968 92.2666C49.7241 92.6128 49.731 92.9154 49.7376 93.2051C49.7526 93.8634 49.7661 94.455 50.014 95.3388C50.2188 96.0688 50.6733 96.4763 51.2264 96.7164C51.7949 96.9631 52.4545 97.0199 52.9559 96.9835L58.691 92.4233C59.4206 91.8432 60.4286 91.8479 61.1579 92.3722C61.9748 92.9595 63.0172 93.6425 63.9499 94.1193C64.4194 94.3593 64.8246 94.5281 65.1384 94.6138C65.3391 94.6686 65.4403 94.6722 65.4723 94.673C65.631 94.5863 65.9521 94.3683 66.4328 93.9996C66.9364 93.6132 67.5458 93.1163 68.1967 92.5693C69.497 91.4765 70.9349 90.2072 71.968 89.277C72.4683 88.8265 73.1999 88.6229 73.9045 88.8606C76.0119 89.5714 77.314 90.8018 77.9471 91.7153C77.9874 91.7735 78.0228 91.807 78.0434 91.8223L78.0457 91.8239C80.5381 92.2103 81.7369 91.0127 82.6549 90.0957C82.8439 89.9069 83.0209 89.73 83.1949 89.5813C83.2239 89.5056 83.2603 89.3813 83.298 89.1993C83.3772 88.8174 83.4388 88.2981 83.4828 87.6972C83.5703 86.5026 83.5801 85.105 83.5606 84.1045C83.5535 83.7413 83.6411 83.3577 83.8573 83.0133C84.2446 82.3967 84.8646 81.5711 85.5837 81.0479C85.9421 80.7871 86.425 80.5275 86.9862 80.5053C87.6141 80.4806 88.171 80.7586 88.5832 81.2605C89.1506 81.9513 90.8425 83.612 92.6874 85.0216C93.6063 85.7237 94.5246 86.3334 95.3281 86.726C96.1934 87.1489 96.6929 87.2028 96.8931 87.1488C97.3893 87.0148 97.8812 86.6069 98.3312 85.9645C98.772 85.3352 99.0953 84.5889 99.2877 83.9916C99.4667 83.4361 99.8878 82.8893 100.555 82.6589C101.512 82.3283 102.838 81.9897 103.982 82.0319C104.55 82.0528 105.203 82.1714 105.738 82.5583C106.332 82.9884 106.64 83.6485 106.64 84.4303C106.64 86.3299 107.07 90.0006 107.348 92.0614C109.016 92.844 110.168 92.7167 110.936 92.4147C111.69 92.1176 112.193 91.6074 112.512 91.2561C112.516 91.2403 112.52 91.2214 112.524 91.1993C112.553 91.0423 112.58 90.8085 112.599 90.4966C112.638 89.8779 112.644 89.0535 112.627 88.134C112.593 86.3031 112.469 84.1769 112.363 82.7393C112.156 82.1353 111.788 81.2025 111.325 80.285C110.848 79.3414 110.319 78.5143 109.821 78.0447C109.087 77.3534 108.478 76.974 107.884 76.6552C107.732 76.5735 107.569 76.4901 107.397 76.4025C106.925 76.1624 106.392 75.8904 105.858 75.5339C105.747 75.4596 105.514 75.3589 105.129 75.2631C104.76 75.1714 104.318 75.1003 103.84 75.0479C102.885 74.9432 101.862 74.9218 101.151 74.9353C100.838 74.9413 100.5 74.8776 100.183 74.7096C98.4257 73.7764 97.532 72.487 97.11 71.1412C96.7416 69.9661 96.7462 68.7693 96.7495 67.8997C96.7498 67.8205 96.7501 67.744 96.7501 67.6705C96.7501 66.8226 97.2209 66.1023 97.6671 65.5691C98.1317 65.0139 98.7364 64.4716 99.2755 63.9892L99.302 63.9654C99.8579 63.468 100.35 63.0278 100.72 62.6034C101.115 62.1503 101.22 61.8791 101.229 61.7488C101.265 61.2406 101.134 60.5258 100.891 59.7442C100.655 58.9847 100.344 58.2572 100.103 57.7632C99.9538 57.4575 99.8484 57.061 99.9124 56.6241C100.157 54.9567 101.184 54.0042 102.349 53.5563C103.45 53.1333 104.666 53.1525 105.521 53.2883C105.915 53.351 106.251 53.5353 106.509 53.77C107.475 54.6471 108.877 55.9447 110.132 57.1574C110.76 57.7633 111.355 58.353 111.844 58.8609C112.316 59.3524 112.735 59.8153 112.969 60.1513C113.336 60.6775 113.488 61.2751 113.562 61.7966C113.625 62.2412 113.64 62.7109 113.654 63.1069C113.656 63.1697 113.658 63.2307 113.66 63.2895C113.677 63.7592 113.702 64.0972 113.768 64.3532C113.83 64.5907 113.895 64.6323 113.91 64.6422C114.394 64.9552 115.838 65.5687 117.511 66.0584C118.329 66.2979 119.165 66.4966 119.922 66.6111C120.696 66.7282 121.315 66.7457 121.732 66.6719C122.586 66.5208 122.909 66.1699 123.098 65.7722C123.34 65.2613 123.405 64.5822 123.477 63.6477C123.481 63.5967 123.462 63.4234 123.275 63.1009C123.098 62.7951 122.824 62.4477 122.478 62.0835C121.788 61.3564 120.922 60.6717 120.318 60.2548C120.229 60.1933 120.144 60.1243 120.062 60.046L113.803 54.037C113.731 53.9675 113.66 53.8889 113.592 53.7991C113.209 53.2882 112.664 52.447 112.183 51.4679C111.706 50.4978 111.259 49.3244 111.135 48.1653C111.035 47.2284 111.358 46.3755 111.781 45.65C112.203 44.927 112.786 44.2282 113.345 43.5841C113.459 43.4527 113.571 43.3235 113.683 43.1958C114.14 42.673 114.574 42.1763 114.957 41.6654C115.43 41.0328 115.762 40.4573 115.916 39.9141C116.58 37.5757 115.254 35.2485 113.8 34.0329C112.615 33.0428 112.419 31.4609 112.385 30.2736C112.37 29.7779 112.385 29.2736 112.397 28.8305C112.4 28.7176 112.403 28.6087 112.406 28.5049C112.419 27.9541 112.413 27.5706 112.367 27.3138C112.259 26.7186 112.079 26.4964 111.915 26.3803C111.712 26.2372 111.322 26.1059 110.513 26.1059C110.41 26.1059 110.149 26.1759 109.685 26.5255C109.247 26.8557 108.757 27.3344 108.214 27.9128C107.944 28.1998 107.659 28.5152 107.364 28.8413C106.534 29.7592 105.627 30.7622 104.775 31.4563C103.427 32.5542 102.031 32.7022 100.863 32.7205C100.608 32.7245 100.387 32.723 100.181 32.7217C99.8782 32.7197 99.6075 32.718 99.3073 32.734C98.8499 32.7585 98.4816 32.8233 98.1596 32.9617C97.8757 33.0837 97.3441 33.4911 96.5951 34.2098C95.8835 34.8926 95.0803 35.7513 94.2683 36.6419C93.9552 36.9853 93.6383 37.3362 93.3264 37.6817C92.8416 38.2185 92.3686 38.7424 91.9394 39.2052C91.2479 39.9508 90.585 40.6329 90.093 41.0029C88.9983 41.8262 87.9209 41.8515 87.03 41.8687L86.9659 41.8699C86.1087 41.8861 85.3259 41.901 84.3351 42.3426C84.0177 42.4841 83.5298 42.829 82.9012 43.3866C82.292 43.927 81.615 44.6085 80.9255 45.3518C79.5474 46.8373 78.1627 48.5227 77.2403 49.7079C76.92 50.1194 76.452 50.3991 75.9196 50.4704C74.4555 50.6665 72.3621 50.8824 70.4775 50.9341C69.5377 50.9598 68.6221 50.9457 67.8513 50.8608C67.466 50.8183 67.0945 50.7558 66.7632 50.6629C66.4456 50.5739 66.0911 50.4371 65.7978 50.2046C65.2961 49.8068 64.9685 49.3633 64.7579 48.8633C64.5598 48.3931 64.4829 47.9088 64.4235 47.4934C64.4144 47.43 64.4055 47.3664 64.3966 47.3025C64.2876 46.5215 64.1723 45.6953 63.6213 44.5901C63.2631 43.8718 62.735 43.6313 62.1528 43.5877C61.636 43.5491 61.0899 43.6758 60.6753 43.8384C59.6832 45.7716 58.6573 47.4114 57.7541 48.6436C56.5736 50.3775 54.6945 53.084 52.877 55.5926C51.0769 58.0772 49.2746 60.4562 48.2838 61.4498C46.6062 63.132 42.7463 66.7805 40.5176 68.8724C39.7565 69.5868 38.5822 69.6011 37.8025 68.9136L30.6224 62.5825C30.203 62.2127 30.162 61.572 30.5308 61.1514C30.8995 60.7309 31.5385 60.6897 31.9579 61.0595L39.1374 67.3902C41.3735 65.2912 45.2051 61.669 46.8538 60.0158C47.7079 59.1593 49.41 56.9276 51.2409 54.4006C53.0493 51.9046 54.9223 49.2066 56.0938 47.4855L56.104 47.4706L56.1147 47.456C56.997 46.2541 58.0329 44.5931 59.0331 42.6034C62.2934 36.1175 65.0059 26.4924 61.2938 18.0179L61.2834 17.9942L61.2743 17.9701C59.2566 12.6427 51.8253 2.02799 38.3442 2.02799ZM61.7639 41.5568C61.9413 41.5495 62.1217 41.5518 62.3033 41.5654C63.4752 41.6531 64.703 42.225 65.4301 43.6832C66.1325 45.0919 66.2862 46.2023 66.3982 47.0112C66.4074 47.0781 66.4164 47.1429 66.4254 47.2056C66.4847 47.6204 66.5349 47.8701 66.6209 48.0743C66.6943 48.2487 66.8076 48.4199 67.052 48.6137C67.052 48.6137 67.0509 48.6128 67.053 48.614C67.0647 48.6208 67.1349 48.6614 67.3077 48.7098C67.4974 48.763 67.7521 48.8096 68.0722 48.8449C68.7124 48.9155 69.5248 48.9314 70.4222 48.9068C72.2093 48.8578 74.2238 48.6513 75.6452 48.4611L75.6459 48.4603C76.5928 47.2436 78.0159 45.5106 79.4448 43.9705C80.1587 43.2008 80.8849 42.4677 81.5613 41.8677C82.2183 41.2848 82.8983 40.7637 83.5137 40.4894C84.8829 39.8792 86.0158 39.8587 86.8837 39.843C86.92 39.8424 86.9558 39.8417 86.9911 39.841C87.8638 39.8242 88.3465 39.7814 88.8796 39.3805C89.2016 39.1383 89.7425 38.5961 90.4585 37.8241C90.8815 37.368 91.3354 36.8652 91.8107 36.3388C92.124 35.9917 92.4467 35.6344 92.7758 35.2734C93.5917 34.3785 94.4333 33.4773 95.1969 32.7445C95.9232 32.0476 96.6973 31.3838 97.3629 31.0977C97.9905 30.828 98.6227 30.7397 99.1997 30.7089C99.5432 30.6906 99.9358 30.6922 100.293 30.6937C100.488 30.6945 100.672 30.6952 100.832 30.6927C101.834 30.677 102.676 30.5529 103.499 29.8824C104.223 29.293 104.964 28.474 105.755 27.5993C106.075 27.2456 106.403 26.8827 106.742 26.5222C107.3 25.9272 107.887 25.3432 108.471 24.9039C109.028 24.4842 109.734 24.078 110.513 24.078C111.468 24.078 112.366 24.2188 113.079 24.7218C113.83 25.2519 114.193 26.05 114.357 26.9511C114.446 27.4425 114.44 28.0283 114.428 28.553C114.425 28.6755 114.421 28.7971 114.418 28.9181C114.406 29.3547 114.394 29.7832 114.406 30.2148C114.44 31.3742 114.651 32.1048 115.094 32.475C116.895 33.9801 118.825 37.0714 117.861 40.4692C117.608 41.3601 117.109 42.168 116.574 42.883C116.141 43.4616 115.643 44.0311 115.182 44.5579C115.076 44.6792 114.972 44.7982 114.871 44.9146C114.31 45.5615 113.842 46.1328 113.526 46.6741C113.212 47.2129 113.111 47.6184 113.146 47.9489C113.234 48.7729 113.57 49.7027 113.997 50.5717C114.417 51.427 114.893 52.1575 115.204 52.574L121.461 58.5811L121.462 58.5819L121.465 58.5848C122.148 59.0561 123.131 59.8295 123.943 60.6858C124.349 61.1133 124.738 61.5891 125.024 62.082C125.3 62.5584 125.543 63.1596 125.494 63.8033L125.487 63.8874C125.425 64.7096 125.345 65.7571 124.924 66.6441C124.434 67.6747 123.536 68.412 122.084 68.669C121.348 68.7993 120.475 68.7456 119.621 68.6164C118.75 68.4847 117.822 68.262 116.945 68.0052C115.226 67.5024 113.551 66.8236 112.813 66.3456C112.218 65.96 111.944 65.3789 111.811 64.8621C111.682 64.3637 111.656 63.8159 111.639 63.3643C111.636 63.2949 111.634 63.2273 111.632 63.1611C111.618 62.7573 111.606 62.4099 111.559 62.0821C111.506 61.7069 111.42 61.4682 111.312 61.3142C111.18 61.1251 110.867 60.7671 110.387 60.2682C109.924 59.7857 109.348 59.2154 108.729 58.618C107.499 57.4295 106.12 56.1531 105.165 55.2853C104.523 55.1888 103.716 55.2029 103.073 55.45C102.492 55.6732 102.052 56.0704 101.92 56.8736C102.197 57.4408 102.549 58.2645 102.821 59.1406C103.087 59.9955 103.31 61.0018 103.246 61.8933C103.188 62.7152 102.7 63.4133 102.243 63.9379C101.788 64.4596 101.212 64.9743 100.695 65.4368L100.622 65.5023C100.059 66.0062 99.5698 66.4501 99.2163 66.8727C98.8443 67.3172 98.7724 67.5661 98.7724 67.6705C98.7724 67.7366 98.7723 67.8027 98.7722 67.8687C98.7708 68.779 98.7694 69.6723 99.0393 70.5329C99.3075 71.3882 99.8574 72.2365 101.112 72.9077C101.884 72.893 102.996 72.9154 104.06 73.0319C104.591 73.0901 105.129 73.1739 105.615 73.2946C106.085 73.4112 106.582 73.5803 106.98 73.8465C107.408 74.1328 107.781 74.3225 108.211 74.5414C108.405 74.6402 108.611 74.7449 108.839 74.8671C109.547 75.2473 110.311 75.7246 111.205 76.5665C111.969 77.2858 112.626 78.3735 113.129 79.3682C113.643 80.3854 114.047 81.4108 114.279 82.0906C114.334 82.2524 114.367 82.4167 114.379 82.5832C114.487 84.0428 114.614 86.2124 114.649 88.0961C114.667 89.035 114.662 89.9237 114.618 90.6244C114.596 90.9723 114.563 91.2999 114.511 91.5748C114.485 91.712 114.451 91.8581 114.402 91.9974C114.359 92.12 114.276 92.322 114.114 92.5035L114.082 92.5393C113.742 92.9186 112.954 93.7991 111.674 94.3025C110.337 94.829 108.592 94.8968 106.444 93.8761C105.825 93.5817 105.433 92.9938 105.347 92.3569C105.072 90.3218 104.618 86.4961 104.618 84.4303C104.618 84.2393 104.571 84.2123 104.557 84.2041L104.554 84.2025C104.485 84.1527 104.296 84.0728 103.907 84.0585C103.143 84.0303 102.107 84.2696 101.234 84.5693C101.232 84.5719 101.23 84.5752 101.227 84.5794C101.222 84.5886 101.217 84.6005 101.212 84.615C100.977 85.3459 100.574 86.2902 99.986 87.1302C99.4067 87.9572 98.5656 88.7975 97.4188 89.1071C96.4498 89.3687 95.353 88.9942 94.4421 88.5491C93.4693 88.0737 92.4315 87.3757 91.4618 86.6348C89.5294 85.1584 87.7139 83.392 87.0221 82.5497L87.019 82.5459C86.9723 82.5635 86.8903 82.6027 86.7714 82.6893C86.367 82.9835 85.9182 83.5418 85.5827 84.0716C85.6027 85.1069 85.5933 86.5688 85.4997 87.8458C85.4531 88.4821 85.3836 89.1028 85.2781 89.6119C85.2256 89.8651 85.1583 90.1205 85.0673 90.3481C84.9879 90.5468 84.8389 90.8606 84.5505 91.0886C84.4857 91.1399 84.391 91.2399 84.2652 91.3728C83.4624 92.2205 81.392 94.4069 77.7078 93.8236C77.021 93.7148 76.5537 93.2584 76.2863 92.8726C75.8929 92.3049 74.9534 91.3655 73.3054 90.7983C72.2633 91.7365 70.8139 93.0158 69.4957 94.1236C68.8343 94.6794 68.1991 95.1979 67.6615 95.6103C67.1529 96.0005 66.2904 96.5302 66.2904 96.5302C66.2904 96.5302 65.0572 96.6935 64.6068 96.5704C64.1027 96.4327 63.5581 96.1953 63.0315 95.9261C61.9721 95.3846 60.8377 94.6374 59.9796 94.0204C59.97 94.0135 59.9605 94.0113 59.9533 94.0114C59.9499 94.0115 59.9478 94.0121 59.9478 94.0121L54.1956 98.5859C53.9304 98.7967 53.1792 99 53.1792 99C53.1792 99 51.3995 99.0013 50.4232 98.5776C49.4126 98.139 48.4645 97.3043 48.0672 95.8879C47.7451 94.7394 47.7225 93.7753 47.7055 93.0522C47.7 92.8176 47.6951 92.6084 47.6808 92.4265C47.6243 91.7102 47.4493 90.9605 46.4322 89.6945C46.4294 89.6936 46.4256 89.6925 46.4206 89.6916C45.2727 89.4759 43.1991 88.9778 41.7886 88.2216C41.2979 87.9586 41.0031 87.5176 40.8619 87.0906C40.7057 86.6184 40.4765 86.0237 40.2153 85.5161C40.0846 85.2622 39.9567 85.0512 39.8387 84.8948C39.7325 84.754 39.6669 84.701 39.6518 84.6894C39.6518 84.6894 39.6467 84.6882 39.6403 84.6865C39.6026 84.6763 39.4736 84.6415 39.2033 84.6144C38.8858 84.5825 38.4811 84.5703 38.0224 84.5749C37.1117 84.584 36.0677 84.658 35.2385 84.7378C35.2371 84.7398 35.2355 84.7428 35.2341 84.747C34.9471 85.6336 34.5479 86.7551 34.1358 87.6679C33.9322 88.1188 33.7075 88.5595 33.4728 88.9023C33.357 89.0714 33.212 89.2567 33.0362 89.41C32.8781 89.5478 32.5661 89.7732 32.1328 89.7732C32.1362 89.7732 32.1351 89.7734 32.1284 89.7743C32.1084 89.7769 32.0388 89.7861 31.8929 89.8174C31.7288 89.8526 31.5301 89.9014 31.2856 89.9616L31.2419 89.9723C30.7277 90.0987 30.0623 90.261 29.3607 90.37C28.6637 90.4783 27.8812 90.5426 27.1289 90.4506C26.3752 90.3584 25.5757 90.0992 24.9426 89.4921C23.6267 88.2301 21.003 85.4494 19.7029 84.0538C19.1449 83.8856 18.3699 83.71 17.6114 83.6476C16.9103 83.5899 16.3549 83.6408 15.9963 83.7742C15.9218 84.4051 15.8066 85.2071 15.6582 85.9109C15.5809 86.2771 15.4894 86.6428 15.3815 86.9527C15.3276 87.1075 15.2623 87.2697 15.182 87.4199C15.11 87.5548 14.9862 87.757 14.7855 87.9212C14.7904 87.9171 14.7933 87.9151 14.7933 87.9151C14.7933 87.9151 14.7533 87.9575 14.6539 88.0829C14.5523 88.2111 14.4299 88.374 14.2783 88.5758L14.2474 88.6169C13.9237 89.0478 13.5001 89.6093 13.0139 90.1692C12.5299 90.7265 11.9604 91.31 11.3327 91.779C10.7124 92.2425 9.96637 92.6465 9.13543 92.7427C8.31739 92.8374 7.50767 92.4567 6.86218 92.0441C6.17612 91.6056 5.47022 90.9953 4.80381 90.3396C3.4669 89.0242 2.17354 87.4107 1.35144 86.2772C1.18658 86.0499 1.07222 85.7916 1.0149 85.516C0.808916 84.5256 0.57451 83.088 0.514627 81.8127C0.484962 81.1809 0.495175 80.5362 0.594445 79.9885C0.644147 79.7142 0.72336 79.4223 0.857967 79.1551C0.992387 78.8883 1.21374 78.5852 1.57528 78.3934C2.11048 78.1095 2.8031 77.9448 3.42189 77.8415C4.06421 77.7342 4.72983 77.6772 5.27054 77.6506C5.28092 77.6501 5.2904 77.6481 5.29838 77.6454C5.30216 77.6441 5.30527 77.6428 5.30774 77.6416C5.50517 77.082 5.67136 76.4377 5.67136 75.5185C5.67136 75.2918 5.71869 75.0688 5.75668 74.91C5.78883 74.7755 5.83067 74.6239 5.86985 74.4819C5.87957 74.4468 5.88912 74.4122 5.89832 74.3785C5.9977 74.0155 6.09079 73.6458 6.12915 73.2587C6.20144 72.5295 6.08368 71.7579 5.30806 71.0112C4.25497 69.9974 3.15442 68.8972 2.34719 67.8628C1.94355 67.3456 1.58536 66.8101 1.34427 66.2808C1.10882 65.764 0.936294 65.147 1.05425 64.5161C1.09497 64.2984 1.11642 64.0674 1.14506 63.7589C1.15327 63.6704 1.16208 63.5755 1.1721 63.4728C1.21454 63.0377 1.27513 62.5229 1.41186 61.9447C1.68987 60.7691 2.26397 59.4084 3.53366 57.8168C5.45685 55.4061 8.43227 52.3043 9.67509 51.058L9.71469 51.0183L9.75842 50.9832C10.3107 50.5402 11.7256 49.737 13.5044 49.5819C13.6347 49.5706 13.7665 49.5593 13.8995 49.5479C14.7794 49.4728 15.7083 49.3935 16.5435 49.2539C17.021 49.1741 17.4367 49.0793 17.7713 48.966C18.1186 48.8483 18.3056 48.7347 18.3888 48.6588C18.7515 48.3282 19.1037 48.0349 19.4063 47.7959C17.5928 44.7517 15.3827 40.04 14.0717 34.8258C12.6462 29.156 12.2474 22.7436 14.7522 17.228C16.8041 11.4987 24.3489 0 38.3442 0C52.9864 0 60.9698 11.4812 63.1557 17.2259C66.8394 25.6619 64.6936 34.9318 61.7639 41.5568ZM112.494 91.324C112.492 91.3305 112.492 91.329 112.495 91.321L112.494 91.324ZM25.1486 20.4027L25.6307 19.3887H36.0543C36.6128 19.3887 37.0655 19.8427 37.0655 20.4027C37.0655 20.9627 36.6128 21.4167 36.0543 21.4167H24.7556L25.1486 20.4027ZM43.1443 20.4027C43.1443 19.8427 43.597 19.3887 44.1555 19.3887H52.1241L52.6063 20.4027L52.9993 21.4167H44.1555C43.597 21.4167 43.1443 20.9627 43.1443 20.4027ZM25.0503 32.0297L24.6768 31.0157H53.0781L52.7278 31.9729L52.2438 33.0437H25.5111L25.0503 32.0297Z" fill="#111838"/>
<path d="M55.8444 26.3332C55.8444 35.7299 48.2481 43.3475 38.8774 43.3475C29.5068 43.3475 21.9105 35.7299 21.9105 26.3332C21.9105 16.9365 29.5068 9.31892 38.8774 9.31892C48.2481 9.31892 55.8444 16.9365 55.8444 26.3332Z" fill="white"/>
<path fill-rule="evenodd" clip-rule="evenodd" d="M38.8774 41.3195C47.1311 41.3195 53.8221 34.6099 53.8221 26.3332C53.8221 18.0565 47.1311 11.3469 38.8774 11.3469C30.6237 11.3469 23.9328 18.0565 23.9328 26.3332C23.9328 34.6099 30.6237 41.3195 38.8774 41.3195ZM38.8774 43.3475C48.2481 43.3475 55.8444 35.7299 55.8444 26.3332C55.8444 16.9365 48.2481 9.31892 38.8774 9.31892C29.5068 9.31892 21.9105 16.9365 21.9105 26.3332C21.9105 35.7299 29.5068 43.3475 38.8774 43.3475Z" fill="#111838"/>
<path fill-rule="evenodd" clip-rule="evenodd" d="M38.3442 2.02799C25.5589 2.02799 18.5424 12.6012 16.6423 17.9503L16.6274 17.9922L16.609 18.0326C14.359 22.9553 14.6551 28.851 16.0327 34.33C17.4045 39.786 19.8124 44.681 21.6002 47.5015L26.4798 54.7569C26.792 55.2212 26.6698 55.8514 26.2068 56.1645C25.7438 56.4776 25.1154 56.3551 24.8031 55.8908L20.5098 49.5072C20.2783 49.6942 20.0176 49.9148 19.7492 50.1594C19.3691 50.506 18.8819 50.7304 18.4183 50.8874C17.9418 51.0487 17.4096 51.1651 16.876 51.2543C15.9536 51.4085 14.934 51.4953 14.0618 51.5695C13.9308 51.5806 13.8031 51.5915 13.6796 51.6023C12.4106 51.7129 11.3963 52.2853 11.0603 52.537C9.80666 53.797 6.94234 56.7904 5.11286 59.0837C4.02326 60.4495 3.58618 61.5392 3.37964 62.4126C3.27409 62.8589 3.22405 63.2683 3.18484 63.6702C3.17779 63.7425 3.17091 63.8174 3.16387 63.8941C3.13424 64.2165 3.10175 64.5701 3.04196 64.8899C3.03353 64.935 3.02953 65.0996 3.18379 65.4382C3.3324 65.7645 3.5851 66.1584 3.93981 66.613C4.64927 67.522 5.65523 68.5342 6.70862 69.5483C8.03947 70.8295 8.25882 72.2766 8.14159 73.4593C8.08519 74.0282 7.95186 74.5379 7.84852 74.9154C7.83609 74.9608 7.82442 75.0031 7.81345 75.0429C7.77583 75.1794 7.74647 75.2859 7.72326 75.3829C7.69821 75.4877 7.69374 75.5275 7.69374 75.5275C7.69374 75.5275 7.69372 75.5243 7.69372 75.5185C7.69372 76.7324 7.4643 77.614 7.20664 78.3396C6.91288 79.1669 6.14108 79.6382 5.36954 79.6761C4.88084 79.7002 4.29715 79.7512 3.75416 79.8419C3.2712 79.9226 2.88844 80.024 2.63853 80.1304C2.62233 80.1778 2.60262 80.2495 2.5842 80.3511C2.52492 80.6782 2.50795 81.1468 2.53474 81.7173C2.58758 82.8426 2.79929 84.1605 2.99264 85.0922C3.77344 86.168 4.99117 87.6828 6.22018 88.8921C6.83822 89.5001 7.4305 90.0024 7.94927 90.334C8.50862 90.6916 8.81041 90.7388 8.90348 90.7281C9.24099 90.689 9.65078 90.5067 10.1243 90.1529C10.5903 89.8047 11.0525 89.3397 11.4887 88.8373C11.9228 88.3375 12.308 87.8281 12.6322 87.3966L12.6697 87.3467C12.8141 87.1544 12.9521 86.9707 13.0708 86.8209C13.1602 86.7082 13.282 86.5577 13.4142 86.432C13.4285 86.4007 13.4483 86.3526 13.4722 86.284C13.5395 86.0907 13.6103 85.8198 13.6796 85.4914C13.817 84.8396 13.9275 84.063 13.9976 83.4529C14.0493 83.0036 14.276 82.3777 14.9075 82.0446C15.7762 81.5864 16.8716 81.5519 17.7768 81.6264C18.7201 81.704 19.6487 81.9182 20.31 82.1192C20.6545 82.224 20.9474 82.4189 21.1746 82.6629C22.4814 84.0657 25.0712 86.8093 26.3403 88.0264C26.5535 88.2309 26.8833 88.3776 27.3738 88.4375C27.8656 88.4977 28.4422 88.4606 29.0511 88.366C29.6555 88.272 30.2428 88.1299 30.7603 88.0027C31.0114 87.941 31.2594 87.8794 31.4698 87.8343C31.5656 87.8137 31.6767 87.7912 31.792 87.7739C31.7964 87.7677 31.8009 87.7612 31.8056 87.7544C31.9399 87.5583 32.1071 87.2443 32.2934 86.8315C32.6611 86.0171 33.0338 84.9759 33.3106 84.1208C33.553 83.3719 34.2124 82.7994 35.035 82.72C35.8971 82.6369 37.0085 82.557 38.0023 82.547C38.4976 82.5421 38.984 82.5542 39.4047 82.5964C39.7805 82.6341 40.2573 82.7076 40.6252 82.911C40.9777 83.1059 41.2506 83.4047 41.4518 83.6716C41.6626 83.9511 41.8501 84.2706 42.0125 84.5861C42.3374 85.2175 42.6047 85.9179 42.7814 86.4522L42.7822 86.4544C43.907 87.0454 45.6929 87.4915 46.7931 87.6982C47.2389 87.782 47.6784 88.0143 47.9961 88.4087C49.2577 89.9749 49.6056 91.1096 49.6968 92.2666C49.7241 92.6128 49.731 92.9154 49.7376 93.2051C49.7526 93.8634 49.7661 94.455 50.014 95.3388C50.2188 96.0688 50.6733 96.4763 51.2264 96.7164C51.7949 96.9631 52.4545 97.0199 52.9559 96.9835L58.691 92.4233C59.4206 91.8432 60.4286 91.8479 61.1579 92.3722C61.9748 92.9595 63.0172 93.6425 63.9499 94.1193C64.4194 94.3593 64.8246 94.5281 65.1384 94.6138C65.3391 94.6686 65.4403 94.6722 65.4723 94.673C65.631 94.5863 65.9521 94.3683 66.4328 93.9996C66.9364 93.6132 67.5458 93.1163 68.1967 92.5693C69.497 91.4765 70.9349 90.2072 71.968 89.277C72.4683 88.8265 73.1999 88.6229 73.9045 88.8606C76.0119 89.5714 77.314 90.8018 77.9471 91.7153C77.9874 91.7735 78.0228 91.807 78.0434 91.8223L78.0457 91.8239C80.5381 92.2103 81.7369 91.0127 82.6549 90.0957C82.8439 89.9069 83.0209 89.73 83.1949 89.5813C83.2239 89.5056 83.2603 89.3813 83.298 89.1993C83.3772 88.8174 83.4388 88.2981 83.4828 87.6972C83.5703 86.5026 83.5801 85.105 83.5606 84.1045C83.5535 83.7413 83.6411 83.3577 83.8573 83.0133C84.2446 82.3967 84.8646 81.5711 85.5837 81.0479C85.9421 80.7871 86.425 80.5275 86.9862 80.5053C87.6141 80.4806 88.171 80.7586 88.5832 81.2605C89.1506 81.9513 90.8425 83.612 92.6874 85.0216C93.6063 85.7237 94.5246 86.3334 95.3281 86.726C96.1934 87.1489 96.6929 87.2028 96.8931 87.1488C97.3893 87.0148 97.8812 86.6069 98.3312 85.9645C98.772 85.3352 99.0953 84.5889 99.2877 83.9916C99.4667 83.4361 99.8878 82.8893 100.555 82.6589C101.512 82.3283 102.838 81.9897 103.982 82.0319C104.55 82.0528 105.203 82.1714 105.738 82.5583C106.332 82.9884 106.64 83.6485 106.64 84.4303C106.64 86.3299 107.07 90.0006 107.348 92.0614C109.034 92.8525 110.194 92.7143 110.963 92.4038C111.703 92.1049 112.196 91.604 112.512 91.2561C112.516 91.2403 112.52 91.2214 112.524 91.1993C112.553 91.0423 112.58 90.8085 112.599 90.4966C112.638 89.8779 112.644 89.0535 112.627 88.134C112.593 86.3031 112.469 84.1769 112.363 82.7393C112.156 82.1353 111.788 81.2025 111.325 80.285C110.848 79.3414 110.319 78.5143 109.821 78.0447C109.087 77.3534 108.478 76.974 107.884 76.6552C107.732 76.5735 107.569 76.4901 107.397 76.4025C106.925 76.1624 106.392 75.8904 105.858 75.5339C105.747 75.4596 105.514 75.3589 105.129 75.2631C104.76 75.1714 104.318 75.1003 103.84 75.0479C102.885 74.9432 101.862 74.9218 101.151 74.9353C100.838 74.9413 100.5 74.8776 100.183 74.7096C98.4257 73.7764 97.532 72.487 97.11 71.1412C96.7416 69.9661 96.7462 68.7693 96.7495 67.8997C96.7498 67.8205 96.7501 67.744 96.7501 67.6705C96.7501 66.8226 97.2209 66.1023 97.6671 65.5691C98.1317 65.0139 98.7364 64.4716 99.2755 63.9892L99.302 63.9654C99.8579 63.468 100.35 63.0278 100.72 62.6034C101.115 62.1503 101.22 61.8791 101.229 61.7488C101.265 61.2406 101.134 60.5258 100.891 59.7442C100.655 58.9847 100.344 58.2572 100.103 57.7632C99.9538 57.4575 99.8484 57.061 99.9124 56.6241C100.157 54.9567 101.184 54.0042 102.349 53.5563C103.45 53.1333 104.666 53.1525 105.521 53.2883C105.915 53.351 106.251 53.5353 106.509 53.77C107.475 54.6471 108.877 55.9447 110.132 57.1574C110.76 57.7633 111.355 58.353 111.844 58.8609C112.316 59.3524 112.735 59.8153 112.969 60.1513C113.336 60.6775 113.488 61.2751 113.562 61.7966C113.625 62.2412 113.64 62.7109 113.654 63.1069C113.656 63.1697 113.658 63.2307 113.66 63.2895C113.677 63.7592 113.702 64.0972 113.768 64.3532C113.83 64.5907 113.895 64.6323 113.91 64.6422C114.394 64.9552 115.838 65.5687 117.511 66.0584C118.329 66.2979 119.165 66.4966 119.922 66.6111C120.696 66.7282 121.315 66.7457 121.732 66.6719C122.586 66.5208 122.909 66.1699 123.098 65.7722C123.34 65.2613 123.405 64.5822 123.477 63.6477C123.481 63.5951 123.461 63.4164 123.266 63.0847C123.081 62.7706 122.796 62.4152 122.441 62.0445C121.731 61.3043 120.846 60.614 120.255 60.2115C119.793 59.897 119.672 59.2665 119.986 58.8031C120.3 58.3397 120.928 58.2189 121.39 58.5334C122.065 58.9924 123.066 59.7712 123.898 60.6385C124.314 61.0716 124.714 61.5545 125.008 62.0546C125.292 62.5371 125.544 63.1486 125.494 63.8033L125.487 63.8874C125.425 64.7096 125.345 65.7571 124.924 66.6441C124.434 67.6747 123.536 68.412 122.084 68.669C121.348 68.7993 120.475 68.7456 119.621 68.6164C118.75 68.4847 117.822 68.262 116.945 68.0052C115.226 67.5024 113.551 66.8236 112.813 66.3456C112.218 65.96 111.944 65.3789 111.811 64.8621C111.682 64.3637 111.656 63.8159 111.639 63.3643C111.636 63.2949 111.634 63.2273 111.632 63.1611C111.618 62.7573 111.606 62.4099 111.559 62.0821C111.506 61.7069 111.42 61.4682 111.312 61.3142C111.18 61.1251 110.867 60.7671 110.387 60.2682C109.924 59.7857 109.348 59.2154 108.729 58.618C107.499 57.4295 106.12 56.1531 105.165 55.2853C104.523 55.1888 103.716 55.2029 103.073 55.45C102.492 55.6732 102.052 56.0704 101.92 56.8736C102.197 57.4408 102.549 58.2645 102.821 59.1406C103.087 59.9955 103.31 61.0018 103.246 61.8933C103.188 62.7152 102.7 63.4133 102.243 63.9379C101.788 64.4596 101.212 64.9743 100.695 65.4368L100.622 65.5023C100.059 66.0062 99.5698 66.4501 99.2163 66.8727C98.8443 67.3172 98.7724 67.5661 98.7724 67.6705C98.7724 67.7366 98.7723 67.8027 98.7722 67.8687C98.7708 68.779 98.7694 69.6723 99.0393 70.5329C99.3075 71.3882 99.8574 72.2365 101.112 72.9077C101.884 72.893 102.996 72.9154 104.06 73.0319C104.591 73.0901 105.129 73.1739 105.615 73.2946C106.085 73.4112 106.582 73.5803 106.98 73.8465C107.408 74.1328 107.781 74.3225 108.211 74.5414C108.405 74.6402 108.611 74.7449 108.839 74.8671C109.547 75.2473 110.311 75.7246 111.205 76.5665C111.969 77.2858 112.626 78.3735 113.129 79.3682C113.643 80.3854 114.047 81.4108 114.279 82.0906C114.334 82.2524 114.367 82.4167 114.379 82.5832C114.487 84.0428 114.614 86.2124 114.649 88.0961C114.667 89.035 114.662 89.9237 114.618 90.6244C114.596 90.9723 114.563 91.2999 114.511 91.5748C114.485 91.712 114.451 91.8581 114.402 91.9974C114.359 92.12 114.276 92.322 114.114 92.5035L114.083 92.5372C113.751 92.9093 112.973 93.7785 111.718 94.2852C110.376 94.8268 108.616 94.9086 106.444 93.8761C105.825 93.5817 105.433 92.9938 105.347 92.3569C105.072 90.3218 104.618 86.4961 104.618 84.4303C104.618 84.2393 104.571 84.2123 104.557 84.2041L104.554 84.2025C104.485 84.1527 104.296 84.0728 103.907 84.0585C103.143 84.0303 102.107 84.2696 101.234 84.5693C101.232 84.5719 101.23 84.5752 101.227 84.5794C101.222 84.5886 101.217 84.6005 101.212 84.615C100.977 85.3459 100.574 86.2902 99.986 87.1302C99.4067 87.9572 98.5656 88.7975 97.4188 89.1071C96.4498 89.3687 95.353 88.9942 94.4421 88.5491C93.4693 88.0737 92.4315 87.3757 91.4618 86.6348C89.5294 85.1584 87.7139 83.392 87.0221 82.5497L87.019 82.5459C86.9723 82.5635 86.8903 82.6027 86.7714 82.6893C86.367 82.9835 85.9182 83.5418 85.5827 84.0716C85.6027 85.1069 85.5933 86.5688 85.4997 87.8458C85.4531 88.4821 85.3836 89.1028 85.2781 89.6119C85.2256 89.8651 85.1583 90.1205 85.0673 90.3481C84.9879 90.5468 84.8389 90.8606 84.5505 91.0886C84.4857 91.1399 84.391 91.2399 84.2652 91.3728C83.4624 92.2205 81.392 94.4069 77.7078 93.8236C77.021 93.7148 76.5537 93.2584 76.2863 92.8726C75.8929 92.3049 74.9534 91.3655 73.3054 90.7983C72.2633 91.7365 70.8139 93.0158 69.4957 94.1236C68.8343 94.6794 68.1991 95.1979 67.6615 95.6103C67.1529 96.0005 66.2904 96.5302 66.2904 96.5302C66.2904 96.5302 65.0572 96.6935 64.6068 96.5704C64.1027 96.4327 63.5581 96.1953 63.0315 95.9261C61.9721 95.3846 60.8377 94.6374 59.9796 94.0204C59.97 94.0135 59.9605 94.0113 59.9533 94.0114C59.9499 94.0115 59.9478 94.0121 59.9478 94.0121L54.1956 98.5859C53.9304 98.7967 53.1792 99 53.1792 99C53.1792 99 51.3995 99.0013 50.4232 98.5776C49.4126 98.139 48.4645 97.3043 48.0672 95.8879C47.7451 94.7394 47.7225 93.7753 47.7055 93.0522C47.7 92.8176 47.6951 92.6084 47.6808 92.4265C47.6243 91.7102 47.4493 90.9605 46.4322 89.6945C46.4294 89.6936 46.4256 89.6925 46.4206 89.6916C45.2727 89.4759 43.1991 88.9778 41.7886 88.2216C41.2979 87.9586 41.0031 87.5176 40.8619 87.0906C40.7057 86.6184 40.4765 86.0237 40.2153 85.5161C40.0846 85.2622 39.9567 85.0512 39.8387 84.8948C39.7325 84.754 39.6669 84.701 39.6518 84.6894C39.6518 84.6894 39.6467 84.6882 39.6403 84.6865C39.6026 84.6763 39.4736 84.6415 39.2033 84.6144C38.8858 84.5825 38.4811 84.5703 38.0224 84.5749C37.1117 84.584 36.0677 84.658 35.2385 84.7378C35.2371 84.7398 35.2355 84.7428 35.2341 84.747C34.9471 85.6336 34.5479 86.7551 34.1358 87.6679C33.9322 88.1188 33.7075 88.5595 33.4728 88.9023C33.357 89.0714 33.212 89.2567 33.0362 89.41C32.8781 89.5478 32.5661 89.7732 32.1328 89.7732C32.1362 89.7732 32.1351 89.7734 32.1284 89.7743C32.1084 89.7769 32.0388 89.7861 31.8929 89.8174C31.7288 89.8526 31.5301 89.9014 31.2856 89.9616L31.2419 89.9723C30.7277 90.0987 30.0623 90.261 29.3607 90.37C28.6637 90.4783 27.8812 90.5426 27.1289 90.4506C26.3752 90.3584 25.5757 90.0992 24.9426 89.4921C23.6267 88.2301 21.003 85.4494 19.7029 84.0538C19.1449 83.8856 18.3699 83.71 17.6114 83.6476C16.9103 83.5899 16.3549 83.6408 15.9963 83.7742C15.9218 84.4051 15.8066 85.2071 15.6582 85.9109C15.5809 86.2771 15.4894 86.6428 15.3815 86.9527C15.3276 87.1075 15.2623 87.2697 15.182 87.4199C15.1097 87.5553 14.9852 87.7585 14.7832 87.923C14.7896 87.9178 14.7933 87.9151 14.7933 87.9151C14.7933 87.9151 14.7533 87.9575 14.6539 88.0829C14.5524 88.2109 14.4303 88.3735 14.279 88.5748L14.2474 88.6169C13.9237 89.0478 13.5001 89.6093 13.0139 90.1692C12.5299 90.7265 11.9604 91.31 11.3327 91.779C10.7124 92.2425 9.96637 92.6465 9.13543 92.7427C8.31739 92.8374 7.50767 92.4567 6.86218 92.0441C6.17612 91.6056 5.47022 90.9953 4.80381 90.3396C3.4669 89.0242 2.17354 87.4107 1.35144 86.2772C1.18658 86.0499 1.07222 85.7916 1.0149 85.516C0.808916 84.5256 0.57451 83.088 0.514627 81.8127C0.484962 81.1809 0.495175 80.5362 0.594445 79.9885C0.644147 79.7142 0.72336 79.4223 0.857967 79.1551C0.992387 78.8883 1.21374 78.5852 1.57528 78.3934C2.11048 78.1095 2.8031 77.9448 3.42189 77.8415C4.06421 77.7342 4.72983 77.6772 5.27054 77.6506C5.28092 77.6501 5.2904 77.6481 5.29838 77.6454C5.30216 77.6441 5.30527 77.6428 5.30774 77.6416C5.50517 77.082 5.67136 76.4377 5.67136 75.5185C5.67136 75.2918 5.71869 75.0688 5.75668 74.91C5.78883 74.7755 5.83067 74.6239 5.86985 74.4819C5.87957 74.4468 5.88912 74.4122 5.89832 74.3785C5.9977 74.0155 6.09079 73.6458 6.12915 73.2587C6.20144 72.5295 6.08368 71.7579 5.30806 71.0112C4.25497 69.9974 3.15442 68.8972 2.34719 67.8628C1.94355 67.3456 1.58536 66.8101 1.34427 66.2808C1.10882 65.764 0.936294 65.147 1.05425 64.5161C1.09497 64.2984 1.11642 64.0674 1.14506 63.7589C1.15327 63.6704 1.16208 63.5755 1.1721 63.4728C1.21454 63.0377 1.27513 62.5229 1.41186 61.9447C1.68987 60.7691 2.26397 59.4084 3.53366 57.8168C5.45685 55.4061 8.43227 52.3043 9.67509 51.058L9.71469 51.0183L9.75842 50.9832C10.3107 50.5402 11.7256 49.737 13.5044 49.5819C13.6347 49.5706 13.7665 49.5593 13.8995 49.5479C14.7794 49.4728 15.7083 49.3935 16.5435 49.2539C17.021 49.1741 17.4367 49.0793 17.7713 48.966C18.1186 48.8483 18.3056 48.7347 18.3888 48.6588C18.7515 48.3282 19.1037 48.0349 19.4063 47.7959C17.5928 44.7517 15.3827 40.04 14.0717 34.8258C12.6462 29.156 12.2474 22.7436 14.7522 17.228C16.8041 11.4987 24.3489 0 38.3442 0C52.9864 0 60.9698 11.4812 63.1557 17.2259C66.8394 25.6619 64.6936 34.9318 61.7639 41.5568C61.9413 41.5495 62.1217 41.5518 62.3033 41.5654C63.4752 41.6531 64.703 42.225 65.4301 43.6832C66.1325 45.0919 66.2862 46.2023 66.3982 47.0112C66.4074 47.0781 66.4164 47.1429 66.4254 47.2056C66.4847 47.6204 66.5349 47.8701 66.6209 48.0743C66.6943 48.2487 66.8076 48.4199 67.052 48.6137C67.052 48.6137 67.0509 48.6128 67.053 48.614C67.0647 48.6208 67.1349 48.6614 67.3077 48.7098C67.4974 48.763 67.7521 48.8096 68.0722 48.8449C68.7124 48.9155 69.5248 48.9314 70.4222 48.9068C72.2093 48.8578 74.2238 48.6513 75.6452 48.4611L75.6459 48.4603C76.5928 47.2436 78.0159 45.5106 79.4448 43.9705C80.1587 43.2008 80.8849 42.4677 81.5613 41.8677C82.2183 41.2848 82.8983 40.7637 83.5137 40.4894C84.8829 39.8792 86.0158 39.8587 86.8837 39.843C86.92 39.8424 86.9558 39.8417 86.9911 39.841C87.8638 39.8242 88.3465 39.7814 88.8796 39.3805C89.2016 39.1383 89.7425 38.5961 90.4585 37.8241C90.8815 37.368 91.3354 36.8652 91.8107 36.3388C92.124 35.9917 92.4467 35.6344 92.7758 35.2734C93.5917 34.3785 94.4333 33.4773 95.1969 32.7445C95.9232 32.0476 96.6973 31.3838 97.3629 31.0977C97.9905 30.828 98.6227 30.7397 99.1997 30.7089C99.5432 30.6906 99.9358 30.6922 100.293 30.6937C100.488 30.6945 100.672 30.6952 100.832 30.6927C101.834 30.677 102.676 30.5529 103.499 29.8824C104.223 29.293 104.964 28.474 105.755 27.5993C106.075 27.2456 106.403 26.8827 106.742 26.5222C107.3 25.9272 107.887 25.3432 108.471 24.9039C109.028 24.4842 109.734 24.078 110.513 24.078C111.468 24.078 112.366 24.2188 113.079 24.7218C113.83 25.2519 114.193 26.05 114.357 26.9511C114.446 27.4425 114.44 28.0283 114.428 28.553C114.425 28.6755 114.421 28.7971 114.418 28.9181C114.406 29.3547 114.394 29.7832 114.406 30.2148C114.44 31.3742 114.651 32.1048 115.094 32.475C116.895 33.9801 118.825 37.0714 117.861 40.4692C117.608 41.3601 117.109 42.168 116.574 42.883C116.141 43.4616 115.643 44.0311 115.182 44.5579C115.076 44.6792 114.972 44.7982 114.871 44.9146C114.31 45.5615 113.842 46.1328 113.526 46.6741C113.212 47.2129 113.111 47.6184 113.146 47.9489C113.236 48.7923 113.586 49.7454 114.026 50.6296C114.461 51.5047 114.949 52.2411 115.249 52.6336C115.589 53.0778 115.506 53.7144 115.063 54.0553C114.619 54.3963 113.985 54.3125 113.645 53.8682C113.267 53.3745 112.71 52.528 112.216 51.5347C111.726 50.5506 111.262 49.35 111.135 48.1653C111.035 47.2284 111.358 46.3755 111.781 45.65C112.203 44.927 112.786 44.2282 113.345 43.5841C113.459 43.4527 113.571 43.3235 113.683 43.1958C114.14 42.673 114.574 42.1763 114.957 41.6654C115.43 41.0328 115.762 40.4573 115.916 39.9141C116.58 37.5757 115.254 35.2485 113.8 34.0329C112.615 33.0428 112.419 31.4609 112.385 30.2736C112.37 29.7779 112.385 29.2736 112.397 28.8305C112.4 28.7176 112.403 28.6087 112.406 28.5049C112.419 27.9541 112.413 27.5706 112.367 27.3138C112.259 26.7186 112.079 26.4964 111.915 26.3803C111.712 26.2372 111.322 26.1059 110.513 26.1059C110.41 26.1059 110.149 26.1759 109.685 26.5255C109.247 26.8557 108.757 27.3344 108.214 27.9128C107.944 28.1998 107.659 28.5152 107.364 28.8413C106.534 29.7592 105.627 30.7622 104.775 31.4563C103.427 32.5542 102.031 32.7022 100.863 32.7205C100.608 32.7245 100.387 32.723 100.181 32.7217C99.8782 32.7197 99.6075 32.718 99.3073 32.734C98.8499 32.7585 98.4816 32.8233 98.1596 32.9617C97.8757 33.0837 97.3441 33.4911 96.5951 34.2098C95.8835 34.8926 95.0803 35.7513 94.2683 36.6419C93.9552 36.9853 93.6383 37.3362 93.3264 37.6817C92.8416 38.2185 92.3686 38.7424 91.9394 39.2052C91.2479 39.9508 90.585 40.6329 90.093 41.0029C88.9983 41.8262 87.9209 41.8515 87.03 41.8687L86.9659 41.8699C86.1087 41.8861 85.3259 41.901 84.3351 42.3426C84.0177 42.4841 83.5298 42.829 82.9012 43.3866C82.292 43.927 81.615 44.6085 80.9255 45.3518C79.5474 46.8373 78.1627 48.5227 77.2403 49.7079C76.92 50.1194 76.452 50.3991 75.9196 50.4704C74.4555 50.6665 72.3621 50.8824 70.4775 50.9341C69.5377 50.9598 68.6221 50.9457 67.8513 50.8608C67.466 50.8183 67.0945 50.7558 66.7632 50.6629C66.4456 50.5739 66.0911 50.4371 65.7978 50.2046C65.2961 49.8068 64.9685 49.3633 64.7579 48.8633C64.5598 48.3931 64.4829 47.9088 64.4235 47.4934C64.4144 47.43 64.4055 47.3664 64.3966 47.3025C64.2876 46.5215 64.1723 45.6953 63.6213 44.5901C63.2631 43.8718 62.735 43.6313 62.1528 43.5877C61.636 43.5491 61.0899 43.6758 60.6753 43.8384C59.6832 45.7716 58.6573 47.4114 57.7541 48.6436C56.5736 50.3775 54.6945 53.084 52.877 55.5926C51.0769 58.0772 49.2746 60.4562 48.2838 61.4498C46.6062 63.132 42.7463 66.7805 40.5176 68.8724C39.7565 69.5868 38.5822 69.6011 37.8025 68.9136L30.6224 62.5825C30.203 62.2127 30.162 61.572 30.5308 61.1514C30.8995 60.7309 31.5385 60.6897 31.9579 61.0595L39.1374 67.3902C41.3735 65.2912 45.2051 61.669 46.8538 60.0158C47.7079 59.1593 49.41 56.9276 51.2409 54.4006C53.0493 51.9046 54.9223 49.2066 56.0938 47.4855L56.104 47.4706L56.1147 47.456C56.997 46.2541 58.0329 44.5931 59.0331 42.6034C62.2934 36.1175 65.0059 26.4924 61.2938 18.0179L61.2834 17.9942L61.2743 17.9701C59.2566 12.6427 51.8253 2.02799 38.3442 2.02799ZM112.494 91.324C112.492 91.3305 112.492 91.329 112.495 91.321L112.494 91.324ZM25.1486 20.4027L25.6307 19.3887H36.0543C36.6128 19.3887 37.0655 19.8427 37.0655 20.4027C37.0655 20.9627 36.6128 21.4167 36.0543 21.4167H24.7556L25.1486 20.4027ZM43.1443 20.4027C43.1443 19.8427 43.597 19.3887 44.1555 19.3887H52.1241L52.6063 20.4027L52.9993 21.4167H44.1555C43.597 21.4167 43.1443 20.9627 43.1443 20.4027ZM25.0503 32.0297L24.6768 31.0157H53.0781L52.7278 31.9729L52.2438 33.0437H25.5111L25.0503 32.0297Z" fill="#111838"/>
<path fill-rule="evenodd" clip-rule="evenodd" d="M114.603 52.6923C114.796 52.4898 115.116 52.4825 115.318 52.676L121.833 58.9196C122.035 59.113 122.042 59.434 121.849 59.6364C121.656 59.8388 121.336 59.8461 121.134 59.6527L114.619 53.4091C114.417 53.2156 114.41 52.8947 114.603 52.6923Z" fill="white"/>
<path fill-rule="evenodd" clip-rule="evenodd" d="M113.707 53.2712C113.938 53.0283 114.322 53.0195 114.565 53.2517L121.08 59.4953C121.322 59.7274 121.331 60.1125 121.1 60.3554C120.868 60.5984 120.484 60.6071 120.242 60.375L113.726 54.1314C113.484 53.8992 113.475 53.5141 113.707 53.2712Z" fill="#EEEEEE"/>
<path fill-rule="evenodd" clip-rule="evenodd" d="M113.201 51.6332C113.626 51.2691 114.264 51.3189 114.627 51.7444C114.806 51.9538 114.998 52.2495 115.154 52.4903C115.191 52.5466 115.225 52.6 115.258 52.6485C115.461 52.9564 115.636 53.197 115.805 53.3598C116.207 53.7481 116.22 54.39 115.832 54.7935C115.445 55.1971 114.805 55.2094 114.403 54.8211C114.059 54.4897 113.779 54.0827 113.572 53.7686C113.51 53.676 113.457 53.5935 113.409 53.5199C113.267 53.3027 113.175 53.1623 113.09 53.0629C112.727 52.6374 112.777 51.9973 113.201 51.6332ZM119.364 58.1626C119.713 57.7257 120.35 57.6557 120.785 58.0061L122.891 59.6994C123.326 60.0498 123.396 60.688 123.047 61.1249C122.697 61.5617 122.061 61.6318 121.625 61.2814L119.52 59.588C119.084 59.2376 119.014 58.5995 119.364 58.1626Z" fill="#111838"/>
</svg>
