<svg width="104" height="103" viewBox="0 0 104 103" fill="none" xmlns="http://www.w3.org/2000/svg">
<path d="M14.0389 3.29448C14.0389 2.17988 14.9429 1.27632 16.058 1.27632H100.574C101.681 1.27632 102.582 2.16692 102.593 3.27313L102.986 40.3714C102.998 41.4726 102.124 42.3798 101.023 42.4102L85.179 42.8464L76.7914 50.5241L68.9337 42.8464H52.2469V40.1989L41.2989 34.1979L38.8268 42.3555H16.058C14.9429 42.3555 14.0389 41.452 14.0389 40.3374V3.29448Z" fill="#EEEEEE"/>
<path d="M31.2667 16.5183L34.155 16.2045L38.4305 20.2211L35.8503 27.6268L28.818 27.6268L27.2098 20.2211L31.2667 16.5183Z" fill="white"/>
<path d="M57.5752 16.5183L60.4634 16.2045L64.739 20.2211L62.1587 27.6268L55.1264 27.6268L53.5182 20.2211L57.5752 16.5183Z" fill="white"/>
<path d="M83.7579 16.5183L86.6462 16.2045L90.9217 20.2211L88.3415 27.6268L81.3092 27.6268L79.701 20.2211L83.7579 16.5183Z" fill="white"/>
<path fill-rule="evenodd" clip-rule="evenodd" d="M18.2652 0.0736296H96.9159C99.7691 0.0736296 101.639 0.997871 102.751 2.32752C103.816 3.60102 104.075 5.11644 103.983 6.1751V37.9142C103.983 40.3839 103.126 42.0108 101.885 42.9649C100.714 43.865 99.3346 44.0611 98.3782 43.9687H85.7065L77.417 51.7671C77.0196 52.1409 76.3971 52.1315 76.0112 51.7458C75.2229 50.9579 73.4159 48.907 71.8363 47.0902C71.0397 46.1739 70.2906 45.3053 69.7409 44.6658C69.4907 44.3748 69.2818 44.1312 69.1282 43.952C69.0583 43.9497 68.9811 43.9472 68.8975 43.9446C68.4825 43.9315 67.9104 43.9159 67.2815 43.9055C66.006 43.8844 64.5562 43.8861 63.6924 43.9646C63.6621 43.9673 63.6316 43.9687 63.601 43.9687H52.7601L49.282 56.5711C49.7341 56.5675 50.2853 56.5632 50.9113 56.5586C52.6996 56.5455 55.0984 56.5297 57.5395 56.5192C59.98 56.5087 62.4651 56.5034 64.4254 56.5113C65.4051 56.5152 66.257 56.5225 66.908 56.5341C67.529 56.5452 68.0347 56.5607 68.2692 56.59C70.0254 56.8094 72.3196 58.2963 73.1561 61.3621C73.9748 64.3625 72.5012 66.5176 72.071 67.1467C72.0485 67.1796 72.0289 67.2083 72.0126 67.2328L71.9068 67.3913C72.9064 67.6634 73.9535 68.1697 74.8563 68.8229C76.3525 69.9054 77.7346 71.6001 77.7346 73.7366C77.7346 75.8731 76.3525 77.5678 74.8563 78.6504C74.0345 79.2449 73.0932 79.7178 72.177 80.003C72.4049 80.3335 72.6299 80.7023 72.8357 81.0975C73.4721 82.3193 74.0122 83.9624 73.6744 85.5509C73.3385 87.1305 72.3342 88.4505 71.2301 89.3619C70.3128 90.119 69.2055 90.692 68.1801 90.8484C68.2878 90.9787 68.3934 91.1159 68.4952 91.2604C69.3259 92.44 69.9118 94.0772 69.752 96.4143C69.5685 99.0978 67.5634 100.535 65.515 101.25C63.4758 101.962 61.1227 102.076 59.5354 101.991H33.3148C33.2647 101.991 33.2147 101.987 33.1651 101.98C31.4492 101.722 28.8649 101.207 26.6888 100.49C25.8016 100.197 24.9433 99.8581 24.229 99.47V99.9728C24.229 101.645 22.873 103 21.2004 103H3.02862C1.35596 103 0 101.645 0 99.9728V58.6004C0 56.9285 1.35596 55.5731 3.02862 55.5731H21.2004C22.863 55.5731 24.2127 56.9123 24.2288 58.5704C26.0531 57.6479 28.3507 56.0732 30.5044 54.1807C33.2462 51.7715 35.5665 49.0107 36.4016 46.6585C37.3192 44.0736 38.3246 40.9733 39.1021 38.5134C39.4905 37.2847 39.8214 36.2181 40.055 35.4589C40.1719 35.0793 40.2644 34.7766 40.3277 34.569L40.4247 34.2496C40.5789 33.7394 41.1034 33.437 41.6224 33.559C43.1834 33.9261 46.1926 35.1654 48.6915 36.7786C49.9429 37.5864 51.1344 38.5308 51.9549 39.5623C52.5078 40.2574 52.9506 41.0707 53.0581 41.9505H63.5564C64.5452 41.8651 66.0698 41.867 67.315 41.8876C67.9564 41.8982 68.5388 41.9141 68.9608 41.9274C69.172 41.934 69.3432 41.94 69.462 41.9443L69.5992 41.9494L69.6472 41.9513C69.9282 41.9627 70.1925 42.0907 70.3751 42.3043L70.3761 42.3055L70.6179 42.5881C70.7738 42.77 70.9982 43.0317 71.2722 43.3505C71.8204 43.9881 72.5669 44.8538 73.3604 45.7664C74.5816 47.171 75.8907 48.6596 76.7652 49.6088L84.6143 42.2248C84.8015 42.0486 85.049 41.9505 85.3062 41.9505H98.4302C98.4674 41.9505 98.5047 41.9526 98.5417 41.9567C99.0978 42.0185 99.957 41.9008 100.654 41.365C101.306 40.8644 101.964 39.8845 101.964 37.9142V6.12812C101.964 6.09459 101.965 6.06108 101.969 6.02771C102.031 5.40656 101.877 4.42914 101.202 3.62196C100.555 2.84936 99.3123 2.09179 96.9159 2.09179H18.1717C18.1052 2.09179 18.0389 2.08523 17.9737 2.0722C17.3368 1.94486 16.3836 2.01135 15.6153 2.57654C14.892 3.10866 14.1336 4.2321 14.1336 6.63266V38.4187C14.1336 38.456 14.1315 38.4932 14.1274 38.5302C14.0603 39.1333 14.1505 40.0279 14.5794 40.732C14.9636 41.3626 15.6798 41.9505 17.1622 41.9505H21.7051C22.2627 41.9505 22.7147 42.4023 22.7147 42.9596C22.7147 43.5169 22.2627 43.9687 21.7051 43.9687H17.1622C15.0102 43.9687 13.6233 43.043 12.8549 41.7816C12.1466 40.6189 12.0245 39.2763 12.1145 38.3661V6.63266C12.1145 3.786 13.0386 1.96629 14.4185 0.951148C15.7097 0.00128021 17.2214 -0.109266 18.2652 0.0736296ZM42.0656 35.7898C42.0401 35.8727 42.0132 35.9603 41.9849 36.0523C41.75 36.8154 41.4176 37.8869 41.0274 39.1214C40.2477 41.588 39.234 44.715 38.3044 47.3334C37.2923 50.1844 34.649 53.2259 31.8375 55.6965C29.2812 57.9427 26.431 59.8513 24.229 60.7988V96.9336C24.2334 96.9325 24.2872 97.1384 24.8646 97.5046C25.4445 97.8725 26.2994 98.2359 27.3216 98.573C29.3219 99.2328 31.7424 99.722 33.3907 99.9728H59.5629C59.5816 99.9728 59.6002 99.9733 59.6189 99.9743C61.0599 100.054 63.1386 99.9419 64.8494 99.3449C66.5632 98.7468 67.6347 97.7821 67.7376 96.2767C67.8673 94.3795 67.3957 93.2054 66.8441 92.422C66.3837 91.7683 65.8697 91.3656 65.38 90.9819C65.3413 90.9515 65.3026 90.9213 65.2642 90.891H55.02C54.4624 90.891 54.0104 90.4392 54.0104 89.8819C54.0104 89.3246 54.4624 88.8729 55.02 88.8729H67.6392C68.1577 88.8729 69.0604 88.5354 69.9444 87.8058C70.8056 87.0949 71.4839 86.1446 71.6994 85.1313C71.8944 84.2143 71.5933 83.0824 71.0448 82.0294C70.7795 81.5201 70.4768 81.0694 70.2 80.7248C70.0618 80.5528 69.9357 80.4142 69.8303 80.3115C69.8248 80.3061 69.8193 80.3008 69.8139 80.2957H55.02C54.4624 80.2957 54.0104 79.8439 54.0104 79.2866C54.0104 78.7293 54.4624 78.2775 55.02 78.2775H70.1631C70.1889 78.2775 70.2147 78.2785 70.2405 78.2805C71.0161 78.3401 72.4226 77.9197 73.6724 77.0155C74.9103 76.1199 75.7155 74.9555 75.7155 73.7366C75.7155 72.5177 74.9103 71.3534 73.6724 70.4577C72.4226 69.5535 71.0161 69.1331 70.2405 69.1928C70.2147 69.1948 70.1889 69.1958 70.1631 69.1958H55.02C54.4624 69.1958 54.0104 68.744 54.0104 68.1867C54.0104 67.6294 54.4624 67.1776 55.02 67.1776H69.6228L70.3326 66.1133C70.3494 66.0882 70.368 66.0607 70.3882 66.0309C70.7831 65.448 71.7776 63.9801 71.2082 61.8931C70.5847 59.6082 68.9547 58.7095 68.0188 58.5926C67.9167 58.5798 67.5391 58.5639 66.8719 58.5519C66.2347 58.5406 65.3935 58.5334 64.4172 58.5294C62.4655 58.5216 59.987 58.5268 57.5482 58.5373C55.1098 58.5478 52.7132 58.5636 50.9261 58.5767C50.0326 58.5833 49.2915 58.5892 48.7739 58.5935L47.963 58.6003C47.963 58.6003 47.9622 58.6004 47.9532 57.5913C46.98 57.323 46.98 57.3228 46.98 57.3228L51.0181 42.6913C51.1472 42.2238 51.0078 41.6145 50.3745 40.8183C49.7493 40.0324 48.7638 39.2277 47.5961 38.4739C45.7082 37.2552 43.522 36.2811 42.0656 35.7898ZM47.9532 57.5913L46.98 57.3228C46.8958 57.6281 46.9597 57.9552 47.1527 58.2062C47.3457 58.4573 47.6463 58.6032 47.963 58.6003L47.9532 57.5913ZM22.2099 58.6004C22.2099 58.0431 21.7579 57.5913 21.2004 57.5913H13.3949V84.5667C13.3949 85.124 12.9429 85.5757 12.3853 85.5757C11.8278 85.5757 11.3758 85.124 11.3758 84.5667V57.5913H3.02862C2.47107 57.5913 2.01908 58.0431 2.01908 58.6004V99.9728C2.01908 100.53 2.47107 100.982 3.02862 100.982H21.2004C21.7579 100.982 22.2099 100.53 22.2099 99.9728V58.6004ZM32.8356 12.1829C33.3571 12.1961 33.7827 12.6043 33.8174 13.1246C33.8899 14.2121 34.3569 15.8168 35.4825 17.0354C36.562 18.204 38.3341 19.1157 41.2659 18.7494C41.7957 18.6832 42.2855 19.0408 42.3835 19.5654C42.4816 20.09 42.154 20.6002 41.636 20.7297C40.4625 21.0229 38.988 21.8295 38.2406 23.2083C37.5345 24.5107 37.3315 26.6039 39.2327 29.8345C39.5053 30.2977 39.3668 30.8933 38.9177 31.1889C38.4685 31.4845 37.8664 31.3763 37.5484 30.9428C36.7027 29.79 35.2245 28.4834 33.563 28.1147C32.7585 27.9362 31.9021 27.9737 31.0095 28.3622C30.107 28.7551 29.1046 29.5349 28.0717 30.9428C27.7506 31.3805 27.1406 31.4859 26.6912 31.1814C26.2417 30.8769 26.1137 30.2715 26.4015 29.8113C27.171 28.5806 27.8592 26.682 27.597 24.9468C27.4698 24.1046 27.1195 23.2944 26.4284 22.5814C25.7308 21.8617 24.6373 21.1917 22.9492 20.723C22.4196 20.5759 22.105 20.0323 22.2415 19.5001C22.3781 18.9678 22.9156 18.6426 23.4507 18.7685C24.7332 19.0701 26.6908 19.1266 28.3727 18.3753C29.9742 17.66 31.4435 16.1657 31.8074 13.0738C31.8684 12.5559 32.3141 12.1698 32.8356 12.1829ZM27.458 20.7782C27.6059 20.9073 27.746 21.0404 27.8785 21.1771C28.8889 22.2195 29.4094 23.4274 29.5935 24.6454C29.7038 25.3758 29.6934 26.1065 29.5997 26.8109C29.7998 26.6995 30.0011 26.6 30.2033 26.5119C31.5201 25.9387 32.8154 25.8816 34.0005 26.1445C34.6667 26.2923 35.2945 26.5398 35.8748 26.85C35.5179 25.0439 35.7806 23.51 36.4654 22.2468C36.816 21.6 37.2632 21.0516 37.7588 20.5923C36.1629 20.2043 34.9247 19.4066 33.9991 18.4045C33.5206 17.8864 33.1342 17.3234 32.8266 16.7503C31.9624 18.4572 30.6579 19.5652 29.1964 20.2179C28.6265 20.4724 28.0407 20.6545 27.458 20.7782Z" fill="black"/>
<path fill-rule="evenodd" clip-rule="evenodd" d="M59.0836 12.1829C59.6051 12.1961 60.0307 12.6043 60.0654 13.1245C60.1379 14.2121 60.6049 15.8168 61.7306 17.0354C62.81 18.204 64.5821 19.1157 67.514 18.7494C68.0438 18.6832 68.5335 19.0408 68.6316 19.5654C68.7296 20.09 68.402 20.6002 67.884 20.7297C66.7105 21.0229 65.2361 21.8295 64.4886 23.2082C63.7825 24.5107 63.5795 26.6039 65.4807 29.8344C65.7534 30.2977 65.6148 30.8933 65.1657 31.1889C64.7166 31.4845 64.1145 31.3762 63.7965 30.9428C62.9507 29.79 61.4725 28.4834 59.811 28.1147C59.0065 27.9362 58.1502 27.9737 57.2576 28.3622C56.355 28.7551 55.3527 29.5349 54.3197 30.9428C53.9986 31.3805 53.3887 31.4859 52.9392 31.1814C52.4897 30.8768 52.3617 30.2715 52.6495 29.8113C53.419 28.5806 54.1072 26.682 53.845 24.9468C53.7178 24.1046 53.3675 23.2944 52.6765 22.5814C51.9789 21.8617 50.8853 21.1917 49.1973 20.723C48.6676 20.5759 48.353 20.0323 48.4896 19.5001C48.6261 18.9678 49.1636 18.6426 49.6987 18.7684C50.9813 19.0701 52.9388 19.1265 54.6207 18.3753C56.2223 17.66 57.6916 16.1657 58.0555 13.0738C58.1164 12.5559 58.5621 12.1697 59.0836 12.1829ZM53.706 20.7782C53.8539 20.9073 53.994 21.0403 54.1266 21.1771C55.137 22.2195 55.6575 23.4274 55.8415 24.6454C55.9518 25.3757 55.9415 26.1065 55.8478 26.8109C56.0479 26.6995 56.2491 26.6 56.4514 26.5119C57.7682 25.9387 59.0634 25.8816 60.2486 26.1445C60.9147 26.2923 61.5425 26.5398 62.1229 26.85C61.7659 25.0439 62.0286 23.5099 62.7134 22.2467C63.0641 21.5999 63.5112 21.0516 64.0069 20.5923C62.4109 20.2043 61.1728 19.4065 60.2471 18.4045C59.7686 17.8864 59.3822 17.3234 59.0746 16.7503C58.2104 18.4572 56.9059 19.5651 55.4444 20.2179C54.8746 20.4724 54.2888 20.6545 53.706 20.7782Z" fill="black"/>
<path fill-rule="evenodd" clip-rule="evenodd" d="M85.3316 12.1829C85.8532 12.1961 86.2787 12.6043 86.3135 13.1245C86.386 14.2121 86.8529 15.8168 87.9786 17.0354C89.0581 18.204 90.8302 19.1157 93.762 18.7494C94.2918 18.6832 94.7816 19.0408 94.8796 19.5654C94.9777 20.09 94.6501 20.6002 94.1321 20.7297C92.9586 21.0229 91.4841 21.8295 90.7367 23.2082C90.0306 24.5107 89.8276 26.6039 91.7288 29.8344C92.0014 30.2977 91.8629 30.8933 91.4138 31.1889C90.9646 31.4845 90.3625 31.3762 90.0445 30.9428C89.1988 29.79 87.7206 28.4834 86.0591 28.1147C85.2545 27.9362 84.3982 27.9737 83.5056 28.3622C82.6031 28.7551 81.6007 29.5349 80.5678 30.9428C80.2467 31.3805 79.6367 31.4859 79.1873 31.1814C78.7378 30.8768 78.6098 30.2715 78.8976 29.8113C79.6671 28.5806 80.3553 26.682 80.0931 24.9468C79.9659 24.1046 79.6156 23.2944 78.9245 22.5814C78.2269 21.8617 77.1334 21.1917 75.4453 20.723C74.9157 20.5759 74.6011 20.0323 74.7376 19.5001C74.8742 18.9678 75.4116 18.6426 75.9467 18.7684C77.2293 19.0701 79.1869 19.1265 80.8687 18.3753C82.4703 17.66 83.9396 16.1657 84.3035 13.0738C84.3645 12.5559 84.8101 12.1697 85.3316 12.1829ZM79.9541 20.7782C80.102 20.9073 80.2421 21.0403 80.3746 21.1771C81.385 22.2195 81.9055 23.4274 82.0895 24.6454C82.1999 25.3757 82.1895 26.1065 82.0958 26.8109C82.2959 26.6995 82.4972 26.6 82.6994 26.5119C84.0162 25.9387 85.3115 25.8816 86.4966 26.1445C87.1628 26.2923 87.7906 26.5398 88.3709 26.85C88.014 25.0439 88.2767 23.5099 88.9615 22.2467C89.3121 21.5999 89.7593 21.0516 90.2549 20.5923C88.659 20.2043 87.4208 19.4065 86.4952 18.4045C86.0166 17.8864 85.6303 17.3234 85.3227 16.7503C84.4585 18.4572 83.1539 19.5651 81.6925 20.2179C81.1226 20.4724 80.5368 20.6545 79.9541 20.7782Z" fill="black"/>
<path d="M30.6456 42.9113C30.6456 43.4686 30.1936 43.9204 29.636 43.9204C29.0785 43.9204 28.6265 43.4686 28.6265 42.9113C28.6265 42.354 29.0785 41.9022 29.636 41.9022C30.1936 41.9022 30.6456 42.354 30.6456 42.9113Z" fill="black"/>
<path d="M13.3214 91.4225C13.3214 91.9798 12.8695 92.4316 12.3119 92.4316C11.7544 92.4316 11.3024 91.9798 11.3024 91.4225C11.3024 90.8652 11.7544 90.4134 12.3119 90.4134C12.8695 90.4134 13.3214 90.8652 13.3214 91.4225Z" fill="black"/>
</svg>
