<svg width="82" height="82" viewBox="0 0 82 82" fill="none" xmlns="http://www.w3.org/2000/svg">
<path d="M34.3807 6.01216L80.7184 52.255L71.6999 61.3252L25.3621 15.0824L34.3807 6.01216Z" fill="#EEEEEE"/>
<path d="M21.8064 1.9408L32.9281 6.21884L25.5521 13.2706L21.8064 1.9408Z" fill="#EEEEEE"/>
<path d="M0.707503 81.0105L1.29416 1.05846L80.5128 81.6506L0.707503 81.0105Z" fill="#EEEEEE"/>
<path d="M15.4449 67.455L15.0716 35.38L47.4629 67.6378L15.4449 67.455Z" fill="white"/>
<path fill-rule="evenodd" clip-rule="evenodd" d="M0.623793 0.0770898C1.00139 -0.079602 1.43602 0.00700994 1.72502 0.296539L81.5539 80.2718C81.8429 80.5613 81.9293 80.9968 81.7729 81.3751C81.6165 81.7533 81.2481 82 80.8393 82H1.01049C0.452413 82 0 81.5468 0 80.9877V1.01237C0 0.602919 0.246198 0.233782 0.623793 0.0770898ZM19.8428 0.288798C20.1186 0.0184061 20.5241 -0.0709849 20.8877 0.058425L34.7415 4.98846C34.8821 5.03852 35.0099 5.11917 35.1158 5.22462L81.4041 51.3442C82.2402 52.1772 82.1898 53.5474 81.2948 54.3166L77.3404 57.7149L72.6376 61.7365C71.8321 62.4253 70.6324 62.3743 69.888 61.6197L24.3748 15.4811C24.2654 15.3702 24.1831 15.2356 24.1342 15.0876L19.5902 1.33041C19.4689 0.963363 19.567 0.55919 19.8428 0.288798ZM22.1578 2.65901L25.5535 12.9396L32.5105 6.34317L22.1578 2.65901ZM34.3858 7.3528L26.5381 14.7937L71.3255 60.1965L76.0265 56.1766L79.979 52.7798L34.3858 7.3528ZM2.02098 3.45639V79.9753H78.3998L63.8137 65.3625L59.5141 69.8831C59.1292 70.2879 58.4895 70.3034 58.0855 69.9177C57.6815 69.532 57.666 68.8912 58.051 68.4864L62.3842 63.9304L54.9186 56.451L50.4953 60.8022C50.0971 61.1939 49.4573 61.188 49.0663 60.7891C48.6753 60.3901 48.6812 59.7492 49.0794 59.3575L53.4895 55.0193L45.608 47.1233L41.1909 51.6091C40.799 52.0072 40.1592 52.0115 39.7619 51.6189C39.3646 51.2262 39.3602 50.5853 39.7522 50.1872L44.1789 45.6916L36.4621 37.9607L32.0468 42.3841C31.6522 42.7795 31.0124 42.7795 30.6177 42.3841C30.2231 41.9888 30.2231 41.3478 30.6177 40.9525L35.0331 36.529L27.279 28.7607L22.8213 33.1732C22.4243 33.5662 21.7845 33.5623 21.3923 33.1646C21.0001 32.7669 21.0039 32.1259 21.4009 31.733L25.8499 27.329L18.1889 19.6539L13.8509 23.9998C13.4563 24.3952 12.8165 24.3952 12.4219 23.9998C12.0272 23.6045 12.0272 22.9635 12.4219 22.5681L16.7598 18.2222L2.02098 3.45639ZM43.3714 23.8022C43.7725 23.4134 44.4122 23.4239 44.8003 23.8257L52.4352 31.7308C52.8233 32.1326 52.8128 32.7735 52.4117 33.1623C52.0106 33.551 51.3709 33.5405 50.9828 33.1387L43.3479 25.2337C42.9598 24.8319 42.9704 24.191 43.3714 23.8022ZM14.6744 33.4768C15.054 33.3211 15.4898 33.4106 15.7776 33.7034L47.9351 66.4265C48.2209 66.7173 48.3044 67.1515 48.1471 67.5278C47.9898 67.9042 47.6223 68.1491 47.2151 68.1491H15.0575C14.4994 68.1491 14.047 67.6959 14.047 67.1368V34.4136C14.047 34.0027 14.2949 33.6326 14.6744 33.4768ZM16.068 36.8849V66.1244H44.8022L16.068 36.8849Z" fill="#111838"/>
<path d="M56.931 36.4819C56.931 37.041 56.4785 37.4943 55.9205 37.4943C55.3624 37.4943 54.91 37.041 54.91 36.4819C54.91 35.9228 55.3624 35.4696 55.9205 35.4696C56.4785 35.4696 56.931 35.9228 56.931 36.4819Z" fill="#111838"/>
</svg>
