<svg width="123" height="104" viewBox="0 0 123 104" fill="none" xmlns="http://www.w3.org/2000/svg">
<path d="M87.7024 61.5886H112.294C117.264 61.5886 121.294 65.6181 121.294 70.5886V90.713H87.7024V61.5886Z" fill="#EEEEEE"/>
<path d="M87.7024 35.9267H103.373C107.792 35.9267 111.373 39.5084 111.373 43.9267V44.986H87.7024V35.9267Z" fill="#EEEEEE"/>
<path d="M10.6448 29.8998H87.7024V90.713H10.6448V29.8998Z" fill="#EEEEEE"/>
<path d="M44.2847 92.6975C44.2847 97.7635 40.1779 101.87 35.1119 101.87C30.046 101.87 25.9392 97.7635 25.9392 92.6975C25.9392 87.6316 30.046 83.5248 35.1119 83.5248C40.1779 83.5248 44.2847 87.6316 44.2847 92.6975Z" fill="white"/>
<path d="M111.373 92.6975C111.373 97.7635 107.267 101.87 102.201 101.87C97.1346 101.87 93.0278 97.7635 93.0278 92.6975C93.0278 87.6316 97.1346 83.5248 102.201 83.5248C107.267 83.5248 111.373 87.6316 111.373 92.6975Z" fill="white"/>
<path fill-rule="evenodd" clip-rule="evenodd" d="M35.6 2.56807C34.1372 2.4662 32.5782 2.73691 31.2683 3.86569C29.8935 5.05035 29.4328 6.85622 29.3692 8.55088C29.3032 10.3121 30.3617 11.9586 31.9553 13.2398L47.8349 26.0059L47.9666 25.844L40.342 6.9049C39.3882 4.53582 37.698 2.71418 35.6 2.56807ZM43.1442 24.8494L29.0668 18.9145C28.5516 18.6972 27.9602 18.9446 27.7459 19.4669C27.5317 19.9892 27.7756 20.5887 28.2909 20.8059L44.4039 27.599H11.4825C10.3665 27.599 9.46177 28.5162 9.46177 29.6475V65.6622C9.46177 66.2279 9.91413 66.6864 10.4721 66.6864C11.0301 66.6864 11.4825 66.2279 11.4825 65.6622V29.6475H87.4467V65.6622C87.4467 66.2279 87.899 66.6864 88.457 66.6864C89.015 66.6864 89.4674 66.2279 89.4674 65.6622V62.4627H113.645C114.761 62.6695 116.406 63.1948 117.771 64.0927C119.173 65.0147 120.119 66.2109 120.164 67.7289C120.172 67.9923 120.179 68.2962 120.185 68.6361H114.745C113.63 68.6361 112.724 69.5511 112.724 70.6837V75.0194C112.724 76.1965 113.145 77.1377 113.854 77.8366C114.533 78.5062 115.42 78.8989 116.29 79.1401C117.591 79.5009 119.064 79.5743 120.224 79.5887C120.214 83.1541 120.192 86.7556 120.172 89.393H113.143C113.143 89.393 113.312 89.9788 113.391 90.3608C113.478 90.779 113.56 91.4415 113.56 91.4415H120.172C121.28 91.4415 122.184 90.5374 122.192 89.4108C122.215 86.5177 122.239 82.4649 122.247 78.5697C122.254 75.1955 122.249 71.9344 122.221 69.6476C122.212 68.865 122.199 68.1926 122.184 67.6668C122.11 65.1995 120.551 63.4789 118.871 62.3741C117.44 61.4336 115.805 60.8532 114.539 60.5588L110.479 46.0002C110.751 45.9235 110.99 45.8174 111.198 45.681C111.702 45.3492 112.033 44.8065 111.98 44.2074L111.978 44.1934L111.977 44.1795C111.928 43.7576 111.77 42.3331 111.531 40.0405C111.386 38.6398 110.796 37.552 109.772 36.8307C108.797 36.1439 107.537 35.8677 106.181 35.8039L106.157 35.8028H89.4674V29.6475C89.4674 28.5162 88.5627 27.599 87.4467 27.599H54.9197L70.4839 21.5467C71.0049 21.3442 71.2652 20.7518 71.0654 20.2236C70.8655 19.6954 70.2812 19.4315 69.7602 19.6341L55.1956 25.2977L67.8795 15.0374C69.8845 13.4155 71.4964 11.0089 71.3967 8.16788C71.3333 6.3616 70.96 4.08845 69.6109 2.43294C68.8478 1.49644 67.7825 1.01179 66.7117 0.779296C65.6422 0.547068 64.4918 0.548659 63.4415 0.64596C60.1396 0.951842 57.7321 3.46857 56.5138 6.29997L49.161 23.3896L42.2129 6.13084C41.144 3.47568 38.9808 0.750168 35.7385 0.524374C33.9417 0.399251 31.7974 0.721194 29.9596 2.30485C27.9557 4.03158 27.4227 6.53525 27.35 8.47304C27.2493 11.1567 28.8554 13.3621 30.6997 14.8448L43.1442 24.8494ZM58.7796 19.7778L66.6191 13.4361C68.3255 12.0558 69.4464 10.2101 69.3772 8.24073C69.3185 6.56903 68.9691 4.86181 68.053 3.7376C67.6738 3.27227 67.0843 2.95515 66.2885 2.78238C65.4916 2.60935 64.5639 2.59902 63.6253 2.68597C61.3057 2.90087 59.4046 4.70502 58.3661 7.11895L50.3357 25.7834L50.5149 25.9602L58.7796 19.7778ZM89.4674 37.8513V44.0114L109.191 44.1052C109.555 44.1069 109.787 44.068 109.926 44.0299C109.851 43.3646 109.712 42.0832 109.522 40.255C109.429 39.3612 109.095 38.8485 108.619 38.513C108.097 38.1454 107.286 37.9092 106.11 37.8513H89.4674ZM89.4674 46.0599V60.4142H112.399L108.421 46.15L89.4674 46.0599ZM120.228 77.5393C120.232 75.0093 120.228 72.6007 120.211 70.6846H114.745V75.0194C114.745 75.6537 114.952 76.0619 115.263 76.3679C115.603 76.7032 116.127 76.9711 116.823 77.1641C117.887 77.459 119.132 77.5248 120.228 77.5393ZM21.7329 46.0551C21.7329 44.9238 22.6376 44.0066 23.7536 44.0066H31.2799C31.8379 44.0066 32.2902 44.4652 32.2902 45.0309C32.2902 45.5965 31.8379 46.0551 31.2799 46.0551H23.7536V52.1815H29.7421C30.3001 52.1815 30.7525 52.6401 30.7525 53.2057C30.7525 53.7714 30.3001 54.23 29.7421 54.23H23.7536V62.3388C23.7536 62.9045 23.3013 63.3631 22.7433 63.3631C22.1853 63.3631 21.7329 62.9045 21.7329 62.3388V46.0551ZM36.1773 46.0551C36.1773 44.9238 37.082 44.0066 38.1981 44.0066H42.6245C44.0335 44.0066 45.6484 44.3934 46.7556 45.6446C47.6636 46.6707 48.4802 48.0819 48.496 49.8001C48.5121 51.5423 47.7039 53.3795 45.7991 55.2343C45.6524 55.3771 45.4933 55.4997 45.3253 55.6028C45.331 55.6183 45.3364 55.6337 45.3416 55.649L48.7191 61.8433C48.9891 62.3384 48.812 62.9616 48.3237 63.2352C47.8353 63.5089 47.2206 63.3294 46.9506 62.8343L43.3532 56.2368C43.2791 56.1722 43.1325 56.0765 42.8661 56.0188H38.1981V62.3388C38.1981 62.9045 37.7457 63.3631 37.1877 63.3631C36.6297 63.3631 36.1773 62.9045 36.1773 62.3388V46.0551ZM38.1981 53.9703H43.8303C44.0668 53.9703 44.2675 53.8852 44.3993 53.7569C46.0289 52.1701 46.4848 50.8414 46.4754 49.8192C46.4658 48.7731 45.9673 47.8214 45.2514 47.0125C44.6781 46.3646 43.7321 46.0551 42.6245 46.0551H38.1981V53.9703ZM52.5576 46.0551C52.5576 44.9238 53.4623 44.0066 54.5783 44.0066H62.5027C63.0607 44.0066 63.513 44.4652 63.513 45.0309C63.513 45.5965 63.0607 46.0551 62.5027 46.0551H54.5783V52.2104H60.3435C60.9015 52.2104 61.3538 52.669 61.3538 53.2347C61.3538 53.8004 60.9015 54.2589 60.3435 54.2589H54.5783V60.6883H62.5027C63.0607 60.6883 63.513 61.1469 63.513 61.7126C63.513 62.2783 63.0607 62.7369 62.5027 62.7369H54.5783C53.4623 62.7369 52.5576 61.8197 52.5576 60.6883V46.0551ZM67.0839 46.0551C67.0839 44.9238 67.9886 44.0066 69.1046 44.0066H76.968C77.526 44.0066 77.9784 44.4652 77.9784 45.0309C77.9784 45.5965 77.526 46.0551 76.968 46.0551H69.1046V52.3475H72.8343C73.3923 52.3475 73.8446 52.806 73.8446 53.3717C73.8446 53.9374 73.3923 54.396 72.8343 54.396H69.1046V60.6883H76.968C77.526 60.6883 77.9784 61.1469 77.9784 61.7126C77.9784 62.2783 77.526 62.7369 76.968 62.7369H69.1046C67.9886 62.7369 67.0839 61.8197 67.0839 60.6883V46.0551ZM88.457 72.6365C89.015 72.6365 89.4674 73.0951 89.4674 73.6608V89.4296H92.6654C92.6654 89.4296 92.4944 90.034 92.4151 90.4281C92.3333 90.8347 92.2565 91.4781 92.2565 91.4781H88.457L45.7091 91.8981C45.7091 91.8981 45.6533 91.217 45.5781 90.7863C45.5136 90.4171 45.3681 89.8497 45.3681 89.8497L87.4467 89.4394V73.6608C87.4467 73.0951 87.899 72.6365 88.457 72.6365ZM4.71666 74.089C4.71666 73.5233 5.16901 73.0647 5.72702 73.0647H31.2799C31.8379 73.0647 32.2902 73.5233 32.2902 74.089C32.2902 74.6547 31.8379 75.1133 31.2799 75.1133H5.72702C5.16901 75.1133 4.71666 74.6547 4.71666 74.089ZM50.1006 82.3409C50.1006 81.7752 50.5529 81.3167 51.1109 81.3167H80.7443C81.3023 81.3167 81.7547 81.7752 81.7547 82.3409C81.7547 82.9066 81.3023 83.3652 80.7443 83.3652H51.1109C50.5529 83.3652 50.1006 82.9066 50.1006 82.3409ZM0.25 82.4861C0.25 81.9204 0.702355 81.4618 1.26036 81.4618H21.0357C21.5937 81.4618 22.0461 81.9204 22.0461 82.4861C22.0461 83.0518 21.5937 83.5103 21.0357 83.5103H11.4825V89.8496H24.6697C24.6697 89.8496 24.5268 90.4348 24.4632 90.815C24.3929 91.235 24.337 91.8981 24.337 91.8981H11.4825C10.3665 91.8981 9.46177 90.981 9.46177 89.8496V83.5103H1.26036C0.702355 83.5103 0.25 83.0518 0.25 82.4861Z" fill="#111838"/>
<path fill-rule="evenodd" clip-rule="evenodd" d="M102.91 101.418C107.709 101.418 111.6 97.4735 111.6 92.6081C111.6 87.7427 107.709 83.7985 102.91 83.7985C98.1106 83.7985 94.2199 87.7427 94.2199 92.6081C94.2199 97.4735 98.1106 101.418 102.91 101.418ZM102.91 103.466C108.825 103.466 113.621 98.6049 113.621 92.6081C113.621 86.6114 108.825 81.75 102.91 81.75C96.9946 81.75 92.1992 86.6114 92.1992 92.6081C92.1992 98.6049 96.9946 103.466 102.91 103.466Z" fill="#111838"/>
<path fill-rule="evenodd" clip-rule="evenodd" d="M35.023 101.451C39.8225 101.451 43.7131 97.5073 43.7131 92.6419C43.7131 87.7765 39.8225 83.8323 35.023 83.8323C30.2236 83.8323 26.3329 87.7765 26.3329 92.6419C26.3329 97.5073 30.2236 101.451 35.023 101.451ZM35.023 103.5C40.9385 103.5 45.7339 98.6387 45.7339 92.6419C45.7339 86.6451 40.9385 81.7838 35.023 81.7838C29.1076 81.7838 24.3122 86.6451 24.3122 92.6419C24.3122 98.6387 29.1076 103.5 35.023 103.5Z" fill="#111838"/>
<path d="M106.298 92.6082C106.298 94.5053 104.781 96.0432 102.91 96.0432C101.039 96.0432 99.5216 94.5053 99.5216 92.6082C99.5216 90.711 101.039 89.1731 102.91 89.1731C104.781 89.1731 106.298 90.711 106.298 92.6082Z" fill="#111838"/>
<path d="M38.4115 92.6419C38.4115 94.539 36.8945 96.077 35.0231 96.077C33.1517 96.077 31.6346 94.539 31.6346 92.6419C31.6346 90.7448 33.1517 89.2069 35.0231 89.2069C36.8945 89.2069 38.4115 90.7448 38.4115 92.6419Z" fill="#111838"/>
</svg>
