<svg width="118" height="89" viewBox="0 0 118 89" fill="none" xmlns="http://www.w3.org/2000/svg">
<path d="M20.7404 67.699L33.647 30.2045L13.0423 32.1788L2.49777 61.708L20.7404 67.699Z" fill="#FFC37D"/>
<path d="M21.6125 68.5692C21.2885 68.8898 20.8042 69.0223 20.3423 68.8693L2.10311 62.8748C1.78817 62.7704 1.52987 62.5477 1.3841 62.2483C1.23832 61.9489 1.21893 61.6076 1.32907 61.2976L11.8736 31.7685C12.037 31.3157 12.4451 30.9951 12.929 30.9461L33.5337 28.9717C33.951 28.9332 34.3603 29.1037 34.6216 29.4344C34.8794 29.7616 34.9579 30.1968 34.8193 30.5904L21.9127 68.092C21.8487 68.2801 21.7463 68.4368 21.6125 68.5692ZM4.08925 60.9306L19.9698 66.1463L31.8597 31.6122L13.9445 33.331L4.08925 60.9306Z" fill="#111838"/>
<path d="M20.9629 10.3959L2.3299 61.6314C2.3299 61.6314 30.5398 42.9899 50.6357 63.0421C81.1371 93.4771 97.7537 87.0194 97.7537 87.0194L116.753 34.7076C116.753 34.7076 93.3306 32.2119 72.3835 11.3105C51.9807 -9.04797 20.9629 10.3959 20.9629 10.3959Z" fill="#FFC37D"/>
<path d="M98.6257 87.8895C98.506 88.008 98.3618 88.1021 98.2003 88.1649C97.491 88.4438 80.473 94.5639 49.7553 63.9131C41.7567 55.9319 31.5069 53.2695 19.2859 56.0024C10.0404 58.072 3.07877 62.6096 3.01196 62.6549C2.56541 62.9511 1.98019 62.9271 1.56116 62.5999C1.14214 62.2728 0.983583 61.7157 1.16473 61.2176L19.7978 9.98204C19.8901 9.7243 20.0735 9.50133 20.3055 9.35495C20.6289 9.15282 28.3594 4.35367 38.7559 2.01876C52.6751 -1.1119 64.6096 1.80388 73.264 10.4394C93.632 30.7631 116.664 33.4574 116.892 33.4817C117.27 33.5233 117.606 33.7321 117.804 34.0489C118.006 34.3692 118.046 34.7592 117.918 35.1144L98.9189 87.4262C98.8549 87.6074 98.756 87.7606 98.6257 87.8895ZM4.64945 58.8652C7.64332 57.2758 12.6525 54.9749 18.677 53.6172C31.6279 50.7029 42.9838 53.6573 51.5161 62.171C78.1944 88.7912 93.861 86.7253 96.8051 86.0169L115.076 35.7079C109.452 34.7704 89.6875 30.3193 71.5066 12.178C63.379 4.06807 52.5647 1.45121 39.3613 4.40043C30.5894 6.36192 23.6099 10.2587 21.9824 11.2172L4.64945 58.8652Z" fill="#111838"/>
<path d="M3.20072 68.6028C6.10645 71.5022 11.9968 72.544 16.5719 70.8457C21.4139 69.0499 22.9374 64.9085 19.7213 61.6994C16.5051 58.4902 10.0317 57.6925 5.51065 59.8085C1.23551 61.8061 0.291502 65.6999 3.20072 68.6028Z" fill="#FFC37D"/>
<path d="M20.6956 69.7328C19.7518 70.6666 18.4968 71.4438 17.001 72.0017C12.0361 73.8429 5.58531 72.7317 2.32029 69.4738C0.712201 67.8692 0.0240873 65.9159 0.373415 63.9691C0.769494 61.775 2.40832 59.8971 4.99025 58.6944C10.0453 56.3273 17.0506 57.285 20.6017 60.8283C22.29 62.513 22.9742 64.5464 22.523 66.5524C22.2615 67.7261 21.6324 68.806 20.6956 69.7328ZM3.99858 62.2957C3.35763 62.9298 2.94412 63.644 2.81437 64.3892C2.60556 65.5385 3.04865 66.6945 4.08467 67.7282C6.67645 70.3144 12.0909 71.1962 16.1499 69.6898C18.3269 68.8808 19.7738 67.5463 20.1106 66.0278C20.3756 64.8506 19.9362 63.6564 18.8444 62.5669C16.0189 59.7476 10.1552 58.9913 6.03809 60.9157C5.21957 61.3026 4.53036 61.7696 3.99858 62.2957Z" fill="#111838"/>
<path d="M7.93576 66.4483C9.09038 67.6004 11.4262 68.0136 13.245 67.3371C15.1657 66.6223 15.7729 64.9818 14.4927 63.7044C13.2125 62.427 10.6449 62.1113 8.84983 62.9515C7.15309 63.7498 6.78115 65.2962 7.93576 66.4483Z" fill="#FFC37D"/>
<path d="M15.4072 67.4161C14.9565 67.8621 14.3694 68.2281 13.6741 68.4861C11.4094 69.3265 8.56576 68.8265 7.05185 67.3158C6.23908 66.5048 5.88991 65.4986 6.07357 64.4782C6.26812 63.3776 7.08941 62.4126 8.31893 61.8339C10.6304 60.7532 13.7267 61.1904 15.3662 62.8264C16.2103 63.6687 16.5592 64.7446 16.3299 65.7824C16.2008 66.3954 15.8791 66.9493 15.4072 67.4161ZM8.77948 64.4629C8.63509 64.6057 8.54674 64.7555 8.518 64.9018C8.46766 65.1665 8.65573 65.4171 8.81619 65.5772C9.5557 66.3151 11.3377 66.7356 12.816 66.1812C13.5358 65.9127 13.8566 65.5329 13.9174 65.2648C13.9748 65.0001 13.7832 64.746 13.6088 64.5719C12.7193 63.6843 10.6981 63.4381 9.37025 64.0586C9.12783 64.1806 8.92739 64.3166 8.77948 64.4629Z" fill="#111838"/>
<path d="M27.6643 46.93C28.8189 48.0821 31.1548 48.4953 32.9736 47.8188C34.8943 47.104 35.5015 45.4635 34.2213 44.1861C32.9411 42.9086 30.3735 42.593 28.5784 43.4332C26.8817 44.2315 26.5097 45.7779 27.6643 46.93Z" fill="#FFC37D"/>
<path d="M34.609 47.3792C34.2357 47.7486 33.74 48.0587 33.1431 48.2819C31.1698 49.0142 28.6063 48.5767 27.3086 47.2819C26.6703 46.6449 26.3971 45.8685 26.534 45.0953C26.6889 44.2212 27.3374 43.4756 28.3632 42.9945C30.3725 42.0533 33.1537 42.4349 34.5664 43.8446C35.2397 44.5164 35.5092 45.3242 35.3336 46.1217C35.2368 46.578 34.9823 47.0099 34.609 47.3792ZM27.9848 44.4225C27.7277 44.6768 27.5651 44.9625 27.5111 45.2585C27.4283 45.7147 27.6049 46.1708 28.0165 46.5816C29.0455 47.6084 31.1924 47.959 32.8006 47.3592C33.6643 47.0384 34.2347 46.5088 34.3707 45.9098C34.4746 45.4466 34.2981 44.9696 33.8656 44.538C32.7424 43.4172 30.4165 43.1188 28.783 43.8823C28.4669 44.0287 28.1961 44.2134 27.9848 44.4225Z" fill="#111838"/>
<path d="M31.5074 35.6346C32.662 36.7867 34.9979 37.2 36.8167 36.5235C38.7374 35.8086 39.3446 34.1681 38.0644 32.8907C36.7842 31.6133 34.2166 31.2977 32.4215 32.1378C30.7248 32.9361 30.3528 34.4825 31.5074 35.6346Z" fill="#FFC37D"/>
<path d="M38.4521 36.0839C38.0788 36.4532 37.5831 36.7634 36.9862 36.9865C35.0129 37.7188 32.4494 37.2813 31.1517 35.9865C30.5134 35.3495 30.2402 34.5731 30.3771 33.7999C30.532 32.9258 31.1805 32.1802 32.2063 31.6991C34.2156 30.7579 36.9968 31.1396 38.4095 32.5492C39.0827 33.221 39.3523 34.0288 39.1767 34.8263C39.0799 35.2826 38.8254 35.7145 38.4521 36.0839ZM31.8279 33.1271C31.5708 33.3815 31.4082 33.6671 31.3542 33.9631C31.2714 34.4194 31.448 34.8755 31.8596 35.2862C32.8886 36.313 35.0355 36.6636 36.6437 36.0639C37.5074 35.7431 38.0778 35.2134 38.2138 34.6144C38.3177 34.1512 38.1412 33.6742 37.7087 33.2426C36.5855 32.1218 34.2596 31.8235 32.6261 32.5869C32.31 32.7334 32.0392 32.9181 31.8279 33.1271Z" fill="#111838"/>
<path d="M35.0087 23.9981C36.1633 25.1502 38.4991 25.5635 40.318 24.887C42.2386 24.1721 42.8458 22.5316 41.5656 21.2542C40.2889 19.9803 37.7178 19.6612 35.9227 20.5013C34.226 21.2996 33.8541 22.846 35.0087 23.9981Z" fill="#FFC37D"/>
<path d="M41.9534 24.4474C41.5801 24.8167 41.0844 25.1269 40.4875 25.3501C38.5142 26.0823 35.9506 25.6448 34.653 24.35C34.0146 23.7131 33.7415 22.9366 33.8784 22.1635C34.0333 21.2893 34.6818 20.5437 35.7075 20.0627C37.7169 19.1214 40.498 19.5031 41.9108 20.9128C42.584 21.5845 42.8535 22.3923 42.6779 23.1899C42.5811 23.6461 42.3267 24.0781 41.9534 24.4474ZM35.3291 21.4906C35.0721 21.745 34.9095 22.0306 34.8555 22.3266C34.7727 22.7829 34.9492 23.239 35.3608 23.6497C36.3899 24.6765 38.5368 25.0272 40.1449 24.4274C41.0087 24.1066 41.579 23.577 41.7151 22.9779C41.819 22.5147 41.6425 22.0377 41.2099 21.6061C40.0867 20.4853 37.7609 20.187 36.1274 20.9505C35.8112 21.0969 35.5405 21.2816 35.3291 21.4906Z" fill="#111838"/>
<path d="M39.1969 12.3613C40.3515 13.5134 42.6873 13.9266 44.5062 13.2502C46.4268 12.5353 47.0341 10.8948 45.7539 9.61738C44.4772 8.34345 41.906 8.02435 40.111 8.86451C38.4142 9.66283 38.0423 11.2092 39.1969 12.3613Z" fill="#FFC37D"/>
<path d="M46.1416 12.8106C45.7683 13.1799 45.2726 13.4901 44.6757 13.7132C42.7024 14.4455 40.1388 14.008 38.8412 12.7132C38.2028 12.0762 37.9297 11.2998 38.0666 10.5266C38.2215 9.65247 38.87 8.90692 39.8958 8.42584C41.9051 7.48458 44.6862 7.86625 46.099 9.27593C46.7722 9.9477 47.0417 10.7555 46.8662 11.553C46.7693 12.0093 46.5149 12.4412 46.1416 12.8106ZM39.5174 9.85381C39.2603 10.1082 39.0977 10.3938 39.0437 10.6898C38.9609 11.1461 39.1375 11.6022 39.5491 12.0129C40.5781 13.0397 42.725 13.3903 44.3331 12.7906C45.1969 12.4697 45.7672 11.9401 45.9033 11.3411C46.0072 10.8779 45.8307 10.4009 45.3982 9.96928C44.2749 8.8485 41.9491 8.55018 40.3156 9.31364C39.9994 9.46006 39.7287 9.64476 39.5174 9.85381Z" fill="#111838"/>
<path d="M40.8103 48.6472C41.4269 50.1513 43.4186 51.4318 45.353 51.5005C47.3996 51.5761 48.5939 50.2905 47.9115 48.6228C47.229 46.955 44.9884 45.6781 43.0077 45.7662C41.1356 45.8507 40.1971 47.1396 40.8103 48.6472Z" fill="#FFC37D"/>
<path d="M47.9274 51.144C47.3357 51.7294 46.416 52.0363 45.3296 51.995C43.234 51.9195 41.0465 50.5346 40.3502 48.839C40.0107 48.0034 40.0602 47.178 40.491 46.5161C40.9748 45.7741 41.8636 45.3314 42.989 45.2786C45.2046 45.18 47.6162 46.5996 48.3715 48.438C48.7318 49.3154 48.6646 50.1651 48.1918 50.834C48.1176 50.942 48.026 51.0465 47.9274 51.144ZM41.2668 48.4589C41.8176 49.8064 43.6593 50.9442 45.3694 51.006C46.2876 51.0404 47.0214 50.7719 47.3778 50.2667C47.6531 49.8766 47.68 49.3716 47.4479 48.8111C46.8486 47.3453 44.8248 46.1797 43.0229 46.2572C42.2376 46.2924 41.6158 46.5748 41.3157 47.0381C41.0685 47.4282 41.0521 47.9228 41.2668 48.4589Z" fill="#111838"/>
<path d="M45.0053 36.3244C45.6219 37.8285 47.6136 39.109 49.5481 39.1777C51.5946 39.2533 52.789 37.9677 52.1065 36.2999C51.424 34.6322 49.1834 33.3553 47.2027 33.4433C45.3306 33.5278 44.3851 34.8168 45.0053 36.3244Z" fill="#FFC37D"/>
<path d="M52.1224 38.8212C51.5308 39.4065 50.611 39.7134 49.5246 39.6722C47.429 39.5966 45.2381 38.2082 44.5452 36.5161C44.2022 35.684 44.2517 34.8586 44.6755 34.1968C45.1593 33.4478 46.0482 33.0051 47.177 32.9558C49.3926 32.8572 51.8042 34.2768 52.5595 36.1151C52.9163 36.989 52.8526 37.8423 52.3798 38.5111C52.3127 38.6191 52.221 38.7236 52.1224 38.8212ZM45.694 34.4992C45.6236 34.5689 45.5636 34.6421 45.5142 34.7187C45.26 35.1089 45.2471 35.5999 45.4654 36.1326C46.0162 37.48 47.8578 38.6178 49.568 38.6797C50.4896 38.7106 51.2235 38.442 51.5764 37.9404C51.8516 37.5502 51.8751 37.0488 51.6464 36.4847C51.0471 35.0189 49.0233 33.8533 47.2214 33.9308C46.5693 33.966 46.0286 34.1682 45.694 34.4992Z" fill="#111838"/>
<path d="M49.1933 24.0015C49.81 25.5056 51.8016 26.7861 53.7361 26.8548C55.7826 26.9304 56.977 25.6448 56.2945 23.9771C55.612 22.3093 53.3715 21.0324 51.3907 21.1204C49.5222 21.2084 48.5802 22.4939 49.1933 24.0015Z" fill="#FFC37D"/>
<path d="M56.3104 26.4983C55.7188 27.0837 54.799 27.3906 53.7127 27.3493C51.617 27.2738 49.4261 25.8854 48.7297 24.1898C48.3903 23.3542 48.4363 22.5323 48.867 21.8704C49.3508 21.1215 50.2362 20.6822 51.365 20.6329C53.5806 20.5343 55.9958 21.9505 56.7475 23.7923C57.1078 24.6697 57.0442 25.5159 56.5713 26.1848C56.5007 26.2963 56.409 26.4008 56.3104 26.4983ZM49.6533 23.8167C50.2077 25.1606 52.0458 26.302 53.7559 26.3638C54.6776 26.3947 55.4114 26.1262 55.7643 25.6245C56.0396 25.2343 56.063 24.7329 55.8344 24.1688C55.2351 22.703 53.2113 21.5374 51.4094 21.6149C50.6241 21.6502 50.0058 21.936 49.7057 22.3993C49.4515 22.7895 49.4351 23.277 49.6533 23.8167Z" fill="#111838"/>
<path d="M54.0755 12.3643C54.6922 13.8684 56.6839 15.149 58.6183 15.2177C60.6648 15.2932 61.8592 14.0076 61.1767 12.3399C60.4942 10.6722 58.2537 9.39524 56.2729 9.48329C54.4009 9.5678 53.4553 10.8568 54.0755 12.3643Z" fill="#FFC37D"/>
<path d="M61.1962 14.8577C60.6045 15.443 59.6847 15.7499 58.5984 15.7087C56.5028 15.6331 54.3118 14.2447 53.619 12.5526C53.276 11.7205 53.3255 10.8951 53.7493 10.2333C54.233 9.4843 55.1219 9.04159 56.2508 8.99228C58.4664 8.89366 60.878 10.3133 61.6333 12.1516C61.9936 13.029 61.9264 13.8788 61.4535 14.5476C61.3829 14.6591 61.2912 14.7636 61.1962 14.8577ZM54.7642 10.5392C54.6938 10.6089 54.6339 10.6821 54.5844 10.7587C54.3302 11.1488 54.3173 11.6399 54.5356 12.1726C55.0864 13.52 56.9281 14.6578 58.6382 14.7197C59.5598 14.7505 60.2937 14.482 60.6466 13.9804C60.9218 13.5902 60.9488 13.0852 60.7167 12.5247C60.1173 11.0589 58.0936 9.8933 56.2916 9.97082C55.6395 10.006 55.0988 10.2082 54.7642 10.5392Z" fill="#111838"/>
<path d="M74.7969 72.2445C75.4136 73.7486 77.4053 75.0291 79.3397 75.0978C81.3862 75.1734 82.5806 73.8878 81.8981 72.2201C81.2156 70.5523 78.9751 69.2754 76.9943 69.3634C75.1258 69.4514 74.1838 70.7369 74.7969 72.2445Z" fill="#FFC37D"/>
<path d="M81.914 74.7413C81.3224 75.3267 80.4026 75.6336 79.3163 75.5923C77.2206 75.5168 75.0332 74.1318 74.3368 72.4363C73.9973 71.6007 74.0469 70.7753 74.4741 70.1169C74.9544 69.3714 75.8433 68.9287 76.9721 68.8794C79.1877 68.7808 81.6029 70.1969 82.3546 72.0387C82.7149 72.9161 82.6477 73.7659 82.1749 74.4347C82.1043 74.5392 82.0126 74.6438 81.914 74.7413ZM75.2569 72.0597C75.8113 73.4036 77.6494 74.5449 79.3595 74.6068C80.2777 74.6411 81.008 74.3692 81.3679 73.8675C81.6432 73.4773 81.6666 72.9759 81.438 72.4118C80.8387 70.946 78.8149 69.7804 77.013 69.8579C76.2277 69.8931 75.6094 70.179 75.3093 70.6423C75.0551 71.0325 75.0387 71.52 75.2569 72.0597Z" fill="#111838"/>
<path d="M63.2143 63.9343C63.4765 65.5395 65.1332 67.2277 66.999 67.7247C68.9768 68.2496 70.4256 67.2599 70.1327 65.477C69.8433 63.6976 67.945 61.9574 65.9944 61.6066C64.1594 61.2802 62.9521 62.329 63.2143 63.9343Z" fill="#FFC37D"/>
<path d="M69.9927 67.6257C69.9681 67.6501 69.9434 67.6745 69.9152 67.7024C69.2006 68.347 68.0922 68.5286 66.8705 68.2054C64.8402 67.6631 63.0229 65.8288 62.7267 64.0216C62.5802 63.1336 62.8153 62.3535 63.3788 61.789C64.0162 61.1654 64.9742 60.9316 66.0843 61.1295C68.266 61.5219 70.3002 63.4397 70.6203 65.4036C70.7667 66.2916 70.5456 67.0787 69.9927 67.6257ZM64.0659 62.4887C63.7384 62.8127 63.61 63.2864 63.7054 63.8574C63.9403 65.2886 65.4752 66.8131 67.1309 67.2545C68.0201 67.4909 68.7952 67.3895 69.2493 66.9749C69.6083 66.6543 69.7403 66.1702 69.6416 65.5608C69.3897 64.0008 67.6764 62.4102 65.9009 62.0942C65.1305 61.9553 64.4604 62.0984 64.0694 62.4852L64.0659 62.4887Z" fill="#111838"/>
<path d="M52.6435 55.1291C52.7829 56.7518 54.3059 58.5584 56.1325 59.1913C58.0605 59.8624 59.5824 58.9806 59.4263 57.1803C59.2667 55.3834 57.5057 53.5073 55.5943 53.0137C53.7845 52.5515 52.5041 53.5063 52.6435 55.1291Z" fill="#FFC37D"/>
<path d="M59.2483 59.2002C59.185 59.2629 59.1146 59.3256 59.0407 59.3848C58.2773 59.9738 57.1587 60.0753 55.969 59.658C53.985 58.973 52.3085 56.9993 52.1526 55.178C52.0762 54.2831 52.3674 53.5099 52.9692 52.9977C53.6519 52.4262 54.6305 52.262 55.7228 52.5401C57.8617 53.0927 59.7479 55.1568 59.9242 57.1383C59.9903 57.974 59.7555 58.6984 59.2483 59.2002ZM53.5295 53.8157C53.2267 54.1154 53.0914 54.5542 53.1344 55.087C53.2606 56.5356 54.6793 58.1682 56.2924 58.728C57.1567 59.0306 57.9385 58.9849 58.4275 58.6051C58.8075 58.3124 58.9815 57.8352 58.9284 57.2223C58.7887 55.6483 57.2022 53.9393 55.4659 53.4874C54.7027 53.2928 54.0258 53.3872 53.6035 53.7426C53.5788 53.767 53.5542 53.7913 53.5295 53.8157Z" fill="#111838"/>
<path d="M57.1836 42.4647C57.3231 44.0875 58.8461 45.8941 60.6726 46.527C62.6006 47.1981 64.1225 46.3163 63.9664 44.516C63.8068 42.7191 62.0458 40.843 60.1345 40.3494C58.3246 39.8872 57.0442 40.842 57.1836 42.4647Z" fill="#FFC37D"/>
<path d="M63.7885 46.5359C63.7251 46.5986 63.6547 46.6613 63.5808 46.7205C62.8174 47.3094 61.6988 47.411 60.5091 46.9937C58.5251 46.3087 56.8487 44.335 56.6927 42.5137C56.6164 41.6188 56.904 40.8421 57.5093 40.3333C58.192 39.7619 59.1707 39.5977 60.2629 39.8758C62.4018 40.4284 64.2881 42.4925 64.4643 44.4739C64.5304 45.3097 64.2956 46.0341 63.7885 46.5359ZM58.0697 41.1514C57.7668 41.4511 57.6315 41.8899 57.6745 42.4227C57.8008 43.8713 59.2195 45.5039 60.8326 46.0637C61.6968 46.3663 62.4787 46.3206 62.9642 45.9443C63.3441 45.6516 63.5181 45.1744 63.465 44.5615C63.3254 42.9875 61.7353 41.275 60.0025 40.8266C59.2393 40.632 58.5624 40.7263 58.1401 41.0817C58.119 41.1026 58.0943 41.127 58.0697 41.1514Z" fill="#111838"/>
<path d="M61.03 30.4868C61.1694 32.1095 62.6924 33.9162 64.519 34.549C66.447 35.2202 67.9689 34.3384 67.8128 32.5381C67.6532 30.7412 65.8922 28.8651 63.9808 28.3715C62.1675 27.9058 60.8906 28.8641 61.03 30.4868Z" fill="#FFC37D"/>
<path d="M67.6349 34.5579C67.5715 34.6207 67.5011 34.6834 67.4272 34.7426C66.6638 35.3315 65.5452 35.4331 64.3555 35.0158C62.3715 34.3307 60.6951 32.357 60.5391 30.5358C60.4593 29.6374 60.7539 28.8607 61.3592 28.3519C62.0419 27.7805 63.0206 27.6163 64.1093 27.8978C66.2482 28.4505 68.131 30.5111 68.3107 32.496C68.3768 33.3318 68.142 34.0562 67.6349 34.5579ZM61.9161 29.1665C61.6132 29.4662 61.4779 29.905 61.5244 30.4413C61.6507 31.8899 63.0694 33.5225 64.6825 34.0823C65.5467 34.3849 66.3286 34.3392 66.8176 33.9594C67.194 33.6701 67.3716 33.1895 67.3184 32.5766C67.1788 31.0026 65.5887 29.2901 63.8559 28.8417C63.0963 28.6436 62.4194 28.738 61.9971 29.0934C61.9689 29.1212 61.9407 29.1422 61.9161 29.1665Z" fill="#111838"/>
<path d="M65.5669 18.5051C65.7063 20.1278 67.2293 21.9344 69.0559 22.5673C70.9839 23.2384 72.5058 22.3566 72.3497 20.5563C72.1901 18.7594 70.429 16.8833 68.5177 16.3898C66.7044 15.924 65.424 16.8788 65.5669 18.5051Z" fill="#FFC37D"/>
<path d="M72.1717 22.5762C72.1084 22.6389 72.0379 22.7016 71.9641 22.7609C71.2006 23.3498 70.0821 23.4513 68.8924 23.034C66.9119 22.3455 65.2354 20.3788 65.0759 18.5541C64.9961 17.6556 65.2838 16.8789 65.8891 16.3702C66.5718 15.7987 67.5504 15.6346 68.6462 15.9161C70.785 16.4687 72.6678 18.5294 72.8476 20.5143C72.9137 21.35 72.6789 22.0745 72.1717 22.5762ZM66.453 17.1848C66.1501 17.4844 66.0148 17.9233 66.0613 18.4595C66.1841 19.9047 67.6062 21.5407 69.2193 22.1006C70.0836 22.4031 70.8654 22.3574 71.3544 21.9776C71.7274 21.6849 71.9084 21.2077 71.8553 20.5949C71.7156 19.0209 70.1256 17.3083 68.3928 16.86C67.6296 16.6653 66.9492 16.7562 66.5269 17.1116C66.4987 17.1395 66.4741 17.1639 66.453 17.1848Z" fill="#111838"/>
<path d="M67.7544 51.27C68.0166 52.8752 69.6734 54.5634 71.5391 55.0604C73.5169 55.5853 74.9657 54.5956 74.6764 52.8162C74.387 51.0368 72.4886 49.2966 70.538 48.9458C68.696 48.6124 67.4888 49.6612 67.7544 51.27Z" fill="#FFC37D"/>
<path d="M74.5329 54.9614C74.5082 54.9858 74.48 55.0137 74.4554 55.0381C73.7408 55.6827 72.6323 55.8643 71.4106 55.5411C69.3804 54.9988 67.5631 53.1645 67.2668 51.3573C67.1239 50.4728 67.3485 49.6822 67.9049 49.1317C67.9084 49.1282 67.9119 49.1247 67.9155 49.1212C68.5529 48.4976 69.5178 48.2638 70.6279 48.4687C72.8097 48.8611 74.8439 50.7789 75.1639 52.7428C75.3103 53.6308 75.0858 54.4144 74.5329 54.9614ZM68.6026 49.8209C68.2751 50.1449 68.1501 50.6151 68.2455 51.1861C68.4805 52.6173 70.0154 54.1418 71.6711 54.5833C72.5602 54.8196 73.3353 54.7182 73.7965 54.3036C74.1484 53.997 74.2875 53.4989 74.1888 52.8965C73.9369 51.3365 72.2236 49.7459 70.4481 49.4299C69.6742 49.2875 69.004 49.4306 68.6096 49.8139C68.6061 49.8174 68.6026 49.8209 68.6026 49.8209Z" fill="#111838"/>
<path d="M72.2878 39.2917C72.55 40.897 74.2067 42.5851 76.0725 43.0822C78.0503 43.607 79.4991 42.6173 79.2062 40.8344C78.9168 39.0551 77.0185 37.3148 75.0679 36.9641C73.2294 36.6342 72.0221 37.683 72.2878 39.2917Z" fill="#FFC37D"/>
<path d="M79.0662 42.9831C79.0416 43.0075 79.0169 43.0319 78.9887 43.0598C78.2741 43.7044 77.1657 43.886 75.944 43.5628C73.9137 43.0205 72.0964 41.1862 71.8002 39.379C71.6572 38.4945 71.8818 37.7039 72.4382 37.1534C72.4418 37.1499 72.4453 37.1465 72.4488 37.143C73.0862 36.5193 74.0477 36.289 75.1578 36.4869C77.3395 36.8794 79.3737 38.7971 79.6937 40.7611C79.8402 41.649 79.6191 42.4361 79.0662 42.9831ZM73.1359 37.8426C72.8084 38.1666 72.68 38.6403 72.7754 39.2114C73.0103 40.6425 74.5452 42.167 76.2009 42.6085C77.0901 42.8448 77.8651 42.7435 78.3228 42.3323C78.6713 42.0152 78.8138 41.5276 78.7151 40.9183C78.4597 39.3548 76.7499 37.7677 74.9744 37.4517C74.204 37.3127 73.5339 37.4558 73.1395 37.8391C73.1395 37.8391 73.1394 37.8391 73.1359 37.8426Z" fill="#111838"/>
<path d="M76.8247 27.3099C77.0868 28.9152 78.7436 30.6034 80.6094 31.1004C82.5871 31.6253 84.036 30.6355 83.7431 28.8527C83.4537 27.0733 81.5553 25.3331 79.6048 24.9823C77.7662 24.6524 76.559 25.7012 76.8247 27.3099Z" fill="#FFC37D"/>
<path d="M83.6031 31.0014C83.5784 31.0258 83.5538 31.0502 83.5256 31.0781C82.811 31.7227 81.7026 31.9043 80.4809 31.581C78.4541 31.0423 76.6333 29.2045 76.337 27.3972C76.1906 26.5093 76.4294 25.6908 76.9857 25.1612C77.6231 24.5375 78.5881 24.3037 79.6947 24.5052C81.8764 24.8976 83.9106 26.8154 84.2306 28.7793C84.3771 29.6672 84.156 30.4544 83.6031 31.0014ZM77.6728 25.8608C77.3453 26.1849 77.2168 26.6585 77.3157 27.2261C77.5507 28.6573 79.0856 30.1818 80.7413 30.6232C81.6305 30.8596 82.4056 30.7582 82.8597 30.3436C83.2152 30.0265 83.3543 29.5354 83.252 28.9295C83.0001 27.3695 81.2868 25.7789 79.5113 25.4629C78.7409 25.324 78.0708 25.4671 77.6764 25.8504C77.6763 25.8574 77.6763 25.8574 77.6728 25.8608Z" fill="#111838"/>
<path d="M78.9919 59.9216C79.6086 61.4257 81.6003 62.7063 83.5347 62.775C85.5812 62.8506 86.7756 61.5649 86.0931 59.8972C85.4106 58.2295 83.1701 56.9525 81.1893 57.0406C79.3173 57.1251 78.3718 58.4141 78.9919 59.9216Z" fill="#FFC37D"/>
<path d="M86.1091 62.4185C85.5174 63.0038 84.5976 63.3107 83.5113 63.2695C81.4157 63.1939 79.2282 61.809 78.5318 60.1134C78.1888 59.2813 78.2384 58.4559 78.6657 57.7906C79.1494 57.0416 80.0383 56.5989 81.1672 56.5496C83.3828 56.451 85.7944 57.8706 86.5497 59.7089C86.91 60.5863 86.8428 61.4361 86.3699 62.1049C86.2993 62.2164 86.2077 62.3209 86.1091 62.4185ZM79.6806 58.0965C79.6102 58.1662 79.5503 58.2394 79.5008 58.316C79.2466 58.7062 79.2337 59.1972 79.452 59.7299C80.0063 61.0738 81.848 62.2186 83.5581 62.2804C84.4762 62.3148 85.2066 62.0428 85.5665 61.5412C85.8418 61.151 85.8687 60.646 85.6366 60.0855C85.0372 58.6197 83.0135 57.4541 81.2115 57.5316C80.5559 57.5633 80.0152 57.7655 79.6806 58.0965Z" fill="#111838"/>
<path d="M83.1834 47.5953C83.8001 49.0994 85.7918 50.3799 87.7262 50.4486C89.7728 50.5242 90.9671 49.2386 90.2847 47.5709C89.6022 45.9031 87.3616 44.6262 85.3809 44.7143C83.5088 44.8057 82.5668 46.0912 83.1834 47.5953Z" fill="#FFC37D"/>
<path d="M90.3041 50.0886C89.7125 50.674 88.7927 50.9809 87.7063 50.9396C85.6107 50.8641 83.4198 49.4757 82.7234 47.7801C82.3839 46.9515 82.4299 46.1296 82.8537 45.4677C83.3375 44.7188 84.2263 44.276 85.3552 44.2198C87.5708 44.1211 89.986 45.5373 90.7412 47.3826C91.1015 48.26 91.0379 49.1062 90.565 49.7751C90.4908 49.8901 90.3992 49.9946 90.3041 50.0886ZM83.8757 45.7737C83.8052 45.8433 83.7453 45.9165 83.6923 45.9966C83.4416 46.3833 83.4253 46.8708 83.647 47.407C84.1978 48.7544 86.0395 49.8923 87.7531 49.9576C88.6748 49.9885 89.4051 49.7165 89.7615 49.2183C90.0368 48.8281 90.0637 48.3232 89.8316 47.7626C89.2323 46.2968 87.2085 45.1312 85.4065 45.2087C84.7475 45.2369 84.2102 45.4427 83.8757 45.7737Z" fill="#111838"/>
<path d="M88.0621 35.9616C88.6788 37.4657 90.6705 38.7462 92.6049 38.8149C94.6515 38.8905 95.8458 37.6049 95.1633 35.9372C94.4809 34.2694 92.2403 32.9925 90.2596 33.0806C88.3875 33.1651 87.4455 34.4506 88.0621 35.9616Z" fill="#FFC37D"/>
<path d="M95.1793 38.4584C94.5876 39.0438 93.6679 39.3507 92.5815 39.3094C90.4859 39.2339 88.2984 37.849 87.6021 36.1534C87.2626 35.3178 87.3121 34.4924 87.7394 33.8271C88.2197 33.0816 89.112 32.6424 90.2409 32.593C92.4565 32.4944 94.8681 33.914 95.6234 35.7524C95.9837 36.6298 95.9165 37.4795 95.4436 38.1484C95.3695 38.2564 95.2779 38.3609 95.1793 38.4584ZM88.5187 35.7733C89.073 37.1173 90.9112 38.2586 92.6248 38.3239C93.5429 38.3583 94.2838 38.0897 94.6332 37.5846C94.9085 37.1945 94.9354 36.6895 94.7033 36.1289C94.1039 34.6631 92.0802 33.4976 90.2782 33.5751C89.4929 33.6103 88.8677 33.8962 88.5711 34.356C88.3168 34.7461 88.3005 35.2337 88.5187 35.7733Z" fill="#111838"/>
<path d="M88.484 78.0429C89.6386 79.195 91.9745 79.6082 93.7933 78.9317C95.714 78.2169 96.3212 76.5763 95.041 75.2989C93.7643 74.025 91.1932 73.7059 89.3981 74.5461C87.7014 75.3444 87.3294 76.8908 88.484 78.0429Z" fill="#FFC37D"/>
<path d="M95.4322 78.4956C95.0589 78.8649 94.5597 79.1716 93.9663 79.3983C91.993 80.1305 89.4295 79.693 88.1318 78.3982C87.4935 77.7613 87.2203 76.9848 87.3572 76.2117C87.5121 75.3375 88.1606 74.5919 89.1864 74.1109C91.1957 73.1696 93.9769 73.5513 95.3896 74.961C96.0628 75.6327 96.3323 76.4405 96.1568 77.2381C96.0565 77.6908 95.8055 78.1263 95.4322 78.4956ZM88.8045 75.5354C88.5474 75.7897 88.3848 76.0753 88.3308 76.3714C88.248 76.8276 88.4246 77.2837 88.8362 77.6944C89.8652 78.7212 92.0121 79.0719 93.6203 78.4721C94.484 78.1513 95.0544 77.6217 95.1904 77.0226C95.2943 76.5594 95.1178 76.0824 94.6853 75.6508C93.5621 74.5301 91.2362 74.2317 89.6027 74.9952C89.2866 75.1416 89.0158 75.3263 88.8045 75.5354Z" fill="#111838"/>
<path d="M92.3271 66.7475C93.4817 67.8996 95.8176 68.3128 97.6364 67.6363C99.5571 66.9215 100.164 65.281 98.8841 64.0036C97.6074 62.7296 95.0363 62.4105 93.2412 63.2507C91.5445 64.049 91.1725 65.5954 92.3271 66.7475Z" fill="#FFC37D"/>
<path d="M99.2754 67.1932C98.902 67.5626 98.4029 67.8693 97.8094 68.0959C95.8361 68.8282 93.2726 68.3907 91.975 67.0959C91.3366 66.4589 91.0634 65.6825 91.2003 64.9093C91.3553 64.0352 92.0037 63.2896 93.0295 62.8085C95.0389 61.8673 97.82 62.249 99.2327 63.6586C99.906 64.3304 100.175 65.1382 99.9999 65.9357C99.8996 66.3955 99.6451 66.8274 99.2754 67.1932ZM92.6476 64.24C92.394 64.4908 92.2279 64.78 92.1739 65.076C92.0911 65.5322 92.2677 65.9883 92.6793 66.3991C93.7083 67.4259 95.8552 67.7765 97.4634 67.1767C98.3271 66.8559 98.8975 66.3263 99.0335 65.7273C99.1374 65.2641 98.9609 64.7871 98.5284 64.3555C97.4052 63.2347 95.0793 62.9364 93.4458 63.6998C93.1297 63.8462 92.8589 64.0309 92.6476 64.24Z" fill="#111838"/>
<path d="M96.8605 54.7692C98.0151 55.9213 100.351 56.3346 102.17 55.6581C104.09 54.9432 104.698 53.3027 103.417 52.0253C102.141 50.7514 99.5696 50.4323 97.7745 51.2724C96.0778 52.0707 95.7059 53.6171 96.8605 54.7692Z" fill="#FFC37D"/>
<path d="M103.812 55.2185C103.439 55.5878 102.94 55.8945 102.346 56.1211C100.373 56.8534 97.8094 56.4159 96.5118 55.1211C95.8734 54.4841 95.6003 53.7077 95.7372 52.9345C95.8921 52.0604 96.5406 51.3148 97.5663 50.8337C99.5757 49.8925 102.36 50.2776 103.77 51.6838C104.443 52.3556 104.712 53.1634 104.537 53.961C104.433 54.4172 104.182 54.8526 103.812 55.2185ZM97.1809 52.2617C96.9239 52.5161 96.7613 52.8017 96.7073 53.0977C96.6245 53.554 96.801 54.0101 97.2127 54.4208C98.2417 55.4476 100.389 55.7983 101.997 55.1985C102.86 54.8777 103.431 54.348 103.567 53.749C103.671 53.2858 103.494 52.8088 103.062 52.3772C101.939 51.2564 99.6127 50.9581 97.9792 51.7215C97.663 51.868 97.3923 52.0527 97.1809 52.2617Z" fill="#111838"/>
<path d="M100.704 43.4738C101.858 44.6259 104.194 45.0392 106.013 44.3627C107.934 43.6478 108.541 42.0073 107.261 40.7299C105.984 39.456 103.413 39.1369 101.618 39.977C99.9209 40.7754 99.549 42.3217 100.704 43.4738Z" fill="#FFC37D"/>
<path d="M107.652 43.9196C107.279 44.2889 106.779 44.5956 106.186 44.8223C104.213 45.5546 101.649 45.1171 100.351 43.8223C99.713 43.1853 99.4399 42.4089 99.5768 41.6357C99.7317 40.7615 100.38 40.016 101.409 39.5314C103.419 38.5901 106.2 38.9718 107.613 40.3815C108.286 41.0533 108.555 41.8611 108.38 42.6586C108.276 43.1218 108.022 43.5538 107.652 43.9196ZM101.024 40.9663C100.767 41.2207 100.604 41.5063 100.55 41.8024C100.468 42.2586 100.644 42.7147 101.056 43.1254C102.085 44.1522 104.232 44.5029 105.84 43.9031C106.704 43.5823 107.274 43.0527 107.41 42.4536C107.514 41.9904 107.337 41.5134 106.905 41.0818C105.782 39.961 103.456 39.6627 101.822 40.4262C101.506 40.5726 101.235 40.7573 101.024 40.9663Z" fill="#111838"/>
<path d="M24.9997 16.4393C26.4754 17.149 28.822 16.7752 30.3175 15.5452C31.8975 14.2454 31.9269 12.4973 30.2974 11.711C28.6678 10.9248 26.1311 11.4659 24.7085 12.8456C23.3668 14.1522 23.5275 15.7331 24.9997 16.4393Z" fill="#FFC37D"/>
<path d="M30.9656 15.6249C30.8599 15.7295 30.7508 15.8305 30.6311 15.9281C29.0089 17.2627 26.4378 17.6853 24.7803 16.8852C23.9655 16.4921 23.4498 15.8516 23.3203 15.0785C23.1808 14.2045 23.5392 13.2885 24.3597 12.4975C25.9514 10.9506 28.7124 10.4025 30.5133 11.2687C31.37 11.6827 31.8925 12.358 31.9868 13.1659C32.0879 14.0016 31.7192 14.8793 30.9656 15.6249ZM25.0327 13.2181C24.4833 13.7616 24.2175 14.3781 24.3025 14.9179C24.3739 15.374 24.6911 15.7465 25.2156 15.9969C26.5305 16.6301 28.6738 16.2564 30.0004 15.1657C30.7112 14.5803 31.0755 13.8941 31.0048 13.2847C30.951 12.8112 30.627 12.4178 30.0744 12.1534C28.6442 11.4611 26.3427 11.9429 25.0468 13.1972C25.0468 13.2041 25.0397 13.2111 25.0327 13.2181Z" fill="#111838"/>
<path d="M21.505 26.7107C22.9807 27.4204 25.3273 27.0466 26.8228 25.8165C28.4028 24.5168 28.4322 22.7686 26.8027 21.9824C25.1731 21.1962 22.6365 21.7372 21.2138 23.117C19.8757 24.4201 20.0328 25.9975 21.505 26.7107Z" fill="#FFC37D"/>
<path d="M27.4709 25.8963C27.3652 26.0008 27.2561 26.1019 27.14 26.196C25.5178 27.5305 22.9466 27.9532 21.2891 27.1531C20.4743 26.76 19.9587 26.1125 19.8362 25.3395C19.6967 24.4654 20.0692 23.5424 20.8755 22.7654C22.4672 21.2184 25.2282 20.6703 27.0291 21.5366C27.8859 21.9505 28.4084 22.6259 28.5026 23.4337C28.5933 24.273 28.2245 25.1507 27.4709 25.8963ZM21.7209 26.2683C23.0358 26.9015 25.1791 26.5278 26.5057 25.4371C27.213 24.8552 27.5808 24.1655 27.5102 23.5561C27.4563 23.0825 27.1323 22.6892 26.5797 22.4248C25.1495 21.7325 22.848 22.2142 21.5521 23.4685C21.0062 24.0156 20.7193 24.6391 20.8044 25.1788C20.8828 25.6349 21.1999 26.0144 21.7209 26.2683Z" fill="#111838"/>
<path d="M17.6687 37.32C19.1444 38.0297 21.491 37.6559 22.9865 36.4259C24.5665 35.1261 24.5959 33.378 22.9664 32.5918C21.3368 31.8055 18.8001 32.3466 17.3775 33.7263C16.0358 35.0329 16.193 36.6104 17.6687 37.32Z" fill="#FFC37D"/>
<path d="M23.6346 36.5057C23.5324 36.6067 23.4198 36.7112 23.3037 36.8053C21.6815 38.1399 19.1103 38.5625 17.4528 37.7624C16.638 37.3693 16.1223 36.7288 15.9964 35.9523C15.8569 35.0783 16.2153 34.1552 17.0357 33.3713C18.6274 31.8243 21.3885 31.2762 23.1894 32.1424C24.0461 32.5564 24.5686 33.2317 24.6629 34.0396C24.757 34.8823 24.3882 35.76 23.6346 36.5057ZM17.7017 34.0988C17.1523 34.6423 16.8865 35.2588 16.968 35.7951C17.0394 36.2512 17.3566 36.6237 17.8846 36.8777C19.1995 37.5108 21.3428 37.1371 22.6694 36.0465C23.3802 35.4611 23.7445 34.7748 23.6738 34.1654C23.62 33.6919 23.296 33.2985 22.7435 33.0341C21.3132 32.3418 19.0117 32.8236 17.7158 34.0779C17.7158 34.0848 17.7087 34.0918 17.7017 34.0988Z" fill="#111838"/>
<path d="M13.477 48.9603C14.9526 49.67 17.2993 49.2962 18.7948 48.0662C20.3748 46.7665 20.4042 45.0183 18.7746 44.2321C17.1451 43.4459 14.6084 43.9869 13.1858 45.3666C11.8476 46.6697 12.0013 48.2507 13.477 48.9603Z" fill="#FFC37D"/>
<path d="M19.4428 48.146C19.3372 48.2505 19.228 48.3515 19.1119 48.4456C17.4897 49.7802 14.9185 50.2028 13.261 49.4027C12.4463 49.0096 11.9306 48.3691 11.8046 47.5926C11.6651 46.7186 12.048 45.813 12.844 45.0116C14.4357 43.4646 17.1967 42.9165 18.9976 43.7827C19.8543 44.1967 20.3768 44.872 20.4711 45.6799C20.5652 46.5226 20.1965 47.4003 19.4428 48.146ZM13.5099 45.7391C12.9606 46.2826 12.6947 46.8991 12.7833 47.4354C12.8547 47.8915 13.1719 48.264 13.6964 48.5145C15.0112 49.1476 17.1546 48.7739 18.4812 47.6833C19.192 47.0979 19.5563 46.4117 19.4856 45.8023C19.4318 45.3287 19.1077 44.9353 18.5552 44.671C17.125 43.9787 14.8234 44.4604 13.5276 45.7147C13.524 45.7252 13.517 45.7321 13.5099 45.7391Z" fill="#111838"/>
</svg>
