<svg width="85" height="91" viewBox="0 0 85 91" fill="none" xmlns="http://www.w3.org/2000/svg">
<path d="M83.779 19.9308L42.2652 39.0719L1.12707 19.9308L40.5746 1.95261L83.779 19.9308Z" fill="#FFC37D"/>
<path d="M42.2652 40.0557C42.0773 40.0557 41.9834 40.0557 41.7956 39.9663L0.657458 20.8253C0.281768 20.6464 0 20.3781 0 19.9308C0 19.4836 0.187845 19.1259 0.657458 19.0364L40.105 1.05817C40.3867 0.968728 40.7624 0.968728 41.0442 1.05817L84.2486 19.0364C84.6243 19.2153 84.9061 19.4836 84.9061 19.9308C84.9061 20.3781 84.7182 20.7358 84.2486 20.8253L42.6409 39.9663C42.547 40.0557 42.3591 40.0557 42.2652 40.0557ZM3.56906 19.9308L42.2652 37.9985L81.2431 19.9308L40.5746 3.02594L3.56906 19.9308Z" fill="#111838"/>
<path d="M42.2652 39.0719V89.4288L1.12707 70.2878V19.9308L42.2652 39.0719Z" fill="#FFC37D"/>
<path d="M42.2652 90.4127C42.0773 90.4127 41.9834 90.4127 41.7956 90.3232L0.657458 71.1822C0.281768 71.0033 0 70.735 0 70.2878V19.9308C0 19.5731 0.187845 19.2153 0.469613 19.0364C0.751381 18.8575 1.22099 18.8575 1.50276 18.947L42.6409 38.088C43.0166 38.2669 43.2983 38.5352 43.2983 38.9824V89.4288C43.2983 89.7866 43.1105 90.1444 42.8287 90.3232C42.6409 90.4127 42.453 90.4127 42.2652 90.4127ZM2.25414 69.6617L41.232 87.8188V39.7874L2.25414 21.4514V69.6617Z" fill="#111838"/>
<path d="M42.2652 39.0719V89.4288L83.4033 70.2878L83.779 19.9308L42.2652 39.0719Z" fill="#FFC37D"/>
<path d="M42.2652 90.4127C42.0773 90.4127 41.8895 90.3232 41.7956 90.2338C41.5138 90.0549 41.326 89.7866 41.326 89.3394V39.0719C41.326 38.7141 41.5138 38.2669 41.9834 38.1774L83.4972 19.0364C83.779 18.8575 84.2486 18.947 84.5304 19.1259C84.8122 19.3047 85 19.5731 85 20.0203L84.6243 70.3772C84.6243 70.735 84.4365 71.0928 83.9668 71.2717L42.6409 90.3232C42.547 90.4127 42.3591 90.4127 42.2652 90.4127ZM43.2983 39.7874V87.9083L82.2762 69.6617L82.6519 21.5408L43.2983 39.7874Z" fill="#111838"/>
<path d="M26.9558 9.10813L67.3425 27.0864V47.6585L58.6077 51.5046V31.9163L17.9392 13.4014L26.9558 9.10813Z" fill="#FFC37D"/>
<path d="M58.6077 52.4884C58.4199 52.4884 58.232 52.399 57.9503 52.3096C57.6685 52.1307 57.4807 51.8623 57.4807 51.4151V32.5424L17.4696 14.2959C17.0939 14.117 16.8122 13.8487 16.8122 13.4014C16.8122 12.9542 17 12.5964 17.4696 12.507L26.4862 8.21369C26.768 8.12425 27.1436 8.12425 27.4254 8.21369L68 26.1919C68.3757 26.3708 68.6575 26.6391 68.6575 27.0864V47.569C68.6575 47.9268 68.4696 48.374 68 48.4635L59.1713 52.399C58.8895 52.4884 58.7956 52.4884 58.6077 52.4884ZM20.2873 13.4014L59.0773 31.0219C59.453 31.2008 59.7348 31.4691 59.7348 31.9163V49.8946L66.4972 46.9429V27.7125L27.0497 10.1815L20.2873 13.4014Z" fill="#111838"/>
</svg>
