<svg width="80" height="89" viewBox="0 0 80 89" fill="none" xmlns="http://www.w3.org/2000/svg">
<path d="M79.0097 19.2772L39.8019 38.2264L0.990096 19.2772L38.2177 1.51229L79.0097 19.2772Z" fill="#FFC37D"/>
<path d="M39.8019 39.2134C39.6514 39.2134 39.5048 39.1818 39.3662 39.1147L0.554454 20.1654C0.213861 19.9996 0 19.6522 0 19.2732C0 18.8943 0.221782 18.5508 0.562375 18.389L37.79 0.624042C38.0514 0.501661 38.3484 0.493766 38.6138 0.608251L79.4057 18.3732C79.7582 18.5271 79.9919 18.8745 79.9998 19.2575C80.0077 19.6443 79.7899 19.9957 79.4414 20.1654L40.2336 39.1147C40.0989 39.1818 39.9484 39.2134 39.8019 39.2134ZM3.26336 19.289L39.8058 37.129L76.6453 19.3246L38.2375 2.59792L3.26336 19.289Z" fill="#1E275C"/>
<path d="M39.8019 38.2264V87.9682L0.990096 69.0189V19.2772L39.8019 38.2264Z" fill="#FFC37D"/>
<path d="M39.8019 88.9551C39.6514 88.9551 39.5048 88.9235 39.3662 88.8564L0.554454 69.9072C0.213861 69.7414 0 69.3979 0 69.0189V19.2772C0 18.9377 0.174257 18.6219 0.467325 18.4403C0.756433 18.2587 1.12079 18.2429 1.42574 18.3929L40.2375 37.3421C40.5781 37.5079 40.792 37.8514 40.792 38.2304V87.9721C40.792 88.3116 40.6138 88.6314 40.3246 88.8091C40.1662 88.9038 39.9841 88.9551 39.8019 88.9551ZM1.98019 68.4031L38.8118 86.3851V38.8423L1.98019 20.8602V68.4031Z" fill="#1E275C"/>
<path d="M39.8019 38.2264V87.9682L78.6137 69.0189L79.0097 19.2772L39.8019 38.2264Z" fill="#FFC37D"/>
<path d="M39.8019 88.9551C39.6197 88.9551 39.4375 88.9038 39.2791 88.8051C38.99 88.6235 38.8118 88.3077 38.8118 87.9682V38.2264C38.8118 37.8474 39.0296 37.504 39.3702 37.3382L78.578 18.389C78.8869 18.2389 79.2513 18.2587 79.5404 18.4442C79.8295 18.6258 80.0037 18.9456 79.9998 19.2851L79.6038 69.0268C79.5998 69.4019 79.3859 69.7414 79.0493 69.9072L40.2375 88.8564C40.0989 88.9235 39.9484 88.9551 39.8019 88.9551ZM40.792 38.8462V86.3891L77.6275 68.4031L78.0077 20.8602L40.792 38.8462Z" fill="#1E275C"/>
<path d="M4.58217 71.5495C4.47128 71.5495 4.38415 71.4626 4.38415 71.3521V21.6103C4.38415 21.4998 4.47128 21.4129 4.58217 21.4129C4.69306 21.4129 4.78019 21.4998 4.78019 21.6103V71.3521C4.78019 71.4626 4.69306 71.5495 4.58217 71.5495Z" fill="#1E275C"/>
<path d="M8.11879 72.7693C8.0079 72.7693 7.92077 72.6825 7.92077 72.5719V22.8302C7.92077 22.7196 8.0079 22.6328 8.11879 22.6328C8.22968 22.6328 8.31681 22.7196 8.31681 22.8302V72.5719C8.31681 72.6825 8.22968 72.7693 8.11879 72.7693Z" fill="#1E275C"/>
<path d="M12.0792 75.138C11.9683 75.138 11.8812 75.0511 11.8812 74.9406V25.1988C11.8812 25.0883 11.9683 25.0014 12.0792 25.0014C12.1901 25.0014 12.2772 25.0883 12.2772 25.1988V74.9406C12.2772 75.0511 12.1901 75.138 12.0792 75.138Z" fill="#1E275C"/>
<path d="M16.0396 77.1118C15.9287 77.1118 15.8415 77.025 15.8415 76.9145V27.1727C15.8415 27.0622 15.9287 26.9753 16.0396 26.9753C16.1505 26.9753 16.2376 27.0622 16.2376 27.1727V76.9145C16.2376 77.025 16.1505 77.1118 16.0396 77.1118Z" fill="#1E275C"/>
<path d="M19.9999 79.0857C19.8891 79.0857 19.8019 78.9989 19.8019 78.8883V29.1466C19.8019 29.0361 19.8891 28.9492 19.9999 28.9492C20.1108 28.9492 20.198 29.0361 20.198 29.1466V78.8883C20.198 78.9989 20.1108 79.0857 19.9999 79.0857Z" fill="#1E275C"/>
<path d="M23.9603 81.0596C23.8494 81.0596 23.7623 80.9728 23.7623 80.8622V31.1205C23.7623 31.0099 23.8494 30.9231 23.9603 30.9231C24.0712 30.9231 24.1584 31.0099 24.1584 31.1205V80.8622C24.1584 80.9728 24.0712 81.0596 23.9603 81.0596Z" fill="#1E275C"/>
<path d="M27.9207 83.0335C27.8098 83.0335 27.7227 82.9466 27.7227 82.8361V33.0943C27.7227 32.9838 27.8098 32.897 27.9207 32.897C28.0316 32.897 28.1187 32.9838 28.1187 33.0943V82.8361C28.1187 82.9466 28.0316 83.0335 27.9207 83.0335Z" fill="#1E275C"/>
<path d="M31.8811 85.0074C31.7702 85.0074 31.6831 84.9205 31.6831 84.81V35.0682C31.6831 34.9577 31.7702 34.8708 31.8811 34.8708C31.992 34.8708 32.0791 34.9577 32.0791 35.0682V84.81C32.0791 84.9205 31.992 85.0074 31.8811 85.0074Z" fill="#1E275C"/>
<path d="M35.8415 86.5865C35.7306 86.5865 35.6435 86.4996 35.6435 86.3891V36.6473C35.6435 36.5368 35.7306 36.4499 35.8415 36.4499C35.9524 36.4499 36.0395 36.5368 36.0395 36.6473V86.3891C36.0395 86.4996 35.9524 86.5865 35.8415 86.5865Z" fill="#1E275C"/>
<path d="M75.0493 71.5495C74.9384 71.5495 74.8513 71.4626 74.8513 71.3521V21.6103C74.8513 21.4998 74.9384 21.4129 75.0493 21.4129C75.1602 21.4129 75.2473 21.4998 75.2473 21.6103V71.3521C75.2473 71.4626 75.1602 71.5495 75.0493 71.5495Z" fill="#1E275C"/>
<path d="M71.5127 72.7693C71.4018 72.7693 71.3147 72.6825 71.3147 72.5719V22.8302C71.3147 22.7196 71.4018 22.6328 71.5127 22.6328C71.6236 22.6328 71.7107 22.7196 71.7107 22.8302V72.5719C71.7107 72.6825 71.6236 72.7693 71.5127 72.7693Z" fill="#1E275C"/>
<path d="M67.5523 75.138C67.4414 75.138 67.3543 75.0511 67.3543 74.9406V25.1988C67.3543 25.0883 67.4414 25.0014 67.5523 25.0014C67.6632 25.0014 67.7503 25.0883 67.7503 25.1988V74.9406C67.7503 75.0511 67.6632 75.138 67.5523 75.138Z" fill="#1E275C"/>
<path d="M63.5919 77.1118C63.481 77.1118 63.3939 77.025 63.3939 76.9145V27.1727C63.3939 27.0622 63.481 26.9753 63.5919 26.9753C63.7028 26.9753 63.7899 27.0622 63.7899 27.1727V76.9145C63.7899 77.025 63.7028 77.1118 63.5919 77.1118Z" fill="#1E275C"/>
<path d="M59.6315 79.0857C59.5206 79.0857 59.4335 78.9989 59.4335 78.8883V29.1466C59.4335 29.0361 59.5206 28.9492 59.6315 28.9492C59.7424 28.9492 59.8295 29.0361 59.8295 29.1466V78.8883C59.8295 78.9989 59.7424 79.0857 59.6315 79.0857Z" fill="#1E275C"/>
<path d="M55.6711 81.0596C55.5602 81.0596 55.4731 80.9728 55.4731 80.8622V31.1205C55.4731 31.0099 55.5602 30.9231 55.6711 30.9231C55.782 30.9231 55.8692 31.0099 55.8692 31.1205V80.8622C55.8692 80.9728 55.782 81.0596 55.6711 81.0596Z" fill="#1E275C"/>
<path d="M51.7108 83.0335C51.5999 83.0335 51.5127 82.9466 51.5127 82.8361V33.0943C51.5127 32.9838 51.5999 32.897 51.7108 32.897C51.8216 32.897 51.9088 32.9838 51.9088 33.0943V82.8361C51.9088 82.9466 51.8216 83.0335 51.7108 83.0335Z" fill="#1E275C"/>
<path d="M47.7504 85.0074C47.6395 85.0074 47.5523 84.9205 47.5523 84.81V35.0682C47.5523 34.9577 47.6395 34.8708 47.7504 34.8708C47.8613 34.8708 47.9484 34.9577 47.9484 35.0682V84.81C47.9484 84.9205 47.8613 85.0074 47.7504 85.0074Z" fill="#1E275C"/>
<path d="M43.79 86.5865C43.6791 86.5865 43.592 86.4996 43.592 86.3891V36.6473C43.592 36.5368 43.6791 36.4499 43.79 36.4499C43.9009 36.4499 43.988 36.5368 43.988 36.6473V86.3891C43.988 86.4996 43.9009 86.5865 43.79 86.5865Z" fill="#1E275C"/>
<path d="M32.6851 34.4247C32.6138 34.4247 32.5425 34.3853 32.5068 34.3142C32.4593 34.2155 32.4989 34.0971 32.5979 34.0497L71.2988 15.0728C71.3978 15.0255 71.5166 15.0649 71.5642 15.1636C71.6117 15.2623 71.5721 15.3808 71.4731 15.4281L32.7722 34.405C32.7445 34.4169 32.7128 34.4247 32.6851 34.4247Z" fill="#1E275C"/>
<path d="M35.8534 36.7934C35.7821 36.7934 35.7108 36.7539 35.6752 36.6829C35.6276 36.5842 35.6672 36.4657 35.7662 36.4184L74.4671 17.4415C74.5661 17.3941 74.685 17.4336 74.7325 17.5323C74.78 17.631 74.7404 17.7494 74.6414 17.7968L35.9405 36.7737C35.9128 36.7855 35.8811 36.7934 35.8534 36.7934Z" fill="#1E275C"/>
<path d="M16.4039 26.7977C16.3326 26.7977 16.2613 26.7582 16.2257 26.6871C16.1782 26.5884 16.2178 26.47 16.3168 26.4226L53.4375 8.23137C53.5365 8.184 53.6553 8.22348 53.7028 8.32217C53.7504 8.42086 53.7107 8.5393 53.6117 8.58667L16.491 26.7779C16.4633 26.7898 16.4316 26.7977 16.4039 26.7977Z" fill="#1E275C"/>
<path d="M12.8396 24.8238C12.7683 24.8238 12.697 24.7843 12.6614 24.7133C12.6138 24.6146 12.6534 24.4961 12.7524 24.4488L49.8731 6.25749C49.9721 6.21012 50.091 6.2496 50.1385 6.34829C50.186 6.44698 50.1464 6.56542 50.0474 6.61279L12.9267 24.8041C12.899 24.8159 12.8673 24.8238 12.8396 24.8238Z" fill="#1E275C"/>
<path d="M8.87918 23.2447C8.80394 23.2447 8.73661 23.2052 8.70097 23.1342C8.65344 23.0355 8.69305 22.917 8.79206 22.8697L45.5167 5.07316C45.6157 5.02579 45.7345 5.06527 45.7821 5.16396C45.8296 5.26266 45.79 5.38109 45.691 5.42846L8.96631 23.225C8.93859 23.2368 8.90691 23.2447 8.87918 23.2447Z" fill="#1E275C"/>
<path d="M4.9188 21.2708C4.84355 21.2708 4.77226 21.2313 4.74058 21.1603C4.69306 21.0616 4.73662 20.9432 4.83167 20.8958L41.9524 3.09929C42.0514 3.05191 42.1702 3.09534 42.2177 3.19008C42.2652 3.28878 42.2256 3.40721 42.1266 3.45458L5.00593 21.2511C4.9782 21.2629 4.94652 21.2708 4.9188 21.2708Z" fill="#1E275C"/>
<path d="M20.19 28.74C20.1188 28.74 20.0475 28.7005 20.0118 28.6294C19.9643 28.5307 20.0039 28.4123 20.1029 28.3649L57.2236 10.1737C57.3226 10.1263 57.4414 10.1658 57.489 10.2645C57.5365 10.3632 57.4969 10.4816 57.3979 10.529L20.2772 28.7202C20.2495 28.7321 20.2178 28.74 20.19 28.74Z" fill="#1E275C"/>
<path d="M24.1504 30.7139C24.0791 30.7139 24.0079 30.6744 23.9722 30.6033C23.9247 30.5046 23.9643 30.3862 24.0633 30.3388L61.184 12.1475C61.283 12.1002 61.4018 12.1397 61.4493 12.2383C61.4969 12.337 61.4573 12.4555 61.3583 12.5028L24.2376 30.6941C24.2098 30.706 24.1782 30.7139 24.1504 30.7139Z" fill="#1E275C"/>
<path d="M28.9029 32.293C28.8316 32.293 28.7603 32.2535 28.7247 32.1824C28.6772 32.0837 28.7168 31.9653 28.8158 31.9179L65.9365 13.7266C66.0355 13.6793 66.1543 13.7188 66.2018 13.8174C66.2493 13.9161 66.2097 14.0346 66.1107 14.0819L28.99 32.2732C28.9623 32.2851 28.9306 32.293 28.9029 32.293Z" fill="#1E275C"/>
<path d="M43.79 36.4973C43.7623 36.4973 43.7306 36.4894 43.7029 36.4776L4.83167 17.5797C4.73266 17.5323 4.69306 17.4139 4.74058 17.3152C4.78811 17.2165 4.90692 17.177 5.00593 17.2244L43.8771 36.1223C43.9761 36.1697 44.0157 36.2881 43.9682 36.3868C43.9326 36.4578 43.8613 36.4973 43.79 36.4973Z" fill="#1E275C"/>
<path d="M47.7504 34.5234C47.7226 34.5234 47.691 34.5155 47.6632 34.5037L8.79206 15.6058C8.69305 15.5584 8.65344 15.44 8.70097 15.3413C8.74849 15.2426 8.8673 15.2031 8.96631 15.2505L47.8375 34.1484C47.9365 34.1958 47.9761 34.3142 47.9286 34.4129C47.8929 34.484 47.8217 34.5234 47.7504 34.5234Z" fill="#1E275C"/>
<path d="M55.6711 30.5757C55.6434 30.5757 55.6117 30.5678 55.584 30.5559L16.7128 11.658C16.6138 11.6107 16.5742 11.4922 16.6217 11.3935C16.6693 11.2948 16.7881 11.2554 16.8871 11.3027L55.7583 30.2006C55.8573 30.248 55.8969 30.3664 55.8494 30.4651C55.8137 30.5362 55.7424 30.5757 55.6711 30.5757Z" fill="#1E275C"/>
<path d="M51.7108 32.5496C51.683 32.5496 51.6513 32.5417 51.6236 32.5298L12.7524 13.6319C12.6534 13.5845 12.6138 13.4661 12.6614 13.3674C12.7089 13.2687 12.8277 13.2292 12.9267 13.2766L51.7979 32.1745C51.8969 32.2219 51.9365 32.3403 51.889 32.439C51.8533 32.5101 51.782 32.5496 51.7108 32.5496Z" fill="#1E275C"/>
<path d="M59.2355 28.6018C59.2078 28.6018 59.1761 28.5939 59.1484 28.5821L20.2772 9.68415C20.1782 9.63677 20.1386 9.51834 20.1861 9.41965C20.2336 9.32095 20.3524 9.28147 20.4514 9.32885L59.3226 28.2268C59.4216 28.2741 59.4612 28.3926 59.4137 28.4913C59.3781 28.5623 59.3068 28.6018 59.2355 28.6018Z" fill="#1E275C"/>
<path d="M63.1959 26.6279C63.1681 26.6279 63.1365 26.62 63.1087 26.6082L24.2376 7.71027C24.1385 7.66289 24.0989 7.54446 24.1465 7.44577C24.194 7.34707 24.3128 7.3076 24.4118 7.35497L63.283 26.2529C63.382 26.3003 63.4216 26.4187 63.3741 26.5174C63.3384 26.5884 63.2672 26.6279 63.1959 26.6279Z" fill="#1E275C"/>
<path d="M67.1563 25.0488C67.1285 25.0488 67.0968 25.0409 67.0691 25.0291L28.1979 6.13116C28.0989 6.08379 28.0593 5.96536 28.1069 5.86666C28.1544 5.76797 28.2732 5.72849 28.3722 5.77587L67.2434 24.6738C67.3424 24.7212 67.382 24.8396 67.3345 24.9383C67.2988 25.0093 67.2275 25.0488 67.1563 25.0488Z" fill="#1E275C"/>
<path d="M69.9285 23.0749C69.9008 23.0749 69.8691 23.067 69.8414 23.0552L32.1583 4.94684C32.0593 4.89946 32.0197 4.78103 32.0672 4.68234C32.1148 4.58364 32.2336 4.54416 32.3326 4.59154L70.0157 22.6999C70.1147 22.7473 70.1543 22.8657 70.1067 22.9644C70.0711 23.0355 70.0038 23.0749 69.9285 23.0749Z" fill="#1E275C"/>
<path d="M74.681 21.8906C74.6533 21.8906 74.6255 21.8867 74.5978 21.8709L34.5385 3.36773C34.4395 3.32036 34.3959 3.20588 34.4435 3.10718C34.491 3.00849 34.6058 2.96506 34.7049 3.01244L74.7642 21.5156C74.8632 21.5629 74.9067 21.6774 74.8592 21.7761C74.8275 21.8472 74.7562 21.8906 74.681 21.8906Z" fill="#1E275C"/>
<path d="M40.0791 43.1414C40.0514 43.1414 40.0197 43.1335 39.992 43.1217L1.11683 24.2277C1.01782 24.1803 0.978215 24.0619 1.02574 23.9632C1.07326 23.8645 1.19208 23.825 1.29109 23.8724L40.1662 42.7664C40.2652 42.8137 40.3048 42.9322 40.2573 43.0309C40.2217 43.1019 40.1504 43.1414 40.0791 43.1414Z" fill="#1E275C"/>
<path d="M40.0791 46.6944C40.0514 46.6944 40.0197 46.6865 39.992 46.6746L1.11683 27.7807C1.01782 27.7333 0.978215 27.6149 1.02574 27.5162C1.07326 27.4175 1.19208 27.378 1.29109 27.4254L40.1662 46.3193C40.2652 46.3667 40.3048 46.4851 40.2573 46.5838C40.2217 46.6549 40.1504 46.6944 40.0791 46.6944Z" fill="#1E275C"/>
<path d="M40.0791 50.2474C40.0514 50.2474 40.0197 50.2395 39.992 50.2276L1.11683 31.3336C1.01782 31.2863 0.978215 31.1678 1.02574 31.0691C1.07326 30.9705 1.19208 30.931 1.29109 30.9783L40.1662 49.8723C40.2652 49.9197 40.3048 50.0381 40.2573 50.1368C40.2217 50.2079 40.1504 50.2474 40.0791 50.2474Z" fill="#1E275C"/>
<path d="M40.0791 53.4056C40.0514 53.4056 40.0197 53.3977 39.992 53.3858L1.11683 34.4919C1.01782 34.4445 0.978215 34.326 1.02574 34.2274C1.07326 34.1287 1.19208 34.0892 1.29109 34.1366L40.1662 53.0305C40.2652 53.0779 40.3048 53.1963 40.2573 53.295C40.2217 53.3661 40.1504 53.4056 40.0791 53.4056Z" fill="#1E275C"/>
<path d="M40.0791 56.9585C40.0514 56.9585 40.0197 56.9506 39.992 56.9388L1.11683 38.0448C1.01782 37.9975 0.978215 37.879 1.02574 37.7803C1.07326 37.6816 1.19208 37.6422 1.29109 37.6895L40.1662 56.5835C40.2652 56.6309 40.3048 56.7493 40.2573 56.848C40.2217 56.9191 40.1504 56.9585 40.0791 56.9585Z" fill="#1E275C"/>
<path d="M40.0791 60.5115C40.0514 60.5115 40.0197 60.5036 39.992 60.4918L1.11683 41.5978C1.01782 41.5504 0.978215 41.432 1.02574 41.3333C1.07326 41.2346 1.19208 41.1951 1.29109 41.2425L40.1662 60.1365C40.2652 60.1839 40.3048 60.3023 40.2573 60.401C40.2217 60.472 40.1504 60.5115 40.0791 60.5115Z" fill="#1E275C"/>
<path d="M40.0791 63.6697C40.0514 63.6697 40.0197 63.6618 39.992 63.65L1.11683 44.756C1.01782 44.7087 0.978215 44.5902 1.02574 44.4915C1.07326 44.3928 1.19208 44.3534 1.29109 44.4007L40.1662 63.2947C40.2652 63.3421 40.3048 63.4605 40.2573 63.5592C40.2217 63.6303 40.1504 63.6697 40.0791 63.6697Z" fill="#1E275C"/>
<path d="M40.0791 67.2227C40.0514 67.2227 40.0197 67.2148 39.992 67.203L1.11683 48.309C1.01782 48.2616 0.978215 48.1432 1.02574 48.0445C1.07326 47.9458 1.19208 47.9063 1.29109 47.9537L40.1662 66.8477C40.2652 66.8951 40.3048 67.0135 40.2573 67.1122C40.2217 67.1832 40.1504 67.2227 40.0791 67.2227Z" fill="#1E275C"/>
<path d="M40.0791 70.7757C40.0514 70.7757 40.0197 70.7678 39.992 70.756L1.11683 51.862C1.01782 51.8146 0.978215 51.6962 1.02574 51.5975C1.07326 51.4988 1.19208 51.4593 1.29109 51.5067L40.1662 70.4007C40.2652 70.448 40.3048 70.5665 40.2573 70.6652C40.2217 70.7362 40.1504 70.7757 40.0791 70.7757Z" fill="#1E275C"/>
<path d="M40.0791 74.3287C40.0514 74.3287 40.0197 74.3208 39.992 74.3089L1.11683 55.415C1.01782 55.3676 0.978215 55.2492 1.02574 55.1505C1.07326 55.0518 1.19208 55.0123 1.29109 55.0597L40.1662 73.9536C40.2652 74.001 40.3048 74.1194 40.2573 74.2181C40.2217 74.2892 40.1504 74.3287 40.0791 74.3287Z" fill="#1E275C"/>
<path d="M40.0791 77.8817C40.0514 77.8817 40.0197 77.8738 39.992 77.8619L1.11683 58.968C1.01782 58.9206 0.978215 58.8021 1.02574 58.7035C1.07326 58.6048 1.19208 58.5653 1.29109 58.6127L40.1662 77.5066C40.2652 77.554 40.3048 77.6724 40.2573 77.7711C40.2217 77.8422 40.1504 77.8817 40.0791 77.8817Z" fill="#1E275C"/>
<path d="M40.0791 81.4346C40.0514 81.4346 40.0197 81.4267 39.992 81.4149L1.11683 62.5209C1.01782 62.4736 0.978215 62.3551 1.02574 62.2564C1.07326 62.1577 1.19208 62.1183 1.29109 62.1656L40.1662 81.0596C40.2652 81.107 40.3048 81.2254 40.2573 81.3241C40.2217 81.3952 40.1504 81.4346 40.0791 81.4346Z" fill="#1E275C"/>
<path d="M40.0791 84.5928C40.0514 84.5928 40.0197 84.585 39.992 84.5731L1.11683 65.6791C1.01782 65.6318 0.978215 65.5133 1.02574 65.4146C1.07326 65.3159 1.19208 65.2765 1.29109 65.3238L40.1662 84.2178C40.2652 84.2652 40.3048 84.3836 40.2573 84.4823C40.2217 84.5534 40.1504 84.5928 40.0791 84.5928Z" fill="#1E275C"/>
<path d="M39.2237 43.1414C39.1484 43.1414 39.0811 43.1019 39.0454 43.0309C38.9979 42.9322 39.0375 42.8137 39.1365 42.7664L78.0117 23.8724C78.1107 23.825 78.2295 23.8645 78.277 23.9632C78.3245 24.0619 78.2849 24.1803 78.1859 24.2277L39.3108 43.1217C39.2831 43.1335 39.2514 43.1414 39.2237 43.1414Z" fill="#1E275C"/>
<path d="M39.2237 46.6944C39.1484 46.6944 39.0811 46.6549 39.0454 46.5838C38.9979 46.4851 39.0375 46.3667 39.1365 46.3193L78.0117 27.4254C78.1107 27.378 78.2295 27.4175 78.277 27.5162C78.3245 27.6149 78.2849 27.7333 78.1859 27.7807L39.3108 46.6746C39.2831 46.6865 39.2514 46.6944 39.2237 46.6944Z" fill="#1E275C"/>
<path d="M39.2237 50.2474C39.1484 50.2474 39.0811 50.2079 39.0454 50.1368C38.9979 50.0381 39.0375 49.9197 39.1365 49.8723L78.0117 30.9783C78.1107 30.931 78.2295 30.9705 78.277 31.0691C78.3245 31.1678 78.2849 31.2863 78.1859 31.3336L39.3108 50.2276C39.2831 50.2395 39.2514 50.2474 39.2237 50.2474Z" fill="#1E275C"/>
<path d="M39.2237 53.4056C39.1484 53.4056 39.0811 53.3661 39.0454 53.295C38.9979 53.1963 39.0375 53.0779 39.1365 53.0305L78.0117 34.1366C78.1107 34.0892 78.2295 34.1287 78.277 34.2274C78.3245 34.326 78.2849 34.4445 78.1859 34.4919L39.3108 53.3858C39.2831 53.3977 39.2514 53.4056 39.2237 53.4056Z" fill="#1E275C"/>
<path d="M39.2237 56.9585C39.1484 56.9585 39.0811 56.9191 39.0454 56.848C38.9979 56.7493 39.0375 56.6309 39.1365 56.5835L78.0117 37.6895C78.1107 37.6422 78.2295 37.6816 78.277 37.7803C78.3245 37.879 78.2849 37.9975 78.1859 38.0448L39.3108 56.9388C39.2831 56.9506 39.2514 56.9585 39.2237 56.9585Z" fill="#1E275C"/>
<path d="M39.2237 60.5115C39.1484 60.5115 39.0811 60.472 39.0454 60.401C38.9979 60.3023 39.0375 60.1839 39.1365 60.1365L78.0117 41.2425C78.1107 41.1951 78.2295 41.2346 78.277 41.3333C78.3245 41.432 78.2849 41.5504 78.1859 41.5978L39.3108 60.4918C39.2831 60.5036 39.2514 60.5115 39.2237 60.5115Z" fill="#1E275C"/>
<path d="M39.2237 63.6697C39.1484 63.6697 39.0811 63.6303 39.0454 63.5592C38.9979 63.4605 39.0375 63.3421 39.1365 63.2947L78.0117 44.4007C78.1107 44.3534 78.2295 44.3928 78.277 44.4915C78.3245 44.5902 78.2849 44.7087 78.1859 44.756L39.3108 63.65C39.2831 63.6618 39.2514 63.6697 39.2237 63.6697Z" fill="#1E275C"/>
<path d="M39.2237 67.2227C39.1484 67.2227 39.0811 67.1832 39.0454 67.1122C38.9979 67.0135 39.0375 66.8951 39.1365 66.8477L78.0117 47.9537C78.1107 47.9063 78.2295 47.9458 78.277 48.0445C78.3245 48.1432 78.2849 48.2616 78.1859 48.309L39.3108 67.203C39.2831 67.2148 39.2514 67.2227 39.2237 67.2227Z" fill="#1E275C"/>
<path d="M39.2237 70.7757C39.1484 70.7757 39.0811 70.7362 39.0454 70.6652C38.9979 70.5665 39.0375 70.448 39.1365 70.4007L78.0117 51.5067C78.1107 51.4593 78.2295 51.4988 78.277 51.5975C78.3245 51.6962 78.2849 51.8146 78.1859 51.862L39.3108 70.756C39.2831 70.7678 39.2514 70.7757 39.2237 70.7757Z" fill="#1E275C"/>
<path d="M39.2237 74.3287C39.1484 74.3287 39.0811 74.2892 39.0454 74.2181C38.9979 74.1194 39.0375 74.001 39.1365 73.9536L78.0117 55.0597C78.1107 55.0123 78.2295 55.0518 78.277 55.1505C78.3245 55.2492 78.2849 55.3676 78.1859 55.415L39.3108 74.3089C39.2831 74.3208 39.2514 74.3287 39.2237 74.3287Z" fill="#1E275C"/>
<path d="M39.2237 77.8817C39.1484 77.8817 39.0811 77.8422 39.0454 77.7711C38.9979 77.6724 39.0375 77.554 39.1365 77.5066L78.0117 58.6127C78.1107 58.5653 78.2295 58.6048 78.277 58.7035C78.3245 58.8021 78.2849 58.9206 78.1859 58.968L39.3108 77.8619C39.2831 77.8738 39.2514 77.8817 39.2237 77.8817Z" fill="#1E275C"/>
<path d="M39.2237 81.4346C39.1484 81.4346 39.0811 81.3952 39.0454 81.3241C38.9979 81.2254 39.0375 81.107 39.1365 81.0596L78.0117 62.1656C78.1107 62.1183 78.2295 62.1577 78.277 62.2564C78.3245 62.3551 78.2849 62.4736 78.1859 62.5209L39.3108 81.4149C39.2831 81.4267 39.2514 81.4346 39.2237 81.4346Z" fill="#1E275C"/>
<path d="M39.2237 84.5928C39.1484 84.5928 39.0811 84.5534 39.0454 84.4823C38.9979 84.3836 39.0375 84.2652 39.1365 84.2178L78.0117 65.3238C78.1107 65.2765 78.2295 65.3159 78.277 65.4146C78.3245 65.5133 78.2849 65.6318 78.1859 65.6791L39.3108 84.5731C39.2831 84.585 39.2514 84.5928 39.2237 84.5928Z" fill="#1E275C"/>
</svg>
