<svg width="80" height="95" viewBox="0 0 80 95" fill="none" xmlns="http://www.w3.org/2000/svg">
<path d="M9.10004 24.9965V78.0066L50.5793 57.8123L51.0026 4.80211L9.10004 24.9965Z" fill="#FFC37D"/>
<path d="M9.10004 79.0584C8.90534 79.0584 8.71064 79.0037 8.54134 78.8986C8.23236 78.705 8.0419 78.3685 8.0419 78.0066V24.9965C8.0419 24.5926 8.27469 24.2266 8.63869 24.0499L50.5412 3.8555C50.8713 3.69563 51.2607 3.71667 51.5697 3.9144C51.8787 4.10793 52.0649 4.44871 52.0607 4.81053L51.6374 57.8207C51.6332 58.2204 51.4046 58.5822 51.0449 58.7589L9.56563 78.9533C9.41749 79.0248 9.26088 79.0584 9.10004 79.0584ZM10.1582 25.657V76.3238L49.5254 57.156L49.9317 6.48918L10.1582 25.657Z" fill="#1E275C"/>
<path d="M42.7363 1.2092L1.48987 21.29L9.10004 24.9965L51.0026 4.80211L42.7363 1.2092Z" fill="#FFC37D"/>
<path d="M9.10004 26.0483C8.9392 26.0483 8.7826 26.0146 8.63446 25.9431L1.02428 22.2366C0.660282 22.0599 0.431723 21.6938 0.431723 21.29C0.431723 20.8903 0.660282 20.5201 1.02428 20.3433L42.2707 0.262591C42.5501 0.127962 42.876 0.119548 43.1596 0.241555L51.4258 3.83447C51.8025 3.99855 52.0522 4.36878 52.0607 4.77687C52.0692 5.18917 51.8364 5.56361 51.4639 5.74452L9.56139 25.9389C9.41748 26.0146 9.25665 26.0483 9.10004 26.0483ZM3.89397 21.29L9.10004 23.8269L48.4715 4.8526L42.7575 2.37038L3.89397 21.29Z" fill="#1E275C"/>
<path d="M1.05814 21.5003V74.0898L9.10004 78.0066V25.4172L1.05814 21.5003Z" fill="#FFC37D"/>
<path d="M9.10004 79.0584C8.9392 79.0584 8.7826 79.0248 8.63446 78.9532L0.592561 75.0364C0.22856 74.8597 0 74.4937 0 74.0898V21.5003C0 21.1385 0.186234 20.8019 0.499444 20.6084C0.808422 20.4149 1.19782 20.398 1.52373 20.5579L9.56563 24.4748C9.92963 24.6515 10.1582 25.0175 10.1582 25.4214V78.0108C10.1582 78.3727 9.97195 78.7134 9.65874 78.9028C9.48944 79.0037 9.29474 79.0584 9.10004 79.0584ZM2.11629 73.4335L8.0419 76.3196V26.0735L2.11629 23.1874V73.4335Z" fill="#1E275C"/>
<path d="M22.3268 39.8519C22.166 39.8519 22.0136 39.7636 21.9417 39.6079C21.8443 39.3976 21.9374 39.1451 22.1491 39.0484L39.2572 31.1852C39.4688 31.0884 39.7227 31.181 39.8201 31.3913C39.9174 31.6017 39.8243 31.8541 39.6127 31.9509L22.5046 39.8141C22.4454 39.8393 22.3861 39.8519 22.3268 39.8519Z" fill="#1E275C"/>
<path d="M22.3268 49.7724C22.166 49.7724 22.0136 49.6841 21.9417 49.5284C21.8443 49.318 21.9374 49.0656 22.1491 48.9688L39.2572 41.1057C39.4688 41.0089 39.7227 41.1015 39.8201 41.3118C39.9174 41.5222 39.8243 41.7746 39.6127 41.8714L22.5046 49.7345C22.4454 49.7598 22.3861 49.7724 22.3268 49.7724Z" fill="#1E275C"/>
<path d="M55.6626 44.9258L43.7014 50.6854L31.8628 44.9258L43.2188 39.5196L55.6626 44.9258Z" fill="#FFC37D"/>
<path d="M43.7014 51.7372C43.5405 51.7372 43.3839 51.7035 43.2358 51.632L31.3973 45.8724C31.0333 45.6957 30.8047 45.3254 30.8047 44.9216C30.8047 44.5177 31.0417 44.1516 31.4057 43.9792L42.7617 38.573C43.0411 38.4425 43.3628 38.4341 43.6421 38.5561L56.0859 43.9623C56.4626 44.1264 56.7123 44.4966 56.7208 44.9047C56.7292 45.317 56.4964 45.6915 56.124 45.8724L44.1627 51.632C44.0188 51.7035 43.858 51.7372 43.7014 51.7372ZM34.2923 44.9342L43.7056 49.5158L53.1358 44.9762L43.24 40.6765L34.2923 44.9342Z" fill="#1E275C"/>
<path d="M43.8241 50.8074V78.5578L31.9856 72.794V45.0436L43.8241 50.8074Z" fill="#FFC37D"/>
<path d="M43.8241 79.6096C43.6633 79.6096 43.5067 79.5759 43.3585 79.5044L31.52 73.7406C31.156 73.5639 30.9274 73.1979 30.9274 72.794V45.0436C30.9274 44.6818 31.1137 44.3452 31.4269 44.1516C31.7359 43.9581 32.1253 43.9413 32.4512 44.1012L44.2897 49.865C44.6537 50.0417 44.8822 50.4077 44.8822 50.8116V78.562C44.8822 78.9238 44.6918 79.2646 44.3828 79.4539C44.2135 79.5549 44.0188 79.6096 43.8241 79.6096ZM33.0437 72.1376L42.766 76.8707V51.4637L33.0437 46.7306V72.1376Z" fill="#1E275C"/>
<path d="M43.8241 50.8074V78.5578L55.6626 72.794L55.7811 45.0436L43.8241 50.8074Z" fill="#FFC37D"/>
<path d="M43.8241 79.6096C43.6294 79.6096 43.4347 79.5549 43.2654 79.4497C42.9564 79.2562 42.766 78.9196 42.766 78.5578V50.8074C42.766 50.4035 42.9988 50.0375 43.3628 49.8608L55.3198 44.097C55.6499 43.9371 56.0351 43.9581 56.3441 44.1516C56.653 44.3452 56.8393 44.6817 56.8393 45.0478L56.7208 72.7982C56.7208 73.1979 56.488 73.5639 56.1282 73.7364L44.2897 79.5002C44.1415 79.5759 43.9807 79.6096 43.8241 79.6096ZM44.8822 51.4679V76.8707L54.6087 72.1376L54.7188 46.7264L44.8822 51.4679Z" fill="#1E275C"/>
<path d="M43.7775 66.6473C43.7141 66.6473 43.6506 66.6347 43.5913 66.6052L31.8036 60.8625C31.592 60.7615 31.5073 60.5091 31.6089 60.2987C31.7105 60.0884 31.9644 60.0042 32.1761 60.1052L43.9638 65.848C44.1754 65.9489 44.2601 66.2014 44.1585 66.4117C44.0865 66.559 43.9342 66.6473 43.7775 66.6473Z" fill="#1E275C"/>
<path d="M43.7775 70.1266C43.7141 70.1266 43.6506 70.114 43.5913 70.0846L31.8036 64.3418C31.592 64.2408 31.5073 63.9884 31.6089 63.778C31.7105 63.5719 31.9644 63.4835 32.1761 63.5845L43.9638 69.3273C44.1754 69.4282 44.2601 69.6807 44.1585 69.891C44.0865 70.0383 43.9342 70.1266 43.7775 70.1266Z" fill="#1E275C"/>
<path d="M43.7775 73.7322C43.7141 73.7322 43.6506 73.7195 43.5913 73.6901L31.8036 67.9473C31.592 67.8464 31.5073 67.5939 31.6089 67.3836C31.7105 67.1774 31.9644 67.0891 32.1761 67.19L43.9638 72.9328C44.1754 73.0338 44.2601 73.2862 44.1585 73.4966C44.0865 73.6438 43.9342 73.7322 43.7775 73.7322Z" fill="#1E275C"/>
<path d="M43.9384 66.6473C43.7818 66.6473 43.6294 66.559 43.5575 66.4117C43.4559 66.2014 43.5405 65.9489 43.7522 65.848L55.5399 60.1052C55.7515 60.0042 56.0055 60.0884 56.107 60.2987C56.2086 60.5091 56.124 60.7615 55.9123 60.8625L44.1246 66.6052C44.0654 66.6347 44.0019 66.6473 43.9384 66.6473Z" fill="#1E275C"/>
<path d="M43.9384 70.1266C43.7818 70.1266 43.6294 70.0383 43.5575 69.891C43.4559 69.6807 43.5405 69.4283 43.7522 69.3273L55.5399 63.5845C55.7515 63.4793 56.0055 63.5677 56.107 63.778C56.2086 63.9884 56.124 64.2408 55.9123 64.3418L44.1246 70.0846C44.0654 70.114 44.0019 70.1266 43.9384 70.1266Z" fill="#1E275C"/>
<path d="M43.9384 73.7322C43.7818 73.7322 43.6294 73.6438 43.5575 73.4966C43.4559 73.2862 43.5405 73.0338 43.7522 72.9328L55.5399 67.19C55.7515 67.0891 56.0055 67.1732 56.107 67.3836C56.2086 67.5939 56.124 67.8464 55.9123 67.9473L44.1246 73.6901C44.0654 73.7195 44.0019 73.7322 43.9384 73.7322Z" fill="#1E275C"/>
<path d="M43.7775 50.963C43.7141 50.963 43.6506 50.9504 43.5913 50.921L31.8036 45.1782C31.592 45.0772 31.5073 44.8248 31.6089 44.6144C31.7105 44.4041 31.9644 44.3199 32.1761 44.4209L43.9638 50.1637C44.1754 50.2646 44.2601 50.5171 44.1585 50.7274C44.0865 50.8747 43.9342 50.963 43.7775 50.963Z" fill="#1E275C"/>
<path d="M43.7775 52.7637C43.7141 52.7637 43.6506 52.7511 43.5913 52.7216L31.8036 46.9789C31.592 46.8779 31.5073 46.6255 31.6089 46.4151C31.7105 46.2047 31.9644 46.1206 32.1761 46.2216L43.9638 51.9643C44.1754 52.0653 44.2601 52.3177 44.1585 52.5281C44.0865 52.6753 43.9342 52.7637 43.7775 52.7637Z" fill="#1E275C"/>
<path d="M43.7775 56.243C43.7141 56.243 43.6506 56.2304 43.5913 56.2009L31.8036 50.4582C31.592 50.3572 31.5073 50.1048 31.6089 49.8944C31.7105 49.6841 31.9644 49.5999 32.1761 49.7009L43.9638 55.4437C44.1754 55.5446 44.2601 55.7971 44.1585 56.0074C44.0865 56.1547 43.9342 56.243 43.7775 56.243Z" fill="#1E275C"/>
<path d="M43.7775 59.8486C43.7141 59.8486 43.6506 59.8359 43.5913 59.8065L31.8036 54.0637C31.592 53.9627 31.5073 53.7103 31.6089 53.4999C31.7105 53.2938 31.9644 53.2054 32.1761 53.3064L43.9638 59.0492C44.1754 59.1502 44.2601 59.4026 44.1585 59.6129C44.0865 59.7602 43.9342 59.8486 43.7775 59.8486Z" fill="#1E275C"/>
<path d="M43.7775 62.9913C43.7141 62.9913 43.6506 62.9787 43.5913 62.9492L31.8036 57.2065C31.592 57.1055 31.5073 56.8531 31.6089 56.6427C31.7105 56.4323 31.9644 56.3482 32.1761 56.4492L43.9638 62.1919C44.1754 62.2929 44.2601 62.5453 44.1585 62.7557C44.0865 62.9029 43.9342 62.9913 43.7775 62.9913Z" fill="#1E275C"/>
<path d="M43.9384 50.963C43.7818 50.963 43.6294 50.8747 43.5575 50.7274C43.4559 50.5171 43.5405 50.2646 43.7522 50.1637L55.5399 44.4209C55.7515 44.3199 56.0055 44.4041 56.107 44.6144C56.2086 44.8248 56.124 45.073 55.9123 45.1782L44.1246 50.921C44.0654 50.9504 44.0019 50.963 43.9384 50.963Z" fill="#1E275C"/>
<path d="M43.9384 52.7637C43.7818 52.7637 43.6294 52.6753 43.5575 52.5281C43.4559 52.3177 43.5405 52.0653 43.7522 51.9643L55.5399 46.2216C55.7515 46.1206 56.0055 46.2047 56.107 46.4151C56.2086 46.6255 56.124 46.8737 55.9123 46.9789L44.1246 52.7216C44.0654 52.7511 44.0019 52.7637 43.9384 52.7637Z" fill="#1E275C"/>
<path d="M43.9384 56.243C43.7818 56.243 43.6294 56.1547 43.5575 56.0074C43.4559 55.7971 43.5405 55.5446 43.7522 55.4437L55.5399 49.7009C55.7515 49.5957 56.0055 49.6841 56.107 49.8944C56.2086 50.1048 56.124 50.3572 55.9123 50.4582L44.1246 56.2009C44.0654 56.2304 44.0019 56.243 43.9384 56.243Z" fill="#1E275C"/>
<path d="M43.9384 59.8486C43.7818 59.8486 43.6294 59.7602 43.5575 59.6129C43.4559 59.4026 43.5405 59.1502 43.7522 59.0492L55.5399 53.3064C55.7515 53.2054 56.0055 53.2896 56.107 53.4999C56.2086 53.7103 56.124 53.9627 55.9123 54.0637L44.1246 59.8065C44.0654 59.8359 44.0019 59.8486 43.9384 59.8486Z" fill="#1E275C"/>
<path d="M43.9384 62.9913C43.7818 62.9913 43.6294 62.9029 43.5575 62.7557C43.4559 62.5453 43.5405 62.2929 43.7522 62.1919L55.5399 56.4492C55.7515 56.344 56.0055 56.4323 56.107 56.6427C56.2086 56.8531 56.124 57.1055 55.9123 57.2065L44.1246 62.9492C44.0654 62.9787 44.0019 62.9913 43.9384 62.9913Z" fill="#1E275C"/>
<path d="M43.858 78.0697C43.7014 78.0697 43.549 77.9814 43.477 77.8341C43.3755 77.6238 43.4601 77.3714 43.6717 77.2704L55.4468 71.536C55.6584 71.4351 55.9123 71.5192 56.0139 71.7296C56.1155 71.9399 56.0309 72.1924 55.8192 72.2933L44.0442 78.0277C43.9849 78.0571 43.9215 78.0697 43.858 78.0697Z" fill="#1E275C"/>
<path d="M38.7323 65.5408L26.7711 71.3004L14.9325 65.5408L26.2885 60.1346L38.7323 65.5408Z" fill="#FFC37D"/>
<path d="M26.7711 72.3522C26.6102 72.3522 26.4536 72.3186 26.3055 72.247L14.4669 66.4874C14.1029 66.3107 13.8744 65.9405 13.8744 65.5366C13.8744 65.1327 14.1114 64.7667 14.4754 64.5942L25.8314 59.188C26.1108 59.0576 26.4324 59.0492 26.7118 59.1712L39.1556 64.5774C39.5323 64.7415 39.782 65.1117 39.7905 65.5198C39.7989 65.9279 39.5661 66.3065 39.1937 66.4874L27.2324 72.247C27.0885 72.3186 26.9277 72.3522 26.7711 72.3522ZM17.362 65.5492L26.7753 70.1308L36.2055 65.5913L26.3097 61.2916L17.362 65.5492Z" fill="#1E275C"/>
<path d="M26.8938 71.4224V86.5514L15.0553 80.7876V65.6586L26.8938 71.4224Z" fill="#FFC37D"/>
<path d="M26.8938 87.6032C26.733 87.6032 26.5764 87.5695 26.4282 87.498L14.5897 81.7342C14.2257 81.5575 13.9971 81.1915 13.9971 80.7876V65.6586C13.9971 65.2968 14.1834 64.956 14.4966 64.7667C14.8056 64.5732 15.195 64.5564 15.5209 64.7162L27.3594 70.48C27.7234 70.6567 27.9519 71.0228 27.9519 71.4266V86.5556C27.9519 86.9174 27.7657 87.2582 27.4525 87.4475C27.2832 87.5485 27.0885 87.6032 26.8938 87.6032ZM16.1134 80.1312L25.8357 84.8643V72.0788L16.1134 67.3457V80.1312Z" fill="#1E275C"/>
<path d="M26.8938 71.4224V86.5514L38.7323 80.7876L38.8508 65.6586L26.8938 71.4224Z" fill="#FFC37D"/>
<path d="M26.8938 87.6032C26.6991 87.6032 26.5044 87.5485 26.3351 87.4433C26.0261 87.2498 25.8357 86.9132 25.8357 86.5514V71.4224C25.8357 71.0185 26.0684 70.6525 26.4324 70.4758L38.3895 64.712C38.7196 64.5522 39.109 64.5732 39.418 64.7709C39.727 64.9645 39.9132 65.3052 39.9132 65.6671L39.7947 80.796C39.7905 81.1957 39.5619 81.5575 39.2021 81.7342L27.3636 87.498C27.2112 87.5695 27.0546 87.6032 26.8938 87.6032ZM27.9519 72.083V84.8643L37.6784 80.127L37.78 67.3415L27.9519 72.083Z" fill="#1E275C"/>
<path d="M26.8472 72.8402C26.7838 72.8402 26.7203 72.8276 26.661 72.7982L14.8733 67.0554C14.6616 66.9544 14.577 66.702 14.6786 66.4916C14.7802 66.2855 15.0341 66.1972 15.2457 66.2981L27.0335 72.0409C27.2451 72.1419 27.3298 72.3943 27.2282 72.6046C27.152 72.7519 27.0038 72.8402 26.8472 72.8402Z" fill="#1E275C"/>
<path d="M26.8472 76.3196C26.7838 76.3196 26.7203 76.3069 26.661 76.2775L14.8733 70.5347C14.6616 70.4338 14.577 70.1813 14.6786 69.971C14.7802 69.7648 15.0341 69.6765 15.2457 69.7774L27.0335 75.5202C27.2451 75.6212 27.3298 75.8736 27.2282 76.084C27.152 76.2312 27.0038 76.3196 26.8472 76.3196Z" fill="#1E275C"/>
<path d="M26.8472 79.9209C26.7838 79.9209 26.7203 79.9083 26.661 79.8788L14.8733 74.1403C14.6616 74.0393 14.577 73.7869 14.6786 73.5765C14.7802 73.3661 15.0341 73.282 15.2457 73.383L27.0335 79.1215C27.2451 79.2225 27.3298 79.4749 27.2282 79.6853C27.152 79.8325 27.0038 79.9209 26.8472 79.9209Z" fill="#1E275C"/>
<path d="M26.8472 83.4044C26.7838 83.4044 26.7203 83.3918 26.661 83.3624L14.8733 77.6196C14.6616 77.5186 14.577 77.2662 14.6786 77.0558C14.7802 76.8455 15.0341 76.7613 15.2457 76.8623L27.0335 82.6051C27.2451 82.706 27.3298 82.9585 27.2282 83.1688C27.152 83.3161 27.0038 83.4044 26.8472 83.4044Z" fill="#1E275C"/>
<path d="M27.0081 72.8402C26.8515 72.8402 26.6991 72.7519 26.6271 72.6046C26.5256 72.3943 26.6102 72.1419 26.8218 72.0409L38.6096 66.2981C38.8212 66.1929 39.0709 66.2813 39.1767 66.4916C39.2826 66.702 39.1937 66.9544 38.982 67.0554L27.1943 72.7982C27.1351 72.8276 27.0716 72.8402 27.0081 72.8402Z" fill="#1E275C"/>
<path d="M27.0081 76.3196C26.8515 76.3196 26.6991 76.2312 26.6271 76.084C26.5256 75.8736 26.6102 75.6212 26.8218 75.5202L38.6096 69.7774C38.8212 69.6723 39.0709 69.7606 39.1767 69.971C39.2826 70.1813 39.1937 70.4338 38.982 70.5347L27.1943 76.2775C27.1351 76.3069 27.0716 76.3196 27.0081 76.3196Z" fill="#1E275C"/>
<path d="M27.0081 79.9209C26.8515 79.9209 26.6991 79.8325 26.6271 79.6853C26.5256 79.4749 26.6102 79.2267 26.8218 79.1215L38.6096 73.383C38.8212 73.282 39.0752 73.3661 39.1767 73.5765C39.2783 73.7869 39.1937 74.0351 38.982 74.1403L27.1943 79.8788C27.1351 79.9083 27.0716 79.9209 27.0081 79.9209Z" fill="#1E275C"/>
<path d="M27.0081 83.4044C26.8515 83.4044 26.6991 83.3161 26.6271 83.1688C26.5256 82.9585 26.6102 82.706 26.8218 82.6051L38.6096 76.8623C38.8212 76.7613 39.0709 76.8455 39.1767 77.0558C39.2783 77.2662 39.1937 77.5186 38.982 77.6196L27.1943 83.3624C27.1351 83.3918 27.0716 83.4044 27.0081 83.4044Z" fill="#1E275C"/>
<path d="M26.8557 72.8402C26.6991 72.8402 26.5467 72.7519 26.4748 72.6046C26.3732 72.3943 26.4578 72.1419 26.6695 72.0409L38.4572 66.2981C38.6688 66.1929 38.9228 66.2813 39.0244 66.4916C39.1259 66.702 39.0413 66.9544 38.8297 67.0554L27.0419 72.7982C26.9827 72.8276 26.9192 72.8402 26.8557 72.8402Z" fill="#1E275C"/>
<path d="M26.9277 86.0633C26.771 86.0633 26.6187 85.975 26.5467 85.8277C26.4451 85.6174 26.5298 85.365 26.7414 85.264L38.5165 79.5296C38.7281 79.4287 38.982 79.5128 39.0836 79.7232C39.1852 79.9335 39.1005 80.1859 38.8889 80.2869L27.1139 86.0213C27.0546 86.0507 26.9911 86.0633 26.9277 86.0633Z" fill="#1E275C"/>
<path d="M47.9424 93.3375L78.9376 78.0697L65.0716 71.7464L40.4211 78.4905L47.9424 93.3375Z" fill="#FFC37D"/>
<path d="M47.9424 94.3893C47.553 94.3893 47.1805 94.1789 46.9985 93.8087L39.4772 78.9617C39.3333 78.6798 39.3249 78.3516 39.4561 78.0613C39.5831 77.7752 39.837 77.5565 40.1418 77.4723L64.7923 70.7283C65.0336 70.6609 65.2875 70.682 65.5161 70.7872L79.382 77.1105C79.7545 77.2788 79.9915 77.6448 79.9999 78.0529C80.0042 78.4568 79.7756 78.8312 79.4116 79.0121L48.4165 94.2799C48.2598 94.3557 48.1032 94.3893 47.9424 94.3893ZM41.9491 79.1636L48.4165 91.9323L76.4827 78.1076L64.9828 72.8655L41.9491 79.1636Z" fill="#1E275C"/>
<path d="M36.6118 83.1772C36.6118 86.7449 39.5873 90.9857 43.4432 92.7317C47.5234 94.5786 51.0026 92.9547 51.0026 89.0041C51.0026 85.0536 47.5191 80.6067 43.4432 79.151C39.5873 77.7794 36.6118 79.6096 36.6118 83.1772Z" fill="#FFC37D"/>
<path d="M46.6599 94.545C45.5087 94.545 44.2643 94.2589 43.0072 93.6909C38.8297 91.7977 35.5579 87.1824 35.5579 83.1772C35.5579 81.2125 36.3324 79.5885 37.7419 78.6041C39.3291 77.4892 41.4835 77.3335 43.8072 78.1581C48.3614 79.7863 52.0692 84.6497 52.0692 88.9999C52.0692 91.0657 51.2396 92.7359 49.737 93.6993C48.8482 94.2631 47.8027 94.545 46.6599 94.545ZM40.9925 79.7484C40.201 79.7484 39.5026 79.9419 38.9566 80.3248C38.1144 80.9138 37.6742 81.8983 37.6742 83.1772C37.6742 86.3663 40.4592 90.2242 43.8876 91.7725C45.7288 92.6055 47.443 92.6644 48.59 91.9323C49.4788 91.3644 49.9529 90.3504 49.9529 89.0041C49.9529 85.529 46.8123 81.4691 43.0919 80.1397C42.3512 79.8788 41.6401 79.7484 40.9925 79.7484Z" fill="#1E275C"/>
<path d="M40.8444 84.7423C40.8444 86.1601 42.0253 87.843 43.5575 88.5371C45.1785 89.2692 46.5583 88.6255 46.5583 87.0562C46.5583 85.487 45.1743 83.7242 43.5575 83.1436C42.0253 82.5966 40.8444 83.3245 40.8444 84.7423Z" fill="#FFC37D"/>
<path d="M44.8357 89.8919C44.2897 89.8919 43.7056 89.7614 43.1215 89.4964C41.2211 88.6339 39.7862 86.5934 39.7862 84.7423C39.7862 83.7494 40.1926 82.9206 40.9248 82.4073C41.7205 81.852 42.8083 81.7594 43.9172 82.1549C45.9954 82.8996 47.6207 85.0536 47.6207 87.0562C47.6207 88.087 47.1763 88.9579 46.4017 89.4543C45.9446 89.7446 45.4113 89.8919 44.8357 89.8919ZM42.5797 84.0145C42.402 84.0145 42.2496 84.0523 42.1438 84.1281C41.9448 84.2669 41.9025 84.5404 41.9025 84.7423C41.9025 85.7646 42.8633 87.0646 43.9976 87.5821C44.6114 87.8598 45.0516 87.8177 45.2547 87.6873C45.4579 87.5569 45.5002 87.2708 45.5002 87.0562C45.5002 85.9582 44.404 84.5656 43.1977 84.1323C42.9734 84.0523 42.7617 84.0145 42.5797 84.0145Z" fill="#1E275C"/>
<path d="M35.9388 86.1601L42.8125 83.152C45.1023 85.0494 46.2494 87.7041 46.2494 87.7041L39.9513 90.9647L35.9388 86.1601Z" fill="#FFC37D"/>
<path d="M39.9513 92.0165C39.6466 92.0165 39.3418 91.8818 39.1386 91.6378L35.1262 86.8333C34.9145 86.5808 34.8341 86.24 34.9103 85.9203C34.9865 85.6006 35.2108 85.3313 35.5156 85.2009L42.3893 82.1928C42.7575 82.0329 43.185 82.0918 43.494 82.3484C45.9489 84.3847 47.1763 87.174 47.2271 87.2918C47.4472 87.7967 47.2356 88.3857 46.7446 88.6381L40.4465 91.8987C40.2857 91.9786 40.1164 92.0165 39.9513 92.0165ZM37.6488 86.5598L40.2222 89.6394L44.8315 87.254C44.3997 86.5009 43.6548 85.3734 42.6178 84.3889L37.6488 86.5598Z" fill="#1E275C"/>
<path d="M35.5536 87.275C35.5536 88.554 36.6203 90.0728 38.0001 90.6954C39.4603 91.3559 40.7089 90.7754 40.7089 89.3618C40.7089 87.9482 39.4603 86.3536 38.0001 85.8319C36.6203 85.3397 35.5536 85.996 35.5536 87.275Z" fill="#FFC37D"/>
<path d="M39.1513 92.0207C38.6434 92.0207 38.1017 91.8987 37.5599 91.6546C35.8118 90.8679 34.4955 88.9831 34.4955 87.275C34.4955 86.3578 34.8849 85.5585 35.5663 85.0831C36.3113 84.5614 37.3271 84.473 38.3556 84.8433C40.2687 85.5248 41.7671 87.5106 41.7671 89.3618C41.7671 90.3252 41.348 91.1414 40.62 91.6084C40.1926 91.8818 39.6931 92.0207 39.1513 92.0207ZM37.1239 86.7197C36.9673 86.7197 36.8531 86.7533 36.7853 86.8038C36.6414 86.9048 36.6118 87.1151 36.6118 87.275C36.6118 88.0491 37.361 89.2524 38.436 89.7362C38.9566 89.9718 39.3206 89.9381 39.473 89.8372C39.6169 89.7446 39.6508 89.5258 39.6508 89.3575C39.6508 88.4025 38.6942 87.1951 37.6403 86.8164C37.4371 86.7491 37.2636 86.7197 37.1239 86.7197Z" fill="#1E275C"/>
</svg>
