<svg width="77" height="87" viewBox="0 0 77 87" fill="none" xmlns="http://www.w3.org/2000/svg">
<path d="M35.2681 56.4214L60.133 44.4592C64.7846 34.0351 55.9888 4.55687 30.3628 1.99355L12.5175 10.8797L35.2681 56.4214Z" fill="#FFC37D"/>
<path d="M35.2678 57.4466C34.8449 57.4466 34.5912 57.2757 34.4221 56.934L11.6715 11.3068C11.587 11.136 11.587 10.7942 11.587 10.5378C11.6715 10.367 11.8407 10.0252 12.0944 9.93974L29.9396 1.05356C30.1088 0.968117 30.2779 0.968117 30.4471 0.968117C45.5859 2.50611 53.6205 12.9303 57.0035 18.9968C62.1625 27.9684 63.7694 38.7344 61.063 44.8009C60.9784 44.9718 60.8093 45.2281 60.5556 45.3136L35.6907 57.3612C35.437 57.3612 35.3524 57.4466 35.2678 57.4466ZM13.7859 11.3068L35.6907 55.1396L59.3715 43.7756C61.3167 39.0762 60.5556 29.2501 55.312 20.0221C52.0981 14.2974 44.6556 4.64221 30.6162 3.10422L13.7859 11.3068Z" fill="#111838"/>
<path d="M1.01559 25.2347C1.01559 36.1715 9.98049 49.159 21.6518 54.4565C33.9996 60.1813 44.4869 55.1401 44.4869 43.0925C44.4869 31.0449 33.9151 17.3738 21.6518 12.9307C9.98049 8.74398 1.01559 14.2978 1.01559 25.2347Z" fill="#FFC37D"/>
<path d="M31.3771 57.8741C28.2479 57.8741 24.7803 57.1051 21.2282 55.3962C9.38776 49.9278 0 36.5985 0 25.2344C0 19.9369 2.02979 15.5793 5.66649 13.0159C9.81064 10.1108 15.5617 9.68362 21.9048 11.9052C28.1633 14.1267 33.9989 18.6552 38.3968 24.4654C42.8792 30.3611 45.4165 37.0257 45.4165 43.0068C45.4165 48.4752 43.3021 53.0038 39.4117 55.4816C37.1282 57.1051 34.4218 57.8741 31.3771 57.8741ZM14.2085 12.5033C11.4175 12.5033 8.88032 13.1868 6.85053 14.6394C3.72128 16.8609 2.02979 20.6205 2.02979 25.2344C2.02979 36.0004 10.9101 48.4752 22.0739 53.6019C28.3324 56.4215 34.3372 56.6778 38.3968 53.8582C41.6952 51.7221 43.5558 47.8771 43.5558 42.9214C43.5558 31.4719 33.3223 17.9717 21.3973 13.6995C18.8601 12.9305 16.4074 12.5033 14.2085 12.5033Z" fill="#111838"/>
<path d="M13.7865 30.0192C13.7865 34.3768 17.4232 39.5035 21.9902 41.6396C26.811 43.8611 31.0397 41.8959 31.0397 37.111C31.0397 32.3262 26.9801 26.8577 21.9902 25.1489C17.4232 23.44 13.7865 25.747 13.7865 30.0192Z" fill="#FFC37D"/>
<path d="M25.8804 43.6047C24.5272 43.6047 23.0894 43.3484 21.5671 42.6648C16.7463 40.4433 12.8559 34.8894 12.8559 30.19C12.8559 27.9685 13.7016 26.0033 15.3931 24.8925C17.2538 23.6108 19.7064 23.4399 22.4128 24.3798C27.741 26.345 32.1389 32.1552 32.1389 37.2819C32.1389 39.7597 31.2085 41.6395 29.5171 42.7503C28.333 43.263 27.2335 43.6047 25.8804 43.6047ZM19.0298 25.6615C18.0995 25.6615 17.0846 25.9178 16.408 26.4305C15.3086 27.1995 14.7165 28.4811 14.7165 30.19C14.7165 34.2059 18.0995 38.9907 22.3282 40.956C24.6963 42.0667 26.8107 42.0667 28.2484 41.1268C29.4325 40.3579 30.0245 39.0762 30.0245 37.2819C30.0245 32.9242 26.1341 27.883 21.5671 26.1741C20.8059 25.7469 19.8756 25.6615 19.0298 25.6615Z" fill="#111838"/>
<path d="M30.1932 1.99361C25.5416 1.73727 8.965 11.9906 9.3033 11.9906C20.1288 11.7342 36.8746 19.3388 41.2724 30.7883C45.6703 42.0669 51.4214 43.3485 51.4214 43.3485L68.8437 35.9149C68.8437 35.9149 62.8389 40.1017 58.9485 23.9527C57.0033 16.69 44.5708 2.93349 30.1932 1.99361Z" fill="#FFC37D"/>
<path d="M51.5062 44.2887C51.4217 44.2887 51.4217 44.2887 51.3371 44.2887C51.0834 44.2032 44.994 42.7507 40.5116 31.1303C36.3674 20.5352 20.3828 12.6744 9.38816 12.9307C8.96529 12.9307 8.71157 12.7598 8.54242 12.418C8.37327 12.1617 8.37327 11.7345 8.54242 11.4782C8.96529 10.7946 15.6467 7.03506 17.6765 5.83885C23.935 2.50653 28.1637 0.883092 30.278 0.968536C45.4169 1.99386 57.9339 16.1776 59.7945 23.6967C61.9089 32.4974 64.5307 34.7189 66.053 35.317C66.7296 35.5734 67.2371 35.4879 67.7445 35.4025L68.5903 34.9753C69.0977 34.8044 69.5206 34.9753 69.7743 35.4025C69.9435 35.8297 69.8589 36.3424 69.5206 36.6841C69.5206 36.6841 69.0132 36.9405 68.3366 37.1968L52.0137 44.2032C51.76 44.2887 51.6754 44.2887 51.5062 44.2887ZM12.5174 11.0509C17.5073 11.5636 23.0892 13.2725 28.2483 16.0921C35.1834 19.8517 40.1733 24.8929 42.3722 30.3613C46.0089 39.6747 50.4068 41.8108 51.5908 42.238L64.6153 36.5987C61.9089 35.0607 59.6254 30.7885 58.0185 24.0384C56.2424 17.3738 44.2328 3.78819 30.1935 2.93375C26.9796 2.76286 17.169 8.23128 12.5174 11.0509Z" fill="#111838"/>
<path d="M15.8157 35.916C15.3928 35.916 15.1391 35.7452 14.97 35.3179C14.8008 34.8053 14.97 34.2072 15.4774 34.0363L27.0641 28.6533C27.5716 28.4824 28.1636 28.6533 28.3327 29.166C28.5019 29.6786 28.3327 30.2767 27.8253 30.4476L16.2386 35.8306C16.154 35.8306 15.9003 35.916 15.8157 35.916Z" fill="#111838"/>
<path d="M18.1839 38.9067C17.761 38.9067 17.5073 38.7358 17.3381 38.3086C17.169 37.7959 17.3381 37.1978 17.8456 37.0269L29.4323 31.6439C29.9397 31.473 30.5317 31.6439 30.7009 32.1566C30.87 32.6693 30.7009 33.2674 30.1934 33.4382L18.6067 38.8212C18.4376 38.9067 18.2684 38.9067 18.1839 38.9067Z" fill="#111838"/>
<path d="M20.4672 41.6403C20.0443 41.6403 19.7906 41.4694 19.6214 41.0422C19.4523 40.5296 19.6214 39.9314 20.1289 39.7606L30.5315 35.1466C31.039 34.9757 31.631 35.1466 31.8001 35.6592C31.9693 36.1719 31.8001 36.77 31.2927 36.9409L20.89 41.5549C20.8055 41.6403 20.5517 41.6403 20.4672 41.6403Z" fill="#111838"/>
<path d="M13.9547 32.7539C13.5318 32.7539 13.2781 32.583 13.109 32.1558C12.9398 31.6432 13.109 31.0451 13.6164 30.8742L24.2728 25.833C24.7802 25.6621 25.3723 25.833 25.5414 26.3456C25.7106 26.8583 25.5414 27.4564 25.034 27.6273L14.3776 32.6685C14.293 32.6685 14.0393 32.7539 13.9547 32.7539Z" fill="#111838"/>
<path d="M42.3702 84.9603L67.2351 72.9981C71.9713 62.574 63.091 33.0958 37.5495 30.5324L19.7043 39.3332L42.3702 84.9603Z" fill="#FFC37D"/>
<path d="M42.3715 85.9C41.9486 85.9 41.6949 85.7291 41.5257 85.3874L18.8598 39.8457C18.7752 39.6748 18.7752 39.333 18.7752 39.0767C18.8598 38.9058 19.0289 38.564 19.2826 38.4786L37.1279 29.6779C37.297 29.5924 37.5507 29.5924 37.6353 29.5924C52.6895 31.045 60.6395 41.4691 64.1071 47.5357C69.1816 56.5073 70.7885 67.3587 68.0821 73.3397C67.9975 73.5106 67.8284 73.767 67.5747 73.8524L42.7098 85.8146C42.6252 85.9 42.5406 85.9 42.3715 85.9ZM20.9741 39.8457L42.8789 83.6785L66.5598 72.3144C68.505 67.615 67.7438 57.7889 62.5002 48.561C59.2864 42.8362 51.8438 33.1811 37.8044 31.5576L20.9741 39.8457Z" fill="#111838"/>
<path d="M8.11898 53.7733C8.11898 64.7101 17.0839 77.6976 28.7551 82.9951C41.103 88.7199 51.5903 83.6787 51.5903 71.6311C51.5903 59.5835 41.103 45.9124 28.7551 41.3839C17.1684 37.1971 8.11898 42.8364 8.11898 53.7733Z" fill="#FFC37D"/>
<path d="M38.4818 86.4126C35.3525 86.4126 31.885 85.6436 28.3329 83.9348C16.4924 78.5518 7.27382 65.308 7.27382 53.773C7.27382 48.4755 9.30361 44.1178 12.9403 41.5545C17.0845 38.6494 22.8355 38.2222 29.1786 40.4437C35.268 42.8362 41.1036 47.1938 45.586 53.0895C50.0685 58.9851 52.6057 65.6497 52.6057 71.6308C52.6057 77.0992 50.4914 81.6278 46.6009 84.1056C44.3174 85.6436 41.5265 86.4126 38.4818 86.4126ZM21.3978 41.0419C18.6068 41.0419 16.0696 41.7254 14.0398 43.178C10.9105 45.3995 9.21903 49.159 9.21903 53.773C9.21903 64.539 18.0993 77.0138 29.2632 82.1404C35.5217 84.9601 41.5265 85.2164 45.586 82.3968C48.8845 80.2607 50.7451 76.4157 50.7451 71.4599C50.7451 60.0104 40.5116 46.5103 28.5866 42.2381C25.9648 41.4691 23.5967 41.0419 21.3978 41.0419Z" fill="#111838"/>
<path d="M20.9732 58.643C20.9732 63.0006 24.6099 68.1273 29.1769 70.2634C33.9977 72.4849 38.2264 70.5197 38.2264 65.7349C38.2264 60.95 34.0823 55.4816 29.1769 53.7727C24.4408 52.0638 20.9732 54.1999 20.9732 58.643Z" fill="#FFC37D"/>
<path d="M33.0686 72.1433C31.7154 72.1433 30.2776 71.887 28.7553 71.2034C23.9345 68.9819 20.0441 63.428 20.0441 58.7286C20.0441 56.507 20.8899 54.5418 22.5813 53.4311C24.442 52.1494 26.8946 51.9785 29.601 52.9184C34.9292 54.8836 39.3271 60.6938 39.3271 65.8204C39.3271 68.2983 38.3968 70.1781 36.7053 71.2889C35.4367 71.8015 34.3372 72.1433 33.0686 72.1433ZM26.218 54.1146C25.2877 54.1146 24.2728 54.3709 23.5962 54.8836C22.4968 55.6526 21.9048 56.9343 21.9048 58.6431C21.9048 62.659 25.2877 67.4439 29.5165 69.4091C31.8845 70.5199 33.9989 70.5199 35.4367 69.58C36.6207 68.811 37.2127 67.5293 37.2127 65.735C37.2127 61.3774 33.3223 56.3361 28.7553 54.6273C27.9095 54.2855 26.9792 54.1146 26.218 54.1146Z" fill="#111838"/>
<path d="M37.3806 30.4467C32.6444 30.1049 16.237 40.4436 16.4907 40.4436C27.3162 40.1873 44.062 47.7918 48.4598 59.2413C52.8577 70.52 58.6088 71.8016 58.6088 71.8016L75.7774 64.4534C75.7774 64.4534 69.7726 68.6402 65.8822 52.4913C64.1907 45.1431 51.6737 31.3866 37.3806 30.4467Z" fill="#FFC37D"/>
<path d="M58.6943 72.7413C58.6098 72.7413 58.6097 72.7413 58.5252 72.7413C58.2715 72.6558 52.1821 71.2033 47.6996 59.5829C43.5555 48.9878 27.5709 41.127 16.5763 41.4688C16.1534 41.4688 15.8997 41.2979 15.7305 40.9561C15.5614 40.6998 15.5614 40.2726 15.7305 40.0162C16.1534 39.4181 22.3273 35.8295 24.8645 34.3769C31.1231 31.0446 35.3518 29.3357 37.4661 29.5066C52.5204 30.4465 65.0374 44.7156 66.898 52.1493C69.0124 60.95 71.6342 63.1716 73.1566 63.7697C73.8332 64.026 74.3406 63.9406 74.848 63.8551L75.6938 63.4279C76.2012 63.257 76.6241 63.4279 76.8778 63.8551C77.1316 64.2823 76.9624 64.795 76.6241 65.1368C76.6241 65.1368 76.1167 65.3931 75.4401 65.6494L59.1172 72.6558C58.8635 72.7413 58.7789 72.7413 58.6943 72.7413ZM19.6209 39.6744C24.6108 40.1871 30.1927 41.896 35.3518 44.7156C42.2869 48.4752 47.2768 53.5164 49.4757 58.9848C53.1124 68.2128 57.5103 70.4343 58.6943 70.8615L71.7188 65.2222C69.0124 63.6842 66.7289 59.412 65.122 52.6619C63.4305 45.9119 51.4209 32.4117 37.3816 31.4718C34.1677 31.2155 24.2725 36.8548 19.6209 39.6744Z" fill="#111838"/>
<path d="M23.0879 64.197C22.665 64.197 22.4113 64.0261 22.2422 63.5989C22.073 63.0862 22.2422 62.4881 22.7496 62.3172L34.3363 56.9343C34.8438 56.7634 35.4358 56.9343 35.6049 57.4469C35.7741 57.9596 35.6049 58.5577 35.0975 58.7286L23.5108 64.1116C23.4262 64.1116 23.1725 64.197 23.0879 64.197Z" fill="#111838"/>
<path d="M25.4568 67.1872C25.0339 67.1872 24.7802 67.0164 24.6111 66.5891C24.4419 66.0765 24.6111 65.4784 25.1185 65.3075L36.6206 59.9245C37.1281 59.7536 37.7201 59.9245 37.8893 60.4372C38.0584 60.9498 37.8893 61.5479 37.3818 61.7188L25.7951 67.1018C25.7105 67.1872 25.5414 67.1872 25.4568 67.1872Z" fill="#111838"/>
<path d="M27.7401 69.9213C27.3173 69.9213 27.0635 69.7504 26.8944 69.3232C26.7252 68.8105 26.8944 68.2124 27.4018 68.0415L37.8045 63.4275C38.3119 63.2566 38.904 63.4275 39.0731 63.9402C39.2423 64.4529 39.0731 65.051 38.5657 65.2219L28.163 69.8358C28.0784 69.9213 27.9093 69.9213 27.7401 69.9213Z" fill="#111838"/>
<path d="M21.2273 61.0357C20.8045 61.0357 20.5508 60.8648 20.3816 60.4376C20.2125 59.925 20.3816 59.3268 20.8891 59.156L31.5454 54.1148C32.0529 53.9439 32.6449 54.1148 32.814 54.6274C32.9832 55.1401 32.8141 55.7382 32.3066 55.9091L21.6502 60.9503C21.5656 60.9503 21.3965 61.0357 21.2273 61.0357Z" fill="#111838"/>
</svg>
