<svg width="82" height="91" viewBox="0 0 82 91" fill="none" xmlns="http://www.w3.org/2000/svg">
<path d="M80.9849 70.5644L40.7969 89.9395L1.01485 70.5644L39.1732 52.4003L80.9849 70.5644Z" fill="#FFC37D"/>
<path d="M40.7969 90.9486C40.6427 90.9486 40.4925 90.9163 40.3504 90.8477L0.568315 71.4726C0.219207 71.3031 0 70.9479 0 70.5604C0 70.1729 0.227326 69.8217 0.576434 69.6562L38.7347 51.4921C39.0027 51.367 39.3071 51.3589 39.5791 51.476L81.3909 69.6401C81.7522 69.7975 81.9917 70.1527 81.9998 70.5443C82.0079 70.9398 81.7846 71.2991 81.4274 71.4726L41.2394 90.8477C41.1014 90.9163 40.9471 90.9486 40.7969 90.9486ZM3.34494 70.5766L40.801 88.8174L78.5615 70.6129L39.1935 53.5103L3.34494 70.5766Z" fill="#1E275C"/>
<path d="M80.9849 63.2988L40.7969 82.6739L1.01485 63.2988L39.1732 45.1347L80.9849 63.2988Z" fill="#FFC37D"/>
<path d="M40.7969 83.683C40.6427 83.683 40.4925 83.6507 40.3504 83.5821L0.568315 64.207C0.219207 64.0375 0 63.6823 0 63.2948C0 62.9073 0.227326 62.5561 0.576434 62.3906L38.7347 44.2265C39.0027 44.1013 39.3071 44.0933 39.5791 44.2103L81.3909 62.3744C81.7522 62.5319 81.9917 62.8871 81.9998 63.2786C82.0079 63.6742 81.7846 64.0334 81.4274 64.207L41.2394 83.5821C41.1014 83.6507 40.9471 83.683 40.7969 83.683ZM3.34494 63.3109L40.801 81.5517L78.5615 63.3472L39.1935 46.2447L3.34494 63.3109Z" fill="#1E275C"/>
<path d="M80.9849 56.0331L40.7969 75.4082L1.01485 56.0331L39.1732 37.869L80.9849 56.0331Z" fill="#FFC37D"/>
<path d="M40.7969 76.4173C40.6427 76.4173 40.4925 76.385 40.3504 76.3164L0.568315 56.9413C0.219207 56.7718 0 56.4166 0 56.0291C0 55.6416 0.227326 55.2904 0.576434 55.1249L38.7347 36.9608C39.0027 36.8357 39.3071 36.8276 39.5791 36.9447L81.3909 55.1088C81.7522 55.2662 81.9917 55.6214 81.9998 56.013C82.0079 56.4085 81.7846 56.7678 81.4274 56.9413L41.2394 76.3164C41.1014 76.385 40.9471 76.4173 40.7969 76.4173ZM3.34494 56.0453L40.801 74.2861L78.5615 56.0816L39.1935 38.979L3.34494 56.0453Z" fill="#1E275C"/>
<path d="M80.9849 48.7675L40.7969 68.1426L1.01485 48.7675L39.1732 30.6034L80.9849 48.7675Z" fill="#FFC37D"/>
<path d="M40.7969 69.1517C40.6427 69.1517 40.4925 69.1194 40.3504 69.0508L0.568315 49.6757C0.219207 49.5062 0 49.151 0 48.7635C0 48.376 0.227326 48.0248 0.576434 47.8593L38.7347 29.6952C39.0027 29.57 39.3071 29.562 39.5791 29.679L81.3909 47.8431C81.7522 48.0006 81.9917 48.3558 81.9998 48.7473C82.0079 49.1429 81.7846 49.5021 81.4274 49.6757L41.2394 69.0508C41.1014 69.1194 40.9471 69.1517 40.7969 69.1517ZM3.34494 48.7796L40.801 67.0204L78.5615 48.8159L39.1935 31.7134L3.34494 48.7796Z" fill="#1E275C"/>
<path d="M80.9849 41.5018L40.7969 60.8769L1.01485 41.5018L39.1732 23.3377L80.9849 41.5018Z" fill="#FFC37D"/>
<path d="M40.7969 61.886C40.6427 61.886 40.4925 61.8537 40.3504 61.7851L0.568315 42.4101C0.219207 42.2405 0 41.8853 0 41.4978C0 41.1103 0.227326 40.7591 0.576434 40.5936L38.7347 22.4295C38.9986 22.3044 39.3112 22.2963 39.5791 22.4134L81.3909 40.5775C81.7522 40.7349 81.9917 41.0901 81.9998 41.4817C82.0079 41.8772 81.7846 42.2365 81.4274 42.4101L41.2394 61.7851C41.1014 61.8537 40.9471 61.886 40.7969 61.886ZM3.34494 41.514L40.801 59.7548L78.5615 41.5503L39.1935 24.4478L3.34494 41.514Z" fill="#1E275C"/>
<path d="M80.9849 34.2362L40.7969 53.6113L1.01485 34.2362L39.1732 16.0721L80.9849 34.2362Z" fill="#FFC37D"/>
<path d="M40.7969 54.6204C40.6427 54.6204 40.4925 54.5881 40.3504 54.5195L0.568315 35.1444C0.219207 34.9749 0 34.6197 0 34.2322C0 33.8447 0.227326 33.4935 0.576434 33.328L38.7347 15.1639C38.9986 15.0387 39.3112 15.0307 39.5791 15.1477L81.3909 33.3118C81.7522 33.4693 81.9917 33.8245 81.9998 34.216C82.0079 34.6116 81.7846 34.9708 81.4274 35.1444L41.2394 54.5195C41.1014 54.5881 40.9471 54.6204 40.7969 54.6204ZM3.34494 34.2483L40.801 52.4891L78.5615 34.2846L39.1935 17.1821L3.34494 34.2483Z" fill="#1E275C"/>
<path d="M80.9849 26.9705L40.7969 46.3456L1.01485 26.9705L39.1732 8.80642L80.9849 26.9705Z" fill="#FFC37D"/>
<path d="M40.7969 47.3547C40.6427 47.3547 40.4925 47.3224 40.3504 47.2538L0.568315 27.8788C0.219207 27.7092 0 27.354 0 26.9665C0 26.579 0.227326 26.2278 0.576434 26.0623L38.7347 7.89822C38.9986 7.77309 39.3112 7.76501 39.5791 7.88207L81.3909 26.0462C81.7522 26.2036 81.9917 26.5588 81.9998 26.9504C82.0079 27.3459 81.7846 27.7052 81.4274 27.8788L41.2394 47.2538C41.1014 47.3224 40.9471 47.3547 40.7969 47.3547ZM3.34494 26.9827L40.801 45.2235L78.5615 27.019L39.1935 9.91645L3.34494 26.9827Z" fill="#1E275C"/>
<path d="M80.9849 19.7049L40.7969 39.08L1.01485 19.7049L39.1732 1.54077L80.9849 19.7049Z" fill="#FFC37D"/>
<path d="M40.7969 40.0891C40.6427 40.0891 40.4925 40.0568 40.3504 39.9882L0.568315 20.6131C0.219207 20.4436 0 20.0884 0 19.7009C0 19.3134 0.227326 18.9622 0.576434 18.7967L38.7347 0.632568C39.0027 0.507437 39.3071 0.499364 39.5791 0.616422L81.3909 18.7805C81.7522 18.938 81.9917 19.2932 81.9998 19.6847C82.0079 20.0803 81.7846 20.4395 81.4274 20.6131L41.2394 39.9882C41.1014 40.0568 40.9471 40.0891 40.7969 40.0891ZM3.34494 19.717L40.801 37.9578L78.5615 19.7533L39.1935 2.6508L3.34494 19.717Z" fill="#1E275C"/>
</svg>
