<svg width="85" height="93" viewBox="0 0 85 93" fill="none" xmlns="http://www.w3.org/2000/svg">
<path d="M83.8729 20.1175L42.3591 39.9889L1.22099 20.1175L40.6685 1.53996L83.8729 20.1175Z" fill="#FFC37D"/>
<path d="M42.3591 41.0056C42.1713 41.0056 42.0773 41.0056 41.9834 40.9132L0.657459 21.0417C0.375691 20.8569 0 20.4872 0 20.1175C0 19.7478 0.187846 19.3781 0.657459 19.1932L40.2928 0.615706C40.5746 0.52328 40.9503 0.52328 41.1381 0.615706L84.3425 19.1008C84.7182 19.2856 85 19.6553 85 20.025C85 20.3947 84.8122 20.8569 84.3425 20.9493L42.7348 40.9132C42.6409 40.9132 42.453 41.0056 42.3591 41.0056ZM3.56906 20.1175L42.2652 38.7874L81.337 20.2099L40.6685 2.74149L3.56906 20.1175Z" fill="#1E275C"/>
<path d="M42.3591 39.9889V91.932L1.22099 72.153V20.1175L42.3591 39.9889Z" fill="#FFC37D"/>
<path d="M42.3591 92.9487C42.1713 92.9487 42.0773 92.9487 41.9834 92.8563L0.657459 73.0772C0.375691 72.8924 0 72.5227 0 72.153V20.1175C0 19.8402 0.187846 19.3781 0.563536 19.1932C0.845304 19.0084 1.31492 19.0084 1.59669 19.1932L42.7348 39.0647C43.0166 39.2495 43.3923 39.6192 43.3923 39.9889V92.0244C43.3923 92.3017 43.2044 92.7639 42.8287 92.9487C42.7348 92.9487 42.547 92.9487 42.3591 92.9487ZM2.25414 71.506L41.326 90.2684V40.5435L2.25414 21.7811V71.506Z" fill="#1E275C"/>
<path d="M42.3591 39.9889V91.932L83.4972 72.153L83.8729 20.1175L42.3591 39.9889Z" fill="#FFC37D"/>
<path d="M42.3591 92.9487C42.1713 92.9487 41.9834 92.8563 41.7956 92.7639C41.5138 92.579 41.232 92.2093 41.232 91.8396V39.9889C41.232 39.6192 41.4199 39.2495 41.8895 39.0647L83.4033 19.1932C83.6851 19.0084 84.1547 19.1008 84.4365 19.2856C84.7182 19.4705 85 19.8402 85 20.2099L84.6243 72.3378C84.6243 72.7075 84.4365 73.0772 83.9668 73.2621L42.7348 92.8563C42.6409 92.9487 42.453 92.9487 42.3591 92.9487ZM43.3923 40.5435V90.2684L82.4641 71.506L82.8398 21.7811L43.3923 40.5435Z" fill="#1E275C"/>
<path d="M2.9116 45.0723L12.9613 25.8478L17.5635 27.9736L21.2265 52.0042L27.989 33.704L33.5304 36.5692L39.4475 61.9862L35.7845 46.3663L21.3204 51.9118L19.0663 37.4934L3.85083 44.6102" fill="#FBC181"/>
<path d="M39.4475 63.0029C38.884 63.0029 38.5083 62.7256 38.4144 62.171L34.9392 47.6602L21.884 52.6512C21.6961 52.8361 21.3204 52.9285 21.0387 52.9285C20.4751 52.9285 20.1934 52.5588 20.0994 52.0967L18.0331 38.8798L4.1326 45.5345C3.94475 45.6269 3.85083 45.6269 3.56906 45.6269C3.28729 46.1814 2.62983 46.2739 2.25414 45.9966C1.69061 45.7193 1.50276 45.0723 1.87845 44.5178L12.0221 25.2933C12.2099 24.7387 12.8674 24.5539 13.337 24.7387L17.9392 26.7721C18.221 26.8645 18.5028 27.1418 18.5967 27.6039L20.0055 37.3086L21.7901 47.7527L27.1436 33.3343C27.2376 33.057 27.4254 32.7798 27.8011 32.6873C28.0829 32.5949 28.4586 32.5949 28.6464 32.7798L34.0939 35.6449C34.3757 35.7374 34.4696 36.0146 34.6575 36.3843L40.5746 61.5241C40.6685 62.0786 40.3867 62.6332 39.7293 62.7256C39.6354 63.0029 39.5414 63.0029 39.4475 63.0029ZM28.6464 35.1828L23.105 50.0633L34.5635 45.6269L32.5912 37.3086L28.6464 35.1828ZM13.4309 27.2342L5.25967 42.7617L17.9392 36.9389L16.7182 28.713L13.4309 27.2342Z" fill="#1E275C"/>
<path d="M2.9116 69.8423L12.9613 50.6179L17.5635 52.6512L21.2265 76.8667L27.989 58.5664L33.5304 61.4316L39.4475 89.9911L35.7845 71.0439L21.3204 76.7743L19.0663 62.2635L3.85083 69.3802" fill="#FBC181"/>
<path d="M39.4475 91.0078C38.884 91.0078 38.5083 90.7305 38.4144 90.1759L34.7514 72.6151L22.0718 77.5137C21.884 77.6985 21.5083 77.7909 21.2265 77.7909C20.663 77.7909 20.3812 77.4212 20.2873 76.9591L18.221 63.7423L4.32044 70.3969C4.1326 70.3969 3.94475 70.3969 3.75691 70.3969C3.47514 70.9515 2.81768 71.0439 2.44199 70.7666C1.87845 70.4893 1.69061 69.8423 2.0663 69.2878L12.2099 50.0633C12.3978 49.5088 13.0552 49.3239 13.5249 49.5088L18.1271 51.5421C18.4088 51.6345 18.6906 51.9118 18.7845 52.3739L20.2873 61.8938L21.884 72.5227L27.2376 58.1043C27.3315 57.827 27.5193 57.5498 27.895 57.4573C28.1768 57.3649 28.5525 57.3649 28.7403 57.5498L34.1878 60.415C34.4696 60.5074 34.5635 60.7847 34.7514 61.1544L36.6298 70.212C36.8177 70.3045 36.9116 70.5817 37.0055 70.859L40.5746 89.8062C40.6685 90.3608 40.2928 90.9153 39.7293 91.0078C39.6354 91.0078 39.5414 91.0078 39.4475 91.0078ZM28.6464 59.9528L23.105 74.8333L34.3757 70.3969L32.5912 61.9862L28.6464 59.9528ZM13.4309 52.0042L5.25967 67.5317L17.9392 61.7089L16.7182 53.483L13.4309 52.0042Z" fill="#1E275C"/>
<path d="M81.8066 45.0723L71.663 25.8478L67.0608 27.9736L63.3978 52.0042L56.6354 33.704L51.0939 36.5692L45.1768 61.9862L48.9337 46.3663L63.3039 51.9118L65.6519 37.4934L80.8674 44.6102" fill="#FBC181"/>
<path d="M45.1768 63.0029C45.0829 63.0029 44.9889 63.0029 44.9889 63.0029C44.4254 62.9104 44.0497 62.2635 44.1436 61.8013L50.0608 36.4768C50.1547 36.1995 50.2486 35.9222 50.6243 35.7374L56.0718 32.8722C56.3536 32.7798 56.7293 32.6873 56.9171 32.7798C57.1989 32.8722 57.4807 33.057 57.5746 33.4267L62.9282 47.8451L64.6188 37.401L66.1215 27.9736C66.2155 27.6964 66.4033 27.3267 66.779 27.1418L71.3812 25.1084C71.9447 24.9236 72.5083 25.1084 72.6961 25.663L82.8398 44.8875C83.1215 45.442 82.9337 45.9966 82.4641 46.3663C81.9006 46.5511 81.337 46.4587 81.1492 45.9966C80.9613 45.9966 80.8674 45.9966 80.5856 45.9042L66.6851 39.342L64.337 52.2815C64.2431 52.8361 63.9613 53.1133 63.3978 53.1133C63.116 53.1133 62.7403 53.0209 62.5525 52.8361L49.4972 47.8451L46.116 62.2635C46.116 62.5407 45.6464 63.0029 45.1768 63.0029ZM50.0608 45.6269L61.5193 50.0633L55.9779 35.1828L52.0331 37.2162L50.0608 45.6269ZM66.779 36.8465L79.4586 42.6693L71.2873 27.1418L68.0939 28.6206L66.779 36.8465Z" fill="#1E275C"/>
<path d="M81.8066 69.8423L71.663 50.6179L67.0608 52.6512L63.3978 76.8667L56.6354 58.5664L51.0939 61.4316L45.1768 89.9911L48.9337 71.0439L63.3039 76.7743L65.6519 62.2635L80.8674 69.3802" fill="#FBC181"/>
<path d="M45.1768 91.0078C45.0829 91.0078 45.0829 91.0078 44.9889 91.0078C44.4254 90.9153 44.0497 90.3608 44.1436 89.8062L47.8066 70.859C47.8066 70.6742 47.9945 70.3045 48.1823 70.212L50.0608 61.1544C50.1547 60.8771 50.2486 60.5998 50.6243 60.415L56.0718 57.5498C56.3536 57.4573 56.7293 57.3649 56.9171 57.4573C57.1989 57.5498 57.4807 57.7346 57.5746 58.1043L62.9282 72.5227L64.6188 62.0786L66.1215 52.6512C66.2155 52.3739 66.4033 52.0042 66.779 51.8194L71.3812 49.786C71.9447 49.6012 72.5083 49.786 72.6961 50.3406L82.8398 69.5651C83.1215 70.1196 82.9337 70.6742 82.4641 71.0439C81.9006 71.2287 81.337 71.1363 81.1492 70.6742C80.9613 70.6742 80.8674 70.6742 80.5856 70.5818L66.6851 64.0195L64.6188 77.2364C64.5249 77.7909 64.2431 78.0682 63.6796 78.0682C63.3978 78.0682 63.0221 77.9758 62.8342 77.7909L49.8729 72.6151L46.2099 90.1759C46.116 90.7305 45.6464 91.0078 45.1768 91.0078ZM50.2486 70.5818L61.5193 75.0182L55.9779 60.1377L52.0331 62.171L50.2486 70.5818ZM66.779 61.6165L79.4586 67.4393L71.2873 51.9118L68.0939 53.3906L66.779 61.6165Z" fill="#1E275C"/>
<path d="M42.3591 64.9438C42.1713 64.9438 42.0774 64.9438 41.9834 64.8514L0.657459 44.7026C0.0939231 44.5178 -0.0939221 43.7784 0.0939232 43.4087C0.281769 42.8541 1.03315 42.6693 1.40884 42.8541L42.1713 62.7256L83.3094 42.7617C83.8729 42.5768 84.4365 42.7617 84.6243 43.3162C84.8122 43.8708 84.6243 44.4254 84.0608 44.6102L42.7348 64.8514C42.6409 64.9438 42.547 64.9438 42.3591 64.9438Z" fill="#1E275C"/>
</svg>
