<svg width="90" height="98" viewBox="0 0 90 98" fill="none" xmlns="http://www.w3.org/2000/svg">
<path d="M9.353 25.3553V79.3536L51.689 58.8108L52.0828 4.81244L9.353 25.3553Z" fill="#FFC37D"/>
<path d="M9.35433 80.429C9.15742 80.429 8.96051 80.3311 8.7636 80.2333C8.46823 80.0377 8.17286 79.6464 8.17286 79.3529V25.3546C8.17286 24.9633 8.36977 24.572 8.86205 24.3763L51.5919 3.8335C51.8872 3.73567 52.3795 3.73567 52.6749 3.93132C52.9703 4.12697 53.2656 4.51826 53.2656 4.81173L52.8718 58.8101C52.8718 59.2014 52.6749 59.5926 52.1826 59.7883L9.94507 80.3311C9.6497 80.429 9.45279 80.429 9.35433 80.429ZM10.4373 26.1372V77.6899L50.5089 58.2231L50.9027 6.47472L10.4373 26.1372Z" fill="#111838"/>
<path d="M43.6158 1.09488L1.57512 21.5399L9.353 25.3553L52.0828 4.81244L43.6158 1.09488Z" fill="#FFC37D"/>
<path d="M9.35319 26.4303C9.25473 26.4303 9.05782 26.4303 8.95936 26.3324L1.18135 22.5173C0.885985 22.3217 0.492161 21.9304 0.492161 21.5391C0.492161 21.1478 0.787529 20.7565 1.18135 20.5609L43.222 0.115848C43.5174 0.0180247 43.9112 0.0180247 44.1081 0.115848L52.4768 3.83312C52.8707 4.02877 53.166 4.42006 53.166 4.81136C53.166 5.20265 52.9691 5.59394 52.4768 5.78959L9.84547 26.3324C9.64855 26.4303 9.45164 26.4303 9.35319 26.4303ZM4.03657 21.5391L9.35319 24.0825L49.5232 4.90918L43.7143 2.4636L4.03657 21.5391Z" fill="#111838"/>
<path d="M1.18214 21.344V75.3424L9.35398 79.3531V25.3548L1.18214 21.344Z" fill="#FFC37D"/>
<path d="M9.3533 80.4294C9.25485 80.4294 9.05794 80.4294 8.95948 80.3315L0.689191 76.3208C0.295367 76.223 0 75.7339 0 75.3426V21.3442C0 21.0508 0.196912 20.5616 0.590735 20.4638C0.886102 20.2682 1.37838 20.2682 1.67375 20.4638L9.94404 24.4746C10.2394 24.6702 10.6332 25.0615 10.6332 25.4528V79.4511C10.6332 79.7446 10.4363 80.2337 10.0425 80.3315C9.64867 80.4294 9.55022 80.4294 9.3533 80.4294ZM2.26448 74.6578L8.36875 77.5925V26.1376L2.26448 23.105V74.6578Z" fill="#111838"/>
<path d="M43.4184 10.0941C42.8276 10.0941 42.3354 9.70283 42.3354 9.01807V1.19222C42.3354 0.605286 42.7292 0.116171 43.4184 0.116171C44.1076 0.116171 44.5014 0.605286 44.5014 1.19222V8.92025C44.5014 9.50719 44.1076 10.0941 43.4184 10.0941Z" fill="#111838"/>
<path d="M26.1899 33.0821V87.0804L68.4275 66.5376L68.9198 12.5393L26.1899 33.0821Z" fill="#FFC37D"/>
<path d="M26.1884 88.1562C25.9915 88.1562 25.7946 88.0584 25.5977 87.9606C25.3023 87.7649 25.007 87.3737 25.007 87.0802V33.0818C25.007 32.6906 25.2039 32.2993 25.6961 32.1036L68.3275 11.5608C68.6229 11.3651 69.1152 11.4629 69.4105 11.6586C69.7059 11.8542 70.0013 12.2455 70.0013 12.539L69.6075 66.5373C69.6075 66.9286 69.4105 67.3199 68.9183 67.5156L26.6807 88.0584C26.4838 88.1562 26.2869 88.1562 26.1884 88.1562ZM27.2714 33.7666V85.3194L67.343 65.8526L67.7368 14.2998L27.2714 33.7666Z" fill="#111838"/>
<path d="M60.4515 8.82181L18.4109 29.3647L26.1889 33.0819L68.9188 12.5391L60.4515 8.82181Z" fill="#FFC37D"/>
<path d="M26.1896 34.1585C26.0911 34.1585 25.8942 34.1585 25.7958 34.0607L17.9193 30.3434C17.6239 30.1477 17.2301 29.7565 17.2301 29.3652C17.2301 28.9739 17.427 28.5826 17.9193 28.3869L59.9599 7.94191C60.2553 7.84409 60.6491 7.84409 60.8461 7.94191L69.3132 11.5614C69.7071 11.757 70.0024 12.1483 70.0024 12.5396C70.0024 12.9309 69.8055 13.3222 69.3132 13.5178L26.5834 34.0607C26.485 34.1585 26.2881 34.1585 26.1896 34.1585ZM20.873 29.3652L26.1896 31.9086L66.2611 12.6374L60.4522 10.094L20.873 29.3652Z" fill="#111838"/>
<path d="M17.9188 29.072V83.0703L26.1891 87.0811L26.1889 33.0819L17.9188 29.072Z" fill="#FFC37D"/>
<path d="M26.1884 88.1562C26.09 88.1562 25.8938 88.1567 25.7954 88.0589L17.5251 84.0481C17.2297 83.8525 16.8359 83.4612 16.8359 83.0699V29.0716C16.8359 28.7781 17.0328 28.289 17.4266 28.1912C17.722 27.9955 18.2143 27.9955 18.5097 28.1912L26.7799 32.2019C27.0753 32.3976 27.4691 32.7888 27.4691 33.1801V87.1785C27.4691 87.4719 27.2722 87.9611 26.8784 88.0589C26.583 88.0589 26.3853 88.1562 26.1884 88.1562ZM19.0019 82.483L25.1062 85.4177V33.7671L19.0019 30.8324V82.483Z" fill="#111838"/>
<path d="M60.2545 17.7243C59.6637 17.7243 59.1715 17.3331 59.1715 16.6483V8.82245C59.1715 8.33333 59.5653 7.74639 60.2545 7.74639C60.8452 7.74639 61.3375 8.13768 61.3375 8.82245V16.5505C61.3375 17.2352 60.8452 17.7243 60.2545 17.7243Z" fill="#111838"/>
<path d="M45.1912 42.4741V96.5702L87.4288 75.9296L87.8226 21.9312L45.1912 42.4741Z" fill="#FFC37D"/>
<path d="M45.1907 97.6451C44.9938 97.6451 44.7969 97.5472 44.6 97.4494C44.3046 97.2538 44.0093 96.8625 44.0093 96.569V42.4728C44.0093 42.0816 44.2062 41.6903 44.6984 41.4946L87.4283 20.9518C87.7236 20.7561 88.2159 20.8539 88.5113 21.0496C88.8067 21.2452 89.102 21.6365 89.102 21.93L88.7082 75.9283C88.7082 76.3196 88.5113 76.7109 88.019 76.9066L45.5845 97.4494C45.4861 97.5472 45.2892 97.6451 45.1907 97.6451ZM46.2737 43.2554V94.8082L86.3453 75.3414L86.7391 23.593L46.2737 43.2554Z" fill="#111838"/>
<path d="M79.4535 18.3107L37.3144 38.6579L45.1908 42.473L87.8222 21.9302L79.4535 18.3107Z" fill="#FFC37D"/>
<path d="M45.1908 43.5495C45.0923 43.5495 44.8954 43.5495 44.797 43.4517L37.019 39.6366C36.7236 39.4409 36.3298 39.0496 36.3298 38.6583C36.3298 38.267 36.5267 37.8758 37.019 37.6801L78.9611 17.2351C79.2565 17.1373 79.6503 17.1373 79.8472 17.2351L88.3144 20.8545C88.7083 21.0502 89.0036 21.4415 89.0036 21.8328C89.0036 22.2241 88.8067 22.6154 88.3144 22.811L45.5846 43.3539C45.4862 43.5495 45.2892 43.5495 45.1908 43.5495ZM39.8742 38.6583L45.1908 41.2017L85.2623 21.9306L79.4534 19.485L39.8742 38.6583Z" fill="#111838"/>
<path d="M36.9204 38.4633V92.5594L45.1912 96.5702V42.4741L36.9204 38.4633Z" fill="#FFC37D"/>
<path d="M45.1909 97.6464C45.0925 97.6464 44.8955 97.6464 44.7971 97.5486L36.5268 93.5379C36.2314 93.3422 35.8376 92.9509 35.8376 92.5596V38.4635C35.8376 38.17 36.0345 37.6809 36.4283 37.5831C36.7237 37.3874 37.216 37.3874 37.5114 37.5831L45.7816 41.5938C46.077 41.7895 46.4708 42.1807 46.4708 42.572V96.5704C46.4708 96.8639 46.2739 97.353 45.8801 97.4508C45.5847 97.5486 45.3878 97.6464 45.1909 97.6464ZM38.0036 91.7771L44.1079 94.7117V43.2568L38.0036 40.2243V91.7771Z" fill="#111838"/>
<path d="M79.1576 27.2138C78.5669 27.2138 78.0746 26.8225 78.0746 26.1377V18.4097C78.0746 17.8227 78.4684 17.3336 79.1576 17.3336C79.8468 17.3336 80.2406 17.7249 80.2406 18.4097V26.1377C80.2406 26.7246 79.8468 27.2138 79.1576 27.2138Z" fill="#111838"/>
<path d="M71.5815 37.3092C71.937 36.7021 71.8822 36.0118 71.4591 35.7673C71.0361 35.5228 70.4051 35.8168 70.0496 36.4239C69.6942 37.031 69.749 37.7213 70.1721 37.9658C70.5951 38.2103 71.2261 37.9163 71.5815 37.3092Z" fill="#111838"/>
<path d="M61.5797 42.0632C61.9351 41.4561 61.8803 40.7657 61.4573 40.5212C61.0343 40.2768 60.4032 40.5707 60.0478 41.1778C59.6924 41.7849 59.7472 42.4753 60.1702 42.7197C60.5932 42.9642 61.2243 42.6703 61.5797 42.0632Z" fill="#111838"/>
<path d="M64.6845 30.1088C65.04 29.5017 64.9852 28.8114 64.5621 28.5669C64.1391 28.3224 63.5081 28.6164 63.1526 29.2235C62.7972 29.8306 62.852 30.5209 63.2751 30.7654C63.6981 31.0099 64.3291 30.7159 64.6845 30.1088Z" fill="#111838"/>
<path d="M54.8405 34.7775C55.1959 34.1704 55.1411 33.4801 54.7181 33.2356C54.2951 32.9911 53.664 33.2851 53.3086 33.8922C52.9532 34.4993 53.008 35.1896 53.431 35.4341C53.854 35.6786 54.4851 35.3846 54.8405 34.7775Z" fill="#111838"/>
<path d="M53.9393 24.8747C54.2947 24.2676 54.2399 23.5772 53.8169 23.3328C53.3938 23.0883 52.7628 23.3823 52.4074 23.9894C52.0519 24.5965 52.1067 25.2868 52.5298 25.5313C52.9528 25.7758 53.5838 25.4818 53.9393 24.8747Z" fill="#111838"/>
<path d="M44.0229 29.6779C44.3783 29.0708 44.3235 28.3804 43.9005 28.1359C43.4774 27.8915 42.8464 28.1854 42.491 28.7925C42.1356 29.3996 42.1904 30.09 42.6134 30.3345C43.0364 30.5789 43.6674 30.285 44.0229 29.6779Z" fill="#111838"/>
<path d="M46.9689 20.2247C47.3243 19.6176 47.2695 18.9272 46.8465 18.6827C46.4235 18.4383 45.7924 18.7322 45.437 19.3393C45.0816 19.9464 45.1364 20.6368 45.5594 20.8813C45.9825 21.1257 46.6135 20.8318 46.9689 20.2247Z" fill="#111838"/>
<path d="M37.0537 25.0274C37.4092 24.4203 37.3544 23.73 36.9313 23.4855C36.5083 23.241 35.8773 23.535 35.5219 24.1421C35.1664 24.7492 35.2212 25.4396 35.6443 25.684C36.0673 25.9285 36.6983 25.6345 37.0537 25.0274Z" fill="#111838"/>
<path d="M37.9981 16.854C38.3536 16.2469 38.2988 15.5565 37.8757 15.3121C37.4527 15.0676 36.8217 15.3616 36.4662 15.9687C36.1108 16.5758 36.1656 17.2661 36.5886 17.5106C37.0117 17.7551 37.6427 17.4611 37.9981 16.854Z" fill="#111838"/>
<path d="M28.0193 21.4506C28.3747 20.8435 28.3199 20.1532 27.8969 19.9087C27.4739 19.6642 26.8428 19.9582 26.4874 20.5653C26.132 21.1724 26.1868 21.8627 26.6098 22.1072C27.0328 22.3517 27.6639 22.0577 28.0193 21.4506Z" fill="#111838"/>
<path d="M31.9273 11.5872C32.2827 10.9801 32.2279 10.2898 31.8049 10.0453C31.3819 9.80081 30.7509 10.0948 30.3954 10.7019C30.04 11.309 30.0948 11.9993 30.5178 12.2438C30.9409 12.4883 31.5719 12.1943 31.9273 11.5872Z" fill="#111838"/>
<path d="M22.0109 16.3899C22.3664 15.7828 22.3116 15.0924 21.8885 14.848C21.4655 14.6035 20.8345 14.8975 20.479 15.5046C20.1236 16.1117 20.1784 16.802 20.6014 17.0465C21.0245 17.291 21.6555 16.997 22.0109 16.3899Z" fill="#111838"/>
</svg>
