<svg width="94" height="100" viewBox="0 0 94 100" fill="none" xmlns="http://www.w3.org/2000/svg">
<path d="M9.9 27.108V84.6359L55.1 62.678L55.5 5.15006L9.9 27.108Z" fill="#FFC37D"/>
<path d="M9.9 85.8282C9.7 85.8282 9.4 85.8282 9.3 85.7289C9 85.5301 8.7 85.1327 8.7 84.8346V27.108C8.7 26.6112 8.9 26.3132 9.4 26.1145L54.9 4.05713C55.3 3.95777 55.8 3.95777 56.1 4.15649C56.4 4.3552 56.7 4.75263 56.7 5.0507L56.2 62.5786C56.2 63.0754 56 63.3735 55.5 63.5722L10.5 85.5301C10.3 85.8282 10.1 85.8282 9.9 85.8282ZM11.1 27.8035V82.8475L53.9 62.0818L54.4 7.03785L11.1 27.8035Z" fill="#1E275C"/>
<path d="M46.6 1.27512L1.2 22.8357L9.9 27.108L55.5 5.15006L46.6 1.27512Z" fill="#FFC37D"/>
<path d="M9.9 28.201C9.8 28.201 9.6 28.201 9.4 28.1016L0.7 23.8292C0.4 23.6305 0 23.2331 0 22.8357C0 22.3389 0.2 22.0408 0.7 21.8421L46 0.281549C46.3 0.182192 46.7 0.182192 46.9 0.281549L55.9 4.25584C56.4 4.45456 56.6 4.85199 56.6 5.24942C56.6 5.7462 56.4 6.04427 55.9 6.24299L10.4 28.201C10.3 28.201 10.1 28.201 9.9 28.201ZM3.9 22.8357L9.9 25.8164L52.7 5.24942L46.5 2.46741L3.9 22.8357Z" fill="#1E275C"/>
<path d="M1.2 22.8357V80.3636L9.9 84.6359V27.108L1.2 22.8357Z" fill="#FFC37D"/>
<path d="M9.9 85.8282C9.8 85.8282 9.6 85.8282 9.4 85.7289L0.7 81.4565C0.4 81.2578 0 80.8603 0 80.4629V22.8357C0 22.5376 0.2 22.0408 0.6 21.9414C0.9 21.7427 1.3 21.7427 1.8 21.9414L10.5 26.2138C10.8 26.4125 11.2 26.81 11.2 27.2074V84.7353C11.2 85.0333 11 85.5301 10.6 85.6295C10.4 85.8282 10.1 85.8282 9.9 85.8282ZM2.3 79.6681L8.7 82.7481V27.8035L2.3 24.7235C2.3 24.6241 2.3 79.6681 2.3 79.6681Z" fill="#1E275C"/>
<path d="M21.9 32.1753V89.7031L67 67.7452L67.5 10.2173L21.9 32.1753Z" fill="#FFC37D"/>
<path d="M21.9 90.8954C21.7 90.8954 21.4 90.8954 21.3 90.7961C21 90.5974 20.7 90.1999 20.7 89.9019V32.1753C20.7 31.6785 20.9 31.3804 21.4 31.1817L66.9 9.12435C67.2 9.02499 67.7 9.025 68.1 9.22371C68.4 9.42242 68.7 9.81985 68.7 10.1179L68.2 67.7452C68.2 68.242 68 68.54 67.5 68.7387L22.4 90.7961C22.2 90.7961 22.1 90.8954 21.9 90.8954ZM23.1 32.8708V87.9147L65.9 67.149L66.3 12.1051L23.1 32.8708Z" fill="#1E275C"/>
<path d="M29.2 87.4179C28.6 87.4179 28 86.9211 28 86.2256V28.6977C28 28.1016 28.5 27.5055 29.2 27.5055C29.9 27.5055 30.4 28.0022 30.4 28.6977V86.2256C30.4 86.9211 29.9 87.4179 29.2 87.4179Z" fill="#1E275C"/>
<path d="M26.8 81.5558C26.8 82.152 26.3 82.9468 25.6 83.2449C24.9 83.543 24.3 83.2449 24.3 82.5494C24.3 81.8539 24.9 81.059 25.6 80.8603C26.2 80.4629 26.8 80.8603 26.8 81.5558Z" fill="#FFC37D"/>
<path d="M24.9 83.7417C24.7 83.7417 24.4 83.6423 24.2 83.543C23.9 83.3443 23.6 82.9468 23.6 82.5494C23.6 81.6552 24.3 80.6616 25.2 80.3636C25.7 80.2642 26.1 80.2642 26.5 80.4629C26.8 80.6616 27 81.0591 27 81.4565C27 82.2513 26.4 83.1456 25.5 83.543C25.5 83.7417 25.3 83.7417 24.9 83.7417ZM26 81.1584C25.9 81.1584 25.8 81.1584 25.8 81.1584C25.2 81.3571 24.8 81.9533 24.8 82.4501C24.8 82.5494 24.8 82.6488 24.9 82.6488C25 82.7481 25.2 82.7481 25.5 82.6488C26 82.4501 26.4 81.8539 26.4 81.3571C26.4 81.2578 26.4 81.1584 26.3 81.1584C26.2 81.1584 26.1 81.1584 26 81.1584Z" fill="#1E275C"/>
<path d="M26.8 58.6043C26.8 59.2004 26.3 59.9953 25.6 60.2934C24.9 60.5915 24.3 60.2934 24.3 59.5979C24.3 58.9024 24.9 58.1075 25.6 57.9088C26.2 57.7101 26.8 57.9088 26.8 58.6043Z" fill="#FFC37D"/>
<path d="M24.9 60.8895C24.7 60.8895 24.4 60.7902 24.2 60.6908C23.9 60.4921 23.6 60.0947 23.6 59.6972C23.6 58.803 24.3 57.8094 25.2 57.5114C25.7 57.412 26.1 57.412 26.5 57.6107C26.8 57.8094 27 58.2069 27 58.6043C27 59.3992 26.4 60.2934 25.5 60.6908C25.5 60.8895 25.3 60.8895 24.9 60.8895ZM26 58.3062C25.9 58.3062 25.8 58.3062 25.8 58.3062C25.2 58.5049 24.8 59.1011 24.8 59.5979C24.8 59.6972 24.8 59.7966 24.9 59.7966C25 59.896 25.2 59.896 25.5 59.7966C26 59.5979 26.4 59.0017 26.4 58.5049C26.4 58.4056 26.4 58.3062 26.3 58.3062C26.2 58.3062 26.1 58.3062 26 58.3062Z" fill="#1E275C"/>
<path d="M26.8 34.8579C26.8 35.454 26.3 36.2489 25.6 36.547C24.9 36.845 24.3 36.547 24.3 35.8515C24.3 35.156 24.9 34.3611 25.6 34.1624C26.2 33.8643 26.8 34.2618 26.8 34.8579Z" fill="#FFC37D"/>
<path d="M24.9 37.1431C24.7 37.1431 24.4 37.0438 24.2 36.9444C23.9 36.7457 23.6 36.3483 23.6 35.9508C23.6 35.0566 24.3 34.063 25.2 33.765C25.7 33.5663 26.1 33.6656 26.5 33.8643C26.8 34.063 27 34.4605 27 34.8579C27 35.6528 26.4 36.547 25.5 36.9444C25.5 37.0438 25.3 37.1431 24.9 37.1431ZM26 34.4605C25.9 34.4605 25.8 34.4605 25.8 34.4605C25.2 34.7585 24.8 35.3547 24.8 35.8515C24.8 35.9508 24.8 36.0502 24.9 36.0502C25 36.1495 25.2 36.1495 25.5 36.0502C26 35.8515 26.4 35.2553 26.4 34.7585C26.4 34.6592 26.4 34.5598 26.3 34.5598C26.1 34.5598 26.1 34.4605 26 34.4605Z" fill="#1E275C"/>
<path d="M25.6 70.2291C25 70.4278 24.4 71.1233 24.4 71.8188V77.4822C24.4 78.0783 24.9 78.3764 25.6 78.1777C26.2 77.979 26.8 77.2835 26.8 76.588V70.9246C26.8 70.3285 26.2 69.931 25.6 70.2291Z" fill="#FFC37D"/>
<path d="M25.2 78.7738C25 78.7738 24.7 78.6745 24.5 78.5751C24.2 78.3764 24 77.979 24 77.5816V71.9182C24 71.1233 24.6 70.2291 25.4 69.931C25.9 69.7323 26.3 69.8317 26.7 70.0304C27 70.2291 27.2 70.6265 27.2 71.024V76.6873C27.2 77.4822 26.6 78.3764 25.8 78.6745C25.6 78.7738 25.4 78.7738 25.2 78.7738ZM26 70.5272C25.9 70.5272 25.9 70.5272 25.8 70.5272C25.3 70.7259 25 71.2227 25 71.7195V77.3828C25 77.4822 25 77.5816 25.1 77.5816C25.2 77.6809 25.3 77.5816 25.6 77.5816C26.1 77.3828 26.4 76.886 26.4 76.3893V70.7259C26.4 70.6265 26.4 70.5272 26.3 70.5272C26.2 70.5272 26.1 70.5272 26 70.5272Z" fill="#1E275C"/>
<path d="M25.6 39.5277C25 39.7264 24.4 40.4219 24.4 41.1174V46.8801C24.4 47.4763 24.9 47.7744 25.6 47.5756C26.2 47.3769 26.8 46.6814 26.8 45.9859V40.3226C26.8 39.7264 26.2 39.329 25.6 39.5277Z" fill="#FFC37D"/>
<path d="M25.2 48.1718C25 48.1718 24.7 48.0724 24.5 47.9731C24.2 47.7744 24 47.3769 24 46.9795V41.3161C24 40.5213 24.6 39.6271 25.4 39.329C25.9 39.1303 26.3 39.2296 26.7 39.4283C27 39.6271 27.2 40.0245 27.2 40.4219V46.0853C27.2 46.8801 26.6 47.7744 25.8 48.0724C25.6 48.1718 25.4 48.1718 25.2 48.1718ZM26 39.9251C25.9 39.9251 25.9 39.9251 25.8 39.9251C25.3 40.1238 25 40.6206 25 41.1174V46.7808C25 46.8801 25 46.9795 25.1 46.9795C25.2 47.0789 25.3 46.9795 25.6 46.9795C26.1 46.7808 26.4 46.284 26.4 45.7872V40.1238C26.4 40.0245 26.4 39.9251 26.3 39.9251C26.1 40.0245 26.1 39.9251 26 39.9251Z" fill="#1E275C"/>
<path d="M80.4 63.3735C74.6 65.46 69.6 71.8188 69.6 77.4822C69.6 83.1456 74.6 85.4308 80.4 82.8475C86 80.2642 90.2 74.3028 90.2 69.1362C90.2 63.9696 85.9 61.3863 80.4 63.3735ZM80.2 78.7738C76.8 80.2642 74 78.9726 74 75.7931C74 72.6137 76.9 68.9375 80.2 67.7452C83.3 66.5529 85.8 68.0433 85.8 71.024C85.8 73.9053 83.3 77.3828 80.2 78.7738Z" fill="#FFC37D"/>
<path d="M75.8 85.1327C74.3 85.1327 72.8 84.8346 71.6 83.9404C69.5 82.6488 68.5 80.3636 68.5 77.4822C68.5 71.322 73.7 64.5657 80.1 62.1812C83.4 60.9889 86.3 61.2869 88.5 62.7773C90.5 64.1683 91.5 66.3542 91.5 69.0368C91.5 74.7002 86.8 81.1584 81 83.8411C79.1 84.6359 77.4 85.1327 75.8 85.1327ZM80.8 64.4664C75.3 66.4535 70.7 72.415 70.7 77.4822C70.7 79.5687 71.4 81.0591 72.8 81.9533C74.5 83.1456 77.1 82.9468 79.9 81.7546C84.9 79.4693 89.1 73.806 89.1 69.0368C89.1 67.0497 88.4 65.5593 87.1 64.6651C85.5 63.5722 83.2 63.5722 80.8 64.4664ZM77.5 80.4629C76.6 80.4629 75.6 80.2642 74.8 79.7674C73.5 78.9726 72.7 77.4822 72.7 75.6938C72.7 72.0175 75.8 67.9439 79.7 66.5529C81.7 65.8574 83.5 65.9567 84.9 66.851C86.2 67.6458 86.8 69.1362 86.8 70.8253C86.8 74.2034 84 78.0783 80.5 79.7674C79.6 80.2642 78.6 80.4629 77.5 80.4629ZM82.2 68.4407C81.7 68.4407 81.2 68.54 80.6 68.7387C77.7 69.7323 75.1 73.0111 75.1 75.7931C75.1 76.4886 75.2 77.3828 76 77.979C76.8 78.5751 78.2 78.4758 79.6 77.8796C82.3 76.588 84.5 73.6073 84.5 71.024C84.5 70.1298 84.2 69.3349 83.6 68.9375C83.3 68.54 82.7 68.4407 82.2 68.4407Z" fill="#1E275C"/>
<path d="M55.5 75.7931C49.7 77.8796 44.7 84.2385 44.7 89.9019C44.7 95.5652 49.7 97.8504 55.5 95.2672C61.1 92.6839 65.3 86.7224 65.3 81.5558C65.3 76.3893 61.1 73.7066 55.5 75.7931ZM55.3 91.0941C52 92.5845 49.1 91.1935 49.1 88.0141C49.1 84.7353 52 81.1584 55.3 79.9661C58.4 78.7738 60.9 80.2642 60.9 83.2449C60.9 86.0269 58.4 89.7031 55.3 91.0941Z" fill="#FFC37D"/>
<path d="M51 97.453C49.5 97.453 48 97.1549 46.8 96.2607C44.7 94.9691 43.7 92.6839 43.7 89.8025C43.7 83.6423 48.9 76.8861 55.3 74.5015C58.6 73.3092 61.5 73.6073 63.7 75.0976C65.7 76.4886 66.7 78.6745 66.7 81.3571C66.7 87.0205 62 93.4787 56.2 96.1614C54.2 97.0556 52.5 97.453 51 97.453ZM56 76.7867C50.5 78.7738 45.9 84.7353 45.9 89.8025C45.9 91.889 46.6 93.3794 48 94.2736C49.7 95.4659 52.3 95.2672 55.1 94.0749C60.1 91.7896 64.3 86.1263 64.3 81.3571C64.3 79.37 63.6 77.8796 62.3 76.9854C60.6 75.9918 58.4 75.8925 56 76.7867ZM52.7 92.8826C51.8 92.8826 50.8 92.6839 50 92.1871C48.7 91.3922 47.9 89.9019 47.9 88.1134C47.9 84.4372 51 80.3636 54.9 78.9726C56.9 78.2771 58.7 78.3764 60.1 79.2706C61.4 80.0655 62 81.5558 62 83.2449C62 86.6231 59.2 90.498 55.7 92.1871C54.7 92.5845 53.7 92.8826 52.7 92.8826ZM57.4 80.761C56.9 80.761 56.4 80.8603 55.8 81.0591C52.9 82.0526 50.3 85.3314 50.3 88.0141C50.3 88.7096 50.4 89.6038 51.2 90.1999C52 90.7961 53.4 90.6967 54.8 90.1006C57.5 88.8089 59.7 85.8282 59.7 83.2449C59.7 82.3507 59.4 81.5558 58.8 81.1584C58.4 80.9597 58 80.761 57.4 80.761Z" fill="#1E275C"/>
<path d="M74.6 71.5208L69.9 69.931L69.8 70.2291L64.2 76.1905L63.8 77.5816V39.7264L69.8 33.1688L69.9 32.9701L76 34.8579L76.2 35.0566V69.8317L74.6 71.5208Z" fill="#FFC37D"/>
<path d="M63.8 78.7738C63.7 78.7738 63.7 78.7738 63.6 78.7738C63 78.6745 62.7 78.1777 62.7 77.5816V39.7264C62.7 39.5277 62.8 39.1303 63 38.9315L69.2 32.374C69.5 32.0759 70 31.8772 70.4 32.0759L76.4 33.9637C76.6 34.063 76.7 34.1624 77 34.2618L77.2 34.4605C77.4 34.6592 77.4 34.9573 77.4 35.156V69.931C77.4 70.2291 77.3 70.5272 77.1 70.7259L75.5 72.3156C75.2 72.6137 74.8 72.8124 74.3 72.6137L70.3 71.4214L65.2 76.9854L64.8 78.1777C64.7 78.3764 64.2 78.7738 63.8 78.7738ZM64.9 40.1238V73.9053L69.1 69.4342C69.4 69.1362 69.9 68.9375 70.3 69.1362L74.3 70.3285L75.1 69.5336V35.7521L70.4 34.2618L64.9 40.1238Z" fill="#1E275C"/>
<path d="M69.7 65.46C69.1 65.46 68.5 64.9632 68.5 64.2677V33.1688C68.5 32.5727 69 31.9765 69.7 31.9765C70.4 31.9765 70.9 32.4733 70.9 33.1688V64.2677C70.9 64.9632 70.4 65.46 69.7 65.46Z" fill="#1E275C"/>
<path d="M82.5 65.46C76.7 67.5465 71.7 73.9053 71.7 79.5687C71.7 85.2321 76.7 87.5173 82.5 84.934C88.1 82.3507 92.3 76.3893 92.3 71.2227C92.3 66.0561 88.1 63.4728 82.5 65.46ZM82.3 80.9597C78.9 82.4501 76.1 81.1584 76.1 77.979C76.1 74.7995 79 71.1233 82.3 69.931C85.4 68.7387 87.9 70.2291 87.9 73.2098C87.9 76.1905 85.5 79.4693 82.3 80.9597Z" fill="#FFC37D"/>
<path d="M78 87.3186C76.5 87.3186 75 87.0205 73.8 86.1263C71.7 84.8346 70.7 82.5494 70.7 79.6681C70.7 73.5079 75.9 66.7516 82.3 64.367C85.6 63.1747 88.5 63.4728 90.7 64.9632C92.7 66.3542 93.7 68.54 93.7 71.2227C93.7 76.886 89 83.3443 83.2 86.0269C81.2 86.8218 79.5 87.3186 78 87.3186ZM86.1 66.0561C85.2 66.0561 84 66.2548 83 66.6522C77.5 68.6394 72.9 74.6008 72.9 79.6681C72.9 81.7546 73.6 83.2449 75 84.1391C76.7 85.3314 79.3 85.1327 82.1 83.9404C87.1 81.6552 91.3 75.9918 91.3 71.2227C91.3 69.2355 90.6 67.7452 89.3 66.851C88.3 66.2548 87.3 66.0561 86.1 66.0561ZM79.7 82.6488C78.8 82.6488 77.8 82.4501 77 81.9533C75.7 81.1584 74.9 79.6681 74.9 77.8796C74.9 74.2034 78 70.1298 81.9 68.7387C83.9 68.0432 85.7 68.1426 87.1 69.0368C88.4 69.8317 89 71.322 89 73.0111C89 76.3893 86.2 80.2642 82.7 81.9533C81.7 82.4501 80.6 82.6488 79.7 82.6488ZM84.4 70.5272C83.9 70.5272 83.4 70.6265 82.8 70.8253C79.9 71.8188 77.3 75.0976 77.3 77.8796C77.3 78.5751 77.4 79.4693 78.2 80.0655C79 80.6616 80.4 80.5623 81.8 79.9661C84.5 78.6745 86.7 75.6938 86.7 73.1105C86.7 72.2163 86.4 71.4214 85.8 71.024C85.4 70.6265 85 70.5272 84.4 70.5272Z" fill="#1E275C"/>
<path d="M57.7 77.8796C51.9 79.9661 46.9 86.325 46.9 91.9884C46.9 97.6517 51.9 99.937 57.7 97.3537C63.3 94.7704 67.5 88.8089 67.5 83.6423C67.5 78.5751 63.3 75.8925 57.7 77.8796ZM57.5 93.28C54.1 94.7704 51.3 93.4787 51.3 90.2993C51.3 87.1199 54.2 83.4436 57.5 82.2513C60.6 81.0591 63.1 82.5494 63.1 85.5301C63.1 88.5109 60.6 91.7896 57.5 93.28Z" fill="#FFC37D"/>
<path d="M53.1 99.5395C51.6 99.5395 50.1 99.2415 48.9 98.3472C46.8 97.0556 45.8 94.7704 45.8 91.889C45.8 85.7289 51 78.9726 57.4 76.588C60.7 75.3957 63.6 75.6938 65.8 77.1841C67.8 78.5751 68.8 80.761 68.8 83.4436C68.8 89.107 64.1 95.5652 58.3 98.2479C56.4 99.2414 54.7 99.5395 53.1 99.5395ZM57.7 77.8796L58 78.8732C52.5 80.8603 47.9 86.8218 47.9 92.0877C47.9 94.1742 48.6 95.6646 50 96.5588C51.7 97.7511 54.3 97.5524 57.1 96.3601C62.1 94.0749 66.3 88.4115 66.3 83.6423C66.3 81.6552 65.6 80.1648 64.3 79.2706C62.8 78.2771 60.5 78.0783 58 78.9726L57.7 77.8796ZM54.8 95.0684C53.9 95.0684 52.9 94.8697 52.1 94.3729C50.8 93.5781 50 92.0877 50 90.2993C50 86.6231 53.1 82.5494 57 81.1584C59 80.4629 60.8 80.5623 62.2 81.4565C63.5 82.2513 64.1 83.7417 64.1 85.4308C64.1 88.8089 61.3 92.6839 57.8 94.3729C56.9 94.8697 55.9 95.0684 54.8 95.0684ZM59.5 82.9468C59 82.9468 58.5 83.0462 57.9 83.2449C55 84.2385 52.4 87.5173 52.4 90.2993C52.4 90.9948 52.5 91.889 53.3 92.4852C54.1 93.0813 55.5 92.9819 56.9 92.3858C59.6 91.0942 61.8 88.1134 61.8 85.5301C61.8 84.6359 61.5 83.8411 60.9 83.4436C60.6 83.0462 60.1 82.9468 59.5 82.9468Z" fill="#1E275C"/>
<path d="M71.3 64.069C71.3 64.6651 70.8 65.46 70.1 65.758C69.4 66.0561 68.8 65.758 68.8 65.0625C68.8 64.367 69.4 63.5722 70.1 63.3735C70.9 63.1747 71.3 63.4728 71.3 64.069Z" fill="#FFC37D"/>
<path d="M69.6 66.3542C69.4 66.3542 69.1 66.2548 68.9 66.1555C68.6 65.9567 68.3 65.5593 68.3 65.1619C68.3 64.2677 69 63.2741 69.9 62.976C70.4 62.7773 70.8 62.8767 71.2 63.0754C71.5 63.2741 71.7 63.6715 71.7 64.069C71.7 64.8638 71.1 65.758 70.2 66.1555C70.1 66.2548 69.8 66.3542 69.6 66.3542ZM70.6 63.7709C70.5 63.7709 70.4 63.7709 70.4 63.7709C69.8 63.9696 69.4 64.5657 69.4 65.0625C69.4 65.1619 69.4 65.2612 69.5 65.2612C69.6 65.3606 69.8 65.3606 70.1 65.2612C70.6 65.0625 71 64.4664 71 63.9696C71 63.8702 71 63.7709 70.9 63.7709C70.8 63.8702 70.6 63.7709 70.6 63.7709Z" fill="#1E275C"/>
<path d="M4.1 81.9533C3.9 81.9533 3.6 81.7546 3.6 81.4565V23.9286C3.6 23.7299 3.8 23.4318 4.1 23.4318C4.4 23.4318 4.6 23.6305 4.6 23.9286V81.4565C4.6 81.7546 4.4 81.9533 4.1 81.9533Z" fill="#1E275C"/>
<path d="M7 83.3443C6.8 83.3443 6.5 83.1456 6.5 82.8475V25.3196C6.5 25.1209 6.7 24.8228 7 24.8228C7.2 24.8228 7.5 25.0215 7.5 25.3196V82.8475C7.5 83.1456 7.2 83.3443 7 83.3443Z" fill="#1E275C"/>
<path d="M5.1 24.326C5 24.326 4.8 24.2267 4.6 24.1273C4.5 23.9286 4.6 23.6305 4.8 23.5312L49.7 1.77191C49.9 1.67255 50.2 1.77191 50.3 1.97062C50.4 2.16934 50.3 2.46741 50.1 2.56677L5.3 24.326H5.1Z" fill="#1E275C"/>
<path d="M8.4 25.3196C8.3 25.3196 8.1 25.2202 7.9 25.1209C7.8 24.9222 7.9 24.6241 8.1 24.5247L51.3 3.36163C51.5 3.26227 51.8 3.36163 51.9 3.56034C52 3.75906 51.9 4.05713 51.7 4.15648L8.7 25.3196C8.5 25.3196 8.5 25.3196 8.4 25.3196Z" fill="#1E275C"/>
</svg>
