<svg width="82" height="91" viewBox="0 0 82 91" fill="none" xmlns="http://www.w3.org/2000/svg">
<path d="M80.9849 19.7049L40.7969 39.08L1.01485 19.7049L39.1732 1.54077L80.9849 19.7049Z" fill="#FFC37D"/>
<path d="M40.7969 40.0891C40.6427 40.0891 40.4925 40.0568 40.3504 39.9882L0.568315 20.6131C0.219207 20.4436 0 20.0884 0 19.7009C0 19.3134 0.227326 18.9622 0.576434 18.7967L38.7347 0.632568C38.9986 0.507437 39.3112 0.499364 39.5791 0.616422L81.3909 18.7805C81.7522 18.938 81.9917 19.2932 81.9998 19.6847C82.0079 20.0803 81.7846 20.4395 81.4274 20.6131L41.2394 39.9882C41.1014 40.0568 40.9471 40.0891 40.7969 40.0891ZM3.34494 19.717L40.801 37.9578L78.5615 19.7533L39.1935 2.6508L3.34494 19.717Z" fill="#1E275C"/>
<path d="M40.7969 39.08V89.9395L1.01485 70.5644V19.7049L40.7969 39.08Z" fill="#FFC37D"/>
<path d="M40.7969 90.9486C40.6427 90.9486 40.4925 90.9163 40.3504 90.8477L0.568315 71.4726C0.219207 71.3031 0 70.9519 0 70.5644V19.7049C0 19.3578 0.178613 19.0348 0.479008 18.8492C0.775344 18.6635 1.14881 18.6473 1.46138 18.8007L41.2435 38.1758C41.5926 38.3453 41.8118 38.6965 41.8118 39.084V89.9435C41.8118 90.2907 41.6291 90.6176 41.3328 90.7993C41.1704 90.8961 40.9837 90.9486 40.7969 90.9486ZM2.0297 69.9347L39.7821 88.3209V39.7096L2.0297 21.3235V69.9347Z" fill="#1E275C"/>
<path d="M40.7969 39.08V89.9395L80.579 70.5644L80.9849 19.7049L40.7969 39.08Z" fill="#FFC37D"/>
<path d="M40.7969 90.9486C40.6102 90.9486 40.4235 90.8961 40.2611 90.7952C39.9647 90.6096 39.7821 90.2866 39.7821 89.9395V39.08C39.7821 38.6925 40.0053 38.3413 40.3544 38.1718L80.5425 18.7967C80.8591 18.6433 81.2326 18.6635 81.5289 18.8532C81.8252 19.0389 82.0038 19.3658 81.9998 19.713L81.5938 70.5725C81.5898 70.956 81.3706 71.3031 81.0255 71.4726L41.2435 90.8477C41.1014 90.9163 40.9512 90.9486 40.7969 90.9486ZM41.8118 39.7137V88.3249L79.5682 69.9347L79.9579 21.3235L41.8118 39.7137Z" fill="#1E275C"/>
<path d="M25.9801 8.80642L65.1533 26.9705V78.7706L56.6286 82.6739V31.8143L17.2524 13.1133L25.9801 8.80642Z" fill="#FFC37D"/>
<path d="M56.6286 83.0775C56.5514 83.0775 56.4743 83.0573 56.4094 83.0129C56.2916 82.9403 56.2226 82.8111 56.2226 82.6739V32.0686L17.0779 13.4766C16.9358 13.408 16.8465 13.2708 16.8465 13.1133C16.8465 12.96 16.9317 12.8187 17.0738 12.7501L25.8015 8.44314C25.9111 8.39067 26.041 8.38663 26.1547 8.4391L65.3278 26.6032C65.4699 26.6678 65.5633 26.8131 65.5633 26.9705V78.7706C65.5633 78.928 65.4699 79.0733 65.3278 79.1379L56.8031 83.0412C56.7422 83.0654 56.6854 83.0775 56.6286 83.0775ZM18.178 13.1053L56.8031 31.447C56.9452 31.5156 57.0345 31.6569 57.0345 31.8103V82.0401L64.7474 78.5082V27.2289L25.9842 9.25447L18.178 13.1053Z" fill="#1E275C"/>
<path d="M55.2078 8.80642L16.0346 26.9705V78.7706L24.5593 82.6739V31.8143L63.9355 13.1133L55.2078 8.80642Z" fill="#FFC37D"/>
<path d="M24.5593 83.0775C24.5025 83.0775 24.4416 83.0654 24.3888 83.0412L15.8641 79.1379C15.722 79.0733 15.6287 78.928 15.6287 78.7706V26.9705C15.6287 26.8131 15.722 26.6718 15.8641 26.6032L55.0373 8.4391C55.1469 8.38663 55.2768 8.39067 55.3904 8.44314L64.1181 12.7501C64.2562 12.8187 64.3455 12.96 64.3455 13.1133C64.3455 13.2667 64.2562 13.408 64.1141 13.4766L24.9653 32.0686V82.6739C24.9653 82.8111 24.8963 82.9403 24.7785 83.0129C24.7136 83.0573 24.6365 83.0775 24.5593 83.0775ZM16.4405 78.5123L24.1534 82.0442V31.8143C24.1534 31.6569 24.2427 31.5156 24.3848 31.451L63.0099 13.1093L55.2037 9.25851L16.4405 27.2289V78.5123Z" fill="#1E275C"/>
<path d="M32.2722 31.6246C32.1179 31.6246 31.9718 31.5398 31.9028 31.3905C31.8094 31.1887 31.8987 30.9465 32.1017 30.8536L37.7848 28.242C37.9878 28.1492 38.2314 28.238 38.3247 28.4398C38.4181 28.6416 38.3288 28.8838 38.1258 28.9767L32.4427 31.5883C32.3859 31.6125 32.329 31.6246 32.2722 31.6246Z" fill="#1E275C"/>
<path d="M20.9059 22.3407C20.7516 22.3407 20.6055 22.2559 20.5365 22.1066C20.4431 21.9048 20.5324 21.6626 20.7354 21.5697L26.4185 18.9581C26.6215 18.8653 26.8651 18.9541 26.9584 19.1559C27.0518 19.3578 26.9625 19.5999 26.7595 19.6928L21.0764 22.3044C21.0195 22.3286 20.9627 22.3407 20.9059 22.3407Z" fill="#1E275C"/>
<path d="M40.7969 32.8355C40.6427 32.8355 40.4965 32.7508 40.4275 32.6014C40.3341 32.3996 40.4235 32.1574 40.6264 32.0646L46.3096 29.453C46.5125 29.3601 46.7561 29.4489 46.8495 29.6508C46.9428 29.8526 46.8535 30.0948 46.6506 30.1876L40.9674 32.7992C40.9106 32.8234 40.8538 32.8355 40.7969 32.8355Z" fill="#1E275C"/>
<path d="M8.7277 19.9188C8.57344 19.9188 8.4273 19.8341 8.35829 19.6847C8.26493 19.4829 8.35424 19.2407 8.55721 19.1479L14.2404 16.5363C14.4433 16.4434 14.6869 16.5322 14.7803 16.7341C14.8736 16.9359 14.7843 17.1781 14.5813 17.2709L8.89819 19.8825C8.84136 19.9067 8.78453 19.9188 8.7277 19.9188Z" fill="#1E275C"/>
<path d="M57.0345 19.9188C56.8802 19.9188 56.7341 19.8341 56.6651 19.6847C56.5717 19.4829 56.661 19.2407 56.864 19.1479L62.5472 16.5363C62.7501 16.4434 62.9937 16.5322 63.0871 16.7341C63.1804 16.9359 63.0911 17.1781 62.8881 17.2709L57.205 19.8825C57.1482 19.9067 57.0913 19.9188 57.0345 19.9188Z" fill="#1E275C"/>
<path d="M35.5197 8.21306C35.3655 8.21306 35.2193 8.1283 35.1503 7.97895C35.0569 7.77712 35.1462 7.53493 35.3492 7.4421L41.0324 4.8305C41.2353 4.73766 41.4789 4.82646 41.5723 5.02829C41.6656 5.23011 41.5763 5.4723 41.3734 5.56514L35.6902 8.17673C35.6334 8.20095 35.5765 8.21306 35.5197 8.21306Z" fill="#1E275C"/>
<path d="M63.5295 19.9188C63.3753 19.9188 63.2291 19.8341 63.1601 19.6847C63.0668 19.4829 63.1561 19.2407 63.359 19.1479L69.0422 16.5363C69.2452 16.4434 69.4887 16.5322 69.5821 16.7341C69.6755 16.9359 69.5862 17.1781 69.3832 17.2709L63.7 19.8825C63.6432 19.9067 63.5864 19.9188 63.5295 19.9188Z" fill="#1E275C"/>
<path d="M14.4109 21.5334C14.2566 21.5334 14.1105 21.4487 14.0414 21.2993C13.9481 21.0975 14.0374 20.8553 14.2404 20.7625L19.9235 18.1509C20.1265 18.058 20.37 18.1468 20.4634 18.3486C20.5568 18.5505 20.4675 18.7927 20.2645 18.8855L14.5813 21.4971C14.5245 21.5213 14.4677 21.5334 14.4109 21.5334Z" fill="#1E275C"/>
<path d="M4.65613 34.6439C4.4288 34.6439 4.25019 34.4622 4.25019 34.2402L4.2786 28.016C4.2786 27.794 4.46128 27.6123 4.68454 27.6123C4.90781 27.6123 5.09048 27.794 5.09048 28.016L5.06207 34.2402C5.06207 34.4663 4.87939 34.6439 4.65613 34.6439Z" fill="#1E275C"/>
<path d="M8.30958 41.9095C8.08226 41.9095 7.90364 41.7279 7.90364 41.5059L7.93206 35.2816C7.93206 35.0596 8.09849 34.878 8.338 34.878C8.56126 34.878 8.74394 35.0596 8.74394 35.2816L8.71552 41.5059C8.71552 41.7319 8.53285 41.9095 8.30958 41.9095Z" fill="#1E275C"/>
<path d="M28.6066 43.9278C28.3792 43.9278 28.2006 43.7461 28.2006 43.5241L28.229 37.2999C28.229 37.0779 28.4076 36.8801 28.635 36.8962C28.8582 36.8962 29.0409 37.0779 29.0409 37.2999L29.0125 43.5241C29.0125 43.7502 28.8298 43.9278 28.6066 43.9278Z" fill="#1E275C"/>
<path d="M5.46801 52.4044C5.24068 52.4044 5.06207 52.2227 5.06207 52.0007L5.09048 45.7765C5.09048 45.5545 5.27315 45.3728 5.49642 45.3728C5.71969 45.3728 5.90236 45.5545 5.90236 45.7765L5.87394 52.0007C5.87394 52.2267 5.69127 52.4044 5.46801 52.4044Z" fill="#1E275C"/>
<path d="M8.30958 64.1101C8.08226 64.1101 7.90364 63.9285 7.90364 63.7065L7.93206 57.4822C7.93206 57.2602 8.09849 57.0746 8.338 57.0786C8.56126 57.0786 8.74394 57.2602 8.74394 57.4822L8.71552 63.7065C8.71552 63.9325 8.53285 64.1101 8.30958 64.1101Z" fill="#1E275C"/>
<path d="M28.6066 65.3211C28.3792 65.3211 28.2006 65.1394 28.2006 64.9174L28.229 58.6932C28.229 58.4712 28.4117 58.2895 28.635 58.2895C28.8582 58.2895 29.0409 58.4712 29.0409 58.6932L29.0125 64.9174C29.0125 65.1435 28.8298 65.3211 28.6066 65.3211Z" fill="#1E275C"/>
<path d="M76.1015 41.5059C75.8742 41.5059 75.6955 41.3242 75.6955 41.1022L75.724 34.878C75.724 34.656 75.9066 34.4743 76.1299 34.4743C76.3532 34.4743 76.5358 34.656 76.5358 34.878L76.5074 41.1022C76.5074 41.3283 76.3247 41.5059 76.1015 41.5059Z" fill="#1E275C"/>
<path d="M69.2005 47.5606C68.9732 47.5606 68.7946 47.3789 68.7946 47.1569L68.823 40.9327C68.823 40.7107 69.0057 40.5291 69.2289 40.5291C69.4522 40.5291 69.6349 40.7107 69.6349 40.9327L69.6065 47.1569C69.6065 47.383 69.4238 47.5606 69.2005 47.5606Z" fill="#1E275C"/>
<path d="M76.9134 62.8992C76.686 62.8992 76.5074 62.7175 76.5074 62.4955L76.5358 56.2713C76.5358 56.0493 76.7185 55.8676 76.9418 55.8676C77.165 55.8676 77.3477 56.0493 77.3477 56.2713L77.3193 62.4955C77.3193 62.7216 77.1366 62.8992 76.9134 62.8992Z" fill="#1E275C"/>
<path d="M47.2798 66.1283C47.0525 66.1283 46.8738 65.9467 46.8738 65.7247L46.9022 59.5005C46.9022 59.2785 47.0849 59.0968 47.3082 59.0968C47.5315 59.0968 47.7141 59.2785 47.7141 59.5005L47.6857 65.7247C47.6857 65.9507 47.503 66.1283 47.2798 66.1283Z" fill="#1E275C"/>
<path d="M35.9135 80.256C35.6861 80.256 35.5075 80.0744 35.5075 79.8524L35.5359 73.6281C35.5359 73.4061 35.7186 73.2245 35.9419 73.2245C36.1651 73.2245 36.3478 73.4061 36.3478 73.6281L36.3194 79.8524C36.3194 80.0784 36.1367 80.256 35.9135 80.256Z" fill="#1E275C"/>
<path d="M69.2005 71.7794C68.9732 71.7794 68.7946 71.5978 68.7946 71.3758L68.823 65.1515C68.823 64.9295 69.0057 64.7479 69.2289 64.7479C69.4522 64.7479 69.6349 64.9295 69.6349 65.1515L69.6065 71.3758C69.6065 71.6018 69.4238 71.7794 69.2005 71.7794Z" fill="#1E275C"/>
<path d="M49.7154 80.256C49.4881 80.256 49.3095 80.0744 49.3095 79.8524L49.3379 73.6281C49.3379 73.4061 49.5206 73.2245 49.7438 73.2245C49.9671 73.2245 50.1498 73.4061 50.1498 73.6281L50.1214 79.8524C50.1214 80.0784 49.9387 80.256 49.7154 80.256Z" fill="#1E275C"/>
<path d="M13.5868 39.8913C13.3595 39.8913 13.1809 39.7096 13.1809 39.4876L13.2093 33.2634C13.2093 33.0414 13.4001 32.8719 13.6152 32.8598C13.8385 32.8598 14.0212 33.0414 14.0212 33.2634L13.9927 39.4876C13.9927 39.7137 13.8101 39.8913 13.5868 39.8913Z" fill="#1E275C"/>
<path d="M12.369 54.4226C12.1417 54.4226 11.963 54.2409 11.963 54.0189L11.9915 47.7947C11.9915 47.5727 12.1741 47.3911 12.3974 47.3911C12.6207 47.3911 12.8033 47.5727 12.8033 47.7947L12.7749 54.0189C12.7749 54.245 12.5922 54.4226 12.369 54.4226Z" fill="#1E275C"/>
<path d="M32.26 54.4226C32.0327 54.4226 31.8541 54.2409 31.8541 54.0189L31.8825 47.7947C31.8825 47.5727 32.0652 47.3911 32.2884 47.3911C32.5117 47.3911 32.6944 47.5727 32.6944 47.7947L32.666 54.0189C32.666 54.245 32.4833 54.4226 32.26 54.4226Z" fill="#1E275C"/>
<path d="M72.0421 36.2585C71.8148 36.2585 71.6361 36.0768 71.6361 35.8548L71.6646 29.6306C71.6646 29.4086 71.8472 29.2269 72.0705 29.2269C72.2938 29.2269 72.4764 29.4086 72.4764 29.6306L72.448 35.8548C72.448 36.0809 72.2654 36.2585 72.0421 36.2585Z" fill="#1E275C"/>
<path d="M52.557 60.8809C52.3297 60.8809 52.1511 60.6993 52.1511 60.4773L52.1795 54.2531C52.1795 54.031 52.3621 53.8494 52.5854 53.8494C52.8087 53.8494 52.9913 54.031 52.9913 54.2531L52.9629 60.4773C52.9629 60.7033 52.7803 60.8809 52.557 60.8809Z" fill="#1E275C"/>
<path d="M73.2599 56.8445C73.0326 56.8445 72.854 56.6628 72.854 56.4408L72.8824 50.2166C72.8824 49.9946 73.065 49.8089 73.2883 49.8129C73.5116 49.8129 73.6943 49.9946 73.6943 50.2166L73.6658 56.4408C73.6658 56.6669 73.4832 56.8445 73.2599 56.8445Z" fill="#1E275C"/>
<path d="M50.9332 45.1387C50.7059 45.1387 50.5273 44.9571 50.5273 44.7351L50.5557 38.5108C50.5557 38.2888 50.7384 38.1072 50.9616 38.1072C51.1849 38.1072 51.3676 38.2888 51.3676 38.5108L51.3392 44.7351C51.3392 44.9611 51.1565 45.1387 50.9332 45.1387Z" fill="#1E275C"/>
<path d="M45.656 52.0007C45.4287 52.0007 45.2501 51.8191 45.2501 51.5971L45.2785 45.3728C45.2785 45.1508 45.4612 44.9651 45.6844 44.9692C45.9077 44.9692 46.0904 45.1508 46.0904 45.3728L46.062 51.5971C46.062 51.8231 45.8793 52.0007 45.656 52.0007Z" fill="#1E275C"/>
<path d="M35.5075 66.9356C35.2802 66.9356 35.1016 66.754 35.1016 66.532L35.13 60.3078C35.13 60.0858 35.3127 59.9041 35.5359 59.9041C35.7592 59.9041 35.9419 60.0858 35.9419 60.3078L35.9135 66.532C35.9135 66.758 35.7308 66.9356 35.5075 66.9356Z" fill="#1E275C"/>
<path d="M13.5868 71.7794C13.3595 71.7794 13.1809 71.5978 13.1809 71.3758L13.2093 65.1515C13.2093 64.9295 13.3919 64.7479 13.6152 64.7479C13.8385 64.7479 14.0212 64.9295 14.0212 65.1515L13.9927 71.3758C13.9927 71.6018 13.8101 71.7794 13.5868 71.7794Z" fill="#1E275C"/>
<path d="M39.985 12.6532C39.8308 12.6532 39.6846 12.5684 39.6156 12.4191C39.5223 12.2172 39.6116 11.9751 39.8145 11.8822L45.4977 9.27062C45.7007 9.17778 45.9442 9.26658 46.0376 9.4684C46.131 9.67023 46.0417 9.91242 45.8387 10.0053L40.1555 12.6169C40.0987 12.6411 40.0419 12.6532 39.985 12.6532Z" fill="#1E275C"/>
<path d="M66.3711 23.148C66.2169 23.148 66.0707 23.0632 66.0017 22.9139C65.9083 22.7121 65.9977 22.4699 66.2006 22.377L71.8838 19.7654C72.0867 19.6726 72.3303 19.7614 72.4237 19.9632C72.517 20.1651 72.4277 20.4072 72.2248 20.5001L66.5416 23.1117C66.4848 23.1359 66.4279 23.148 66.3711 23.148Z" fill="#1E275C"/>
<path d="M29.1181 12.0356C33.6849 12.0356 36.1165 14.2516 40.5737 17.8885C36.1205 21.2105 33.689 23.7413 29.1181 23.7413C24.5472 23.7413 20.845 21.1217 20.845 17.8885C20.845 14.6552 24.5513 12.0356 29.1181 12.0356Z" fill="#FFC37D"/>
<path d="M29.1181 24.7505C23.9951 24.7505 19.8302 21.6706 19.8302 17.8885C19.8302 14.1063 23.9951 11.0265 29.1181 11.0265C33.7904 11.0265 36.4534 13.2061 40.4803 16.5039L41.2191 17.1054C41.4586 17.3032 41.5967 17.5978 41.5885 17.9086C41.5804 18.2194 41.4343 18.506 41.1826 18.6957C40.4925 19.2084 39.8552 19.7049 39.2463 20.1731C35.9379 22.7322 33.3236 24.7505 29.1181 24.7505ZM29.1181 13.0447C25.1155 13.0447 21.8599 15.2163 21.8599 17.8885C21.8599 20.5606 25.1155 22.7322 29.1181 22.7322C32.6295 22.7322 34.7688 21.0813 38.0041 18.5787C38.3086 18.3446 38.6171 18.1024 38.9418 17.8562C35.1463 14.7521 32.9786 13.0447 29.1181 13.0447Z" fill="#1E275C"/>
<path d="M51.668 23.7413C46.9875 23.7413 44.4991 21.5576 39.9364 17.9692C44.4991 14.6916 46.9875 12.197 51.668 12.197C56.3485 12.197 60.14 14.7804 60.14 17.9692C60.14 21.158 56.3485 23.7413 51.668 23.7413Z" fill="#FFC37D"/>
<path d="M51.668 24.7505C46.8982 24.7505 44.1744 22.6031 40.0541 19.3497L39.3072 18.7603C39.0595 18.5625 38.9134 18.2638 38.9215 17.945C38.9296 17.6301 39.0839 17.3355 39.3437 17.1498C40.05 16.6412 40.7036 16.1568 41.3247 15.6926C44.8401 13.077 47.3772 11.1879 51.668 11.1879C56.9858 11.1879 61.1548 14.1668 61.1548 17.9692C61.1548 21.7715 56.9858 24.7505 51.668 24.7505ZM41.6088 18.0015C45.4815 21.053 47.702 22.7322 51.668 22.7322C55.7112 22.7322 59.1251 20.5525 59.1251 17.9692C59.1251 15.3858 55.7112 13.2061 51.668 13.2061C48.0552 13.2061 45.859 14.8369 42.5425 17.3112C42.238 17.5332 41.9295 17.7633 41.6088 18.0015Z" fill="#1E275C"/>
<path d="M43.5979 14.5664H36.9162V21.2105H43.5979V14.5664Z" fill="#FFC37D"/>
<path d="M43.5979 22.2196H36.9162C36.356 22.2196 35.9013 21.7675 35.9013 21.2105V14.5664C35.9013 14.0094 36.356 13.5573 36.9162 13.5573H43.5979C44.1581 13.5573 44.6128 14.0094 44.6128 14.5664V21.2105C44.6128 21.7675 44.1581 22.2196 43.5979 22.2196ZM37.931 20.2013H42.5831V15.5756H37.931V20.2013Z" fill="#1E275C"/>
</svg>
