<svg width="120" height="90" viewBox="0 0 120 90" fill="none" xmlns="http://www.w3.org/2000/svg">
<path d="M21.1247 66.9361L35.1274 29.7972L14.4821 31.2744L3.07739 60.5172L21.1247 66.9361Z" fill="#FFC37D"/>
<path d="M21.9702 67.826C21.6371 68.1385 21.1494 68.2593 20.6924 68.0955L2.64872 61.6732C2.33717 61.5615 2.08571 61.3329 1.94892 61.0303C1.81212 60.7278 1.80282 60.3865 1.92199 60.0795L13.3267 30.8367C13.5033 30.3884 13.9205 30.0779 14.4054 30.0405L35.0507 28.5632C35.4686 28.5347 35.8725 28.7147 36.1203 29.0477C36.3682 29.3807 36.4338 29.8173 36.2838 30.2071L22.2842 67.3565C22.2147 67.5428 22.1042 67.7004 21.9702 67.826ZM4.69018 59.7787L20.4007 65.3668L33.3004 31.1607L15.3495 32.4468L4.69018 59.7787Z" fill="#1E275C"/>
<path d="M23.0372 9.70615L2.91195 60.4368C2.91195 60.4368 31.6429 42.4899 51.1268 62.9974C80.6994 94.1234 97.4894 88.0695 97.4894 88.0695L118.012 36.2726C118.012 36.2726 94.6875 33.2216 74.3784 11.8455C54.5968 -8.97518 23.0372 9.70615 23.0372 9.70615Z" fill="#FFC37D"/>
<path d="M98.335 88.9594C98.2118 89.0749 98.0651 89.1654 97.9018 89.2243C97.185 89.486 80.0039 95.1931 50.2216 63.8464C42.4666 55.684 32.3058 52.7804 20.0167 55.2186C10.7196 57.0654 3.6312 61.4316 3.56312 61.4753C3.10829 61.7605 2.52438 61.7225 2.11543 61.3858C1.70648 61.049 1.56452 60.4888 1.76017 59.9956L21.8854 9.26504C21.9853 9.0098 22.1714 8.79486 22.4112 8.65079C22.7402 8.4566 30.6044 3.84744 41.0591 1.76314C55.0565 -1.03197 66.8927 2.16488 75.2836 10.9965C95.0313 31.7816 117.961 35.0219 118.187 35.0515C118.564 35.1021 118.893 35.3186 119.082 35.6398C119.274 35.9645 119.303 36.355 119.164 36.7068L98.6415 88.5037C98.5722 88.683 98.4689 88.8338 98.335 88.9594ZM5.31072 57.7291C8.34842 56.2129 13.4203 54.0342 19.4788 52.8218C32.5024 50.2197 43.7596 53.4413 52.0321 62.1483C77.8979 89.373 93.6095 87.683 96.5714 87.0456L116.308 37.2318C110.717 36.1613 91.104 31.2443 73.4768 12.6912C65.5966 4.39704 54.8705 1.52547 41.5936 4.15643C32.7729 5.90647 25.6855 9.63228 24.0315 10.5508L5.31072 57.7291Z" fill="#1E275C"/>
<path d="M68.0694 78.2209C67.9318 78.35 67.7304 78.3975 67.5437 78.3235C67.2913 78.2236 67.1681 77.9353 67.2713 77.6837L80.0737 46.3155C80.1769 46.0639 80.4686 45.9384 80.721 46.0383C80.9734 46.1382 81.0966 46.4265 80.9934 46.6781L68.191 78.0463C68.1606 78.1152 68.1201 78.1734 68.0694 78.2209Z" fill="#1E275C"/>
<path d="M77.6333 83.0981C77.4957 83.2271 77.2943 83.2746 77.1076 83.2006C76.8552 83.1008 76.732 82.8125 76.8352 82.5608L86.8866 57.9331C86.9898 57.6815 87.2815 57.556 87.5338 57.6559C87.7862 57.7558 87.9095 58.044 87.8062 58.2957L77.7549 82.9234C77.7245 82.9923 77.684 83.0505 77.6333 83.0981Z" fill="#1E275C"/>
<path d="M3.57625 67.4206C6.39349 70.3858 12.2471 71.5668 16.8677 69.9797C21.7577 68.3014 23.4018 64.2013 20.2835 60.9192C17.1653 57.6372 10.7221 56.6861 6.13984 58.6883C1.81352 60.5851 0.759008 64.4554 3.57625 67.4206Z" fill="#FFC37D"/>
<path d="M21.02 68.9664C20.0496 69.8765 18.7729 70.6229 17.2622 71.1445C12.2481 72.8651 5.83662 71.6015 2.67103 68.2696C1.11529 66.6322 0.482111 64.6612 0.888506 62.725C1.34552 60.5394 3.04144 58.7064 5.64945 57.5595C10.7795 55.3195 17.7495 56.443 21.189 60.0633C22.8259 61.7861 23.4495 63.8334 22.9395 65.8264C22.6434 66.9994 21.9831 68.063 21.02 68.9664ZM4.56657 61.1333C3.90757 61.7514 3.47318 62.4617 3.31457 63.2029C3.07546 64.3494 3.477 65.5144 4.48147 66.5716C6.99432 69.2165 12.3772 70.2263 16.4731 68.8149C18.6717 68.0587 20.153 66.7637 20.5378 65.2517C20.8373 64.0822 20.4335 62.8789 19.3749 61.7647C16.6355 58.8813 10.8001 57.9862 6.62346 59.8099C5.80499 60.1737 5.1097 60.6239 4.56657 61.1333Z" fill="#1E275C"/>
<path d="M8.37001 65.3816C9.48947 66.5598 11.8107 67.0283 13.6476 66.3959C15.5874 65.7277 16.2424 64.1036 15.0012 62.7972C13.76 61.4908 11.2043 61.1143 9.38628 61.9107C7.66773 62.6676 7.25055 64.2033 8.37001 65.3816Z" fill="#FFC37D"/>
<path d="M15.8053 66.5264C15.3418 66.9611 14.7445 67.3126 14.0424 67.5538C11.7552 68.3392 8.92922 67.7719 7.46141 66.227C6.6734 65.3976 6.35426 64.3842 6.56782 63.3694C6.79464 62.2748 7.64356 61.3305 8.88889 60.7818C11.2299 59.7575 14.3101 60.268 15.8997 61.9411C16.7181 62.8025 17.0349 63.8854 16.7752 64.9166C16.6281 65.5258 16.2905 66.0713 15.8053 66.5264ZM9.27142 63.4186C9.12297 63.5579 9.0303 63.7054 8.99727 63.8508C8.93917 64.114 9.11965 64.3688 9.27523 64.5325C9.99222 65.2872 11.76 65.7497 13.2531 65.2311C13.9801 64.9801 14.3118 64.6084 14.3805 64.342C14.4456 64.079 14.2617 63.8206 14.0926 63.6427C13.2302 62.7349 11.2183 62.4408 9.87352 63.0289C9.62774 63.145 9.4235 63.276 9.27142 63.4186Z" fill="#1E275C"/>
</svg>
