<svg width="77" height="86" viewBox="0 0 77 86" fill="none" xmlns="http://www.w3.org/2000/svg">
<path d="M35.2681 55.586L60.133 43.6238C64.7846 33.1996 55.9888 3.72142 30.3628 1.1581L12.5175 10.0443L35.2681 55.586Z" fill="#FFC37D"/>
<path d="M35.2678 56.6112C34.8449 56.6112 34.5912 56.4403 34.4221 56.0985L11.6715 10.4714C11.587 10.3005 11.587 9.95873 11.587 9.7024C11.6715 9.53151 11.8407 9.18974 12.0944 9.10429L29.9396 0.218111C30.1088 0.132667 30.2779 0.132667 30.4471 0.132667C45.5859 1.67066 53.6205 12.0948 57.0035 18.1614C62.1625 27.133 63.7694 37.8989 61.063 43.9655C60.9784 44.1363 60.8093 44.3927 60.5556 44.4781L35.6907 56.5257C35.437 56.5257 35.3524 56.6112 35.2678 56.6112ZM13.7859 10.4714L35.6907 54.3042L59.3715 42.9401C61.3167 38.2407 60.5556 28.4146 55.312 19.1867C52.0981 13.4619 44.6556 3.80676 30.6162 2.26877L13.7859 10.4714Z" fill="#1E275C"/>
<path d="M1.01559 24.3992C1.01559 35.3361 9.98049 48.3236 21.6518 53.6211C33.9996 59.3458 44.4869 54.3046 44.4869 42.257C44.4869 30.2094 33.9151 16.5384 21.6518 12.0953C9.98049 7.90853 1.01559 13.4624 1.01559 24.3992Z" fill="#FFC37D"/>
<path d="M31.3771 57.0386C28.2479 57.0386 24.7803 56.2696 21.2282 54.5607C9.38776 49.0923 0 35.763 0 24.399C0 19.1015 2.02979 14.7438 5.66649 12.1805C9.81064 9.2754 15.5617 8.84818 21.9048 11.0697C28.1633 13.2913 33.9989 17.8198 38.3968 23.63C42.8792 29.5256 45.4165 36.1903 45.4165 42.1714C45.4165 47.6398 43.3021 52.1683 39.4117 54.6462C37.1282 56.2696 34.4218 57.0386 31.3771 57.0386ZM14.2085 11.6678C11.4175 11.6678 8.88032 12.3514 6.85053 13.8039C3.72128 16.0255 2.02979 19.785 2.02979 24.399C2.02979 35.1649 10.9101 47.6398 22.0739 52.7664C28.3324 55.5861 34.3372 55.8424 38.3968 53.0227C41.6952 50.8866 43.5558 47.0417 43.5558 42.0859C43.5558 30.6364 33.3223 17.1362 21.3973 12.864C18.8601 12.095 16.4074 11.6678 14.2085 11.6678Z" fill="#1E275C"/>
<path d="M13.7865 29.1837C13.7865 33.5414 17.4232 38.668 21.9902 40.8041C26.811 43.0257 31.0397 41.0604 31.0397 36.2756C31.0397 31.4907 26.9801 26.0223 21.9902 24.3134C17.4232 22.6045 13.7865 24.9115 13.7865 29.1837Z" fill="#FFC37D"/>
<path d="M25.8804 42.7693C24.5272 42.7693 23.0894 42.5129 21.5671 41.8294C16.7463 39.6078 12.8559 34.054 12.8559 29.3546C12.8559 27.133 13.7016 25.1678 15.3931 24.057C17.2538 22.7754 19.7064 22.6045 22.4128 23.5444C27.741 25.5096 32.1389 31.3198 32.1389 36.4464C32.1389 38.9243 31.2085 40.8041 29.5171 41.9148C28.333 42.4275 27.2335 42.7693 25.8804 42.7693ZM19.0298 24.826C18.0995 24.826 17.0846 25.0824 16.408 25.595C15.3086 26.364 14.7165 27.6457 14.7165 29.3546C14.7165 33.3704 18.0995 38.1553 22.3282 40.1205C24.6963 41.2313 26.8107 41.2313 28.2484 40.2914C29.4325 39.5224 30.0245 38.2407 30.0245 36.4464C30.0245 32.0888 26.1341 27.0476 21.5671 25.3387C20.8059 24.9115 19.8756 24.826 19.0298 24.826Z" fill="#1E275C"/>
<path d="M30.1932 1.15816C25.5416 0.901825 8.965 11.1551 9.3033 11.1551C20.1288 10.8988 36.8746 18.5033 41.2724 29.9528C45.6703 41.2314 51.4214 42.5131 51.4214 42.5131L68.8437 35.0794C68.8437 35.0794 62.8389 39.2662 58.9485 23.1173C57.0033 15.8545 44.5708 2.09804 30.1932 1.15816Z" fill="#FFC37D"/>
<path d="M51.5062 43.4532C51.4217 43.4532 51.4217 43.4532 51.3371 43.4532C51.0834 43.3678 44.994 41.9152 40.5116 30.2948C36.3674 19.6998 20.3828 11.8389 9.38816 12.0953C8.96529 12.0953 8.71157 11.9244 8.54242 11.5826C8.37327 11.3263 8.37327 10.899 8.54242 10.6427C8.96529 9.95915 15.6467 6.19961 17.6765 5.0034C23.935 1.67108 28.1637 0.0476429 30.278 0.133087C45.4169 1.15842 57.9339 15.3421 59.7945 22.8612C61.9089 31.6619 64.5307 33.8835 66.053 34.4816C66.7296 34.7379 67.2371 34.6525 67.7445 34.567L68.5903 34.1398C69.0977 33.9689 69.5206 34.1398 69.7743 34.567C69.9435 34.9943 69.8589 35.5069 69.5206 35.8487C69.5206 35.8487 69.0132 36.105 68.3366 36.3614L52.0137 43.3678C51.76 43.4532 51.6754 43.4532 51.5062 43.4532ZM12.5174 10.2155C17.5073 10.7281 23.0892 12.437 28.2483 15.2567C35.1834 19.0162 40.1733 24.0574 42.3722 29.5258C46.0089 38.8392 50.4068 40.9753 51.5908 41.4026L64.6153 35.7633C61.9089 34.2253 59.6254 29.9531 58.0185 23.203C56.2424 16.5383 44.2328 2.95274 30.1935 2.0983C26.9796 1.92741 17.169 7.39583 12.5174 10.2155Z" fill="#1E275C"/>
<path d="M15.8157 35.0806C15.3928 35.0806 15.1391 34.9097 14.97 34.4825C14.8008 33.9698 14.97 33.3717 15.4774 33.2008L27.0641 27.8178C27.5716 27.647 28.1636 27.8178 28.3327 28.3305C28.5019 28.8432 28.3327 29.4413 27.8253 29.6122L16.2386 34.9951C16.154 34.9951 15.9003 35.0806 15.8157 35.0806Z" fill="#1E275C"/>
<path d="M18.1839 38.0712C17.761 38.0712 17.5073 37.9003 17.3381 37.4731C17.169 36.9604 17.3381 36.3623 17.8456 36.1914L29.4323 30.8085C29.9397 30.6376 30.5317 30.8085 30.7009 31.3211C30.87 31.8338 30.7009 32.4319 30.1934 32.6028L18.6067 37.9858C18.4376 38.0712 18.2684 38.0712 18.1839 38.0712Z" fill="#1E275C"/>
<path d="M20.4672 40.8049C20.0443 40.8049 19.7906 40.634 19.6214 40.2068C19.4523 39.6941 19.6214 39.096 20.1289 38.9251L30.5315 34.3111C31.039 34.1402 31.631 34.3111 31.8001 34.8238C31.9693 35.3365 31.8001 35.9346 31.2927 36.1055L20.89 40.7194C20.8055 40.8049 20.5517 40.8049 20.4672 40.8049Z" fill="#1E275C"/>
<path d="M13.9547 31.9185C13.5318 31.9185 13.2781 31.7476 13.109 31.3204C12.9398 30.8077 13.109 30.2096 13.6164 30.0387L24.2728 24.9975C24.7802 24.8266 25.3723 24.9975 25.5414 25.5102C25.7106 26.0228 25.5414 26.621 25.034 26.7918L14.3776 31.833C14.293 31.833 14.0393 31.9185 13.9547 31.9185Z" fill="#1E275C"/>
<path d="M42.3702 84.1248L67.2351 72.1627C71.9713 61.7385 63.091 32.2603 37.5495 29.697L19.7043 38.4977L42.3702 84.1248Z" fill="#FFC37D"/>
<path d="M42.3715 85.0646C41.9486 85.0646 41.6949 84.8937 41.5257 84.5519L18.8598 39.0102C18.7752 38.8394 18.7752 38.4976 18.7752 38.2412C18.8598 38.0704 19.0289 37.7286 19.2826 37.6431L37.1279 28.8424C37.297 28.757 37.5507 28.757 37.6353 28.757C52.6895 30.2095 60.6395 40.6337 64.1071 46.7002C69.1816 55.6718 70.7885 66.5232 68.0821 72.5043C67.9975 72.6752 67.8284 72.9315 67.5747 73.017L42.7098 84.9791C42.6252 85.0646 42.5406 85.0646 42.3715 85.0646ZM20.9741 39.0102L42.8789 82.843L66.5598 71.479C68.505 66.7796 67.7438 56.9535 62.5002 47.7255C59.2864 42.0008 51.8438 32.3456 37.8044 30.7222L20.9741 39.0102Z" fill="#1E275C"/>
<path d="M8.11898 52.9378C8.11898 63.8746 17.0839 76.8621 28.7551 82.1597C41.103 87.8844 51.5903 82.8432 51.5903 70.7956C51.5903 58.748 41.103 45.077 28.7551 40.5484C17.1684 36.3617 8.11898 42.001 8.11898 52.9378Z" fill="#FFC37D"/>
<path d="M38.4818 85.5772C35.3525 85.5772 31.885 84.8082 28.3329 83.0993C16.4924 77.7163 7.27382 64.4725 7.27382 52.9376C7.27382 47.64 9.30361 43.2824 12.9403 40.7191C17.0845 37.814 22.8355 37.3867 29.1786 39.6083C35.268 42.0007 41.1036 46.3584 45.586 52.254C50.0685 58.1496 52.6057 64.8143 52.6057 70.7954C52.6057 76.2638 50.4914 80.7923 46.6009 83.2702C44.3174 84.8082 41.5265 85.5772 38.4818 85.5772ZM21.3978 40.2064C18.6068 40.2064 16.0696 40.89 14.0398 42.3425C10.9105 44.564 9.21903 48.3236 9.21903 52.9376C9.21903 63.7035 18.0993 76.1783 29.2632 81.305C35.5217 84.1246 41.5265 84.381 45.586 81.5613C48.8845 79.4252 50.7451 75.5802 50.7451 70.6245C50.7451 59.175 40.5116 45.6748 28.5866 41.4026C25.9648 40.6336 23.5967 40.2064 21.3978 40.2064Z" fill="#1E275C"/>
<path d="M20.9732 57.8076C20.9732 62.1652 24.6099 67.2918 29.1769 69.4279C33.9977 71.6495 38.2264 69.6843 38.2264 64.8994C38.2264 60.1145 34.0823 54.6461 29.1769 52.9372C24.4408 51.2284 20.9732 53.3645 20.9732 57.8076Z" fill="#FFC37D"/>
<path d="M33.0686 71.3079C31.7154 71.3079 30.2776 71.0515 28.7553 70.368C23.9345 68.1464 20.0441 62.5926 20.0441 57.8931C20.0441 55.6716 20.8899 53.7064 22.5813 52.5956C24.442 51.3139 26.8946 51.1431 29.601 52.0829C34.9292 54.0482 39.3271 59.8584 39.3271 64.985C39.3271 67.4629 38.3968 69.3426 36.7053 70.4534C35.4367 70.9661 34.3372 71.3079 33.0686 71.3079ZM26.218 53.2792C25.2877 53.2792 24.2728 53.5355 23.5962 54.0482C22.4968 54.8171 21.9048 56.0988 21.9048 57.8077C21.9048 61.8236 25.2877 66.6084 29.5165 68.5736C31.8845 69.6844 33.9989 69.6844 35.4367 68.7445C36.6207 67.9755 37.2127 66.6939 37.2127 64.8995C37.2127 60.5419 33.3223 55.5007 28.7553 53.7918C27.9095 53.45 26.9792 53.2792 26.218 53.2792Z" fill="#1E275C"/>
<path d="M37.3806 29.6112C32.6444 29.2695 16.237 39.6082 16.4907 39.6082C27.3162 39.3519 44.062 46.9564 48.4598 58.4059C52.8577 69.6845 58.6088 70.9662 58.6088 70.9662L75.7774 63.618C75.7774 63.618 69.7726 67.8047 65.8822 51.6558C64.1907 44.3076 51.6737 30.5511 37.3806 29.6112Z" fill="#FFC37D"/>
<path d="M58.6943 71.9058C58.6098 71.9058 58.6097 71.9058 58.5252 71.9058C58.2715 71.8204 52.1821 70.3678 47.6996 58.7475C43.5555 48.1524 27.5709 40.2915 16.5763 40.6333C16.1534 40.6333 15.8997 40.4624 15.7305 40.1207C15.5614 39.8643 15.5614 39.4371 15.7305 39.1808C16.1534 38.5827 22.3273 34.994 24.8645 33.5415C31.1231 30.2091 35.3518 28.5003 37.4661 28.6712C52.5204 29.611 65.0374 43.8802 66.898 51.3138C69.0124 60.1146 71.6342 62.3361 73.1566 62.9342C73.8332 63.1906 74.3406 63.1051 74.848 63.0197L75.6938 62.5924C76.2012 62.4216 76.6241 62.5924 76.8778 63.0197C77.1316 63.4469 76.9624 63.9595 76.6241 64.3013C76.6241 64.3013 76.1167 64.5577 75.4401 64.814L59.1172 71.8204C58.8635 71.9058 58.7789 71.9058 58.6943 71.9058ZM19.6209 38.839C24.6108 39.3517 30.1927 41.0605 35.3518 43.8802C42.2869 47.6397 47.2768 52.6809 49.4757 58.1494C53.1124 67.3773 57.5103 69.5989 58.6943 70.0261L71.7188 64.3868C69.0124 62.8488 66.7289 58.5766 65.122 51.8265C63.4305 45.0764 51.4209 31.5763 37.3816 30.6364C34.1677 30.38 24.2725 36.0193 19.6209 38.839Z" fill="#1E275C"/>
<path d="M23.0879 63.3615C22.665 63.3615 22.4113 63.1907 22.2422 62.7634C22.073 62.2508 22.2422 61.6527 22.7496 61.4818L34.3363 56.0988C34.8438 55.9279 35.4358 56.0988 35.6049 56.6115C35.7741 57.1241 35.6049 57.7222 35.0975 57.8931L23.5108 63.2761C23.4262 63.2761 23.1725 63.3615 23.0879 63.3615Z" fill="#1E275C"/>
<path d="M25.4568 66.3518C25.0339 66.3518 24.7802 66.1809 24.6111 65.7537C24.4419 65.241 24.6111 64.6429 25.1185 64.472L36.6206 59.089C37.1281 58.9182 37.7201 59.089 37.8893 59.6017C38.0584 60.1144 37.8893 60.7125 37.3818 60.8834L25.7951 66.2663C25.7105 66.3518 25.5414 66.3518 25.4568 66.3518Z" fill="#1E275C"/>
<path d="M27.7401 69.0858C27.3173 69.0858 27.0635 68.9149 26.8944 68.4877C26.7252 67.9751 26.8944 67.3769 27.4018 67.2061L37.8045 62.5921C38.3119 62.4212 38.904 62.5921 39.0731 63.1047C39.2423 63.6174 39.0731 64.2155 38.5657 64.3864L28.163 69.0004C28.0784 69.0858 27.9093 69.0858 27.7401 69.0858Z" fill="#1E275C"/>
<path d="M21.2273 60.2003C20.8045 60.2003 20.5508 60.0294 20.3816 59.6022C20.2125 59.0895 20.3816 58.4914 20.8891 58.3205L31.5454 53.2793C32.0529 53.1084 32.6449 53.2793 32.814 53.792C32.9832 54.3046 32.8141 54.9028 32.3066 55.0736L21.6502 60.1148C21.5656 60.1148 21.3965 60.2003 21.2273 60.2003Z" fill="#1E275C"/>
</svg>
